<svg width="77" height="105" viewBox="0 0 77 105" fill="none" xmlns="http://www.w3.org/2000/svg">
<g clip-path="url(#clip0_5410_6588)">
<path d="M60.9697 52.4873L38.0736 46.4224L38.5284 61.7369H59.1502L60.9697 52.4873Z" fill="white"/>
<path d="M38.0242 62.2563H59.5777L61.5737 52.1097L37.5337 45.7415L38.0242 62.2563ZM58.7228 61.2171H39.0332L38.6139 47.1029L60.3659 52.865L58.7228 61.2171Z" fill="#150B3A"/>
<path d="M52.7214 52.1926C51.4509 52.0287 50.7189 54.3593 51.8938 55.1318L52.7214 52.1926Z" fill="#98B8C0"/>
<g opacity="0.55">
<path d="M51.7491 55.0197C51.1881 54.1428 51.7158 52.6133 52.6494 52.4525L52.7225 52.1927C51.5084 52.0358 50.7861 54.1563 51.7491 55.0197Z" fill="white"/>
</g>
<path d="M51.935 55.2776C51.9688 55.268 51.9995 55.2467 52.0203 55.215C52.0662 55.1452 52.0468 55.0513 51.9769 55.0054C51.3924 54.621 51.3605 53.8139 51.5782 53.2266C51.7461 52.7737 52.1412 52.2706 52.7021 52.3428C52.7852 52.3535 52.8609 52.2949 52.8717 52.2121C52.8824 52.1291 52.8238 52.0532 52.7409 52.0425C52.1339 51.9642 51.5663 52.3877 51.2943 53.1213C51.0363 53.8174 51.0878 54.7831 51.8106 55.2585C51.8488 55.2836 51.8942 55.2892 51.935 55.2776L51.935 55.2776Z" fill="#150B3A"/>
<g opacity="0.71">
<path d="M55.5513 57.8989C55.6119 57.8818 55.6577 57.8278 55.6613 57.7614C55.6659 57.6779 55.602 57.6065 55.5184 57.6019L54.4591 57.544C54.3754 57.5393 54.3042 57.6034 54.2996 57.6869C54.295 57.7704 54.359 57.8418 54.4426 57.8464L55.5019 57.9043C55.519 57.9053 55.5356 57.9033 55.5512 57.8989L55.5513 57.8989Z" fill="white"/>
</g>
<path d="M40.8497 55.8011C39.4871 62.2877 41.785 62.7374 42.0789 63.0848C42.8811 64.0345 44.0368 64.6149 45.2751 64.7268L45.7102 64.7661L58.0758 65.0513C58.8262 65.1192 59.5841 65.0524 60.3061 64.8373C63.7787 63.803 64.4885 61.008 64.5597 57.0272C64.5614 56.9441 64.5626 56.8607 64.5637 56.7767L64.3141 56.8691L63.2107 57.2784C63.3203 57.1555 63.4579 57.0631 63.6182 57.0179C63.6641 57.005 63.7122 56.9957 63.762 56.9911C63.9682 56.9691 64.1429 56.9218 64.2901 56.8539C65.1028 56.4794 65.0884 55.4734 64.971 54.585C64.7483 51.9142 64.1179 50.2309 62.9392 49.2762C62.4786 48.6812 61.8769 48.717 61.212 48.6812L47.7505 47.8358C47.0187 47.7961 46.8756 47.8358 46.0888 47.9904C45.705 48.0659 45.2252 48.2206 45.2252 48.2206C45.2252 48.2206 42.2122 49.3145 40.8497 55.8011Z" fill="#4E8C9B"/>
<g opacity="0.55">
<path d="M44.3195 49.0092L44.803 49.0612C45.2527 48.6322 45.8668 48.407 46.4967 48.4412L61.4246 49.2704C62.0896 49.3062 62.7304 49.545 63.2481 49.9645C63.6249 50.27 63.9355 50.6178 64.1899 51.0372C63.902 50.4435 63.3277 49.4955 62.8438 49.1034C62.3262 48.6839 61.8776 48.717 61.2126 48.6812L46.2926 48.0662C45.5608 48.0264 44.8499 48.3368 44.394 48.9107C44.3691 48.9425 44.3441 48.9751 44.3195 49.0092Z" fill="white"/>
</g>
<path d="M60.5594 61.3089C60.6777 61.2756 60.7978 61.2352 60.9196 61.1878C62.03 60.7555 62.3903 59.7592 62.9871 58.1085C63.0347 57.977 63.0838 57.8411 63.135 57.7009C63.2528 57.3781 63.4927 57.1691 63.7769 57.142C64.2437 57.0922 64.5984 56.916 64.8331 56.6177C65.2572 56.0785 65.2106 55.2402 65.122 54.5689C64.8941 51.8398 63.9727 49.6905 62.7552 48.7042C62.2149 48.2665 53.0717 48.0915 52.3619 48.0533L46.3195 47.7614C45.2732 47.6321 44.1128 48.6593 43.6308 49.2665C43.5788 49.332 43.5288 49.4008 43.4823 49.4709C43.4361 49.5406 43.4551 49.6346 43.5248 49.6808C43.5945 49.727 43.6885 49.708 43.7346 49.6383C43.7763 49.5754 43.8212 49.5136 43.8679 49.4547C44.2889 48.9244 45.4391 48.0091 46.3031 48.0637L52.3456 48.3557C52.9912 48.3905 62.0741 48.5422 62.5645 48.9396C63.7094 49.867 64.6007 51.9601 64.8206 54.5978C64.8208 54.6003 64.8211 54.6026 64.8214 54.6051C64.9025 55.218 64.9501 55.9793 64.5951 56.4305C64.4102 56.6654 64.1326 56.7996 63.7465 56.8408C63.3449 56.8793 63.0094 57.1619 62.8506 57.5971C62.7993 57.7377 62.75 57.8739 62.7024 58.0056C62.1154 59.6291 61.7921 60.5233 60.8098 60.9057C60.1612 61.1579 60.4771 61.1941 60.0556 61.0072C59.7775 60.8839 59.5766 60.6644 59.4583 60.3548C59.4285 60.2767 59.3409 60.2372 59.2629 60.2675C59.1847 60.2973 59.1456 60.3848 59.1755 60.4629C59.3236 60.8505 59.5784 61.1269 59.9329 61.2841C60.3453 61.4669 59.9747 61.474 60.5594 61.309L60.5594 61.3089Z" fill="#150B3A"/>
<ellipse cx="44.9089" cy="55.9232" rx="4.44277" ry="7.30554" transform="rotate(12.84 44.9089 55.9232)" fill="#4E8C9B"/>
<path d="M60.2689 65.006C60.2959 64.9984 60.3228 64.9906 60.3496 64.9826C63.9194 63.9193 64.6667 61.0551 64.7155 56.7784C64.7164 56.6948 64.6494 56.6263 64.5658 56.6254C64.4822 56.6243 64.4136 56.6915 64.4127 56.7751C64.3655 60.914 63.6549 63.6822 60.2633 64.6924C59.572 64.8992 49.6286 64.9685 48.8782 64.9007L44.8668 64.3843C43.644 64.2738 42.5451 63.7095 41.7727 62.7954C41.4696 62.4368 41.4477 62.3779 41.3289 62.0148C41.3029 61.9353 41.2167 61.8936 41.1379 61.9179C41.0584 61.9439 41.0151 62.0295 41.041 62.109C41.172 62.5094 41.213 62.6024 41.5413 62.991C42.3655 63.9663 43.5368 64.5683 44.8395 64.6861L48.8508 65.2024C49.6107 65.2711 59.5642 65.2051 60.2689 65.0062L60.2689 65.006Z" fill="#150B3A"/>
<g opacity="0.3">
<path d="M63.2818 53.591L63.2826 53.5908L63.2817 53.588C63.2819 53.5887 63.2821 53.5894 63.2818 53.591Z" fill="#150B3A"/>
</g>
<g opacity="0.3">
<path d="M63.2818 53.591L63.2826 53.5908L63.2817 53.588C63.2819 53.5887 63.2821 53.5894 63.2818 53.591Z" fill="#150B3A"/>
</g>
<g opacity="0.3">
<path d="M43.4938 64.1474C43.6011 64.1777 44.9014 64.5444 45.0145 64.5742L48.1684 64.8594C48.9187 64.9273 59.8863 65.0524 60.6083 64.8373C64.0809 63.803 64.7907 61.008 64.8618 57.0272L64.6163 56.8691L64.5923 56.8539L63.722 57.0621C63.722 57.0621 63.2821 56.7229 62.8251 57.4615C62.8251 57.4615 62.1333 60.0167 61.139 60.3956C60.1446 60.7746 59.5127 60.4018 59.7273 58.9516L59.4109 60.4635L59.4862 60.7302C59.4862 60.7302 60.9001 62.5457 62.9555 60.5607C62.9555 60.5607 63.0752 63.1075 60.5144 63.8789C60.5144 63.8789 60.8997 63.8868 59.7528 63.3027C59.7528 63.3027 55.9439 60.6864 55.5749 60.0299L40.6281 59.7131C40.6281 59.7131 40.6713 63.3443 43.4938 64.1474Z" fill="#150B3A"/>
</g>
<path d="M28.754 102.581C30.1926 103.429 32.6278 104.165 36.0739 104.162C40.893 104.159 44.8265 103.943 44.7858 100.56C44.7538 97.8743 40.0074 96.6638 40.0074 96.6638C42.1222 89.1246 42.6139 82.5975 42.4483 76.6791C42.3916 74.6922 42.2622 72.7734 42.0948 70.907L25.9918 73.8195C27.0436 78.0462 27.4319 82.152 27.5438 85.8819C27.8086 94.6189 26.5574 101.287 28.754 102.581V102.581Z" fill="white"/>
<g opacity="0.25">
<path d="M25.9909 73.8192C26.0606 74.0988 26.1275 74.3769 26.1903 74.6551C26.218 74.7715 26.244 74.8879 26.2687 75.0041C26.3037 75.1588 26.3372 75.3136 26.3692 75.4683C26.4129 75.6725 26.4548 75.8756 26.4943 76.0771C26.5073 76.1422 26.5206 76.2077 26.532 76.2728C26.5583 76.4092 26.5845 76.544 26.6093 76.6788C26.6443 76.8677 26.679 77.0562 26.7112 77.245C26.7329 77.3672 26.7535 77.4891 26.7737 77.6112C26.8596 78.1322 26.9381 78.6501 27.0077 79.1653C27.0515 79.4833 27.0907 79.7997 27.1284 80.1149C27.1489 80.2839 27.1676 80.4513 27.1866 80.6187C27.2026 80.7635 27.2186 80.9083 27.2319 81.0531C27.2566 81.2902 27.2798 81.5258 27.3004 81.7614C27.3148 81.9218 27.3293 82.082 27.3426 82.241C27.3616 82.4666 27.3776 82.6922 27.3951 82.9167C27.4053 83.06 27.4156 83.202 27.4228 83.3438C27.4331 83.4786 27.4403 83.612 27.4491 83.7456C27.4635 83.9785 27.4753 84.2111 27.4868 84.4409C27.4868 84.4566 27.4883 84.472 27.4898 84.4877C27.5115 84.9573 27.5305 85.4231 27.5435 85.8813C27.8083 94.6183 26.5571 101.286 28.7537 102.58C30.1923 103.429 32.6275 104.164 36.0736 104.161C39.9241 104.159 43.21 104.021 44.3521 102.24C42.7548 102.811 40.436 102.874 37.8645 102.875C34.4184 102.877 31.982 102.141 30.5434 101.294C29.0261 100.4 29.1543 96.9416 29.2915 92.0084C29.3851 88.6507 31.4785 85.6255 34.6724 84.3721C38.519 82.863 41.5476 80.2694 42.448 76.6785C42.3913 74.6916 42.2619 72.7728 42.0945 70.9065L28.002 73.4554L25.9918 73.8186L25.9909 73.8192Z" fill="#150B3A"/>
</g>
<path d="M36.0613 104.682H36.074C39.7282 104.68 42.8762 104.554 44.3875 103.023C45.0086 102.395 45.3172 101.564 45.3048 100.553C45.2744 98.0484 41.9478 96.7308 40.6443 96.3106C43.4599 85.9857 43.2225 77.6598 42.6117 70.8606C42.586 70.5747 42.3342 70.3644 42.0476 70.3894C41.7619 70.4151 41.5511 70.6676 41.5764 70.9535C42.1882 77.7666 42.421 86.1326 39.5068 96.5238L39.3629 97.0363L39.8787 97.1679C41.0908 97.4786 44.2424 98.6945 44.2653 100.566C44.2744 101.298 44.0723 101.863 43.6479 102.293C42.4201 103.536 39.3644 103.641 36.0734 103.642H36.061C32.1601 103.642 29.9734 102.697 29.0166 102.133C27.7937 101.413 27.8899 97.9657 28.0118 93.6014C28.1581 88.3618 28.3584 81.1858 26.496 73.694C26.4269 73.4156 26.1446 73.2458 25.8665 73.3152C25.588 73.3842 25.4182 73.6663 25.4876 73.945C27.3159 81.2989 27.118 88.3928 26.9732 93.5725C26.8314 98.6456 26.7379 101.997 28.4893 103.029C29.5372 103.646 31.9143 104.682 36.0616 104.682L36.0613 104.682Z" fill="#150B3A"/>
<path d="M32.8264 90.4999C35.3029 90.4999 38.4838 89.9804 42.0672 88.1784C42.2852 88.0686 42.373 87.8028 42.2632 87.5847C42.1534 87.3666 41.8877 87.2788 41.6696 87.3883C33.7868 91.3529 27.822 88.7627 27.7626 88.7358C27.54 88.636 27.2784 88.7352 27.1783 88.9572C27.0781 89.1795 27.1765 89.4411 27.3985 89.5415C27.5442 89.6076 29.5803 90.4996 32.8261 90.4996L32.8264 90.4999Z" fill="#150B3A"/>
<path d="M40.1666 96.1697C37.6629 95.6548 34.9957 96.024 32.6829 97.0795L32.2317 97.2894C33.4706 96.8653 34.7845 96.6152 36.0916 96.5995C37.3637 96.5823 38.6499 96.738 39.848 97.1588C40.54 97.4053 40.8752 96.3748 40.1663 96.1694L40.1666 96.1697Z" fill="#150B3A"/>
<g opacity="0.35">
<path d="M29.4058 83.259C29.381 82.8331 29.3506 82.3933 29.3126 81.9378C29.3491 82.3933 29.381 82.8331 29.4058 83.259Z" fill="#150B3A"/>
</g>
<g opacity="0.35">
<path d="M29.2808 81.5674C29.259 81.3191 29.2358 81.0657 29.2096 80.8084C29.2343 81.0657 29.259 81.3191 29.2808 81.5674Z" fill="#150B3A"/>
</g>
<g opacity="0.35">
<path d="M29.0791 79.6187C29.0513 79.3819 29.0209 79.1403 28.9889 78.8957C29.0209 79.14 29.0501 79.3819 29.0791 79.6187Z" fill="#150B3A"/>
</g>
<g opacity="0.35">
<path d="M28.9741 78.7826C28.9376 78.5048 28.8984 78.2242 28.8577 77.9373C28.8984 78.2242 28.9376 78.506 28.9741 78.7826Z" fill="#150B3A"/>
</g>
<path d="M13.7861 76.2583C13.1415 75.1872 12.7339 73.9619 12.6232 72.5791C12.4712 70.7119 12.4989 68.4887 12.6682 66.1355C12.7372 65.1684 12.8304 64.1796 12.9463 63.1836C13.2573 60.4591 13.7324 57.689 14.3182 55.2013C14.3459 55.0837 14.3734 54.9675 14.403 54.8514C14.764 53.351 15.1649 51.9604 15.5969 50.7535C15.8216 50.1239 16.0548 49.5433 16.2931 49.0223C17.2071 47.0314 35.5001 44.5452 38.529 50.717C38.6068 51.0057 38.6792 51.2901 38.7483 51.5713C38.8053 51.7975 38.859 52.0204 38.9105 52.2436C39.1111 53.0931 39.2837 53.9214 39.4514 54.7618C39.7331 56.1491 40.0007 57.5672 40.3603 59.1671C40.7871 61.0663 41.3159 62.9564 41.7995 64.8267C42.2848 66.6984 42.7273 68.5503 42.9831 70.3746C44.749 83.0186 19.6155 85.9675 13.7858 76.2589L13.7861 76.2583Z" fill="white"/>
<path d="M34.6741 55.9951C33.8229 56.8443 33.7448 58.179 34.4398 59.1164L33.7266 59.8305C33.5887 59.9682 33.5887 60.1941 33.7266 60.3343C33.8646 60.4719 34.091 60.4719 34.229 60.3343L34.9422 59.6202C35.8792 60.3135 37.2146 60.2356 38.0657 59.3865C39.0002 58.4517 39.0002 56.93 38.0657 55.9951C37.1313 55.0603 35.6085 55.0603 34.6741 55.9951ZM37.5633 58.8827C36.9907 59.454 36.1083 59.5293 35.455 59.1086L35.7387 58.8256C35.8766 58.688 35.8766 58.462 35.7387 58.3218C35.6007 58.1842 35.3743 58.1842 35.2363 58.3218L34.9552 58.6049C34.5335 57.9531 34.609 57.0702 35.1791 56.4989C35.8376 55.8419 36.9074 55.8419 37.566 56.4989C38.2219 57.1559 38.2219 58.2257 37.5633 58.8827ZM35.4003 60.542C35.5383 60.6797 35.5383 60.9056 35.4003 61.0458L33.8906 62.5545C33.7526 62.6921 33.5262 62.6921 33.3882 62.5545C33.2503 62.4169 33.2503 62.191 33.3882 62.0507L34.8979 60.542C35.0359 60.4044 35.2597 60.4044 35.4003 60.542ZM31.5063 60.6719C31.3683 60.5342 31.3683 60.3083 31.5063 60.1681L33.016 58.6594C33.154 58.5218 33.3804 58.5218 33.5184 58.6594C33.6563 58.797 33.6563 59.0229 33.5184 59.1632L32.0087 60.6719C31.8707 60.8095 31.6443 60.8095 31.5063 60.6719Z" fill="#150B3A"/>
<g opacity="0.35">
<path d="M12.5323 70.0507C12.5377 70.3472 12.5446 70.6383 12.5558 70.9236C12.56 71.0856 12.567 71.2452 12.5751 71.4033C12.5875 71.6986 12.6041 71.9867 12.6249 72.2681C12.6249 72.275 12.6264 72.282 12.6264 72.2889C12.6333 72.3791 12.6403 72.469 12.6499 72.5592V72.5646C12.6553 72.6213 12.6611 72.6768 12.668 72.7338C12.6792 72.8322 12.6915 72.9278 12.7039 73.0234C12.7383 73.2702 12.7811 73.5127 12.8309 73.7495C13.0231 73.8077 13.2951 73.8783 13.6641 73.9492C13.0921 72.7933 12.7286 71.4838 12.6252 70.019C12.5989 69.6504 12.5781 69.2706 12.563 68.88C12.5534 68.622 12.5449 68.3602 12.5395 68.0927C12.5341 68.3545 12.5299 68.6151 12.5283 68.8715C12.5256 69.2721 12.5268 69.6658 12.5326 70.051L12.5323 70.0507Z" fill="#150B3A"/>
</g>
<path d="M38.6839 50.6407C36.8647 45.9289 28.1548 46.0462 23.9486 46.4308C22.2337 46.5901 16.509 47.2269 15.7989 48.8576C13.1592 54.8185 11.349 67.1391 12.2382 73.5933C12.3646 74.3435 12.6235 75.0834 12.9375 75.7766C13.0078 75.9178 13.1565 76.1944 13.2271 76.3335C13.2913 76.449 13.4901 76.7552 13.5553 76.8677C13.6382 76.9932 13.8346 77.2526 13.919 77.3769C13.9993 77.4855 14.2352 77.7548 14.3154 77.8595C14.411 77.9672 14.643 78.2064 14.7407 78.3144C14.9103 78.4728 15.17 78.7298 15.3498 78.8743C21.225 83.7966 32.3442 83.5154 38.6836 79.5871C41.5481 77.8568 43.7155 74.8943 43.5836 71.4356C43.5704 70.8962 43.5097 70.3243 43.4211 69.8009C43.1698 68.229 42.8214 66.6755 42.45 65.1302C41.9312 63.0819 41.3502 61.082 40.5291 59.1285C40.4908 59.0389 40.3874 58.9976 40.2978 59.0359C40.229 59.0652 40.1886 59.1339 40.191 59.2045C40.2311 60.2748 40.4121 61.3197 40.6275 62.3498C41.2456 65.2692 42.2606 68.1056 42.5324 71.0865C42.7372 73.7703 41.4422 76.1865 39.3648 77.8336C33.8391 82.1903 23.5966 82.7245 17.5527 79.1762C15.0339 77.7391 13.2249 75.1989 13.1257 72.2901C13.088 71.6962 13.0515 70.9565 13.0515 70.3556C13.0222 67.7578 13.2283 65.1618 13.5441 62.5785C14.0789 58.4733 14.8481 54.3262 16.2689 50.4407C16.3884 50.0965 16.5724 49.7149 16.7069 49.3774L16.744 49.2893L16.7627 49.2452C16.7678 49.2341 16.7672 49.2416 16.7687 49.2386C17.0384 48.9508 17.5817 48.7448 17.9922 48.5967C18.937 48.2697 19.9493 48.0462 20.9626 47.8658C25.5992 47.0951 31.7897 46.9436 36.1036 48.9261C37.001 49.3641 37.7992 49.9605 38.3726 50.7939C38.4803 50.9665 38.7518 50.8277 38.6836 50.6413L38.6839 50.6407Z" fill="#150B3A"/>
<g opacity="0.35">
<path d="M12.5323 70.0507C12.5377 70.3472 12.5446 70.6383 12.5558 70.9236C12.56 71.0856 12.567 71.2452 12.5751 71.4033C12.5875 71.6986 12.6041 71.9867 12.6249 72.2681C12.6249 72.275 12.6264 72.282 12.6264 72.2889C12.6333 72.3791 12.6403 72.469 12.6499 72.5592V72.5646C12.6553 72.6213 12.6611 72.6768 12.668 72.7339C12.6792 72.8322 12.6915 72.9278 12.7039 73.0234C12.7383 73.2702 12.7811 73.5127 12.8309 73.7495C13.0231 73.8077 13.2951 73.8783 13.6641 73.9492C13.0921 72.7933 12.7286 71.4838 12.6252 70.019C12.5989 69.6504 12.5781 69.2706 12.563 68.88C12.5519 68.8772 12.5395 68.8745 12.5283 68.8715H12.5268C12.5241 69.2721 12.5268 69.6658 12.5323 70.051V70.0507Z" fill="#150B3A"/>
</g>
<path d="M41.0269 74.4831C40.8679 74.5263 40.7035 74.5525 40.5315 74.5619L28.1216 75.3024C27.0454 75.3661 26.0734 74.7758 25.5971 73.8723C25.4234 73.5444 25.3151 73.1749 25.2925 72.7812L25.1169 69.8383L25.059 68.8673L24.8982 66.1567C24.8104 64.6813 25.9428 63.405 27.4116 63.317L30.0932 63.1577C28.8712 63.4651 27.9947 64.6141 28.0713 65.919L28.2824 69.4975L28.4637 72.5453C28.5515 74.0186 29.826 75.1546 31.2947 75.0665L41.0269 74.4835V74.4831Z" fill="white"/>
<path d="M11.3915 69.178C11.4525 71.0123 13.2648 71.7122 13.2648 71.7122C13.2648 71.7122 15.7721 73.0165 26.1163 72.0778C26.1163 72.0778 29.0414 69.0745 25.4146 67.2333C25.4146 67.2333 18.21 68.3005 13.4156 66.9907C12.5511 66.7546 11.3369 67.5391 11.3912 69.178H11.3915Z" fill="white"/>
<path d="M26.7556 81.2332C26.787 80.803 25.8923 92.2295 24.8628 99.2209C24.124 104.238 19.4141 104.759 11.8818 104.239C9.10967 104.048 6.98575 103.241 7.20022 101.103C7.488 98.2303 11.7968 97.1425 11.7968 97.1425C11.7968 97.1425 12.8691 85.3308 13.7153 73.0681L27.5815 78.3599L26.7556 81.2332Z" fill="white"/>
<path d="M15.9302 104.928C20.8031 104.928 24.6974 103.908 25.3764 99.2966C26.253 93.3435 27.0409 84.1022 27.2614 81.4115L27.2714 81.292C27.2723 81.2851 27.2729 81.2778 27.2735 81.2706C27.2943 80.9852 27.0813 80.7249 26.796 80.7029C26.5818 80.6866 26.3221 80.7623 26.2434 81.1894H26.237C26.2361 81.2042 26.2358 81.2193 26.2361 81.2341C26.2316 81.2633 26.2283 81.2941 26.2256 81.3264C26.0054 84.0093 25.2202 93.2226 24.3478 99.1449C23.682 103.667 19.4653 104.242 11.9171 103.72C9.95936 103.585 8.6677 103.162 8.07737 102.463C7.78145 102.112 7.6632 101.684 7.71659 101.154C7.96424 98.6812 11.8839 97.6562 11.9237 97.646L12.28 97.5555L12.3137 97.1893C12.3246 97.071 13.336 84.0253 14.1728 71.8971C14.1924 71.6108 13.9764 71.3626 13.6902 71.343C13.4033 71.3234 13.156 71.5393 13.136 71.8256C12.381 82.7704 11.4945 94.6862 11.3108 96.7425C10.2055 97.0912 6.95432 98.3422 6.68283 101.051C6.60139 101.864 6.80349 102.565 7.28372 103.134C8.07314 104.069 9.5654 104.6 11.8459 104.757C13.2486 104.854 14.625 104.928 15.9305 104.928L15.9302 104.928Z" fill="#150B3A"/>
<path d="M21.3358 91.4787C22.8016 91.4787 24.3499 91.3315 25.9062 90.9505C26.1433 90.8923 26.2883 90.6531 26.2304 90.416C26.1725 90.1789 25.9339 90.0338 25.6959 90.0917C19.2457 91.6712 12.7044 88.9711 12.639 88.9434C12.4136 88.8489 12.1548 88.9545 12.0601 89.1795C11.9657 89.4046 12.0713 89.6637 12.2963 89.7584C12.5099 89.848 16.4618 91.4787 21.3358 91.4787Z" fill="#150B3A"/>
<path d="M11.95 97.6393C14.1035 96.9313 16.4724 96.9223 18.6711 97.4577C18.9607 97.5199 19.3432 97.6526 19.6304 97.7325C19.3495 97.6152 18.9918 97.4333 18.7106 97.334C16.8114 96.5899 14.7376 96.3006 12.7015 96.4855C12.3425 96.5244 12.001 96.5636 11.6436 96.6463C10.9371 96.8426 11.2529 97.8755 11.9504 97.6393H11.95Z" fill="#150B3A"/>
<g opacity="0.25">
<path d="M26.3906 81.5846C26.3906 81.7752 25.8636 92.4232 24.8619 99.2209C24.1231 104.239 19.4141 104.76 11.8818 104.239C9.10877 104.048 6.98545 103.242 7.19962 101.103C7.20505 101.053 7.21048 101.005 7.21862 100.956C8.07199 101.5 9.34858 101.772 10.8062 101.871C18.3384 102.392 23.0486 101.871 23.7874 96.8535C24.5533 91.6579 25.7976 84.6629 26.3743 81.5888L26.3891 81.5939C26.3891 81.59 26.3891 81.5873 26.3903 81.5846H26.3906Z" fill="#150B3A"/>
</g>
<g opacity="0.25">
<path d="M27.9939 56.2022C21.0434 56.2022 15.4088 52.2988 15.4088 47.4836C15.4088 42.6685 21.0434 38.765 27.9939 38.765C34.9445 38.765 40.5791 42.6685 40.5791 47.4836C40.5791 52.2988 34.9445 56.2022 27.9939 56.2022Z" fill="#150B3A"/>
</g>
<path d="M10.3617 57.1966C10.1237 57.9508 9.99276 58.7396 9.96365 59.5355C9.83311 63.3105 10.0878 66.8908 11.2255 70.0272C11.5446 70.9039 12.1245 71.6684 12.9065 72.179C15.7078 74.0118 18.5294 73.2703 23.4999 71.2536C24.8521 71.6586 26.1552 71.8116 27.3012 71.1479C27.7862 71.5962 28.5616 71.7611 29.3949 71.2939C29.7775 71.0784 30.0895 70.7578 30.3266 70.3872C30.7247 69.7709 31.0711 69.1374 31.348 68.4853C31.6686 67.7286 31.8228 66.9063 31.7381 66.0893C31.6769 65.5058 31.5119 64.9573 31.2167 64.448C31.203 64.4214 31.1872 64.3952 31.1716 64.3694L34.7059 63.0666C35.0759 62.9309 35.359 62.6214 35.4475 62.2389C35.5651 61.7354 35.4937 61.2541 35.1482 60.9516C34.9269 60.7579 34.6225 60.6862 34.3311 60.7277L28.8961 61.4934C29.0898 59.9027 27.0429 58.7869 25.6896 59.7135C24.4525 60.445 23.2684 61.3203 22.1287 62.3134C21.7024 62.6862 21.1201 62.8262 20.5721 62.6809C20.5528 62.6764 20.5357 62.6696 20.5189 62.6628C20.3684 62.6022 20.2616 62.466 20.2372 62.3027C19.9346 60.1415 19.3722 58.155 18.5439 56.3494L20.3866 49.736C16.429 50.5877 12.9804 52.1243 11.0181 55.6581C10.7458 56.1484 10.5267 56.6651 10.3617 57.1966Z" fill="white"/>
<path d="M20.2906 49.291C16.5098 50.0757 12.7047 51.7395 10.7253 55.2618C9.81356 56.76 9.47395 58.543 9.48884 60.2781C9.46373 61.5435 9.48354 62.8071 9.57774 64.0717C9.71909 65.9669 10.0298 67.8784 10.6325 69.7C10.9503 70.7902 11.5744 71.8124 12.5218 72.4672C12.589 72.5209 12.7352 72.6053 12.8078 72.6502C13.0726 72.8155 13.4044 72.9948 13.69 73.122C14.5056 73.4855 15.4063 73.6721 16.299 73.6764C18.8944 73.6557 21.3223 72.5842 23.6707 71.6748L23.3693 71.6892C24.6808 72.0969 26.2764 72.2945 27.5286 71.5415L26.9921 71.4818C27.7749 72.2323 29.0387 72.1514 29.8699 71.5295C30.6259 70.9843 31.0198 70.1358 31.4494 69.3449C32.3254 67.7562 32.55 65.7273 31.5597 64.1328L31.3284 64.7961C31.678 64.6649 34.5602 63.6069 34.858 63.4955C35.6416 63.2294 36.0525 62.3669 35.9394 61.5681C35.8492 60.6718 34.9994 60.1002 34.1327 60.2955C34.023 60.3103 33.6627 60.3624 33.5447 60.3783C32.5663 60.5168 29.8508 60.8985 28.8324 61.0426L29.3474 61.5478C29.5305 60.1564 28.2505 58.9735 26.918 58.9341C26.3819 58.9002 25.8227 59.0876 25.3858 59.3833L25.1588 59.5232C24.0669 60.2051 23.0344 60.9857 22.0707 61.8362L21.8661 62.0176C21.5471 62.3071 21.0852 62.4241 20.6664 62.3197C20.6347 62.3138 20.6097 62.2884 20.6013 62.2561L20.5599 62.005C20.4699 61.4623 20.3684 60.9208 20.2361 60.3864C19.8887 58.9614 19.3989 57.564 18.7031 56.2756C18.6038 56.0923 18.3064 56.2133 18.3845 56.4219C19.1066 58.3055 19.6 60.2518 19.8606 62.245C19.913 63.101 20.8217 63.2077 21.5004 63.0602C21.9156 62.972 22.2787 62.724 22.589 62.4423C23.6778 61.5403 24.8318 60.7042 26.0605 60.0081C27.0245 59.4542 28.5944 60.2518 28.4439 61.441C28.4053 61.735 28.6759 61.9918 28.9667 61.9423C29.977 61.8004 32.6876 61.4174 33.6717 61.2793L34.4316 61.1733C34.7706 61.1484 34.9957 61.3439 35.0371 61.6815C35.0838 62.0602 34.9448 62.5115 34.5436 62.6418C34.4398 62.6807 34.098 62.8056 33.9863 62.8471L31.014 63.9423C30.747 64.0372 30.634 64.3659 30.7826 64.6058C31.4795 65.7422 31.4369 67.1998 30.8918 68.3927C30.5732 69.0968 30.1941 69.8323 29.7213 70.4397C29.2189 71.0518 28.2325 71.4026 27.6042 70.8088C27.4544 70.6735 27.2385 70.6575 27.0731 70.7542C26.0307 71.3653 24.7637 71.1568 23.6298 70.8175C23.5265 70.7867 23.4213 70.7945 23.3285 70.8319C20.8752 71.7662 18.377 72.9317 15.7265 72.7361C14.7647 72.64 13.8435 72.2675 13.047 71.7248C12.2588 71.1809 11.7589 70.3244 11.4964 69.4144C10.9201 67.6704 10.6234 65.8477 10.4853 64.0043C10.3775 62.5713 10.3696 61.1158 10.4156 59.677C10.4411 58.0834 10.9322 56.5252 11.8254 55.2081C13.732 52.2677 17.1509 50.8768 20.4824 50.1804C21.0671 50.0435 20.8859 49.177 20.291 49.2909L20.2906 49.291Z" fill="#150B3A"/>
<path d="M29.3799 60.9655L26.9895 61.5557C26.807 61.5997 26.8423 61.8749 27.0287 61.8738C27.8691 61.9361 28.7186 61.9712 29.5546 61.8594C30.1747 61.7492 29.9968 60.8342 29.3799 60.9655Z" fill="#150B3A"/>
<path d="M26.6429 71.8286C27.6865 71.3939 28.3101 70.31 28.4688 69.2306L27.9817 69.5403C28.3941 69.5908 28.8279 69.6189 29.2313 69.4648C29.4198 69.3923 29.3503 69.1033 29.1513 69.1212C28.8337 69.1202 28.5124 68.9783 28.2053 68.8161C28.0452 68.7316 27.8469 68.7929 27.7624 68.953C27.7329 69.0036 27.7259 69.0697 27.7182 69.1258C27.6561 69.5495 27.5014 69.9746 27.2702 70.3313C27.0386 70.6895 26.7235 70.9743 26.3514 71.129C25.8953 71.3319 26.1762 72.0102 26.6435 71.8288L26.6429 71.8286Z" fill="#150B3A"/>
<path d="M15.0429 73.5455C15.2444 73.6265 15.4813 73.5534 15.5991 73.3621C15.731 73.1482 15.6646 72.8679 15.451 72.7362C13.8885 71.7723 13.3648 69.9233 14.0489 67.7905C14.8421 65.3186 17.3125 62.8026 20.3289 63.0085C20.5795 63.0257 20.7964 62.8363 20.8136 62.5857C20.8309 62.3351 20.6417 62.1183 20.3908 62.1009C16.8758 61.861 14.1041 64.6417 13.1826 67.5127C12.3742 70.0321 13.0603 72.3303 14.973 73.5106C14.9954 73.5245 15.019 73.5362 15.0428 73.5458L15.0429 73.5455Z" fill="#150B3A"/>
<g opacity="0.25">
<path d="M10.3614 57.1966C10.1235 57.9508 9.99253 58.7396 9.96342 59.5355C9.83288 63.3105 10.0875 66.8908 11.2253 70.0272C11.5444 70.9039 12.1242 71.6684 12.9063 72.179C15.7076 74.0118 18.5292 73.2702 23.4997 71.2536C24.8519 71.6586 26.1549 71.8116 27.301 71.1479C27.7859 71.5962 28.5614 71.7611 29.3947 71.2939C29.7772 71.0784 30.0892 70.7577 30.3264 70.3872C30.7244 69.7709 31.0709 69.1374 31.3478 68.4853C31.6684 67.7286 31.8226 66.9063 31.7379 66.0893C31.6767 65.5058 31.5117 64.9572 31.2164 64.448C31.1349 64.3743 31.0507 64.303 30.9658 64.2344C30.9821 65.6693 30.052 67.2827 28.6179 67.3253C28.3023 67.334 27.9892 67.2669 27.6737 67.2512C27.1233 67.2259 26.5796 67.3587 26.0454 67.4921C24.5297 67.868 23.0136 68.2437 21.4979 68.6196C19.1559 69.201 16.5433 69.7518 14.4356 68.5722C13.7042 68.1636 13.0919 67.5695 12.5622 66.9198C10.3721 64.2381 9.56931 60.4798 10.4722 57.1378L10.3621 57.1965L10.3614 57.1966Z" fill="#150B3A"/>
</g>
<mask id="path-43-outside-1_5410_6588" maskUnits="userSpaceOnUse" x="39.1294" y="47.6833" width="9" height="15" fill="black">
<rect fill="white" x="39.1294" y="47.6833" width="9" height="15"/>
<path fill-rule="evenodd" clip-rule="evenodd" d="M46.2178 50.5026C44.8502 51.1321 43.6081 52.9353 43.1102 55.2557C42.5959 57.6528 43.0225 59.918 44.0705 61.0852C43.5625 61.319 43.0373 61.3909 42.5264 61.2672C40.6401 60.8105 39.6645 57.8604 40.3473 54.6781C41.03 51.4958 43.1127 49.2863 44.999 49.743C45.4644 49.8557 45.8745 50.1203 46.2178 50.5026Z"/>
</mask>
<path fill-rule="evenodd" clip-rule="evenodd" d="M46.2178 50.5026C44.8502 51.1321 43.6081 52.9353 43.1102 55.2557C42.5959 57.6528 43.0225 59.918 44.0705 61.0852C43.5625 61.319 43.0373 61.3909 42.5264 61.2672C40.6401 60.8105 39.6645 57.8604 40.3473 54.6781C41.03 51.4958 43.1127 49.2863 44.999 49.743C45.4644 49.8557 45.8745 50.1203 46.2178 50.5026Z" fill="#4E8C9B"/>
<path d="M43.1102 55.2557L42.1324 55.0459L43.1102 55.2557ZM46.2178 50.5026L46.6359 51.411L47.8681 50.8438L46.9618 49.8345L46.2178 50.5026ZM44.0705 61.0852L44.4886 61.9936L45.7209 61.4264L44.8146 60.4171L44.0705 61.0852ZM42.5264 61.2672L42.291 62.2391H42.291L42.5264 61.2672ZM44.999 49.743L44.7637 50.715L44.999 49.743ZM44.0879 55.4655C44.5502 53.3109 45.6648 51.858 46.6359 51.411L45.7996 49.5942C44.0355 50.4062 42.6659 52.5597 42.1324 55.0459L44.0879 55.4655ZM44.8146 60.4171C44.0629 59.5799 43.6099 57.6933 44.0879 55.4655L42.1324 55.0459C41.5818 57.6122 41.9822 60.2561 43.3265 61.7533L44.8146 60.4171ZM43.6524 60.1768C43.3155 60.3319 43.0206 60.3579 42.7617 60.2953L42.291 62.2391C43.054 62.4238 43.8096 62.3061 44.4886 61.9936L43.6524 60.1768ZM42.7617 60.2953C42.2903 60.1811 41.7615 59.7049 41.4228 58.6808C41.0927 57.6825 41.0149 56.333 41.325 54.8879L39.3695 54.4683C38.9968 56.2056 39.0654 57.9222 39.524 59.3087C39.974 60.6694 40.8761 61.8965 42.291 62.2391L42.7617 60.2953ZM41.325 54.8879C41.6353 53.4419 42.2545 52.2692 42.9495 51.5319C43.6589 50.7792 44.3056 50.6041 44.7637 50.715L45.2343 48.7711C43.8061 48.4253 42.4683 49.1265 41.4941 50.16C40.5055 51.2089 39.742 52.7321 39.3695 54.4683L41.325 54.8879ZM44.7637 50.715C45.0028 50.7729 45.2432 50.914 45.4737 51.1707L46.9618 49.8345C46.5057 49.3265 45.9261 48.9386 45.2343 48.7711L44.7637 50.715Z" fill="#150B3A" mask="url(#path-43-outside-1_5410_6588)"/>
<path d="M24.1197 53.187C38.6275 54.985 51.846 44.6816 53.644 30.1737C55.442 15.6658 45.1385 2.44729 30.6307 0.649327C16.1228 -1.14863 2.90428 9.15479 1.10632 23.6627C-0.691644 38.1706 9.61178 51.3891 24.1197 53.187Z" fill="url(#paint0_linear_5410_6588)"/>
<path fill-rule="evenodd" clip-rule="evenodd" d="M30.5763 1.09398C16.3139 -0.673555 3.31906 9.45553 1.55152 23.7179C-0.216015 37.9803 9.91307 50.9752 24.1755 52.7427C38.4379 54.5103 51.4327 44.3812 53.2003 30.1188C54.9678 15.8564 44.8387 2.86152 30.5763 1.09398ZM0.662562 23.6078C2.49095 8.8544 15.9331 -1.62336 30.6865 0.205022C45.4398 2.03341 55.9176 15.4756 54.0892 30.2289C52.2608 44.9823 38.8187 55.4601 24.0653 53.6317C9.31194 51.8033 -1.16582 38.3611 0.662562 23.6078Z" fill="#150B3A"/>
<path d="M40.9278 17.4654C45.8137 14.8215 48.624 14.2371 49.0187 14.4515C49.4133 14.6659 53.0435 25.9171 48.9177 32.8674C45.6662 38.3465 43.7711 37.6152 42.4675 37.6943C41.9213 37.7319 41.386 37.5603 40.8858 37.3479C39.4444 36.7179 38.2267 35.6193 37.4475 34.259C36.7054 32.9636 36.3538 31.4307 35.3953 30.304C33.6877 28.3022 32.1946 27.726 33.5309 25.3191C34.5991 23.3755 36.4139 19.8997 40.9278 17.4654Z" fill="url(#paint1_linear_5410_6588)"/>
<path fill-rule="evenodd" clip-rule="evenodd" d="M46.7752 15.2408C45.4376 15.6824 43.5339 16.4798 41.1062 17.7935L41.1057 17.7938C36.8151 20.1076 35.0223 23.377 33.9474 25.3371C33.9173 25.3921 33.8877 25.4459 33.8587 25.4987L33.8579 25.5001C33.5394 26.0738 33.4092 26.5043 33.3918 26.8504C33.375 27.1867 33.463 27.474 33.6419 27.7704C33.8275 28.0778 34.1049 28.3856 34.4653 28.76C34.5315 28.8288 34.6003 28.8996 34.6712 28.9725C34.9782 29.2885 35.3255 29.646 35.68 30.0616L35.6803 30.062C36.197 30.6692 36.5423 31.3767 36.8452 32.0683C36.9169 32.2319 36.9859 32.3938 37.054 32.5537C37.2802 33.0843 37.4972 33.5934 37.7721 34.0733C38.5115 35.364 39.6676 36.4072 41.0342 37.0049C41.5196 37.2109 41.9874 37.3531 42.4427 37.3218L42.4442 37.3217L42.4457 37.3216C42.6298 37.3104 42.8084 37.3119 42.9875 37.3135C43.5321 37.3181 44.0808 37.3228 44.7985 36.9706C45.746 36.5056 46.9865 35.3915 48.5975 32.6767L48.5975 32.6767C50.5968 29.3088 50.7316 24.8602 50.2935 21.1774C50.0754 19.344 49.7176 17.719 49.3907 16.5417C49.2272 15.9527 49.0725 15.4796 48.9484 15.1509C48.8867 14.9872 48.8347 14.8652 48.795 14.7844C48.7849 14.7841 48.7735 14.784 48.7607 14.7841C48.6633 14.7845 48.5233 14.7971 48.3372 14.8281C47.9665 14.89 47.4449 15.0198 46.7752 15.2408ZM48.757 14.0376C48.8898 14.0369 49.0596 14.0484 49.1976 14.1233C49.2588 14.1566 49.2994 14.1991 49.3194 14.2216C49.3428 14.248 49.3621 14.2749 49.3772 14.2979C49.4075 14.3438 49.4364 14.3973 49.4634 14.4521C49.5182 14.5631 49.5802 14.7108 49.6468 14.8873C49.7807 15.2421 49.9421 15.7374 50.11 16.342C50.4459 17.5518 50.8117 19.2142 51.0347 21.0892C51.4789 24.8231 51.366 29.4753 49.2394 33.0577C47.599 35.822 46.2661 37.0818 45.1274 37.6407C44.2338 38.0792 43.4577 38.0698 42.895 38.063C42.745 38.0612 42.6102 38.0595 42.4924 38.0666C41.8563 38.11 41.2546 37.9095 40.7406 37.6912L40.7389 37.6905L40.7371 37.6897C39.2218 37.0274 37.9431 35.8736 37.1244 34.4444C36.8255 33.9225 36.5853 33.3587 36.3562 32.8207C36.2907 32.6671 36.2262 32.5156 36.1615 32.3678C35.8635 31.6876 35.5538 31.0653 35.112 30.546C34.7748 30.1506 34.4478 29.814 34.1418 29.499C34.0692 29.4242 33.9977 29.3506 33.9275 29.2777C33.5695 28.9058 33.2369 28.5438 33.0029 28.1562C32.7621 27.7574 32.6206 27.3243 32.6463 26.813C32.6714 26.3119 32.8555 25.7679 33.2049 25.1385C33.2352 25.0834 33.2661 25.0271 33.2976 24.9695C34.3836 22.9886 36.2653 19.5561 40.7512 17.1369C43.2092 15.8068 45.1536 14.99 46.5412 14.532C47.2342 14.3032 47.7945 14.1619 48.2144 14.0918C48.4237 14.0569 48.6061 14.0384 48.757 14.0376Z" fill="#150B3A"/>
<path d="M42.9622 34.3108C42.356 33.7392 41.1054 31.3277 39.3598 30.1185C37.6141 28.9093 36.2384 29.0848 36.2607 27.3274C36.2829 25.5701 37.6974 23.6242 40.2766 21.5068C42.8557 19.3894 46.0192 18.262 46.2013 18.8562C46.3834 19.4505 47.3097 23.3863 46.4457 27.687C45.6114 31.9914 43.5664 34.8971 42.9622 34.3108Z" fill="#5C13A1"/>
<path d="M43.3363 34.3268C43.3363 34.3268 41.6922 31.0842 40.0003 29.9268C38.3233 28.7712 36.9939 28.9374 37.0254 27.2263C37.0551 25.5301 38.4012 23.651 40.8952 21.6133C43.3893 19.5755 46.4269 18.4928 46.6126 19.0574C46.7984 19.622 47.6802 23.432 46.8512 27.5715C46.0223 31.7111 44.4803 33.957 43.3363 34.3268Z" fill="#FF4DD3"/>
<path d="M40.8947 21.6135C41.3128 21.2741 41.7439 20.9515 42.1844 20.6751C42.351 20.6657 42.4677 20.6952 42.5011 20.7896C42.6293 21.2116 43.3008 24.0478 42.6745 27.1595C42.3171 28.9505 41.7797 30.2528 41.2232 31.1015C40.8301 30.6316 40.4149 30.2191 39.9998 29.927C38.3227 28.7714 36.9933 28.9376 37.0248 27.2265C37.0416 25.5136 38.4006 23.6512 40.8947 21.6135Z" fill="url(#paint2_linear_5410_6588)"/>
<path d="M13.0291 18.3854C7.98807 16.0908 5.13592 15.6772 4.75842 15.9313C4.38277 16.1705 1.5024 27.6378 6.09253 34.2994C9.6979 39.5601 11.5506 38.6915 12.845 38.6865C13.3875 38.6785 13.9225 38.4891 14.4055 38.233C15.8047 37.5038 16.9441 36.3212 17.6297 34.9168C18.2782 33.568 18.5284 32.0345 19.4142 30.8355C20.9841 28.7284 22.437 28.0509 20.9328 25.7434C19.7364 23.8651 17.6997 20.5137 13.0291 18.3854Z" fill="url(#paint3_linear_5410_6588)"/>
<path fill-rule="evenodd" clip-rule="evenodd" d="M7.23743 15.8414C8.65313 16.2064 10.6472 16.8916 13.1831 18.0459L13.1832 18.046C17.8276 20.1623 19.9285 23.4685 21.1445 25.382C21.179 25.4363 21.2128 25.4895 21.2459 25.5415C21.6387 26.1445 21.8607 26.6739 21.9207 27.1717C21.9821 27.68 21.8707 28.1216 21.6574 28.5357C21.4502 28.9381 21.1425 29.3214 20.8101 29.7161C20.744 29.7945 20.6766 29.8738 20.6081 29.9543C20.3248 30.2876 20.0222 30.6435 19.7132 31.0581C19.3042 31.612 19.035 32.2524 18.7832 32.9474C18.7257 33.106 18.6687 33.2687 18.611 33.4338C18.4211 33.9764 18.2223 34.5444 17.9653 35.0787L17.9649 35.0797L17.9644 35.0807C17.2445 36.5554 16.0489 37.7969 14.5785 38.5636C14.0666 38.8348 13.4725 39.0507 12.8498 39.0599L12.8478 39.0599L12.8457 39.0599C12.7281 39.0604 12.5932 39.0711 12.4424 39.0831C11.8854 39.1274 11.1119 39.1888 10.1934 38.8133C9.01886 38.333 7.60327 37.1651 5.78427 34.511C3.41853 31.0774 2.99526 26.4429 3.18987 22.6879C3.2876 20.8022 3.54218 19.1192 3.79673 17.89C3.92394 17.2757 4.05193 16.7708 4.16169 16.4081C4.2163 16.2276 4.26819 16.0763 4.31519 15.962C4.33839 15.9056 4.36351 15.8506 4.39046 15.8028C4.40392 15.779 4.42122 15.7509 4.44262 15.7231C4.4603 15.7001 4.49618 15.6568 4.55202 15.62C4.68604 15.531 4.85682 15.5066 4.98912 15.4975C5.14081 15.4871 5.32503 15.493 5.53658 15.5136C5.96108 15.5549 6.53051 15.6591 7.23743 15.8414ZM5.00588 16.2452C5.01598 16.2441 5.02743 16.2431 5.04034 16.2422C5.13657 16.2356 5.27649 16.2382 5.46419 16.2565C5.83816 16.293 6.36762 16.388 7.05106 16.5642C8.41605 16.9161 10.3686 17.585 12.8737 18.7252C17.3151 20.7492 19.3164 23.8976 20.5199 25.7909C20.5529 25.8429 20.5854 25.894 20.6173 25.9441L20.6184 25.9458L20.6194 25.9474C20.978 26.4975 21.1382 26.9175 21.1796 27.2611C21.2199 27.5947 21.152 27.8868 20.9938 28.1939C20.8296 28.5127 20.5737 28.838 20.2392 29.2351C20.1769 29.3091 20.1121 29.3853 20.0452 29.4639C19.7607 29.7984 19.439 30.1767 19.1142 30.6127L19.1133 30.6139C18.6369 31.2589 18.3381 31.9845 18.0814 32.693C18.0176 32.8691 17.9567 33.043 17.8965 33.2148C17.7097 33.7484 17.53 34.2613 17.2931 34.7542C16.6421 36.0874 15.5594 37.2106 14.2323 37.9022L14.2312 37.9028L14.23 37.9034C13.7767 38.1437 13.3021 38.3062 12.8407 38.3135C12.6554 38.3143 12.4764 38.3279 12.2967 38.3415C11.7579 38.3825 11.2133 38.4238 10.4759 38.1223C9.49928 37.723 8.18593 36.6949 6.39971 34.0886L6.39917 34.0878C4.17498 30.8599 3.74339 26.4302 3.93534 22.7265C4.0309 20.8827 4.27997 19.2376 4.52769 18.0413C4.65163 17.4428 4.77444 16.9605 4.87617 16.6243C4.92731 16.4553 4.97133 16.3292 5.00556 16.2459C5.00567 16.2457 5.00577 16.2454 5.00588 16.2452Z" fill="#150B3A"/>
<path d="M12.1162 35.3464C12.6896 34.7254 13.7647 32.2411 15.4317 30.9283C17.0988 29.6155 18.4729 29.6955 18.3303 27.9328C18.1877 26.1701 16.6562 24.3255 13.9321 22.3932C11.2079 20.461 7.98305 19.5348 7.84667 20.1498C7.69731 20.748 7.05155 24.7448 8.18188 28.9768C9.31221 33.2087 11.5594 35.9544 12.1162 35.3464Z" fill="#5C13A1"/>
<path d="M11.751 35.3765C11.751 35.3765 13.1882 32.0344 14.7905 30.7587C16.3927 29.483 17.7224 29.5575 17.5854 27.8707C17.4503 26.1691 15.9689 24.4059 13.343 22.531C10.717 20.656 7.60701 19.7742 7.4743 20.3595C7.32677 20.9429 6.69937 24.7916 7.80362 28.8698C8.90786 32.9481 10.5823 35.0962 11.751 35.3765Z" fill="#FF4DD3"/>
<path d="M13.3282 22.5289C12.8853 22.2182 12.4388 21.9372 11.9904 21.671C11.8089 21.6786 11.7145 21.7121 11.6887 21.7991C11.5891 22.2381 11.1126 25.1125 11.938 28.1634C12.412 29.9221 13.0355 31.2028 13.6438 32.0003C14.0044 31.5184 14.3909 31.0699 14.7906 30.7584C16.3928 29.4827 17.7225 29.5572 17.5855 27.8704C17.4356 26.1669 15.956 24.389 13.3282 22.5289Z" fill="url(#paint4_linear_5410_6588)"/>
<path fill-rule="evenodd" clip-rule="evenodd" d="M33.492 20.1983L31.5328 25.4464L30.6936 25.1331L32.6528 19.885L33.492 20.1983Z" fill="#150B3A"/>
<path d="M33.3439 20.647C34.4322 20.7819 35.4238 20.009 35.5587 18.9207C35.6935 17.8324 34.9206 16.8408 33.8323 16.7059C32.7441 16.5711 31.7525 17.344 31.6176 18.4323C31.4827 19.5206 32.2556 20.5121 33.3439 20.647Z" fill="url(#paint5_linear_5410_6588)"/>
<path fill-rule="evenodd" clip-rule="evenodd" d="M33.7765 17.1502C32.9337 17.0458 32.1658 17.6443 32.0613 18.4872C31.9569 19.33 32.5555 20.0979 33.3983 20.2023C34.2411 20.3068 35.009 19.7082 35.1135 18.8654C35.2179 18.0226 34.6193 17.2547 33.7765 17.1502ZM31.1724 18.377C31.3377 17.0432 32.5529 16.096 33.8867 16.2613C35.2205 16.4266 36.1677 17.6418 36.0024 18.9756C35.8371 20.3094 34.6219 21.2566 33.2881 21.0913C31.9543 20.926 31.0071 19.7108 31.1724 18.377Z" fill="#150B3A"/>
<path fill-rule="evenodd" clip-rule="evenodd" d="M21.3635 20.2668L23.6799 25.3678L22.8643 25.7382L20.5479 20.6371L21.3635 20.2668Z" fill="#150B3A"/>
<path d="M20.1105 21.084C21.1988 21.2188 22.1904 20.4459 22.3253 19.3576C22.4602 18.2693 21.6872 17.2778 20.599 17.1429C19.5107 17.008 18.5191 17.7809 18.3842 18.8692C18.2493 19.9575 19.0222 20.9491 20.1105 21.084Z" fill="url(#paint6_linear_5410_6588)"/>
<path fill-rule="evenodd" clip-rule="evenodd" d="M20.5436 17.5872C19.7008 17.4828 18.9329 18.0813 18.8284 18.9241C18.724 19.767 19.3226 20.5349 20.1654 20.6393C21.0082 20.7438 21.7761 20.1452 21.8805 19.3024C21.985 18.4596 21.3864 17.6917 20.5436 17.5872ZM17.9395 18.814C18.1048 17.4802 19.32 16.533 20.6538 16.6982C21.9876 16.8635 22.9348 18.0788 22.7695 19.4126C22.6042 20.7463 21.389 21.6936 20.0552 21.5283C18.7214 21.363 17.7742 20.1477 17.9395 18.814Z" fill="#150B3A"/>
<path d="M28.2538 53.4584C35.3532 53.225 42.1692 49.331 46.401 44.5601C46.341 43.8305 45.7355 43.8608 45.6292 43.1406C45.5732 42.7425 47.4541 42.2535 47.1705 41.9927C46.2937 41.177 44.959 39.8081 44.6505 38.777C41.8465 29.5989 35.029 23.1879 27.2648 23.4442C19.4858 23.6987 13.0989 30.5643 10.9293 39.9384C10.7412 40.7274 9.1266 42.5883 8.45867 43.1223C7.95727 43.5265 10.3018 43.6667 10.2488 44.3371C10.1903 45.0519 9.7573 45.3894 9.75622 46.1264C14.2866 50.5992 21.1544 53.6918 28.2538 53.4584Z" fill="url(#paint7_linear_5410_6588)"/>
<path fill-rule="evenodd" clip-rule="evenodd" d="M27.2527 23.0708C35.25 22.8068 42.1762 29.3996 45.0077 38.6676L45.008 38.6687L45.0083 38.6697C45.1393 39.1074 45.5065 39.6581 45.9833 40.2251C46.4514 40.7819 46.9922 41.3165 47.4249 41.7191C47.4919 41.7813 47.5578 41.8773 47.5708 42.0064C47.5834 42.1315 47.5407 42.2324 47.501 42.2965C47.4304 42.4107 47.319 42.4903 47.246 42.5381C47.0934 42.638 46.8755 42.7421 46.6808 42.8351L46.6464 42.8515C46.4268 42.9566 46.229 43.0527 46.0889 43.1432C46.0607 43.1614 46.0383 43.1773 46.0208 43.1906C46.0667 43.3506 46.1571 43.4419 46.2977 43.5837C46.4843 43.772 46.7319 44.0274 46.7732 44.5291L46.7862 44.6881L46.6804 44.8074C42.3935 49.6404 35.4861 53.5937 28.2663 53.8311C21.0556 54.0682 14.0909 50.9299 9.49421 46.3917L9.38297 46.2818L9.38319 46.1255C9.38385 45.676 9.51976 45.348 9.63893 45.0742C9.64421 45.062 9.64945 45.05 9.65464 45.0381C9.76213 44.7915 9.84708 44.5967 9.87375 44.3409C9.85335 44.3201 9.81247 44.2876 9.73972 44.2471C9.57161 44.1537 9.33366 44.0708 9.06955 43.9842C9.04424 43.9759 9.01834 43.9675 8.99204 43.959C8.77179 43.8873 8.52326 43.8065 8.35667 43.7162C8.30587 43.6887 8.24894 43.6533 8.19694 43.6079C8.14674 43.5641 8.08093 43.4934 8.04346 43.3909C8.00137 43.2757 8.00719 43.153 8.0558 43.0435C8.09908 42.946 8.16772 42.8773 8.22463 42.8314L8.22581 42.8305C8.52873 42.5883 9.07962 42.0137 9.58408 41.3908C9.83387 41.0823 10.0653 40.7706 10.2438 40.492C10.4282 40.2042 10.5344 39.9849 10.5662 39.8526C12.7574 30.3872 19.2406 23.333 27.2527 23.0708ZM45.9691 43.2367C45.9691 43.2367 45.9696 43.236 45.9707 43.2347C45.9696 43.2361 45.9691 43.2368 45.9691 43.2367ZM44.2935 38.8848C41.5168 29.7971 34.8081 23.5683 27.2773 23.8169L27.2772 23.8169C19.7319 24.0637 13.4415 30.7402 11.2931 40.0222L11.2928 40.0234L11.2925 40.0246C11.23 40.2869 11.0639 40.5957 10.8723 40.8947C10.6743 41.2037 10.4251 41.5384 10.1642 41.8606C9.76525 42.3532 9.32251 42.8367 8.97341 43.1659C9.05142 43.1929 9.14154 43.2224 9.24327 43.2557C9.26243 43.2619 9.28201 43.2683 9.30199 43.2749C9.55469 43.3577 9.86159 43.4608 10.1025 43.5948C10.2235 43.6621 10.3526 43.7502 10.4519 43.8679C10.5567 43.992 10.6372 44.1613 10.621 44.3661L10.621 44.3672C10.5882 44.7677 10.4546 45.0724 10.3463 45.3197C10.3385 45.3374 10.3309 45.3549 10.3234 45.372C10.2316 45.5831 10.1606 45.7615 10.1376 45.977C14.6025 50.3214 21.3154 53.3127 28.2418 53.085C35.1552 52.8577 41.8188 49.0926 46.0035 44.4446C45.9646 44.3127 45.8868 44.2295 45.7676 44.1093C45.7621 44.1037 45.7565 44.0981 45.7508 44.0924C45.5758 43.9163 45.3301 43.6691 45.2601 43.1948L45.2599 43.1935L45.2598 43.1922C45.2306 42.9847 45.3355 42.8269 45.4104 42.7414C45.4895 42.6511 45.5909 42.5762 45.684 42.5161C45.872 42.3947 46.1162 42.2777 46.3243 42.1781C46.4498 42.1181 46.5609 42.065 46.6536 42.0173C46.2618 41.6411 45.814 41.1837 45.4119 40.7055C44.9253 40.1267 44.4712 39.4779 44.2935 38.8848Z" fill="#150B3A"/>
<path d="M23.7234 40.1246C22.963 42.4975 20.8226 40.9535 18.4497 40.1931C16.0768 39.4326 14.3827 39.7492 15.1432 37.3763C15.9036 35.0034 18.441 33.7082 20.7991 34.4668C23.1887 35.2142 24.4839 37.7516 23.7234 40.1246Z" fill="#150B3A"/>
<path d="M21.6461 37.3399C21.0733 36.7424 20.3971 36.4932 20.8579 36.1742C21.3168 35.87 22.0356 36.1396 22.4677 36.7799C22.8998 37.4201 22.8803 38.1849 22.4195 38.5039C21.9754 38.8099 22.2189 37.9375 21.6461 37.3399Z" fill="white"/>
<path d="M46.1698 44.7274C46.1714 44.4718 46.0341 44.2442 45.8266 44.0981C45.2151 43.6914 44.3293 43.0701 44.3272 42.8442C44.3215 42.7683 44.403 42.7182 44.5455 42.6607C43.8399 40.8282 41.3178 39.0865 39.4947 39.9587C36.4112 41.4119 33.541 43.2074 31.9246 41.5629C29.0401 38.6179 30.4932 36.361 27.8638 36.4563C27.849 36.4545 27.8342 36.4527 27.8175 36.4656C27.8027 36.4638 27.7879 36.462 27.7731 36.4601C24.7363 36.5652 26.8347 38.6906 24.053 41.836C22.5308 43.5579 20.17 41.9716 16.3966 40.7367C14.4887 40.1091 11.8686 42.0711 11.5371 43.775C11.6668 43.8212 11.7502 43.8767 11.7576 43.9378C11.7597 44.1637 10.892 44.8534 10.3092 45.3077C10.126 45.4505 10.0244 45.6636 10.0394 45.9061C10.0376 45.921 10.0358 45.9358 10.0339 45.9506C10.7883 46.6609 13.2442 48.8156 17.0593 51.0485C20.5521 53.091 25.1131 53.1899 27.1833 53.1155C27.8017 53.1019 28.2128 53.0626 28.335 53.0476C28.4553 53.0475 28.8757 53.0545 29.4942 53.0409C31.5625 52.9813 36.1119 52.5672 39.4612 50.3046C43.1547 47.8137 45.4429 45.4948 46.1698 44.7274Z" fill="white"/>
<path d="M27.371 32.9047C28.0666 32.9909 28.7003 32.4969 28.7865 31.8014C28.8727 31.1059 28.3787 30.4722 27.6832 30.386C26.9877 30.2998 26.354 30.7937 26.2678 31.4893C26.1816 32.1848 26.6755 32.8185 27.371 32.9047Z" fill="#D4E8FF"/>
<path d="M27.3208 29.1829C27.7381 29.2346 28.1183 28.9383 28.17 28.5209C28.2218 28.1036 27.9254 27.7234 27.5081 27.6717C27.0907 27.62 26.7105 27.9163 26.6588 28.3337C26.6071 28.751 26.9035 29.1312 27.3208 29.1829Z" fill="#D4E8FF"/>
<path d="M29.7949 41.3894C29.8161 42.1893 28.1301 43.0485 27.993 43.0616C27.8579 43.0598 26.0998 42.3154 26.0785 41.5155C26.0573 40.7156 26.8738 40.561 27.9015 40.5229C28.9292 40.4848 29.7737 40.5894 29.7949 41.3894Z" fill="#150B3A"/>
<path d="M30.1146 41.4789C30.1384 42.3742 28.2514 43.3357 28.0981 43.3503C27.9468 43.3484 25.9792 42.5153 25.9555 41.6201C25.9318 40.7248 26.8455 40.5519 27.9956 40.5092C29.1458 40.4665 30.0909 40.5837 30.1146 41.4789Z" fill="#150B3A"/>
<path fill-rule="evenodd" clip-rule="evenodd" d="M30.5763 1.09398C16.3139 -0.673555 3.31906 9.45553 1.55152 23.7179C-0.216015 37.9803 9.91307 50.9752 24.1755 52.7427C38.4379 54.5103 51.4327 44.3812 53.2003 30.1188C54.9678 15.8564 44.8387 2.86152 30.5763 1.09398ZM0.662562 23.6078C2.49095 8.8544 15.9331 -1.62336 30.6865 0.205022C45.4398 2.03341 55.9176 15.4756 54.0892 30.2289C52.2608 44.9823 38.8187 55.4601 24.0653 53.6317C9.31194 51.8033 -1.16582 38.3611 0.662562 23.6078Z" fill="#150B3A"/>
<g clip-path="url(#clip1_5410_6588)">
<path d="M37.5453 34.5725C37.072 34.7585 36.5882 34.964 36.1483 35.1972C35.7046 35.4306 35.2856 35.6928 34.9028 35.9833C34.7072 36.123 34.5321 36.2843 34.3486 36.4348L34.0979 36.6836C34.0581 36.7274 34.0103 36.7642 33.9744 36.8078L33.859 36.9392C33.5369 37.2829 33.2912 37.6864 33.0531 38.0895L32.0911 37.1921C32.136 37.1706 32.1621 37.1577 32.1919 37.1409C32.2219 37.1278 32.2518 37.1148 32.278 37.1019C32.3343 37.0798 32.3943 37.0537 32.4509 37.0353C32.5636 36.991 32.6769 36.958 32.7901 36.9213C33.0165 36.8516 33.2443 36.8044 33.4762 36.7609C33.9364 36.6815 34.408 36.6657 34.8714 36.7072C35.335 36.7523 35.7899 36.8472 36.2108 37.0196C36.6383 37.1727 37.0285 37.4111 37.3815 37.6706C37.4858 37.7478 37.5095 37.8938 37.4312 38.0004C37.374 38.0755 37.276 38.1076 37.1866 38.0901L37.1594 38.0841C36.957 38.039 36.7689 37.9742 36.5746 37.9362C36.3768 37.9022 36.1897 37.8563 35.9966 37.8371C35.6134 37.7873 35.229 37.783 34.8542 37.8121C34.4792 37.8374 34.1104 37.9039 33.7512 38.004C33.5734 38.052 33.3965 38.1151 33.2272 38.1778C33.1447 38.2127 33.0582 38.2442 32.9797 38.2827C32.9384 38.3002 32.9012 38.3212 32.8638 38.3385C32.8451 38.3472 32.8264 38.3558 32.8077 38.3644L32.7705 38.3855L32.7556 38.3939C32.4201 38.572 32.0022 38.4523 31.818 38.1226C31.7025 37.9176 31.708 37.6791 31.8046 37.4883C32.0743 36.9662 32.3826 36.4494 32.7957 36.0174C32.9861 35.7872 33.2214 35.6035 33.4403 35.4019C33.6801 35.2294 33.9154 35.0457 34.1763 34.906C34.6857 34.6121 35.2298 34.388 35.7906 34.2537C36.3555 34.1229 36.9162 34.0529 37.5031 34.1061C37.6344 34.1175 37.7332 34.2328 37.7215 34.362C37.7113 34.4533 37.6504 34.5286 37.5715 34.5596L37.5453 34.5725Z" fill="#150B3A"/>
</g>
<path fill-rule="evenodd" clip-rule="evenodd" d="M26.4993 44.5348C27.2179 44.455 27.7602 43.7796 27.6727 42.9925C27.6442 42.7357 27.8292 42.5044 28.086 42.4759C28.3428 42.4474 28.574 42.6324 28.6026 42.8892C28.7435 44.1577 27.8663 45.3243 26.6026 45.4647C25.339 45.6051 24.2271 44.6595 24.0862 43.3909C24.0577 43.1342 24.2427 42.9029 24.4995 42.8744C24.7562 42.8458 24.9875 43.0309 25.016 43.2876C25.1035 44.0748 25.7808 44.6146 26.4993 44.5348Z" fill="#150B3A"/>
<path fill-rule="evenodd" clip-rule="evenodd" d="M30.3553 44.1432C31.0739 44.0634 31.6161 43.388 31.5287 42.6008C31.5002 42.3441 31.6852 42.1128 31.942 42.0843C32.1987 42.0557 32.43 42.2408 32.4585 42.4975C32.5995 43.766 31.7223 44.9326 30.4586 45.073C29.1949 45.2134 28.0831 44.2678 27.9421 42.9993C27.9136 42.7425 28.0986 42.5113 28.3554 42.4827C28.6122 42.4542 28.8435 42.6392 28.872 42.896C28.9594 43.6831 29.6367 44.223 30.3553 44.1432Z" fill="#150B3A"/>
<path d="M42.057 59.9342L42.47 60.7207C42.7711 61.294 43.3511 61.667 43.9977 61.7024L44.771 61.7447C44.7722 61.7448 44.7738 61.7447 44.7752 61.7451L55.2091 62.0158C56.1793 62.0687 57.057 61.4413 57.3204 60.5056L59.5872 52.4567C59.683 52.1174 59.6449 51.7537 59.481 51.4415L58.805 50.1541C58.7191 49.9905 58.6023 49.8484 58.4645 49.734C58.2406 49.5479 57.9593 49.4343 57.6588 49.4179L46.3773 49.1007C45.3455 49.0443 44.4131 49.7112 44.1331 50.7057L41.9152 58.5811C41.7876 59.0337 41.8384 59.5179 42.057 59.9342Z" fill="#98B8C0"/>
<g opacity="0.55">
<path d="M42.0568 59.9342L42.4698 60.7207C42.5643 60.9004 42.6861 61.0603 42.8289 61.1966C42.7972 61.1481 42.7673 61.098 42.7402 61.0458L42.3272 60.2593C42.1086 59.843 42.0578 59.3588 42.1854 58.9062L44.4032 51.0308C44.6833 50.0362 45.4048 49.4604 46.4366 49.5169L57.929 49.743C58.2295 49.7593 58.5108 49.873 58.7347 50.0591C58.7457 50.0684 58.7568 50.0777 58.7672 50.0876C58.6864 49.9519 58.5832 49.8325 58.4643 49.734C58.2404 49.5479 57.9591 49.4343 57.6587 49.4179L46.3771 49.1007C45.3454 49.0443 44.413 49.7112 44.1329 50.7057L41.915 58.5811C41.7875 59.0337 41.8382 59.5179 42.0568 59.9342Z" fill="white"/>
</g>
<path d="M55.9362 62.0893C56.6653 61.8836 57.2529 61.3148 57.4691 60.5477L59.736 52.4987C59.8429 52.1195 59.8008 51.7185 59.6176 51.3697L58.9416 50.0822C58.6919 49.6066 58.2036 49.293 57.6672 49.2637L46.2681 49.0639C45.1562 49.0031 44.1687 49.7092 43.8668 50.7813L41.649 58.6566C41.5102 59.1493 41.5649 59.6704 41.8028 60.1236L42.2157 60.9101C42.5401 61.5282 43.1748 61.9359 43.8719 61.974L55.2006 62.1699C55.4552 62.1839 55.703 62.1552 55.9362 62.0894L55.9362 62.0893ZM45.5744 49.4466C45.7891 49.386 46.0169 49.3597 46.2512 49.3725L57.6504 49.5722C58.0787 49.5956 58.4686 49.8461 58.668 50.2259L59.344 51.5134C59.4902 51.792 59.5238 52.1122 59.4385 52.4149L57.1715 60.4639C56.9258 61.3361 56.1223 61.9107 55.2174 61.8614L43.8887 61.6654C43.2996 61.6332 42.7634 61.2888 42.4892 60.7664L42.0764 59.9799C41.8754 59.5969 41.8292 59.1567 41.9465 58.7403L44.1643 50.865C44.363 50.1592 44.9039 49.6359 45.5745 49.4466L45.5744 49.4466Z" fill="#150B3A"/>
<path d="M49.0644 59.36L54.4182 59.4078C54.7795 59.4111 55.0976 59.1752 55.2019 58.8336C55.2072 58.8164 55.2116 58.7991 55.2159 58.7814L55.4397 57.8254L55.6388 56.9753L56.0488 55.2248L56.9932 51.1903C57.0856 50.7957 56.7882 50.4175 56.3829 50.4141L51.4316 50.3697C51.2022 50.3678 50.9868 50.4422 50.8124 50.5718C50.623 50.712 50.4824 50.9175 50.4255 51.1603L50.1963 52.1392L49.9972 52.9893L49.7611 53.999L48.6341 58.8122C48.569 59.0902 48.7786 59.3572 49.0644 59.36Z" fill="#18FC80"/>
<path d="M43.6555 59.2663L49.0007 59.2927C49.3614 59.2945 49.6803 59.0607 49.7863 58.7236C49.7917 58.7066 49.7962 58.6895 49.8006 58.672L50.0293 57.7287L50.2328 56.8899L50.6518 55.1626L51.6171 51.1817C51.7115 50.7923 51.4166 50.4206 51.012 50.4189L46.0686 50.3944C45.8396 50.3934 45.6241 50.4676 45.4493 50.596C45.2594 50.735 45.1179 50.9381 45.0597 51.1776L44.8255 52.1436L44.622 52.9824L44.3807 53.9787L43.2289 58.728C43.1624 59.0024 43.3702 59.2648 43.6555 59.2663Z" fill="#18FC80"/>
<g opacity="0.5">
<path d="M46.3973 50.5246L55.4634 57.0243L55.953 55.2944L48.8844 50.4177C48.6887 50.5491 46.9065 50.3589 46.6715 50.4177L46.3973 50.496L46.3973 50.5246Z" fill="white"/>
</g>
<g opacity="0.5">
<path d="M45.1847 51.8244L54.9424 58.8608C54.9485 58.8438 54.9537 58.8267 54.9588 58.8092L55.226 57.8645L45.4667 50.8265L45.1847 51.8244Z" fill="white"/>
</g>
<path d="M54.4438 59.5179C54.7593 59.4289 55.0138 59.183 55.1076 58.8511L57.2297 51.3494C57.2951 51.1182 57.2525 50.8734 57.1128 50.6779C56.9731 50.4824 56.7554 50.3626 56.5154 50.3496L46.2836 50.2361C45.7292 50.2057 45.2366 50.5577 45.0855 51.092L42.9465 58.6539C42.8965 58.8304 42.929 59.0172 43.0356 59.1665C43.1422 59.3157 43.3084 59.4071 43.4916 59.4171L54.1251 59.5529C54.2353 59.5589 54.3427 59.5465 54.4437 59.518L54.4438 59.5179ZM45.9802 50.576C46.0712 50.5504 46.1676 50.5392 46.2668 50.5446L56.4986 50.6581C56.6444 50.666 56.7765 50.7387 56.8613 50.8575C56.9461 50.9762 56.972 51.1249 56.9324 51.2653L54.8102 58.767C54.7259 59.065 54.4511 59.2611 54.142 59.2443L43.5085 59.1085C43.4196 59.1035 43.3389 59.0593 43.2871 58.9868C43.2354 58.9144 43.2196 58.8236 43.2438 58.738L45.3829 51.1761C45.4674 50.8776 45.6964 50.6562 45.9803 50.5761L45.9802 50.576Z" fill="#150B3A"/>
<g opacity="0.3">
<path d="M43.9876 61.7447C43.9888 61.7447 43.9904 61.7447 43.9917 61.7451L55.209 62.0158C56.1792 62.0687 57.0569 61.4413 57.3203 60.5056L59.5871 52.4567C59.6828 52.1174 59.6448 51.7537 59.4809 51.4415L58.4644 49.734L55.7388 59.152C55.209 60.7774 54.4267 60.3074 54.4267 60.3074L42.1629 59.8811C42.0399 59.8742 41.9492 59.9952 41.9913 60.1109C42.1703 60.6028 42.7056 61.6744 43.9876 61.7446L43.9876 61.7447Z" fill="#150B3A"/>
</g>
<path fill-rule="evenodd" clip-rule="evenodd" d="M60.7931 63.5603C62.6605 63.0078 64.4072 60.9195 65.08 58.1791C65.7525 55.4404 65.1543 52.8573 63.7311 51.6073C64.2626 51.4501 64.8038 51.4172 65.3329 51.5292C67.7207 52.0344 68.9557 55.2978 68.0914 58.8181C67.227 62.3384 64.5906 64.7826 62.2028 64.2773C61.6726 64.1652 61.1993 63.917 60.7931 63.5603Z" fill="#1D3849"/>
<mask id="mask0_5410_6588" style="mask-type:alpha" maskUnits="userSpaceOnUse" x="57" y="47" width="25" height="30">
<rect x="64.9087" y="47.521" width="17.7718" height="24.8862" transform="rotate(17.9638 64.9087 47.521)" fill="#D9D9D9"/>
</mask>
<g mask="url(#mask0_5410_6588)">
<path d="M50.4789 61.3094C51.1335 61.2995 51.7968 61.304 52.4671 61.3236C52.6543 61.328 52.8386 61.3357 53.0256 61.3426C53.0446 61.343 53.0653 61.3449 53.0843 61.3454C53.3044 61.3541 53.5277 61.3653 53.748 61.3796C53.9697 61.3922 54.1931 61.4061 54.417 61.4224C55.3433 61.4891 56.2847 61.5852 57.2423 61.7138C57.4358 61.7404 57.6336 61.7684 57.8301 61.7976C58.1014 61.8373 58.3729 61.8798 58.6463 61.9257C58.8418 61.9564 59.0374 61.9898 59.2335 62.0258C59.2515 62.0277 59.2706 62.031 59.2876 62.0344C59.5056 62.0735 59.724 62.115 59.9425 62.1565C60.1467 62.1945 60.3504 62.2364 60.5563 62.2781C60.6021 62.2878 60.6484 62.2975 60.693 62.3059C60.9231 62.3546 61.1518 62.4044 61.3823 62.4555C61.8556 62.5606 62.3312 62.6747 62.8135 62.7963C62.9381 62.8268 63.0644 62.8587 63.1892 62.892C63.3309 62.9288 63.4727 62.9655 63.6131 63.0041C63.7687 63.0447 63.9248 63.0878 64.0796 63.1327C64.2413 63.1783 64.4043 63.2246 64.5676 63.2712C64.7308 63.3178 64.8952 63.3657 65.0589 63.4147C65.1204 63.6199 65.1879 63.8149 65.2582 64.0027C65.3272 64.1896 65.4009 64.3675 65.4775 64.5382C65.9651 65.6239 66.5731 66.3583 67.1899 66.8141C67.2269 66.8414 67.264 66.8681 67.3024 66.8937C67.3775 66.9434 67.4509 66.9894 67.5253 67.0339C67.6365 67.1002 67.7486 67.1552 67.8585 67.2011C67.9316 67.2324 68.0052 67.259 68.0776 67.285C68.1496 67.3079 68.2214 67.3286 68.2928 67.3463C68.329 67.3558 68.3641 67.3639 68.3988 67.3696C68.4349 67.3763 68.4695 67.382 68.5042 67.3877C68.5388 67.3934 68.572 67.3975 68.6077 67.4017C68.6284 67.4035 68.6474 67.404 68.6679 67.4055L68.669 67.4068C68.7503 67.4121 68.8294 67.4143 68.9068 67.412C68.9394 67.4108 68.9715 67.4072 69.0026 67.405C69.0663 67.4016 69.1279 67.392 69.1877 67.3811C69.3063 67.3579 69.4218 67.3229 69.5269 67.2768C69.554 67.2643 69.5799 67.2529 69.6055 67.2394C69.6379 67.2262 69.6699 67.2075 69.702 67.1888C69.7272 67.1722 69.7517 67.1574 69.7754 67.1397C69.8363 67.1 69.8923 67.0542 69.9432 67.0019C69.9571 66.9908 69.9704 66.9771 69.982 66.9622L69.9833 66.961C70.0062 66.9378 70.0291 66.9121 70.0493 66.8866C70.0493 66.8866 70.0506 66.8855 70.0517 66.8834C70.0729 66.8564 70.0942 66.8269 70.1125 66.7973C70.1486 66.7454 70.1802 66.6878 70.2076 66.6286C71.9089 66.8716 73.2792 66.6125 74.3182 65.8581C74.3995 65.7984 74.4811 65.7362 74.5604 65.6697L74.5617 65.6685C74.7179 65.5359 74.8684 65.3897 75.0097 65.2332C75.0446 65.1922 75.0792 65.1516 75.1143 65.111L75.1156 65.1099C75.2554 64.9425 75.3801 64.7608 75.4879 64.5732C75.5341 64.4903 75.5789 64.4064 75.6197 64.3213C75.6616 64.2348 75.6993 64.1501 75.7343 64.0605C75.7522 64.0161 75.7689 63.971 75.7857 63.9254C75.8176 63.8361 75.8467 63.747 75.8731 63.6556C75.9118 63.518 75.9448 63.3779 75.9707 63.2376C75.9869 63.1432 76.002 63.0474 76.0133 62.9539L76.0146 62.9527C76.1892 61.4873 76.1866 60.0644 75.9432 58.6993C75.9044 58.4903 75.861 58.2801 75.8129 58.0736C75.7876 57.9703 75.762 57.8673 75.7339 57.7641C75.7152 57.6955 75.6967 57.6297 75.6752 57.5613C75.6604 57.5153 75.6441 57.4684 75.6292 57.4224C75.6059 57.3597 75.5807 57.2963 75.5571 57.2332C75.534 57.1761 75.5088 57.1191 75.4848 57.0634C75.4539 56.9975 75.4234 56.9319 75.3915 56.8675C75.3687 56.8223 75.3444 56.7761 75.3187 56.7316C75.2896 56.6793 75.2607 56.6267 75.2299 56.5759C75.227 56.5732 75.2251 56.5698 75.2249 56.567C75.1947 56.5161 75.1618 56.4655 75.13 56.4161C75.0888 56.3542 75.0481 56.2947 75.0045 56.2361C74.9785 56.1984 74.9512 56.1618 74.9225 56.127C74.9065 56.1071 74.8923 56.0884 74.8762 56.0685C74.843 56.0273 74.8095 55.9864 74.7738 55.9457C74.7501 55.917 74.7248 55.8873 74.7003 55.8604C74.658 55.8122 74.6129 55.7642 74.5686 55.719C74.362 55.5058 74.1342 55.3131 73.8861 55.1425C73.8519 55.1179 73.8179 55.0959 73.7828 55.0727C73.3222 54.7579 72.8465 54.4659 72.3569 54.1966C72.1824 54.0997 72.0057 54.0054 71.8263 53.9146C71.5995 53.8005 71.3693 53.6905 71.1348 53.5925C70.5894 53.3544 70.0246 53.155 69.4522 52.9908C69.1779 52.912 68.9044 52.8412 68.6267 52.7793C67.6089 52.5518 66.6129 52.3391 65.6409 52.1461C65.5702 52.1337 65.499 52.1188 65.4308 52.1035C65.0869 52.0357 64.7448 51.9686 64.4067 51.9054C64.1564 51.858 63.909 51.8127 63.6658 51.7688C63.5769 51.7517 63.4892 51.7359 63.4017 51.7204L63.4004 51.7215C63.1767 51.6806 62.9563 51.642 62.7352 51.6034C62.0202 51.4797 61.3201 51.3654 60.6374 51.2629C60.5847 51.2552 60.5339 51.2489 60.4823 51.2398C60.0112 51.1685 59.5496 51.1046 59.0953 51.0463C59.09 51.0469 59.0858 51.0461 59.0815 51.0452C58.8687 51.0178 58.6604 50.9916 58.4508 50.9666C57.8244 50.8915 57.2157 50.8252 56.6199 50.7722C56.3822 50.7519 56.1472 50.7309 55.9154 50.7129C55.6818 50.6935 55.453 50.6774 55.2253 50.6627C55.2225 50.6628 55.2201 50.6633 55.2183 50.662C55.0691 50.6533 54.9209 50.6432 54.7732 50.6355C54.4625 50.6181 54.156 50.604 53.8541 50.5938C53.5782 50.5848 53.3078 50.5774 53.0395 50.5744C52.9004 50.5712 52.7615 50.5708 52.6253 50.5703C52.4879 50.5709 52.3517 50.5703 52.216 50.5723C51.8124 50.5761 51.4188 50.5861 51.0376 50.6054C50.9106 50.6118 50.7835 50.6182 50.6591 50.627C50.5335 50.6344 50.4103 50.642 50.2876 50.652C50.165 50.6621 50.0448 50.6717 49.9253 50.6841C49.839 50.6913 49.7517 50.7 49.6658 50.7098C49.6347 50.712 49.6026 50.7156 49.5705 50.7193C49.4535 50.7312 49.338 50.7447 49.2227 50.7604C49.1087 50.775 48.9961 50.7905 48.8835 50.8061C48.771 50.8216 48.6602 50.8385 48.552 50.8577C48.4427 50.8756 48.3355 50.8933 48.2291 50.9138C47.6573 51.0186 47.1225 51.148 46.6314 51.3051C46.5592 51.3282 46.4883 51.3501 46.4204 51.3741C46.2511 51.4302 46.0894 51.4896 45.9345 51.5521C45.7641 51.6191 45.6022 51.6907 45.4448 51.766C45.3761 51.7969 45.3079 51.8304 45.2439 51.8653C45.2206 51.8763 45.2003 51.8867 45.1795 51.8972C45.114 51.9305 45.0512 51.9661 44.9897 52.0006C44.9156 52.0417 44.8442 52.0826 44.7754 52.1259C44.7181 52.1612 44.6622 52.1948 44.6092 52.231C44.5827 52.2487 44.5575 52.2654 44.532 52.2817C44.5259 52.2865 44.5208 52.2899 44.5129 52.2935C44.465 52.3263 44.4185 52.3601 44.3721 52.3939C44.3103 52.4378 44.2531 52.4824 44.1956 52.5272C44.0184 52.6675 43.8532 52.8141 43.7021 52.97C43.6702 53.0007 43.6398 53.033 43.6109 53.0663C43.5997 53.0745 43.5901 53.0865 43.5818 53.0968C43.5528 53.1273 43.5248 53.1591 43.499 53.192C43.3907 53.3133 43.2919 53.4401 43.2011 53.5732C43.2428 53.6735 43.3068 53.8235 43.3893 54.0035C44.6986 56.8551 46.7605 58.5746 47.9449 59.5416C48.548 60.034 49.3934 60.6672 50.4776 61.3112L50.4789 61.3094Z" fill="white"/>
<g opacity="0.25">
<path d="M54.0652 61.736C54.7193 61.7249 51.797 61.303 52.4688 61.3237C52.6547 61.3292 52.8381 61.3359 53.026 61.3425C53.0453 61.3439 53.0666 61.3464 53.0848 61.3453C53.3048 61.3541 53.5277 61.3668 53.7484 61.3802C53.9717 61.3925 54.1938 61.407 54.4178 61.4221C55.3439 61.4906 56.2857 61.5858 57.2439 61.7145C57.4366 61.7407 57.6353 61.7691 57.8311 61.7989C58.1024 61.8386 58.3748 61.8808 58.6483 61.9255C58.8434 61.957 59.0375 61.9907 59.2348 62.0273C59.2522 62.028 59.2707 62.0313 59.2892 62.0351C59.5075 62.0745 59.7251 62.1156 59.9444 62.1575C60.1481 62.1948 60.3518 62.2367 60.5576 62.2796C60.6031 62.2878 60.6491 62.2984 60.6947 62.3066C60.9247 62.3552 61.1537 62.4053 61.3827 62.4561C61.8569 62.5615 62.3313 62.6762 62.8145 62.7963C62.9391 62.8268 63.0645 62.8602 63.1902 62.8933C63.3323 62.9291 63.4737 62.9668 63.6133 63.0037C63.7685 63.0453 63.9249 63.0893 64.0797 63.1323C64.2418 63.1789 64.4056 63.2261 64.568 63.2724C64.7318 63.3196 64.8956 63.3669 65.059 63.4162C65.1204 63.6219 65.1885 63.817 65.2598 64.0046C65.3273 64.1904 65.4007 64.368 65.4784 64.5406C65.9658 65.6248 66.574 66.3608 67.1906 66.815C67.2273 66.8438 67.2647 66.8709 67.3025 66.8958C67.379 66.9459 67.4503 66.9915 67.5262 67.037C67.6363 67.1013 67.7495 67.1582 67.8595 67.2024C67.9322 67.2351 68.0052 67.2617 68.0789 67.2866C68.1508 67.3101 68.2227 67.3296 68.294 67.3491C68.3303 67.3579 68.3645 67.3657 68.3998 67.3715C68.4347 67.3775 68.4702 67.3835 68.5051 67.3895C68.5401 67.3956 68.5725 67.3981 68.6084 67.402C68.6295 67.4041 68.649 67.4059 68.6682 67.4073C68.2985 66.7054 68.2293 65.8474 68.5817 65.1411C69.0803 64.1464 70.4572 63.6588 71.4089 64.2328C71.0431 64.1177 70.6583 64.2098 70.3437 64.4244C70.3406 64.4244 70.3388 64.4252 70.3383 64.4268C70.0088 64.6506 69.7551 65.0086 69.6738 65.3999C69.6288 65.6157 69.6253 65.834 69.6543 66.0476C69.6986 66.3677 69.8159 66.6767 69.9846 66.9632C70.0077 66.9397 70.0291 66.9154 70.0493 66.8887C70.0493 66.8887 70.0519 66.8876 70.0529 66.8855C70.0732 66.8588 70.0949 66.8278 70.1141 66.7986C70.1493 66.747 70.1821 66.69 70.2094 66.6308C71.9104 66.8747 73.2814 66.615 74.3191 65.8599C74.3995 65.8011 74.4814 65.738 74.5604 65.6718L74.563 65.6707C74.721 65.5381 74.869 65.3924 75.011 65.2353C75.0461 65.1947 75.0807 65.1541 75.1159 65.1135L75.1166 65.1117C75.2561 64.9446 75.382 64.763 75.488 64.5753C75.5339 64.4926 75.5808 64.4085 75.621 64.3235C75.6622 64.2369 75.6999 64.1529 75.7337 64.0631C75.7528 64.0182 75.7692 63.9741 75.7863 63.9281C75.8172 63.8391 75.8464 63.7494 75.8734 63.6592C75.9121 63.5204 75.9444 63.3815 75.9714 63.2398C75.9863 63.1465 76.0025 63.0514 76.0136 62.9563L76.0143 62.9545C76.1889 61.4903 76.1866 60.0665 75.9422 58.7016C75.9044 58.493 75.8608 58.2812 75.813 58.0751C75.7873 57.9733 75.7623 57.8697 75.733 57.7664C75.7159 57.697 75.697 57.6315 75.6745 57.5646C75.6606 57.519 75.6438 57.4695 75.6292 57.4257C75.6053 57.3624 75.5807 57.299 75.5568 57.2356C75.534 57.1794 75.5094 57.1224 75.4848 57.0655C75.4552 56.9996 75.4224 56.9349 75.3918 56.8711C75.3689 56.8259 75.3447 56.7779 75.319 56.7341C75.2902 56.6821 75.2592 56.629 75.2296 56.5789C75.2264 56.5753 75.2253 56.5728 75.2246 56.57C75.1957 56.518 75.1615 56.4678 75.1288 56.4187C75.0885 56.3571 75.0471 56.2977 75.0037 56.2372C74.9777 56.1995 74.9506 56.1639 74.9228 56.13C74.9068 56.1101 74.8929 56.0906 74.8769 56.0706C74.8434 56.0297 74.8095 55.9891 74.7739 55.9471C74.7504 55.9194 74.7255 55.8888 74.6991 55.8624C74.6574 55.8137 74.6117 55.7656 74.5683 55.7208C74.361 55.5087 74.1327 55.3148 73.8854 55.1458C73.8519 55.1206 73.8167 55.0992 73.7821 55.0754C74.0535 55.7489 74.2451 56.4527 74.3528 57.1721C74.6087 58.8764 74.1436 60.9801 72.5257 61.5715C71.6622 61.8885 70.7107 61.6808 69.8147 61.4834C66.669 60.7942 63.4481 60.4701 60.324 59.699C53.0019 57.8912 50.1963 57.2571 48.7192 58.7616C48.4065 59.0812 48.1689 59.394 48.0497 59.6262C48.0098 59.7038 47.2348 62.0575 51.9325 62.3711L54.0652 61.736Z" fill="#150B3A"/>
</g>
<path d="M43.6186 53.8557C45.2857 51.5128 49.2062 51.1214 52.1811 51.0755C53.177 51.0621 54.1844 51.1041 55.1905 51.1634L54.9078 51.0556C54.9996 51.1333 55.1638 51.1797 55.283 51.1617L55.1942 51.1636C57.0079 51.2938 58.6233 51.4793 60.0533 51.6866C62.106 51.9908 64.1706 52.3448 66.1961 52.7781C68.0177 53.1691 69.8953 53.4773 71.5528 54.3432C72.1551 54.6466 72.7445 54.9836 73.3065 55.3583C73.7057 55.6146 74.0945 55.9093 74.397 56.2784C74.5339 56.4459 74.6844 56.6383 74.7929 56.8247L74.7253 56.6251C74.7358 56.7462 74.8194 56.8968 74.9167 56.9696L74.7979 56.8336C75.1855 57.454 75.3511 58.236 75.4778 58.9704C75.6873 60.2661 75.6707 61.5808 75.5141 62.8933L75.6197 62.6399C75.4475 62.8999 75.4877 63.27 75.3685 63.579C75.2001 64.1273 74.9133 64.6499 74.486 65.0414L74.2394 65.2829L74.1926 65.3286C73.3134 66.0782 71.7595 66.3825 70.2789 66.1315C70.0814 66.1038 69.8947 66.1963 69.7927 66.3533C69.7239 66.4434 69.6935 66.5454 69.6083 66.6288L70.2967 66.5703L70.2955 66.569L69.588 66.6503C69.5989 66.6371 69.6139 66.6116 69.6316 66.6132C69.6327 66.6145 69.6322 66.6173 69.6303 66.6184C69.5614 66.6583 69.5032 66.7211 69.4364 66.762C69.2197 66.8912 68.9514 66.9207 68.7053 66.9055L68.9831 67.0136L68.982 67.0124C68.902 66.9467 68.8065 66.9111 68.7103 66.9052C67.2179 66.7301 66.2682 65.2191 65.7637 63.9112C65.5999 63.5897 65.6115 63.0453 65.2052 62.9327C62.2066 62.1294 59.1428 61.5186 56.0447 61.3031C54.2552 61.1213 52.2806 61.0983 50.4767 61.1537C50.3904 61.1551 50.3219 61.226 50.3233 61.3123C50.3248 61.3986 50.396 61.4668 50.4816 61.466C54.1436 61.5164 57.845 61.9914 61.3923 62.8867C62.5772 63.1893 63.7553 63.5206 64.9145 63.8965L64.5779 63.5595C64.7332 64.0388 64.9014 64.5078 65.12 64.9644C65.7987 66.3612 66.9577 67.7451 68.6268 67.9083L68.3555 67.8009C68.5025 67.9471 68.7446 67.9044 68.9261 67.9162C69.581 67.891 70.076 67.6133 70.3765 67.2768L69.6693 67.3578C69.9846 67.6065 70.3517 67.4033 70.5259 67.087C70.5753 67.007 70.6206 66.9244 70.665 66.842L70.1369 67.1288C71.7731 67.3781 73.6716 67.169 74.9495 65.992L74.9551 65.9846L74.9564 65.9835L74.8844 66.0569L75.2035 65.749C75.9619 65.0344 76.3841 64.0353 76.5138 63.0059L76.4071 63.2691C76.4676 63.1938 76.5032 63.1035 76.5139 63.0139C76.6799 61.6299 76.6973 60.2002 76.4715 58.81C76.3249 57.9496 76.1274 57.0771 75.6624 56.3197L75.5436 56.1836C75.6379 56.2504 75.7179 56.395 75.725 56.5104C75.6753 56.3048 75.5425 56.1237 75.423 55.957C75.3603 55.8656 75.2221 55.698 75.1516 55.6136C75.0369 55.4587 74.5959 55.0285 74.3136 54.8299C74.1845 54.739 73.9973 54.6082 73.8622 54.5202C72.5171 53.632 71.0422 52.8981 69.4814 52.4796C68.1264 52.1318 66.7301 51.8707 65.373 51.5799C61.7526 50.8831 58.7914 50.4118 55.2586 50.16L55.1699 50.1619C55.2847 50.1437 55.444 50.1898 55.5316 50.2666L55.2485 50.1591C54.2265 50.0988 53.2026 50.0559 52.1665 50.0697C48.9258 50.0849 44.9307 50.6679 43.0976 52.8895L42.9936 53.0221L42.787 53.2884C42.3842 53.8644 43.2194 54.4384 43.6179 53.8569L43.6186 53.8557Z" fill="#150B3A"/>
<path d="M70.5431 66.1468C70.0555 65.8915 69.6925 65.3599 70.1709 64.923C70.7058 64.4764 71.6014 64.5309 72.2924 64.6284C72.3798 64.6399 72.4598 64.578 72.4713 64.4906C72.4814 64.4126 72.4334 64.3405 72.3608 64.3182C71.9634 64.1936 71.5555 64.0696 71.1148 64.0461C70.088 63.916 68.8647 64.5376 69.0446 65.7604C69.1288 66.3552 69.4927 66.8135 69.9014 67.1338C70.5952 67.6383 71.2857 66.5764 70.5434 66.1471L70.5431 66.1468Z" fill="#150B3A"/>
<path d="M60.8358 62.5931C60.9438 62.4969 60.9991 62.3473 60.968 62.1958C60.2448 58.6497 61.2982 54.7413 63.7169 51.996C63.87 51.8221 63.8532 51.557 63.6792 51.4039C63.5056 51.2506 63.2427 51.2666 63.0871 51.4416C60.4982 54.3801 59.3711 58.5652 60.146 62.3634C60.1923 62.5907 60.4136 62.737 60.6408 62.6907C60.7159 62.6754 60.7821 62.6409 60.8354 62.5934L60.8358 62.5931Z" fill="#150B3A"/>
<path fill-rule="evenodd" clip-rule="evenodd" d="M66.0256 52.6965C64.6044 53.1072 63.3082 54.8695 62.8955 57.1541C62.4934 59.3804 63.0507 61.4355 64.1785 62.3551C63.8494 62.4502 63.5136 62.4728 63.1804 62.4126C61.4088 62.0926 60.3846 59.5522 60.8928 56.7386C61.401 53.925 63.2492 51.9035 65.0209 52.2235C65.3908 52.2904 65.7281 52.4539 66.0256 52.6965Z" fill="#C4C2CE"/>
</g>
<mask id="path-93-outside-2_5410_6588" maskUnits="userSpaceOnUse" x="58.0435" y="48.9803" width="11" height="17" fill="black">
<rect fill="white" x="58.0435" y="48.9803" width="11" height="17"/>
<path fill-rule="evenodd" clip-rule="evenodd" d="M66.183 51.7191C64.3204 52.1667 62.5403 54.3702 61.8722 57.3012C61.2212 60.1572 61.8213 62.8484 63.2261 64.1042C62.7948 64.2078 62.3591 64.2173 61.9317 64.1199C59.6588 63.6019 58.4832 60.2557 59.306 56.646C60.1287 53.0363 62.6383 50.5301 64.9112 51.0482C65.3857 51.1563 65.8124 51.3877 66.183 51.7191Z"/>
</mask>
<path fill-rule="evenodd" clip-rule="evenodd" d="M66.183 51.7191C64.3204 52.1667 62.5403 54.3702 61.8722 57.3012C61.2212 60.1572 61.8213 62.8484 63.2261 64.1042C62.7948 64.2078 62.3591 64.2173 61.9317 64.1199C59.6588 63.6019 58.4832 60.2557 59.306 56.646C60.1287 53.0363 62.6383 50.5301 64.9112 51.0482C65.3857 51.1563 65.8124 51.3877 66.183 51.7191Z" fill="#4E8C9B"/>
<path d="M61.8722 57.3012L62.8472 57.5234L61.8722 57.3012ZM66.183 51.7191L66.4167 52.6914L68.2723 52.2454L66.8495 50.9735L66.183 51.7191ZM63.2261 64.1042L63.4598 65.0765L65.3154 64.6305L63.8926 63.3586L63.2261 64.1042ZM61.9317 64.1199L62.154 63.1449L62.154 63.1449L61.9317 64.1199ZM64.9112 51.0482L65.1334 50.0732L64.9112 51.0482ZM62.8472 57.5234C63.1516 56.1877 63.7049 55.0417 64.3673 54.195C65.0373 53.3386 65.7701 52.8468 66.4167 52.6914L65.9493 50.7468C64.7334 51.039 63.6447 51.8728 62.7921 52.9627C61.9317 54.0624 61.2608 55.4837 60.8972 57.0789L62.8472 57.5234ZM63.8926 63.3586C62.8698 62.4443 62.2375 60.1982 62.8472 57.5234L60.8972 57.0789C60.2049 60.1163 60.7728 63.2525 62.5597 64.8497L63.8926 63.3586ZM62.9925 63.1319C62.6991 63.2024 62.4198 63.2055 62.154 63.1449L61.7095 65.0949C62.2985 65.2292 62.8906 65.2133 63.4598 65.0765L62.9925 63.1319ZM62.154 63.1449C61.4715 62.9894 60.8101 62.374 60.4015 61.2109C59.998 60.0624 59.9049 58.5182 60.281 56.8682L58.331 56.4238C57.8843 58.3835 57.9677 60.3173 58.5145 61.8738C59.0562 63.4157 60.1191 64.7324 61.7095 65.0949L62.154 63.1449ZM60.281 56.8682C60.657 55.2183 61.4101 53.867 62.2714 53.0068C63.1437 52.1356 64.0064 51.8676 64.6889 52.0232L65.1334 50.0732C63.543 49.7107 62.0145 50.4368 60.8581 51.5916C59.6908 52.7574 58.7776 54.4641 58.331 56.4238L60.281 56.8682ZM64.6889 52.0232C64.9832 52.0902 65.26 52.2353 65.5166 52.4646L66.8495 50.9735C66.3647 50.5402 65.7882 50.2224 65.1334 50.0732L64.6889 52.0232Z" fill="#150B3A" mask="url(#path-93-outside-2_5410_6588)"/>
<circle cx="46.4827" cy="59.3812" r="0.5" transform="rotate(-0.464905 46.4827 59.3812)" fill="#FF3E3E" stroke="#150B3A" stroke-width="0.471991"/>
<circle cx="48.4788" cy="59.3676" r="0.5" transform="rotate(-0.464905 48.4788 59.3676)" fill="#FF3E3E" stroke="#150B3A" stroke-width="0.471991"/>
<circle cx="50.4758" cy="59.354" r="0.5" transform="rotate(-0.464905 50.4758 59.354)" fill="#FF3E3E" stroke="#150B3A" stroke-width="0.471991"/>
<circle cx="42.1708" cy="52.5089" r="0.735996" transform="rotate(103.072 42.1708 52.5089)" fill="#0C2738"/>
<circle cx="41.7162" cy="54.4533" r="0.735996" transform="rotate(103.072 41.7162 54.4533)" fill="#0C2738"/>
<circle cx="41.2626" cy="56.3977" r="0.735996" transform="rotate(103.072 41.2626 56.3977)" fill="#0C2738"/>
<circle cx="61.3251" cy="54.1981" r="0.735996" transform="rotate(103.072 61.3251 54.1981)" fill="#0C2738"/>
<circle cx="60.8705" cy="56.1425" r="0.735996" transform="rotate(103.072 60.8705 56.1425)" fill="#0C2738"/>
<circle cx="60.4164" cy="58.0869" r="0.735996" transform="rotate(103.072 60.4164 58.0869)" fill="#0C2738"/>
</g>
<defs>
<linearGradient id="paint0_linear_5410_6588" x1="0.144387" y1="31.4938" x2="52.6895" y2="38.0057" gradientUnits="userSpaceOnUse">
<stop stop-color="white"/>
<stop offset="1" stop-color="#58E1FF"/>
</linearGradient>
<linearGradient id="paint1_linear_5410_6588" x1="33.0741" y1="27.543" x2="51.1607" y2="25.4679" gradientUnits="userSpaceOnUse">
<stop offset="9.53674e-07" stop-color="#9527FF"/>
<stop offset="1" stop-color="#22DBE0"/>
</linearGradient>
<linearGradient id="paint2_linear_5410_6588" x1="42.9063" y1="25.8953" x2="37.0433" y2="25.7992" gradientUnits="userSpaceOnUse">
<stop offset="9.53674e-07" stop-color="#F232ED"/>
<stop offset="1" stop-color="#2281E0"/>
</linearGradient>
<linearGradient id="paint3_linear_5410_6588" x1="21.5333" y1="27.9276" x2="3.34913" y2="27.0599" gradientUnits="userSpaceOnUse">
<stop offset="9.53674e-07" stop-color="#9527FF"/>
<stop offset="1" stop-color="#22DBE0"/>
</linearGradient>
<linearGradient id="paint4_linear_5410_6588" x1="11.6144" y1="26.9364" x2="17.458" y2="26.4506" gradientUnits="userSpaceOnUse">
<stop offset="9.53674e-07" stop-color="#F232ED"/>
<stop offset="1" stop-color="#2281E0"/>
</linearGradient>
<linearGradient id="paint5_linear_5410_6588" x1="31.7785" y1="19.4927" x2="35.3792" y2="17.8511" gradientUnits="userSpaceOnUse">
<stop offset="9.53674e-07" stop-color="#9527FF"/>
<stop offset="1" stop-color="#22DBE0"/>
</linearGradient>
<linearGradient id="paint6_linear_5410_6588" x1="22.2055" y1="19.8178" x2="18.5039" y2="18.4192" gradientUnits="userSpaceOnUse">
<stop offset="9.53674e-07" stop-color="#9527FF"/>
<stop offset="1" stop-color="#22DBE0"/>
</linearGradient>
<linearGradient id="paint7_linear_5410_6588" x1="8.23365" y1="39.0984" x2="47.0562" y2="37.8077" gradientUnits="userSpaceOnUse">
<stop offset="9.53674e-07" stop-color="#9527FF"/>
<stop offset="1" stop-color="#22DBE0"/>
</linearGradient>
<clipPath id="clip0_5410_6588">
<rect width="76.0864" height="104.813" fill="white" transform="translate(0.45752)"/>
</clipPath>
<clipPath id="clip1_5410_6588">
<rect width="6.81196" height="4.54131" fill="white" transform="matrix(0.998353 -0.057376 0.0573743 0.998353 30.8823 34.0165)"/>
</clipPath>
</defs>
</svg>
