<svg width="55" height="105" viewBox="0 0 55 105" fill="none" xmlns="http://www.w3.org/2000/svg">
<g clip-path="url(#clip0_5410_6178)">
<path d="M53.918 41.256C54.4849 50.7076 49.512 58.1319 39.1388 59.1899C38.9418 59.2108 38.7423 59.2295 38.5412 59.2444L35.75 47.9164C37.8258 47.5364 39.7534 47.103 41.4564 46.5055C41.4565 46.5067 41.4577 46.5054 41.4577 46.5054C45.0153 45.2618 47.5919 43.3072 48.4866 39.6449L48.4866 39.6437C48.6673 38.9032 48.7791 38.0932 48.8159 37.2043L53.3137 36.9919C53.6343 38.4475 53.836 39.8735 53.9182 41.256L53.918 41.256Z" fill="white"/>
<path d="M38.5643 59.6241C38.3813 59.6354 38.2158 59.514 38.1716 59.3354L35.3804 48.0074C35.3553 47.9056 35.3732 47.798 35.4302 47.7099C35.4872 47.6218 35.5779 47.5613 35.6812 47.5423C43.5448 46.1004 48.1527 43.9439 48.4355 37.1884C48.4439 36.9916 48.5983 36.8318 48.7978 36.8242L53.2953 36.6118C53.4805 36.6031 53.645 36.7291 53.6847 36.9101C55.1074 43.3709 54.2019 49.2046 51.1347 53.3369C48.3954 57.0271 44.0506 59.2013 38.5704 59.6238C38.5684 59.6239 38.5663 59.624 38.5643 59.6241ZM36.2157 48.217L38.8328 58.8381C43.9352 58.3748 47.9729 56.3198 50.5238 52.8833C53.4085 48.9971 54.2869 43.504 53.0091 37.3871L49.1774 37.5679C48.9579 40.9419 47.6266 43.4226 45.1149 45.1437C42.6893 46.8056 39.4252 47.6137 36.2159 48.217L36.2157 48.217Z" fill="#150B3A"/>
<path d="M49.8366 54.7076C49.7744 54.7114 49.7105 54.7001 49.6505 54.6713C45.9545 52.9149 43.0872 48.5804 43.5139 45.3954C43.5419 45.1871 43.7326 45.0408 43.9416 45.0687C44.1499 45.0967 44.296 45.2881 44.2683 45.4964C43.8808 48.3883 46.5484 52.3544 49.9774 53.9838C50.1671 54.074 50.2481 54.3009 50.1578 54.4908C50.0961 54.6205 49.971 54.6991 49.8371 54.7073L49.8366 54.7076Z" fill="#150B3A"/>
<g opacity="0.25">
<path d="M53.9183 41.2559C54.4852 50.7076 49.5123 58.1318 39.1391 59.1899C38.9585 58.2975 38.7783 57.4064 38.5977 56.514C38.5556 56.3018 38.5135 56.0746 38.5967 55.875C38.6809 55.6754 38.9446 55.5385 39.1212 55.6636L39.3717 55.6469C44.045 55.0047 48.4286 52.4536 51.2966 48.7086C51.7685 48.0926 52.2012 47.4448 52.5357 46.7457C53.0867 45.5988 53.3616 44.3406 53.5974 43.0898C53.7112 42.4806 53.8173 41.868 53.9182 41.2557L53.9183 41.2559Z" fill="#150B3A"/>
</g>
<path d="M15.551 50.1967C15.551 50.1967 7.14697 60.1868 7.14697 68.5297C7.14697 75.671 15.551 78.1262 15.551 78.1262L27.199 57.5071L15.551 50.1967Z" fill="white"/>
<path d="M7.14697 68.5286C7.14697 75.6707 15.551 78.1262 15.551 78.1262L15.8384 77.6185L27.199 57.5045L18.4151 51.996L15.5477 50.1967C15.5477 50.1967 7.14697 60.188 7.14697 68.5286Z" fill="white"/>
<path opacity="0.35" d="M10.7271 69.474C10.7271 73.5079 13.5183 76.0148 15.8784 77.4101L27.1983 57.7338L18.4459 52.3451C16.4742 54.8418 10.7271 62.7103 10.7271 69.474Z" fill="#150B3A"/>
<path d="M15.6769 78.1262L15.2993 78.0179C15.2091 77.9909 13.0677 77.3748 10.8996 75.8686C7.97645 73.8377 6.42969 71.1535 6.42969 68.114C6.42969 59.8381 14.7014 50.2117 15.0555 49.8055L15.3361 49.4805L27.914 57.1302L15.6769 78.1262ZM15.5466 50.8141C14.1 52.5743 7.44861 61.0498 7.44861 68.114C7.44861 73.8343 13.6156 76.3492 15.2058 76.9009L26.5209 57.489L15.5466 50.8141Z" fill="#150B3A"/>
<path opacity="0.35" d="M27.1981 72.3973C26.9497 72.8797 26.7129 73.3621 26.4819 73.8296C26.7129 73.3621 26.9555 72.8797 27.1981 72.3973Z" fill="#150B3A"/>
<path d="M9.85172 100.62C9.85838 100.708 9.8717 100.796 9.88835 100.88C10.3179 103.462 13.3081 104.385 18.6857 103.671C21.1198 103.351 24.4863 102.97 25.3753 101.008C27.1468 97.0911 25.3387 89.163 25.5485 84.0832V84.0765C25.5485 84.0765 26.5275 84.1978 27.7395 84.1978C28.9549 84.1978 29.9339 84.0765 29.9339 84.0765C29.9339 84.1169 29.9372 84.1574 29.9372 84.2012C30.117 89.2844 28.3489 97.1214 30.107 101.011C30.9961 102.973 34.3592 103.354 36.7966 103.674C42.1809 104.389 45.1678 103.462 45.594 100.873C45.6073 100.789 45.6206 100.708 45.6273 100.624C45.937 97.4686 41.5882 96.0023 41.5882 96.0023C41.5882 96.0023 42.5372 89.3079 43.1632 83.2675C43.4263 80.7259 43.4862 78.1001 43.403 75.4843C43.383 74.8068 43.353 74.1293 43.3131 73.4551C43.2565 72.4944 43.1865 71.5439 43.1 70.6001C43.0234 69.781 42.9401 68.972 42.8436 68.1765C42.4906 65.1765 42.0144 62.3382 41.525 59.8439C41.0854 57.6057 40.6359 55.6405 40.2496 54.0798C40.1631 53.736 40.0831 53.4124 40.0032 53.1056C39.5304 51.2652 39.2041 50.1967 39.2041 50.1967H16.2749C16.2749 50.1967 15.9453 51.2753 15.4725 53.1259C15.1928 54.2079 14.8664 55.5596 14.5235 57.1101C14.3903 57.7169 14.2537 58.354 14.1206 59.0214C13.5711 61.7147 13.0284 64.8596 12.6355 68.2001C12.5422 68.9821 12.459 69.7708 12.3857 70.5697C12.2958 71.5472 12.2226 72.5349 12.1659 73.5293C12.126 74.2338 12.0927 74.9416 12.0727 75.6495C12.0594 76.118 12.0494 76.59 12.0461 77.0585C12.0261 79.1484 12.1093 81.2349 12.3191 83.2607C12.9451 89.3012 13.8908 95.9956 13.8908 95.9956C13.8908 95.9956 9.54205 97.4653 9.85172 100.62Z" fill="white"/>
<path opacity="0.35" d="M30.1429 101.028C31.0429 102.977 34.447 103.356 36.9142 103.677C42.3642 104.384 45.3875 103.466 45.8189 100.894C41.3565 102.656 33.4932 101.651 32.1484 99.4138C30.4058 96.5201 30.1261 93.6265 32.8326 90.0195C35.539 86.4159 35.748 81.707 35.748 81.707C34.4538 82.6548 31.7911 83.683 29.9677 84.326C30.1531 89.3765 28.3633 97.1632 30.1429 101.028Z" fill="#150B3A"/>
<path opacity="0.35" d="M10.0117 100.902C10.4277 103.467 13.3234 104.382 18.5279 103.678C20.885 103.36 24.1483 102.982 25.0061 101.029C26.7216 97.1373 24.9706 89.2597 25.1738 84.2123C23.7291 83.7434 21.0592 82.7855 19.6532 81.707C19.6532 81.707 18.9438 85.0932 21.9621 89.7186C24.3966 93.453 24.574 96.4205 22.9069 99.3143C21.7267 101.367 14.7035 102.208 10.0117 100.902Z" fill="#150B3A"/>
<path d="M40.1312 54.1684C40.6827 55.8494 41.1318 57.5641 41.5313 59.2856C41.7294 60.1498 41.9176 61.0139 42.0827 61.8848C42.1653 62.3202 42.2511 62.7556 42.3271 63.1911L42.545 64.5041C42.621 64.9396 42.6837 65.3784 42.7464 65.8172L42.938 67.1336C42.9941 67.5725 43.0502 68.0146 43.0998 68.4535C43.1559 68.8923 43.1988 69.3345 43.2417 69.7767C43.4333 71.542 43.529 73.3175 43.605 75.093C43.6446 76.8719 43.6743 78.6508 43.5752 80.4297L43.5455 81.098L43.529 81.4322L43.5026 81.7664L43.3936 83.0997C43.3177 83.9875 43.2153 84.8617 43.1196 85.7427C42.7266 89.2566 42.2809 92.7604 41.7988 96.2641L41.4587 95.7038C41.6931 95.7882 41.8912 95.8726 42.0992 95.9671C42.304 96.0616 42.5054 96.1629 42.7035 96.2675C43.0998 96.4835 43.4861 96.7266 43.8493 97.0101C44.2158 97.2903 44.5592 97.6109 44.8663 97.9822C45.1701 98.3502 45.4277 98.7822 45.6027 99.2548C45.7744 99.7274 45.8437 100.247 45.8107 100.75C45.781 101.246 45.6588 101.739 45.4376 102.202C45.213 102.661 44.8828 103.069 44.4932 103.376C44.1069 103.69 43.6776 103.916 43.2417 104.082C42.3667 104.416 41.4719 104.541 40.5902 104.598C39.7086 104.649 38.8336 104.618 37.9651 104.551C37.5326 104.514 37.1 104.47 36.6707 104.413L35.3962 104.244C34.5442 104.122 33.6824 103.98 32.8239 103.744C32.3946 103.626 31.9654 103.484 31.5427 103.299C31.1233 103.11 30.7073 102.877 30.3243 102.559C30.136 102.397 29.9577 102.215 29.7992 102.013C29.6407 101.813 29.5087 101.567 29.4129 101.341C29.2214 100.909 29.0926 100.46 28.9836 100.014C28.7756 99.1198 28.6865 98.2185 28.6468 97.3274C28.6072 96.4363 28.6171 95.5485 28.6534 94.6675C28.7228 92.9055 28.8846 91.1638 29.0233 89.4321C29.1586 87.7005 29.2907 85.9689 29.228 84.2744L29.7926 84.7638C29.4096 84.8077 29.0464 84.8347 28.6732 84.8583C28.3034 84.8786 27.9303 84.8887 27.5572 84.8887C27.184 84.8887 26.8109 84.8786 26.4411 84.8583C26.068 84.8381 25.7047 84.8077 25.3217 84.7638L25.8863 84.2744C25.8236 85.9689 25.9557 87.7005 26.0911 89.4321C26.2298 91.1671 26.3916 92.9089 26.4609 94.6675C26.4972 95.5485 26.5071 96.4329 26.4675 97.3274C26.4279 98.2185 26.3387 99.1164 26.1307 100.014C26.0217 100.46 25.8963 100.909 25.7014 101.341C25.609 101.564 25.4736 101.81 25.3151 102.013C25.1566 102.218 24.9783 102.397 24.7901 102.559C24.4103 102.877 23.9943 103.11 23.5716 103.299C23.149 103.484 22.7197 103.629 22.2905 103.744C21.4319 103.98 20.5701 104.122 19.7182 104.244L18.4436 104.413C18.0143 104.47 17.5818 104.51 17.1492 104.551C16.2808 104.618 15.409 104.649 14.5241 104.598C13.6425 104.541 12.7476 104.416 11.8726 104.082C11.4367 103.916 11.0075 103.69 10.6211 103.376C10.2315 103.069 9.90459 102.661 9.67675 102.202C9.45551 101.739 9.33334 101.243 9.30362 100.75C9.2706 100.247 9.33664 99.7274 9.51165 99.2548C9.68665 98.7822 9.94421 98.3535 10.248 97.9822C10.5551 97.6143 10.8985 97.2903 11.265 97.0101C11.6315 96.7299 12.0146 96.4869 12.4108 96.2675C12.6089 96.1595 12.8104 96.0582 13.0151 95.9671C13.2231 95.8726 13.4212 95.7882 13.6557 95.7038L13.3156 96.2641C12.8302 92.7334 12.3811 89.2026 11.9849 85.6617C11.8891 84.774 11.7867 83.8963 11.7108 82.9984C11.6745 82.5495 11.6249 82.1039 11.6018 81.655L11.5259 80.3116C11.4565 78.5158 11.4664 76.7234 11.5358 74.9344C11.6018 73.1454 11.7405 71.3598 11.9221 69.5809C11.9617 69.1353 12.0146 68.6897 12.0641 68.2476C12.1136 67.802 12.1665 67.3598 12.2226 66.9142C12.3316 66.0265 12.4471 65.1421 12.5825 64.2577C12.85 62.4856 13.1736 60.7405 13.5797 58.9852C13.6854 58.5498 13.7977 58.1177 13.9198 57.689C14.0387 57.257 14.1642 56.8316 14.2963 56.403C14.5637 55.549 14.851 54.7017 15.2175 53.8781C15.2572 53.7903 15.3562 53.7532 15.4421 53.7937C15.5147 53.8275 15.5543 53.9085 15.5378 53.9861V53.9895C15.1878 55.7245 14.8675 57.4696 14.5307 59.2046C14.2269 60.9329 13.9264 62.6881 13.6458 64.4333C13.0778 67.9235 12.6783 71.4475 12.5462 74.9817C12.4769 76.747 12.467 78.5124 12.5363 80.2744C12.6089 82.0364 12.7905 83.7849 12.9887 85.5537C13.3816 89.0811 13.8307 92.6085 14.3128 96.1257L14.3722 96.5443L13.976 96.6861C13.8076 96.7468 13.6094 96.8278 13.4278 96.9122C13.2429 96.9966 13.0613 97.0877 12.883 97.1823C12.5264 97.3747 12.1863 97.5941 11.8693 97.8371C11.2386 98.3198 10.707 98.9206 10.456 99.6126C10.3305 99.9569 10.2843 100.318 10.3074 100.686C10.3272 101.061 10.423 101.425 10.5749 101.746C10.8853 102.387 11.4962 102.85 12.2226 103.123C12.949 103.4 13.7613 103.521 14.5769 103.575C15.3958 103.623 16.2313 103.596 17.0634 103.528C17.4794 103.491 17.8955 103.451 18.3148 103.397L19.5762 103.228C20.4116 103.11 21.2371 102.971 22.0263 102.755C22.8089 102.539 23.5782 102.242 24.1429 101.77C24.2816 101.651 24.407 101.523 24.5127 101.385L24.5887 101.28L24.6547 101.169C24.6778 101.132 24.6943 101.094 24.7141 101.054L24.7438 100.997L24.7703 100.929C24.9321 100.568 25.0443 100.173 25.1401 99.778C25.3283 98.978 25.4142 98.1341 25.4505 97.2835C25.4901 96.4329 25.4769 95.5755 25.4439 94.7148C25.3745 92.9933 25.216 91.2616 25.0774 89.5199C24.942 87.7781 24.8033 86.0263 24.8693 84.2339L24.8891 83.6803L25.434 83.7444C25.7708 83.7849 26.134 83.8119 26.484 83.8322C26.8373 83.8524 27.1939 83.8626 27.544 83.8626C27.8973 83.8626 28.2506 83.8524 28.6039 83.8322C28.9539 83.8119 29.3171 83.7849 29.6539 83.7444L30.1988 83.6803L30.2186 84.2339C30.2813 86.0263 30.1459 87.7781 30.0106 89.5199C29.8719 91.2616 29.7134 92.9899 29.644 94.7148C29.611 95.5755 29.5978 96.4363 29.6374 97.2835C29.6738 98.1341 29.7596 98.9746 29.9478 99.778C30.0469 100.176 30.1559 100.568 30.3176 100.929L30.3441 100.997L30.3738 101.054C30.3936 101.091 30.4101 101.132 30.4332 101.169L30.4993 101.28L30.5752 101.385C30.6809 101.523 30.8063 101.651 30.945 101.77C31.5097 102.242 32.279 102.539 33.0616 102.755C33.8508 102.971 34.6763 103.11 35.5117 103.228L36.7731 103.397C37.1891 103.451 37.6052 103.491 38.0246 103.528C38.8567 103.596 39.6921 103.623 40.511 103.575C41.3266 103.525 42.1389 103.403 42.8653 103.123C43.5918 102.85 44.2026 102.391 44.513 101.746C44.6649 101.425 44.7607 101.061 44.7805 100.686C44.8036 100.321 44.7574 99.9569 44.6319 99.6126C44.3842 98.924 43.8493 98.3198 43.2186 97.8371C42.9016 97.5941 42.5615 97.378 42.2049 97.1823C42.0266 97.0877 41.845 96.9966 41.6601 96.9122C41.4785 96.8278 41.2803 96.7468 41.1119 96.6861L40.7157 96.5443L40.7751 96.1257C41.2572 92.6355 41.6997 89.1351 42.0926 85.6347C42.1851 84.7605 42.2908 83.8828 42.3634 83.0086L42.4691 81.7023L42.4955 81.3748L42.5087 81.0474L42.5351 80.3926C42.621 78.6474 42.5912 76.8922 42.5318 75.1437C42.3667 71.6433 41.9969 68.1497 41.495 64.6729C40.9865 61.1962 40.369 57.7397 39.7779 54.2562C39.7614 54.1616 39.8242 54.0739 39.9166 54.057C40.0256 54.0367 40.1048 54.0908 40.1312 54.1684Z" fill="#150B3A"/>
<path d="M18.3516 92.4493C14.4068 92.4493 13.0509 90.5511 12.9721 90.4361C12.8112 90.2027 12.8554 89.8684 13.0667 89.6907C13.2779 89.5166 13.5775 89.5619 13.7383 89.7917C13.7793 89.851 16.365 93.24 25.1281 89.9276C25.3803 89.8335 25.6547 89.9798 25.7398 90.2585C25.8249 90.5371 25.6925 90.8367 25.4402 90.9342C22.4635 92.0592 20.1427 92.4493 18.3516 92.4493Z" fill="#150B3A"/>
<path d="M37.6661 92.4493C33.9395 92.4493 29.9468 91.2674 29.6939 91.1897C29.4277 91.1089 29.2847 90.8516 29.3745 90.6122C29.4643 90.3728 29.7505 90.2442 30.0167 90.325C30.1065 90.3519 39.0136 92.9878 42.1014 90.4237C42.3077 90.2532 42.6271 90.2651 42.8201 90.4476C43.0097 90.6331 42.9964 90.9204 42.7935 91.0939C41.5624 92.1142 39.6525 92.4493 37.6661 92.4493Z" fill="#150B3A"/>
<path d="M29.7779 83.6081L30.5207 83.4323C30.7729 83.3652 31.0252 83.3045 31.2774 83.2343C31.7818 83.1001 32.2827 82.9499 32.7803 82.7869C33.2812 82.6272 33.7684 82.4419 34.2659 82.2598C34.7703 82.084 35.2574 81.8796 35.7929 81.707C35.4405 82.1128 35.0294 82.4674 34.5768 82.771C34.3557 82.9307 34.1173 83.0681 33.8824 83.2055C33.6405 83.3333 33.3987 83.4611 33.1465 83.5761C32.649 83.8126 32.1307 84.0138 31.6021 84.1832C31.0666 84.3493 30.5415 84.4899 29.9507 84.5666C29.6639 84.6049 29.3944 84.4196 29.353 84.1544C29.315 83.9052 29.4843 83.6752 29.7399 83.6145L29.7779 83.6081Z" fill="#150B3A"/>
<path d="M25.2339 84.5673C24.7114 84.4906 24.2411 84.35 23.7647 84.1838C23.2944 84.0144 22.8333 83.8099 22.3907 83.5766C22.1694 83.4616 21.9511 83.3305 21.7359 83.2059C21.5239 83.0685 21.3148 82.9311 21.1181 82.7713C20.7185 82.4676 20.3497 82.1097 20.0361 81.707C20.5126 81.8796 20.946 82.0841 21.3948 82.2599C21.8374 82.4389 22.2739 82.6274 22.7165 82.7872C23.1591 82.9502 23.6048 83.1004 24.0536 83.2347C24.278 83.305 24.5024 83.3657 24.7268 83.4328L25.3876 83.6086L25.4122 83.615C25.6643 83.6821 25.8149 83.9473 25.7503 84.2094C25.695 84.4491 25.4676 84.5993 25.2339 84.5673Z" fill="#150B3A"/>
<path d="M41.6221 96.2964C41.3111 96.2664 40.9686 96.2391 40.6367 96.2173C40.3047 96.1955 39.9692 96.1737 39.6337 96.1655C38.9628 96.1382 38.2953 96.1355 37.6243 96.1573C36.9569 96.1846 36.2964 96.25 35.629 96.3346C34.9685 96.43 34.322 96.5718 33.644 96.7464C34.1542 96.3618 34.7833 96.07 35.4472 95.8546C36.1147 95.6473 36.8206 95.5164 37.5265 95.4264C38.2359 95.3446 38.9523 95.3092 39.6652 95.3146C40.0216 95.3201 40.3781 95.331 40.7345 95.3583C41.0944 95.3828 41.4369 95.421 41.8108 95.4783C42.1009 95.5246 42.2861 95.7428 42.2267 95.9691C42.1708 96.1819 41.9157 96.3237 41.6431 96.2991L41.6221 96.2964Z" fill="#150B3A"/>
<path d="M13.304 95.4783C13.6778 95.4183 14.0202 95.3828 14.3801 95.3583C14.7364 95.331 15.0928 95.3201 15.4491 95.3146C16.1618 95.3092 16.878 95.3446 17.5873 95.4264C18.2965 95.5164 18.9987 95.6473 19.666 95.8546C20.3298 96.0728 20.9586 96.3646 21.4687 96.7464C20.7944 96.5718 20.1446 96.43 19.4843 96.3346C18.8205 96.25 18.1602 96.1846 17.4894 96.1573C16.8221 96.1355 16.1514 96.1382 15.4806 96.1655C15.1452 96.1764 14.8098 96.1982 14.4779 96.2173C14.1495 96.2391 13.8036 96.2664 13.4927 96.2964L13.4717 96.2991C13.1782 96.3264 12.9127 96.1655 12.8778 95.9364C12.8498 95.721 13.035 95.5219 13.304 95.4783Z" fill="#150B3A"/>
<path opacity="0.35" d="M35.7913 81.707C35.7913 81.707 31.6237 82.3408 28.4055 82.3408C25.1873 82.3408 20.0361 81.707 20.0361 81.707C20.0361 81.707 23.1275 83.9483 28.0594 83.8525C33.1146 83.7505 35.7913 81.707 35.7913 81.707Z" fill="#150B3A"/>
<path d="M12.5227 67.3842C12.4917 67.3842 12.4607 67.3808 12.4297 67.3704C8.82423 66.2724 7.91279 63.0163 7.87869 62.8781C7.82288 62.6675 7.92829 62.45 8.1174 62.3878C8.30651 62.3257 8.50181 62.4431 8.55762 62.6537C8.59172 62.778 9.40705 65.6336 12.6157 66.6108C12.8048 66.6695 12.9164 66.887 12.8637 67.0976C12.8203 67.2668 12.6777 67.3842 12.5227 67.3842Z" fill="#150B3A"/>
<path d="M31.8122 58.7562C30.9845 59.582 30.9085 60.8801 31.5844 61.7917L30.8908 62.4862C30.7566 62.6201 30.7566 62.8398 30.8908 62.9762C31.025 63.11 31.2452 63.11 31.3794 62.9762L32.073 62.2817C32.9843 62.956 34.2829 62.8802 35.1107 62.0544C36.0195 61.1452 36.0195 59.6653 35.1107 58.7562C34.2019 57.8471 32.721 57.8471 31.8122 58.7562ZM34.6221 61.5645C34.0652 62.12 33.2071 62.1933 32.5717 61.7842L32.8476 61.5089C32.9818 61.3751 32.9818 61.1553 32.8476 61.019C32.7134 60.8851 32.4932 60.8851 32.359 61.019L32.0856 61.2942C31.6755 60.6604 31.749 59.8017 32.3033 59.2461C32.9438 58.6072 33.9842 58.6072 34.6247 59.2461C35.2626 59.8851 35.2626 60.9255 34.6221 61.5645ZM32.5185 63.1782C32.6527 63.312 32.6527 63.5318 32.5185 63.6681L31.0503 65.1354C30.9161 65.2692 30.6959 65.2692 30.5617 65.1354C30.4275 65.0015 30.4275 64.7818 30.5617 64.6455L32.0299 63.1782C32.1641 63.0443 32.3818 63.0443 32.5185 63.1782ZM28.7315 63.3045C28.5973 63.1706 28.5973 62.9509 28.7315 62.8145L30.1997 61.3473C30.3339 61.2134 30.5541 61.2134 30.6883 61.3473C30.8224 61.4811 30.8224 61.7008 30.6883 61.8372L29.22 63.3045C29.0859 63.4383 28.8656 63.4383 28.7315 63.3045Z" fill="#150B3A"/>
<path opacity="0.35" d="M40.0884 49.8445C39.5563 50.4698 38.9775 51.0562 38.3589 51.6001C35.3156 54.2743 31.2978 55.9095 26.8875 55.9258C21.8685 55.9453 17.3418 53.8639 14.1721 50.5252C13.7098 50.0399 13.2774 49.5252 12.875 48.9878C12.9615 48.9813 13.048 48.978 13.1378 48.978H16.7565C20.1058 47.1702 23.475 46.0204 25.4008 45.8999H25.6036C27.5294 46.0172 30.8987 47.1702 34.2446 48.9813H37.6638C38.5851 48.9813 39.4332 49.307 40.0884 49.8445Z" fill="#150B3A"/>
<path d="M23.2713 52.752C37.472 54.8844 50.7278 44.9993 52.879 30.673C55.0302 16.3467 45.2623 3.00428 31.0616 0.871913C16.861 -1.26045 3.6052 8.62469 1.45396 22.951C-0.697271 37.2773 9.07069 50.6197 23.2713 52.752Z" fill="url(#paint0_linear_5410_6178)"/>
<path fill-rule="evenodd" clip-rule="evenodd" d="M30.9986 1.29421C17.0276 -0.803679 3.98633 8.91989 1.8702 23.0124C-0.245931 37.1049 9.36437 50.2299 23.3354 52.3278C37.3065 54.4256 50.3477 44.7021 52.4638 30.6096C54.58 16.517 44.9697 3.3921 30.9986 1.29421ZM0.999398 22.8817C3.18837 8.30402 16.6785 -1.75427 31.1305 0.415837C45.5825 2.58594 55.5236 16.1627 53.3346 30.7403C51.1456 45.3179 37.6555 55.3762 23.2035 53.2061C8.75154 51.036 -1.18958 37.4593 0.999398 22.8817Z" fill="#150B3A"/>
<path d="M40.469 18.3837C45.3221 15.9169 48.09 15.4153 48.4712 15.6352C48.8524 15.8552 52.1249 26.969 47.9077 33.6737C44.5842 38.9593 42.7461 38.195 41.4671 38.2397C40.931 38.2628 40.4109 38.0811 39.9262 37.8604C38.5301 37.2069 37.3649 36.0999 36.6359 34.7477C35.9416 33.4599 35.6358 31.9493 34.7252 30.8214C33.1029 28.8172 31.6547 28.2151 33.0245 25.891C34.12 24.0139 35.9855 20.6546 40.469 18.3837Z" fill="url(#paint1_linear_5410_6178)"/>
<path fill-rule="evenodd" clip-rule="evenodd" d="M46.2525 16.3515C44.9309 16.7503 43.0459 17.4835 40.6345 18.7092L40.634 18.7094C36.3724 20.868 34.5336 24.0255 33.4311 25.9187C33.4002 25.9717 33.3699 26.0238 33.3401 26.0748L33.3393 26.0761C33.0128 26.6301 32.8744 27.0485 32.8487 27.3872C32.8237 27.7161 32.9026 27.9999 33.0704 28.2947C33.2445 28.6006 33.5085 28.9091 33.8521 29.285C33.9152 29.354 33.9808 29.4251 34.0485 29.4984C34.3412 29.8157 34.6724 30.1746 35.0093 30.5907L35.0096 30.5911C35.5004 31.199 35.8208 31.9007 36.1001 32.586C36.1662 32.748 36.2297 32.9084 36.2924 33.0667C36.5006 33.5922 36.7004 34.0964 36.9576 34.5736C37.6493 35.8566 38.7556 36.9077 40.0793 37.5277C40.5497 37.7418 41.0043 37.8929 41.4511 37.8737L41.4526 37.8736L41.4541 37.8736C41.6347 37.8673 41.8097 37.8733 41.9851 37.8793C42.5185 37.8976 43.0559 37.916 43.7678 37.5891C44.7078 37.1574 45.9511 36.0974 47.5978 33.4785L47.5979 33.4784C49.6414 30.2295 49.8857 25.8749 49.5494 22.256C49.382 20.4544 49.0724 18.8534 48.7819 17.6919C48.6366 17.1108 48.497 16.6433 48.3837 16.3182C48.3274 16.1563 48.2795 16.0354 48.2427 15.9554C48.2328 15.9548 48.2216 15.9544 48.2091 15.9541C48.1137 15.9521 47.9762 15.9609 47.7931 15.9866C47.4284 16.0379 46.9141 16.1519 46.2525 16.3515ZM48.2243 15.2228C48.3544 15.2254 48.5204 15.2409 48.6538 15.3179C48.7129 15.352 48.7516 15.3946 48.7706 15.4172C48.7929 15.4436 48.8111 15.4705 48.8253 15.4934C48.8538 15.5392 48.8808 15.5922 48.9059 15.6466C48.9567 15.7568 49.0138 15.903 49.0746 16.0776C49.1968 16.4286 49.3424 16.9179 49.4916 17.5144C49.7901 18.708 50.1066 20.3458 50.2778 22.1883C50.6187 25.8574 50.3907 30.412 48.2171 33.8679C46.5403 36.5345 45.2028 37.7351 44.0731 38.2539C43.1867 38.6609 42.4266 38.6321 41.8755 38.6112C41.7286 38.6057 41.5966 38.6007 41.481 38.6046C40.8568 38.6311 40.2724 38.4195 39.7744 38.1927L39.7727 38.1919L39.7709 38.1911C38.3032 37.5041 37.0797 36.3415 36.3137 34.9207C36.034 34.4019 35.813 33.8435 35.602 33.3107C35.5418 33.1586 35.4824 33.0086 35.4227 32.8621C35.148 32.1882 34.8603 31.5708 34.4406 31.0509C34.1202 30.655 33.8084 30.317 33.5166 30.0007C33.4473 29.9256 33.3791 29.8517 33.3122 29.7786C32.9709 29.4052 32.6542 29.0422 32.4347 28.6565C32.2088 28.2598 32.0812 27.832 32.1192 27.3317C32.1565 26.8414 32.3506 26.3132 32.7087 25.7054C32.7398 25.6522 32.7715 25.5978 32.8038 25.5421C33.9177 23.6289 35.8476 20.3138 40.3032 18.057C42.7448 16.816 44.6702 16.0649 46.0411 15.6512C46.7258 15.4446 47.2783 15.3202 47.6914 15.2622C47.8973 15.2333 48.0764 15.2197 48.2243 15.2228Z" fill="#150B3A"/>
<path d="M42.0364 34.9366C41.457 34.3613 40.2927 31.9674 38.6131 30.7387C36.9335 29.5101 35.5814 29.6473 35.6475 27.9263C35.7136 26.2053 37.1484 24.3347 39.7284 22.3255C42.3085 20.3162 45.436 19.2916 45.5994 19.8783C45.7628 20.465 46.571 24.3442 45.6161 28.5355C44.6902 32.7313 42.6136 35.5262 42.0364 34.9366Z" fill="#5C13A1"/>
<path d="M42.402 34.9632C42.402 34.9632 40.8731 31.7451 39.2449 30.5686C37.6311 29.3942 36.3246 29.5235 36.3987 27.8481C36.4705 26.1871 37.8366 24.3802 40.3313 22.4469C42.826 20.5136 45.8291 19.5295 45.9968 20.0872C46.1646 20.645 46.9322 24.3997 46.0158 28.4341C45.0993 32.4685 43.532 34.6299 42.402 34.9632Z" fill="#FF4DD3"/>
<path d="M40.3315 22.4484C40.7497 22.1265 41.1802 21.8213 41.6186 21.5617C41.7821 21.5566 41.8957 21.5885 41.9261 21.6818C42.041 22.0985 42.6273 24.8939 41.9352 27.9264C41.54 29.672 40.9806 30.9342 40.414 31.7516C40.0408 31.2813 39.6444 30.8668 39.2451 30.5701C37.6313 29.3957 36.3248 29.525 36.3989 27.8496C36.4585 26.172 37.8369 24.3817 40.3315 22.4484Z" fill="url(#paint2_linear_5410_6178)"/>
<path d="M13.1552 18.6772C8.27464 16.3022 5.49098 15.825 5.11476 16.0644C4.74072 16.2893 1.6297 27.4505 5.95835 34.0923C9.35762 39.3369 11.1945 38.5327 12.4627 38.5604C12.9944 38.5663 13.5232 38.3942 14.0029 38.1555C15.392 37.4765 16.5381 36.3467 17.2451 34.9882C17.9144 33.6832 18.1983 32.1872 19.0962 31.0349C20.6873 29.0103 22.1278 28.3833 20.7124 26.0848C19.5878 24.2146 17.677 20.88 13.1552 18.6772Z" fill="url(#paint3_linear_5410_6178)"/>
<path fill-rule="evenodd" clip-rule="evenodd" d="M7.54603 16.0381C8.92371 16.4314 10.8599 17.153 13.315 18.3478L13.3152 18.3478C17.8116 20.5383 19.7864 23.8302 20.9293 25.7354C20.9618 25.7894 20.9935 25.8424 21.0247 25.8942C21.3943 26.4948 21.5984 27.0191 21.6446 27.5082C21.6919 28.0077 21.5716 28.4376 21.3523 28.8378C21.1391 29.2268 20.828 29.5946 20.4924 29.9728C20.4257 30.048 20.3577 30.1239 20.2885 30.2011C20.0025 30.5204 19.6971 30.8615 19.384 31.2598C18.9693 31.7922 18.6895 32.4128 18.4253 33.0872C18.3649 33.2412 18.305 33.3991 18.2443 33.5594C18.0446 34.0861 17.8355 34.6375 17.5703 35.1546L17.5698 35.1555L17.5693 35.1565C16.8269 36.583 15.6243 37.769 14.1645 38.483C13.6562 38.7358 13.0687 38.9323 12.4584 38.9256L12.4564 38.9256L12.4545 38.9255C12.3392 38.923 12.2068 38.9301 12.0588 38.9381C11.5119 38.9674 10.7527 39.0081 9.86236 38.617C8.72382 38.1169 7.36651 36.937 5.65149 34.2911C3.42052 30.8677 3.12278 26.3169 3.40816 22.6432C3.55146 20.7983 3.84331 19.1561 4.1237 17.9582C4.26381 17.3596 4.40193 16.8683 4.51861 16.5157C4.57666 16.3403 4.63131 16.1934 4.68023 16.0826C4.70438 16.028 4.73038 15.9746 4.758 15.9285C4.77178 15.9055 4.78943 15.8785 4.8111 15.8518C4.829 15.8297 4.86525 15.7882 4.92088 15.7536C5.05441 15.6698 5.22233 15.6501 5.35217 15.6445C5.50103 15.6382 5.68136 15.6486 5.88807 15.6741C6.3029 15.7253 6.85811 15.8417 7.54603 16.0381ZM5.34972 16.3774C5.35964 16.3766 5.37089 16.3759 5.38355 16.3754C5.478 16.3713 5.615 16.3775 5.79841 16.4001C6.16386 16.4452 6.68014 16.5517 7.34523 16.7415C8.67355 17.1207 10.5694 17.8252 12.9948 19.0055C17.2948 21.1002 19.1759 24.235 20.3071 26.1202C20.3382 26.172 20.3687 26.2229 20.3987 26.2727L20.3997 26.2744L20.4007 26.276C20.7381 26.8239 20.8844 27.2395 20.9164 27.5772C20.9474 27.905 20.8735 28.1894 20.7108 28.4863C20.5419 28.7944 20.283 29.1067 19.9452 29.4873C19.8823 29.5582 19.8169 29.6312 19.7495 29.7065C19.4623 30.027 19.1377 30.3894 18.8084 30.8084L18.8075 30.8096C18.3245 31.4294 18.0136 32.1327 17.7442 32.8203C17.6772 32.9912 17.6132 33.16 17.5499 33.3268C17.3534 33.8448 17.1644 34.3428 16.9199 34.8196C16.2485 36.1093 15.1596 37.1823 13.8421 37.8264L13.8409 37.8269L13.8398 37.8275C13.3896 38.0515 12.9205 38.1987 12.4684 38.1941C12.2868 38.1903 12.1111 38.1991 11.9347 38.2079C11.4058 38.2344 10.8713 38.2612 10.1566 37.9473C9.20986 37.5314 7.94917 36.4911 6.26506 33.8928L6.26455 33.892C4.16706 30.6737 3.85601 26.3232 4.13748 22.6998C4.2776 20.896 4.5631 19.2907 4.83596 18.125C4.97247 17.5418 5.10495 17.0723 5.21309 16.7455C5.26745 16.5813 5.31376 16.4589 5.3494 16.3782C5.3495 16.3779 5.34961 16.3777 5.34972 16.3774Z" fill="#150B3A"/>
<path d="M11.832 35.2682C12.4094 34.6743 13.5253 32.2677 15.1915 31.0237C16.8578 29.7796 18.2019 29.8927 18.1067 28.1622C18.0114 26.4318 16.5576 24.5861 13.9377 22.6245C11.3178 20.6629 8.18189 19.6742 8.03277 20.2732C7.87135 20.8555 7.13791 24.7546 8.13848 28.929C9.13905 33.1033 11.2713 35.8497 11.832 35.2682Z" fill="#5C13A1"/>
<path d="M11.4735 35.2899C11.4735 35.2899 12.9657 32.0521 14.5675 30.8428C16.1694 29.6334 17.4701 29.74 17.3784 28.0841C17.289 26.4137 15.8822 24.649 13.357 22.746C10.8319 20.843 7.80738 19.9006 7.6626 20.4707C7.50336 21.0385 6.79165 24.793 7.77053 28.8161C8.74942 32.8392 10.3356 34.9859 11.4735 35.2899Z" fill="#FF4DD3"/>
<path d="M13.343 22.7438C12.9169 22.4283 12.4865 22.1418 12.054 21.8697C11.876 21.8726 11.7827 21.9029 11.7552 21.9876C11.6466 22.4151 11.1072 25.219 11.8388 28.2286C12.2589 29.9634 12.8374 31.2338 13.4131 32.0304C13.7785 31.5675 14.1685 31.1378 14.5679 30.8427C16.1697 29.6334 17.4704 29.74 17.3788 28.084C17.2749 26.4115 15.8703 24.6323 13.343 22.7438Z" fill="url(#paint4_linear_5410_6178)"/>
<path fill-rule="evenodd" clip-rule="evenodd" d="M33.1569 20.9723L31.1052 26.0642L30.291 25.7361L32.3427 20.6443L33.1569 20.9723Z" fill="#150B3A"/>
<path d="M32.9992 21.4085C34.0619 21.5681 35.0528 20.8359 35.2124 19.7732C35.372 18.7104 34.6398 17.7195 33.5771 17.5599C32.5144 17.4004 31.5235 18.1325 31.3639 19.1953C31.2043 20.258 31.9365 21.2489 32.9992 21.4085Z" fill="url(#paint5_linear_5410_6178)"/>
<path fill-rule="evenodd" clip-rule="evenodd" d="M33.5126 17.9922C32.6896 17.8686 31.9222 18.4356 31.7986 19.2586C31.675 20.0816 32.2421 20.849 33.0651 20.9726C33.8881 21.0962 34.6555 20.5292 34.7791 19.7062C34.9027 18.8831 34.3356 18.1158 33.5126 17.9922ZM30.9305 19.1283C31.1261 17.8258 32.3405 16.9285 33.643 17.1241C34.9454 17.3197 35.8427 18.5341 35.6472 19.8365C35.4516 21.139 34.2372 22.0363 32.9347 21.8407C31.6323 21.6451 30.735 20.4307 30.9305 19.1283Z" fill="#150B3A"/>
<path fill-rule="evenodd" clip-rule="evenodd" d="M21.274 20.7314L23.4145 25.787L22.6062 26.1293L20.4656 21.0737L21.274 20.7314Z" fill="#150B3A"/>
<path d="M20.0251 21.5013C21.0878 21.6609 22.0787 20.9287 22.2383 19.866C22.3979 18.8032 21.6657 17.8124 20.603 17.6528C19.5402 17.4932 18.5493 18.2254 18.3898 19.2881C18.2302 20.3508 18.9623 21.3417 20.0251 21.5013Z" fill="url(#paint6_linear_5410_6178)"/>
<path fill-rule="evenodd" clip-rule="evenodd" d="M20.5375 18.0851C19.7145 17.9615 18.9471 18.5285 18.8235 19.3515C18.7 20.1745 19.267 20.9419 20.09 21.0655C20.913 21.1891 21.6804 20.6221 21.804 19.7991C21.9276 18.976 21.3606 18.2087 20.5375 18.0851ZM17.9554 19.2212C18.151 17.9187 19.3654 17.0214 20.6679 17.217C21.9703 17.4126 22.8676 18.627 22.6721 19.9294C22.4765 21.2319 21.2621 22.1292 19.9596 21.9336C18.6572 21.738 17.7599 20.5236 17.9554 19.2212Z" fill="#150B3A"/>
<path d="M27.1867 53.4215C34.1475 53.372 40.9229 49.7291 45.189 45.1621C45.1486 44.4459 44.5546 44.4603 44.4687 43.7521C44.4239 43.3607 46.2788 42.9291 46.0076 42.6664C45.1692 41.8452 43.8962 40.4705 43.62 39.4526C41.1047 30.3906 34.5876 23.9381 26.975 23.9933C19.3479 24.0464 12.9178 30.6112 10.5559 39.7397C10.3518 40.5079 8.72304 42.2902 8.05524 42.7965C7.55385 43.1798 9.84708 43.3762 9.77825 44.0317C9.7029 44.7305 9.27024 45.0502 9.2506 45.7721C13.576 50.2682 20.2259 53.4711 27.1867 53.4215Z" fill="url(#paint7_linear_5410_6178)"/>
<path d="M44.9581 45.3205C44.9661 45.0702 44.8373 44.8438 44.6377 44.6954C44.0489 44.2815 43.1968 43.6506 43.2004 43.4292C43.1968 43.3547 43.2779 43.3077 43.4189 43.2549C42.7739 41.4419 40.3471 39.672 38.5391 40.4805C35.4817 41.8264 34.1777 42.8195 31.2952 41.1587C28.4127 39.498 29.8116 36.7289 27.2333 36.756C27.2189 36.7539 27.2044 36.7517 27.1878 36.764C27.1733 36.7618 27.1588 36.7596 27.1443 36.7575C24.1667 36.7838 25.6094 39.8823 22.8986 41.2939C20.1877 42.7056 18.9256 41.7453 15.8916 40.66C14.0383 39.9971 11.4221 41.853 11.0543 43.5139C11.1802 43.5624 11.2605 43.6188 11.2663 43.6789C11.2626 43.9002 10.3951 44.5541 9.81272 44.9844C9.62967 45.1197 9.52474 45.3258 9.53339 45.5638C9.53121 45.5783 9.52904 45.5928 9.52687 45.6073C10.248 46.3221 12.5995 48.4949 16.2807 50.7786C19.6508 52.8677 24.1164 53.0796 26.1464 53.059C26.7526 53.0612 27.1563 53.0331 27.2764 53.0215C27.3943 53.0244 27.8059 53.0419 28.4121 53.0441C30.4399 53.0379 34.9071 52.7471 38.2453 50.6149C41.9264 48.268 44.2266 46.054 44.9581 45.3205Z" fill="white"/>
<path fill-rule="evenodd" clip-rule="evenodd" d="M26.972 23.6275C34.8132 23.5706 41.4321 30.2039 43.9721 39.3547L43.9724 39.3557L43.9727 39.3567C44.0899 39.7888 44.4359 40.3376 44.8886 40.9051C45.3332 41.4624 45.8494 41.9997 46.2632 42.4051C46.3272 42.4676 46.3894 42.5634 46.3989 42.6902C46.4081 42.813 46.3637 42.9108 46.3232 42.9726C46.2512 43.0827 46.14 43.1579 46.0673 43.2028C45.9152 43.2968 45.6992 43.3933 45.5061 43.4795L45.472 43.4948C45.2541 43.5922 45.058 43.6814 44.9184 43.7664C44.8903 43.7836 44.868 43.7985 44.8505 43.8111C44.8914 43.9691 44.9777 44.0608 45.1119 44.2033C45.29 44.3924 45.526 44.6489 45.5538 45.1414L45.5626 45.2975L45.4559 45.4117C41.1344 50.0382 34.2678 53.7368 27.189 53.7872C20.1191 53.8375 13.3753 50.5874 8.9867 46.0256L8.8805 45.9152L8.88466 45.7621C8.89665 45.3218 9.03806 45.0038 9.16171 44.7386C9.1672 44.7268 9.17264 44.7152 9.17802 44.7036C9.28954 44.4648 9.37768 44.276 9.41025 44.0262C9.39079 44.0053 9.35156 43.9724 9.28132 43.9309C9.11899 43.8351 8.88798 43.7479 8.63142 43.6565C8.60683 43.6477 8.58167 43.6388 8.55612 43.6298C8.34217 43.554 8.10074 43.4686 7.93982 43.3759C7.89075 43.3477 7.83586 43.3116 7.78606 43.2658C7.73799 43.2216 7.67531 43.1507 7.64118 43.0493C7.60286 42.9355 7.61165 42.8154 7.66204 42.7093C7.7069 42.6149 7.77587 42.5493 7.83278 42.5058L7.83396 42.5049C8.13682 42.2753 8.691 41.7264 9.2009 41.1288C9.45339 40.8329 9.68794 40.5333 9.86987 40.2649C10.0578 39.9877 10.1673 39.7755 10.2018 39.6467C12.5872 30.4292 19.1164 23.6821 26.972 23.6275ZM44.7987 43.855C44.7987 43.855 44.7992 43.8543 44.8003 43.8531C44.7993 43.8544 44.7987 43.855 44.7987 43.855ZM43.267 39.5494C40.7761 30.5767 34.3611 24.3054 26.9773 24.359L26.9772 24.359C19.5792 24.4105 13.2484 30.7923 10.9097 39.8312L10.9094 39.8324L10.9091 39.8335C10.8412 40.0889 10.6707 40.3872 10.4754 40.6753C10.2737 40.973 10.021 41.2947 9.75735 41.6037C9.35411 42.0762 8.90818 42.5387 8.55788 42.8523C8.63362 42.8808 8.72117 42.9119 8.81998 42.9471C8.8386 42.9537 8.85761 42.9605 8.87703 42.9674C9.1225 43.0549 9.42054 43.1637 9.65317 43.301C9.77003 43.37 9.89422 43.4596 9.98858 43.5774C10.0881 43.7016 10.1627 43.8695 10.1417 44.0698L10.1416 44.0708C10.0994 44.4623 9.96088 44.7574 9.84845 44.997C9.8404 45.0142 9.83248 45.031 9.82474 45.0476C9.72944 45.2521 9.65538 45.4251 9.62743 45.6356C13.8919 50.0043 20.3927 53.104 27.1838 53.0557C33.9623 53.0074 40.5852 49.487 44.802 45.0392C44.7672 44.909 44.6931 44.8256 44.5793 44.7047C44.5741 44.6992 44.5687 44.6935 44.5633 44.6878C44.3963 44.5109 44.1619 44.2625 44.1052 43.796L44.1051 43.7948L44.105 43.7935C44.0816 43.5895 44.1884 43.4376 44.2639 43.3557C44.3437 43.2692 44.4449 43.1984 44.5376 43.1419C44.7248 43.0277 44.967 42.9192 45.1734 42.827C45.2979 42.7713 45.408 42.7221 45.5001 42.6777C45.1257 42.2992 44.6986 41.8399 44.3168 41.3613C43.8546 40.782 43.4262 40.1349 43.267 39.5494Z" fill="#150B3A"/>
<path d="M26.8409 33.2651C27.5201 33.3671 28.1534 32.8992 28.2554 32.22C28.3574 31.5408 27.8895 30.9075 27.2103 30.8055C26.5311 30.7035 25.8978 31.1714 25.7958 31.8506C25.6938 32.5298 26.1617 33.1631 26.8409 33.2651Z" fill="#D4E8FF"/>
<path d="M26.8859 29.6182C27.2934 29.6794 27.6734 29.3986 27.7346 28.9911C27.7958 28.5836 27.515 28.2036 27.1075 28.1424C26.7 28.0812 26.32 28.362 26.2588 28.7695C26.1976 29.177 26.4784 29.557 26.8859 29.6182Z" fill="#D4E8FF"/>
<path d="M29.0011 41.6334C29.0017 42.4176 27.3283 43.2167 27.1937 43.2261C27.0613 43.221 25.3578 42.4474 25.3572 41.6632C25.3566 40.879 26.1603 40.7482 27.168 40.7368C28.1758 40.7254 29.0005 40.8492 29.0011 41.6334Z" fill="#150B3A"/>
<path fill-rule="evenodd" clip-rule="evenodd" d="M30.9986 1.29421C17.0276 -0.803679 3.98633 8.91989 1.8702 23.0124C-0.245931 37.1049 9.36437 50.2299 23.3354 52.3278C37.3065 54.4256 50.3477 44.7021 52.4638 30.6096C54.58 16.517 44.9697 3.3921 30.9986 1.29421ZM0.999398 22.8817C3.18837 8.30402 16.6785 -1.75427 31.1305 0.415837C45.5825 2.58594 55.5236 16.1627 53.3346 30.7403C51.1456 45.3179 37.6555 55.3762 23.2035 53.2061C8.75154 51.036 -1.18958 37.4593 0.999398 22.8817Z" fill="#150B3A"/>
<path d="M29.0251 41.7057C29.0257 42.518 27.2921 43.3459 27.1527 43.3556C27.0156 43.3503 25.2508 42.5489 25.2502 41.7365C25.2496 40.9242 26.0822 40.7887 27.1262 40.7768C28.1701 40.765 29.0244 40.8933 29.0251 41.7057Z" fill="#150B3A"/>
<path fill-rule="evenodd" clip-rule="evenodd" d="M27.147 42.9423C27.2726 42.9409 27.3755 43.0416 27.3768 43.1671C27.3885 44.2448 26.5275 45.1221 25.4505 45.1338C24.3729 45.1456 23.4955 44.2845 23.4838 43.2075C23.4825 43.082 23.5831 42.9791 23.7087 42.9777C23.8342 42.9764 23.9371 43.077 23.9385 43.2026C23.9475 44.0291 24.6197 44.6882 25.4456 44.6792C26.2721 44.6702 26.9311 43.998 26.9222 43.1721C26.9208 43.0465 27.0215 42.9437 27.147 42.9423Z" fill="#150B3A"/>
<path fill-rule="evenodd" clip-rule="evenodd" d="M30.5826 42.9236C30.7081 42.9222 30.811 43.0229 30.8124 43.1485C30.8241 44.2261 29.963 45.1035 28.8861 45.1152C27.8084 45.1269 26.9311 44.2658 26.9194 43.1888C26.918 43.0633 27.0187 42.9604 27.1442 42.959C27.2698 42.9577 27.3727 43.0584 27.374 43.1839C27.383 44.0105 28.0552 44.6695 28.8811 44.6605C29.7077 44.6515 30.3667 43.9793 30.3577 43.1534C30.3564 43.0279 30.457 42.925 30.5826 42.9236Z" fill="#150B3A"/>
<path fill-rule="evenodd" clip-rule="evenodd" d="M29.3374 44.8178C29.4487 44.8759 29.4919 45.0132 29.4339 45.1245C28.441 47.0288 25.9665 46.9802 24.9219 45.1746C24.859 45.0659 24.8962 44.9268 25.0049 44.8639C25.1135 44.8011 25.2526 44.8382 25.3155 44.9469C26.1934 46.4644 28.2154 46.4781 29.0307 44.9143C29.0887 44.803 29.2261 44.7598 29.3374 44.8178Z" fill="#150B3A"/>
<path d="M25.9297 44.7664C26.5179 45.8509 27.8638 45.8691 28.4013 44.739L27.2421 43.7834L25.9297 44.7664Z" fill="#150B3A"/>
<path fill-rule="evenodd" clip-rule="evenodd" d="M32.0644 36.97C29.3737 33.9222 27.8911 29.2036 27.8911 24.1687H29.0646C29.0646 29.0054 30.4937 33.4178 32.9441 36.1933C34.1644 37.5755 35.6311 38.5458 37.3014 38.9805C38.9696 39.4146 40.8814 39.3252 43.0125 38.5225L43.4262 39.6206C41.0981 40.4975 38.9378 40.6189 37.0058 40.1161C35.076 39.6139 33.4147 38.4994 32.0644 36.97Z" fill="black"/>
<path fill-rule="evenodd" clip-rule="evenodd" d="M33.8686 40.0412C30.7378 38.1225 28.4546 33.6876 27.9224 25.7923L29.0932 25.7134C29.617 33.4837 31.8443 37.4243 34.4818 39.0407C37.1013 40.646 40.3632 40.0963 43.3114 38.306L43.9205 39.309C40.7815 41.2151 37.0173 41.9708 33.8686 40.0412Z" fill="black"/>
<path d="M39.2888 37.5607C39.2888 40.3312 37.056 42.5772 34.3016 42.5772C31.5473 42.5772 29.3145 40.3312 29.3145 37.5607C29.3145 34.7902 31.5473 32.5442 34.3016 32.5442C37.056 32.5442 39.2888 34.7902 39.2888 37.5607Z" fill="black"/>
<path fill-rule="evenodd" clip-rule="evenodd" d="M34.3016 41.1104C36.2378 41.1104 37.822 39.5293 37.822 37.5607C37.822 35.5921 36.2378 34.011 34.3016 34.011C32.3655 34.011 30.7813 35.5921 30.7813 37.5607C30.7813 39.5293 32.3655 41.1104 34.3016 41.1104ZM34.3016 42.5772C37.056 42.5772 39.2888 40.3312 39.2888 37.5607C39.2888 34.7902 37.056 32.5442 34.3016 32.5442C31.5473 32.5442 29.3145 34.7902 29.3145 37.5607C29.3145 40.3312 31.5473 42.5772 34.3016 42.5772Z" fill="black"/>
<path d="M23.1729 36.3154C21.6796 36.0069 20.2982 35.327 19.0396 34.481C18.6207 34.1952 18.2144 33.8775 17.8921 33.4626C17.8795 33.4462 17.8824 33.4227 17.8986 33.4101C17.9084 33.4023 17.9218 33.4008 17.933 33.4041C18.4311 33.5567 18.8815 33.7509 19.3327 33.9522C20.2419 34.3388 21.1443 34.73 22.0321 35.1652C22.4762 35.3843 22.9182 35.6164 23.3413 35.8877C23.556 36.0208 23.4186 36.3653 23.1729 36.3154Z" fill="#150B3A"/>
<path d="M22.6998 39.1716C22.1078 40.9976 20.5742 39.797 18.8587 39.1995C17.1432 38.602 15.9046 38.838 16.4967 37.0121C17.0887 35.1861 18.9572 34.1995 20.662 34.7956C22.3898 35.3832 23.2919 37.3457 22.6998 39.1716Z" fill="#150B3A"/>
<path d="M21.2343 37.0533C20.7889 36.6054 20.2613 36.4111 20.6228 36.1851C20.9828 35.9699 21.5437 36.1799 21.8789 36.6566C22.2141 37.1334 22.1957 37.6938 21.8342 37.9198C21.4858 38.1366 21.6797 37.5011 21.2343 37.0533Z" fill="white"/>
<path d="M48.8807 39.6916C48.8554 40.1311 48.1427 40.4446 47.2889 40.3919C46.435 40.3392 45.7634 39.9401 45.7887 39.5006C45.814 39.0611 46.5266 38.7476 47.3805 38.8003C48.2343 38.853 48.906 39.2521 48.8807 39.6916Z" fill="#C4C2CE"/>
<path fill-rule="evenodd" clip-rule="evenodd" d="M48.7522 41.0324C48.3116 41.2262 47.7753 41.3037 47.238 41.2706C46.7007 41.2374 46.1771 41.0944 45.7619 40.8478C45.3909 40.6274 44.8686 40.165 44.91 39.4464C44.9513 38.7278 45.523 38.333 45.9166 38.1598C46.3572 37.966 46.8935 37.8885 47.4308 37.9217C47.9681 37.9549 48.4917 38.0978 48.9069 38.3445C49.2778 38.5649 49.8002 39.0273 49.7588 39.7458C49.7175 40.4644 49.1458 40.8593 48.7522 41.0324ZM47.2886 40.3919C48.1424 40.4446 48.8551 40.1311 48.8804 39.6916C48.9057 39.2521 48.234 38.8531 47.3802 38.8003C46.5264 38.7476 45.8137 39.0611 45.7884 39.5006C45.7631 39.9402 46.4347 40.3392 47.2886 40.3919Z" fill="#150B3A"/>
<path d="M44.5088 34.7081C42.9071 34.9704 40.1618 35.12 40.0689 36.6195C40.291 39.3211 44.8651 38.7724 47.9832 39.7141C50.5521 40.2612 53.4988 40.2878 53.5709 39.1244C53.6429 37.9609 52.9129 35.6021 51.8188 34.8545C49.8945 33.364 46.9675 34.3055 44.5088 34.7081Z" fill="white"/>
<path fill-rule="evenodd" clip-rule="evenodd" d="M45.8928 34.901C45.4569 34.9858 45.0198 35.0708 44.5819 35.1425C44.3422 35.1818 44.0882 35.2174 43.8277 35.254C43.1683 35.3465 42.4668 35.445 41.8462 35.623C41.4194 35.7454 41.0788 35.894 40.8472 36.0735C40.6371 36.2364 40.5317 36.4107 40.5107 36.6189C40.5613 37.1259 40.8028 37.4739 41.2058 37.7457C41.6405 38.0389 42.2605 38.2393 43.0263 38.3955C43.6189 38.5163 44.2624 38.6042 44.9348 38.6961C45.1284 38.7226 45.3245 38.7494 45.5224 38.7774C46.3884 38.8999 47.2812 39.0446 48.0909 39.2873C49.3454 39.5531 50.6738 39.688 51.6828 39.6215C52.194 39.5877 52.5867 39.5043 52.8414 39.3853C53.092 39.2682 53.128 39.1617 53.1321 39.0952C53.1629 38.5969 53.0182 37.7812 52.7205 36.9863C52.4188 36.1805 52.0029 35.512 51.572 35.2177L51.5611 35.2102L51.5507 35.2021C50.7174 34.5567 49.6391 34.414 48.4004 34.5102C47.5714 34.5746 46.7344 34.7374 45.8928 34.901ZM47.9717 40.161L47.9693 40.169L47.858 40.1354C47.1134 39.9106 46.2719 39.772 45.4029 39.649C45.2158 39.6226 45.0269 39.5968 44.8376 39.5709C44.1603 39.4784 43.4779 39.3852 42.8542 39.2581C42.0591 39.0959 41.299 38.8682 40.7161 38.475C40.1104 38.0664 39.6986 37.4792 39.6307 36.6537L39.6281 36.622L39.6301 36.5904C39.6628 36.062 39.9356 35.6641 40.3065 35.3767C40.6658 35.0982 41.1291 34.9118 41.6004 34.7766C42.2847 34.5804 43.0878 34.4676 43.7651 34.3726C44.0089 34.3384 44.2364 34.3064 44.4362 34.2737C44.8195 34.2109 45.2284 34.1317 45.6506 34.0498C46.5229 33.8807 47.4519 33.7006 48.3285 33.6325C49.645 33.5303 50.9881 33.661 52.0773 34.499C52.7349 34.9545 53.2273 35.834 53.5443 36.6806C53.8672 37.5429 54.0514 38.4884 54.0102 39.1535C53.9783 39.6687 53.6189 39.9952 53.2165 40.1832C52.8181 40.3694 52.3 40.4632 51.7444 40.4999C50.6467 40.5723 49.2592 40.4293 47.9717 40.161Z" fill="#150B3A"/>
<path d="M52.7764 44.8171C52.0067 44.9243 51.0916 42.9214 50.7325 40.3434C50.3733 37.7654 50.706 35.5886 51.4756 35.4813C52.2452 35.3741 53.1603 37.3771 53.5195 39.9551C53.8787 42.5331 53.546 44.7099 52.7764 44.8171Z" fill="white"/>
<path fill-rule="evenodd" clip-rule="evenodd" d="M50.0845 40.4701C50.8809 40.5858 51.6758 40.5242 52.4258 40.2207C52.6875 40.1132 52.7868 39.7995 52.6394 39.543C52.4987 39.2961 52.1877 39.1933 51.9448 39.3135C51.3734 39.597 50.7343 39.6699 50.0845 39.6028V40.4701Z" fill="#150B3A"/>
</g>
<defs>
<linearGradient id="paint0_linear_5410_6178" x1="0.301188" y1="30.6843" x2="51.7335" y2="38.4074" gradientUnits="userSpaceOnUse">
<stop stop-color="white"/>
<stop offset="1" stop-color="#58E1FF"/>
</linearGradient>
<linearGradient id="paint1_linear_5410_6178" x1="32.5209" y1="28.058" x2="50.2918" y2="26.4814" gradientUnits="userSpaceOnUse">
<stop offset="9.53674e-07" stop-color="#9527FF"/>
<stop offset="1" stop-color="#22DBE0"/>
</linearGradient>
<linearGradient id="paint2_linear_5410_6178" x1="42.1942" y1="26.6938" x2="36.4529" y2="26.4517" gradientUnits="userSpaceOnUse">
<stop offset="9.53674e-07" stop-color="#F232ED"/>
<stop offset="1" stop-color="#2281E0"/>
</linearGradient>
<linearGradient id="paint3_linear_5410_6178" x1="21.2456" y1="28.2397" x2="3.45342" y2="26.931" gradientUnits="userSpaceOnUse">
<stop offset="9.53674e-07" stop-color="#9527FF"/>
<stop offset="1" stop-color="#22DBE0"/>
</linearGradient>
<linearGradient id="paint4_linear_5410_6178" x1="11.5528" y1="27.0184" x2="17.2897" y2="26.6899" gradientUnits="userSpaceOnUse">
<stop offset="9.53674e-07" stop-color="#F232ED"/>
<stop offset="1" stop-color="#2281E0"/>
</linearGradient>
<linearGradient id="paint5_linear_5410_6178" x1="31.4948" y1="20.2381" x2="35.0635" y2="18.7208" gradientUnits="userSpaceOnUse">
<stop offset="9.53674e-07" stop-color="#9527FF"/>
<stop offset="1" stop-color="#22DBE0"/>
</linearGradient>
<linearGradient id="paint6_linear_5410_6178" x1="22.1093" y1="20.3137" x2="18.5184" y2="18.8503" gradientUnits="userSpaceOnUse">
<stop offset="9.53674e-07" stop-color="#9527FF"/>
<stop offset="1" stop-color="#22DBE0"/>
</linearGradient>
<linearGradient id="paint7_linear_5410_6178" x1="7.93631" y1="38.8488" x2="46.0012" y2="38.5637" gradientUnits="userSpaceOnUse">
<stop offset="9.53674e-07" stop-color="#9527FF"/>
<stop offset="1" stop-color="#22DBE0"/>
</linearGradient>
<clipPath id="clip0_5410_6178">
<rect width="54.3474" height="104.813" fill="white" transform="translate(0.482422)"/>
</clipPath>
</defs>
</svg>
