<svg width="113" height="105" viewBox="0 0 113 105" fill="none" xmlns="http://www.w3.org/2000/svg">
<g clip-path="url(#clip0_5410_6437)">
<path d="M12.5759 49.5712C13.3473 47.4258 14.0635 45.4343 14.7061 43.6473L18.024 50.5477L25.0271 47.137C24.4225 48.8104 23.7507 50.6703 23.0268 52.675L15.7681 56.205L12.5759 49.5712Z" fill="url(#paint0_linear_5410_6437)"/>
<path d="M10.4724 55.4208C9.89349 57.0306 9.29634 58.6912 8.68663 60.3866L12.1984 67.6926L18.7608 64.4932C19.4828 62.4923 20.187 60.5411 20.8645 58.6643L13.7025 62.1449L10.4724 55.4208Z" fill="url(#paint1_linear_5410_6437)"/>
<path d="M4.36277 72.4157C5.06887 70.4443 5.81398 68.3684 6.58609 66.2218L10.1397 73.6123L16.6081 70.462C16.0108 72.1189 15.4598 73.6481 14.9514 75.0599L7.40273 78.7402L4.36277 72.4157Z" fill="url(#paint2_linear_5410_6437)"/>
<path d="M2.27116 78.2691C1.51608 80.3879 0.840146 82.2917 0.266113 83.9162L3.34635 90.3172L10.7853 86.6995C11.3034 85.2307 11.9644 83.3765 12.8074 81.0251L5.34406 84.6599L2.27116 78.2691Z" fill="url(#paint3_linear_5410_6437)"/>
<path d="M78.999 44.5272L73.8233 39.5297L78.9989 34.2108C77.409 34.2041 75.4336 34.1999 72.9672 34.1973L67.8662 39.4382L73.1409 44.5272H78.999Z" fill="url(#paint4_linear_5410_6437)"/>
<path d="M56.4091 39.4382L61.5143 34.1931C63.5403 34.1932 65.3924 34.1934 67.0863 34.1939L61.8943 39.5297L67.07 44.5272H61.6839L56.4091 39.4382Z" fill="url(#paint5_linear_5410_6437)"/>
<path d="M50.4372 39.5297L55.6301 34.193C53.6293 34.1929 51.6777 34.1921 49.7962 34.1908L44.7202 39.4106L50.0132 44.5272H55.613L50.4372 39.5297Z" fill="url(#paint6_linear_5410_6437)"/>
<path d="M43.9232 44.5272L38.728 39.5024L43.9063 34.1846C42.2458 34.1823 40.6735 34.1795 39.2089 34.1764L34.1584 39.3653L39.5087 44.5272H43.9232Z" fill="url(#paint7_linear_5410_6437)"/>
<path d="M27.8051 34.1217C28.2752 34.1353 30.2644 34.1485 33.3407 34.1599L28.1865 39.4568L33.4377 44.5272H28.0517L22.7014 39.3653L27.8051 34.1217Z" fill="url(#paint8_linear_5410_6437)"/>
<path d="M78.999 44.5272L73.8233 39.5297L78.9989 34.2108C77.409 34.2041 75.4336 34.1999 72.9672 34.1973L67.8662 39.4382L73.1409 44.5272H78.999Z" fill="url(#paint9_linear_5410_6437)"/>
<path d="M16.385 94.106L21.5607 99.1036L16.3852 104.422C17.9751 104.429 19.9504 104.433 22.4168 104.436L27.5179 99.1951L22.2431 94.106H16.385Z" fill="url(#paint10_linear_5410_6437)"/>
<path d="M38.9749 99.1951L33.8698 104.44C31.8437 104.44 29.9916 104.44 28.2977 104.439L33.4898 99.1036L28.3141 94.106H33.7001L38.9749 99.1951Z" fill="url(#paint11_linear_5410_6437)"/>
<path d="M44.9468 99.1036L39.7539 104.44C41.7548 104.44 43.7063 104.441 45.5878 104.442L50.6638 99.2227L45.3709 94.106H39.7711L44.9468 99.1036Z" fill="url(#paint12_linear_5410_6437)"/>
<path d="M51.4608 94.106L56.656 99.1309L51.4777 104.449C53.1383 104.451 54.7105 104.454 56.1751 104.457L61.2256 99.2679L55.8753 94.106H51.4608Z" fill="url(#paint13_linear_5410_6437)"/>
<path d="M67.5789 104.512C67.1088 104.498 65.1197 104.485 62.0433 104.473L67.1975 99.1764L61.9463 94.106H67.3323L72.6826 99.2679L67.5789 104.512Z" fill="url(#paint14_linear_5410_6437)"/>
<path d="M16.385 94.106L21.5607 99.1036L16.3852 104.422C17.9751 104.429 19.9504 104.433 22.4168 104.436L27.5179 99.1951L22.2431 94.106H16.385Z" fill="url(#paint15_linear_5410_6437)"/>
<path d="M4.31543 94.2041L9.49115 99.2016L4.31558 104.521C5.90547 104.527 7.88082 104.531 10.3473 104.534L15.4483 99.2931L10.1735 94.2041H4.31543Z" fill="url(#paint16_linear_5410_6437)"/>
<path d="M4.31543 94.2041L9.49115 99.2016L4.31558 104.521C5.90547 104.527 7.88082 104.531 10.3473 104.534L15.4483 99.2931L10.1735 94.2041H4.31543Z" fill="url(#paint17_linear_5410_6437)"/>
<path d="M46.9542 45.75L44.4091 48.5534L32.5961 61.5656C32.5961 61.5656 29.01 60.8764 25.6499 60.1619C22.9337 59.5847 20.3646 58.9911 19.9552 58.7322C18.692 57.9339 16.9238 53.7107 26.35 49.4171C35.7762 45.1229 46.9542 45.75 46.9542 45.75Z" fill="url(#paint18_linear_5410_6437)"/>
<g style="mix-blend-mode:color-burn" opacity="0.2">
<path d="M44.0252 47.6766L44.4101 48.5534L32.597 61.5656C32.597 61.5656 29.011 60.8764 25.6509 60.1619C30.5865 60.2788 32.2549 56.6143 32.2549 56.6143C39.575 49.3428 44.0252 47.6766 44.0252 47.6766Z" fill="#150B3A"/>
</g>
<g opacity="0.5">
<path d="M46.954 45.75L45.6576 47.178C42.2689 47.1767 33.9076 47.5479 26.6002 50.8776C20.9521 53.4502 19.3235 55.9977 19.1967 57.7979C18.4448 56.1446 18.9169 52.8027 26.35 49.4171C35.7763 45.1229 46.9543 45.75 46.9543 45.75H46.954Z" fill="#FEFEFE"/>
</g>
<path d="M58.9005 98.2105C51.3204 105.271 48.1008 102.018 47.8483 100.545C47.7478 99.9585 48.4305 96.1728 49.0668 92.8749C49.5902 90.1621 50.0828 87.7784 50.0828 87.7784L70.1899 80.5812C70.1899 80.5812 69.6724 82.0562 68.6279 84.2723C66.8777 87.988 63.6483 93.7868 58.9002 98.2101L58.9005 98.2105Z" fill="url(#paint19_linear_5410_6437)"/>
<g style="mix-blend-mode:color-burn" opacity="0.2">
<path d="M68.6024 84.1836C66.8476 84.726 58.48 87.492 53.6085 92.3043C53.6085 92.3043 51.3067 91.4304 49.041 92.7859C49.5644 90.0731 50.057 87.6894 50.057 87.6894L70.1641 80.4922C70.1641 80.4922 69.6466 81.9672 68.6021 84.1833L68.6024 84.1836Z" fill="#150B3A"/>
</g>
<path d="M48.9711 87.6598C48.9711 87.6598 48.1089 87.651 46.9708 87.4144C46.7987 87.3786 46.6201 87.3379 46.4375 87.2906C46.1013 87.2045 45.7499 87.0981 45.3969 86.9667C45.1418 86.8718 44.886 86.7637 44.6335 86.6415L31.4804 66.9242C31.4679 66.712 31.4636 66.5004 31.4679 66.2925C31.4794 65.5136 31.5924 64.7754 31.7253 64.1628C31.7336 64.1263 31.7418 64.0902 31.7496 64.0544V64.0537C31.9578 63.1378 32.2041 62.5271 32.2041 62.5271C37.3515 48.8593 61.5027 33.5903 80.8309 34.2582C85.3636 34.4145 89.6316 35.4477 93.327 37.5836L93.3345 37.5882C93.8136 37.8658 94.228 38.2295 94.5626 38.6542C94.6713 38.7932 94.7721 38.9387 94.8624 39.0911C95.1129 39.5054 95.2938 39.9637 95.393 40.4462C95.414 40.5468 95.4308 40.6486 95.4442 40.7511C96.0002 44.9872 95.3175 49.3287 93.7217 53.5796C86.923 71.6931 63.5621 88.1483 48.9708 87.6602L48.9711 87.6598Z" fill="#E1F5FE"/>
<g style="mix-blend-mode:color-burn" opacity="0.35">
<path d="M81.316 61.9365C77.5582 64.4456 72.0319 62.7623 68.9726 58.1767C68.0361 56.7727 67.4388 55.2596 67.1699 53.7632C66.5598 50.373 67.6306 47.0712 70.2377 45.3305C71.1128 44.746 72.0838 44.3896 73.0968 44.2437V44.2431L73.1017 44.2424C73.2498 44.2214 73.3989 44.205 73.5489 44.1928L75.5523 43.9678C78.495 43.481 81.8768 45.0598 83.954 48.1737C86.0312 51.2876 86.1911 55.0178 84.6127 57.5496L83.6371 59.313C83.5682 59.4477 83.4953 59.5794 83.4184 59.7085L83.4165 59.7128C82.8931 60.5925 82.1914 61.3524 81.3163 61.9368L81.316 61.9365Z" fill="#150B3A"/>
</g>
<path d="M48.6833 86.7525C48.1694 87.0955 47.5934 87.3129 46.9705 87.4145C46.2527 87.2656 45.4253 87.0262 44.6336 86.6415L31.4805 66.9242C31.4184 65.8703 31.5698 64.847 31.7501 64.0544V64.0537C32.0515 63.6362 32.4124 63.281 32.8366 62.9982C36.3254 60.6691 42.7015 64.098 47.0772 70.6573C51.453 77.217 52.1724 84.4227 48.6836 86.7528L48.6833 86.7525Z" fill="url(#paint20_linear_5410_6437)"/>
<g style="mix-blend-mode:color-burn" opacity="0.35">
<path d="M62.6858 63.2048C62.6858 63.2048 57.9887 72.3307 47.7356 77.5067L46.501 75.4597" fill="#150B3A"/>
</g>
<path d="M93.7213 53.5789H93.7207C93.9512 49.8014 92.8505 45.6156 90.3494 41.8667C87.8479 38.1171 84.4067 35.4937 80.8306 34.2578C85.3665 34.4142 89.6372 35.4487 93.3342 37.5879C94.4894 38.2567 95.2699 39.4269 95.4439 40.7507C95.9998 44.9868 95.3171 49.3284 93.7213 53.5793V53.5789Z" fill="url(#paint21_linear_5410_6437)"/>
<g style="mix-blend-mode:color-burn" opacity="0.35">
<path d="M48.3812 85.6392C48.3812 85.6392 47.5081 85.6185 46.3532 85.3672C45.6246 85.2092 44.7843 84.9595 43.9775 84.5647L42.0024 81.6797C42.7196 81.2664 43.4068 80.7891 44.0537 80.2487C44.2645 80.3065 44.4707 80.3558 44.6681 80.3989C45.8229 80.6502 46.6957 80.6705 46.6957 80.6705C61.4702 81.3561 84.8895 65.2698 91.524 47.3045C92.7088 44.0959 93.3583 40.8279 93.3264 37.5836L93.334 37.5882C93.813 37.8658 94.2274 38.2295 94.562 38.6542C94.6622 38.9298 94.7344 39.215 94.7778 39.5074C95.3984 43.7379 94.7659 48.0567 93.2092 52.2725C86.5747 70.2378 63.1551 86.3245 48.3812 85.6392Z" fill="#150B3A"/>
</g>
<g opacity="0.5">
<path d="M95.3933 40.4459C92.1488 38.938 88.5283 38.1917 84.7183 38.0711C65.4859 37.4594 41.4086 52.7718 36.2475 66.4314C36.2475 66.4314 36.0009 67.0418 35.7914 67.9567V67.9573C35.6091 68.7493 35.4558 69.771 35.5146 70.8229L38.8832 75.9013C38.7433 76.1066 38.6074 76.3171 38.4754 76.5313L33.1559 68.5125C33.0968 67.4603 33.2502 66.4386 33.4321 65.6466V65.6459C33.6416 64.7307 33.8885 64.1207 33.8885 64.1207C39.0503 50.4611 63.1276 35.1487 82.36 35.7604C86.8737 35.9036 91.12 36.924 94.793 39.0487C94.8167 39.0625 94.8403 39.0763 94.863 39.0905C95.1135 39.5047 95.2945 39.963 95.3936 40.4456L95.3933 40.4459Z" fill="#FEFEFE"/>
</g>
<path d="M41.1329 90.6016L46.427 84.1363C47.5891 82.7174 48.0432 80.8417 47.6393 79.0523C46.4812 73.9223 43.7673 69.8801 39.5354 66.8989C38.0434 65.8476 36.1448 65.5553 34.3976 66.0822L26.3866 68.4964C25.0505 68.8991 24.0546 70.041 23.8776 71.4257C23.0977 77.5326 31.5303 90.1729 37.4664 91.7957C38.8127 92.1636 40.2486 91.6817 41.1332 90.6016H41.1329Z" fill="#C0C9CC"/>
<g style="mix-blend-mode:color-burn" opacity="0.2">
<path d="M46.5013 75.4597L40.047 81.9011C40.047 81.9011 37.5088 83.1307 37.7068 83.3702C37.9048 83.6097 38.881 86.9953 38.881 86.9953L37.9051 88.8595L41.5775 88.7288L41.7742 87.191L47.5872 81.0207" fill="#150B3A"/>
</g>
<g opacity="0.62">
<path d="M38.4626 66.3013L29.7919 69.114L29.2196 69.2618C29.2196 69.2618 27.8838 71.9201 28.0671 71.7769C28.2503 71.6337 31.1241 73.8254 31.1241 73.8254L31.6301 74.0774L32.8329 71.6829L40.2328 67.6571" fill="#FEFEFE"/>
</g>
<path d="M81.8516 59.5423C78.0938 62.0515 72.5675 60.3682 69.5082 55.7826C68.5717 54.3785 67.9745 52.8654 67.7055 51.3691C67.0954 47.9789 68.1662 44.6771 70.7734 42.9363C71.6485 42.3519 72.6194 41.9955 73.6324 41.8496V41.849L73.6373 41.8483C73.7854 41.8273 73.9345 41.8109 74.0846 41.7987L76.0879 41.5737C79.0307 41.0868 82.4124 42.6656 84.4896 45.7795C86.5668 48.8935 86.7268 52.6236 85.1483 55.1554L84.1728 56.9189C84.1038 57.0536 84.0309 57.1853 83.9541 57.3144L83.9521 57.3187C83.4287 58.1984 82.727 58.9582 81.8519 59.5427L81.8516 59.5423Z" fill="#FFCF02"/>
<g style="mix-blend-mode:color-burn" opacity="0.2">
<path d="M81.8511 59.5423C78.0934 62.0515 72.5671 60.3682 69.5078 55.7826C68.5713 54.3785 67.974 52.8654 67.7051 51.3691H67.7057L71.1171 50.1891C75.8973 62.0997 84.172 56.9185 84.172 56.9185C84.103 57.0532 84.0301 57.185 83.9533 57.3141L83.9513 57.3183C83.4279 58.1981 82.7262 58.9579 81.8511 59.5423Z" fill="#000072"/>
</g>
<path d="M83.3871 56.9801C86.6639 54.7921 87.1578 49.777 84.4903 45.7784C81.8228 41.7799 77.0039 40.3121 73.7271 42.5001C70.4503 44.6881 69.9564 49.7033 72.6239 53.7018C75.2914 57.7004 80.1103 59.1681 83.3871 56.9801Z" fill="#FFCF02"/>
<path d="M81.5252 55.3571C79.2057 56.2553 76.2183 55.096 74.4671 52.4715C72.716 49.8468 72.7922 46.6418 74.5115 44.8436C76.8317 43.9451 79.8191 45.1044 81.5699 47.7292C83.321 50.354 83.2449 53.5589 81.5252 55.3575V55.3571Z" fill="url(#paint22_linear_5410_6437)"/>
<g style="mix-blend-mode:color-burn" opacity="0.2">
<path d="M81.5257 55.3571C79.2062 56.2553 76.2188 55.096 74.4676 52.4715C72.7165 49.8468 72.7927 46.6418 74.512 44.8436C74.6085 44.8062 74.7067 44.7723 74.8052 44.7421C74.0667 46.5449 74.3304 48.9138 75.6809 50.9381C77.3592 53.4541 80.1732 54.6232 82.4461 53.9248C82.2271 54.46 81.9194 54.9458 81.5257 55.3575V55.3571Z" fill="#000072"/>
</g>
<path d="M79.8841 56.0999C77.7803 56.0999 75.5359 54.8775 74.0961 52.7189C73.0877 51.2071 72.6165 49.4627 72.7695 47.8067C72.9258 46.1156 73.7109 44.7175 74.9803 43.8699C76.2495 43.0224 77.8413 42.8335 79.4625 43.3377C81.0498 43.8315 82.4794 44.9362 83.4878 46.448C85.5893 49.5984 85.1927 53.5681 82.6036 55.297C81.7882 55.8413 80.8511 56.0999 79.8841 56.0999ZM77.7074 43.9543C76.893 43.9543 76.129 44.1757 75.4755 44.6123C74.4343 45.3075 73.7887 46.4714 73.6577 47.8892C73.5234 49.3422 73.9424 50.8816 74.8378 52.2242C76.6665 54.9652 79.9281 56.0109 82.1087 54.5552C84.289 53.0993 84.575 49.6848 82.7464 46.9434C81.8509 45.6011 80.5907 44.6232 79.1978 44.1899C78.6918 44.0325 78.1904 43.9543 77.7074 43.9543Z" fill="#000072"/>
<path d="M82.3562 54.9261C82.0922 55.1025 81.8141 55.2457 81.5255 55.3571C83.2451 53.5582 83.3213 50.3536 81.5701 47.7289C79.819 45.1041 76.8316 43.9448 74.5117 44.8433C74.7252 44.6192 74.9645 44.4172 75.2285 44.2411C77.6173 42.6462 81.1492 43.7451 83.1174 46.6957C85.0859 49.6464 84.7451 53.3309 82.3566 54.9261H82.3562Z" fill="#FFCF02"/>
<g style="mix-blend-mode:color-burn" opacity="0.2">
<path d="M82.3567 54.9261C82.0927 55.1025 81.8146 55.2457 81.526 55.3571C83.2456 53.5582 83.3218 50.3536 81.5706 47.7289C79.8195 45.1041 76.8321 43.9448 74.5122 44.8433C74.7256 44.6192 74.965 44.4172 75.229 44.2411C77.6178 42.6462 81.1497 43.7451 83.1179 46.6957C85.0864 49.6464 84.7455 53.3309 82.3571 54.9261H82.3567Z" fill="#000072"/>
</g>
<path d="M81.5255 55.8032C81.3797 55.8032 81.2388 55.7316 81.1544 55.6045C81.0385 55.4307 81.0589 55.1998 81.2034 55.049C82.812 53.3661 82.8104 50.3918 81.1994 47.9766C79.5882 45.5614 76.8434 44.4185 74.6726 45.2595C74.4776 45.3347 74.2569 45.2651 74.141 45.0913C74.0251 44.9175 74.0451 44.6869 74.189 44.5355C74.4267 44.2861 74.693 44.0621 74.9806 43.8699C77.5701 42.141 81.3863 43.2973 83.4881 46.448C85.5896 49.5984 85.1929 53.5681 82.6038 55.297C82.3162 55.4892 82.0072 55.6495 81.6857 55.7734C81.6335 55.7934 81.579 55.8032 81.5255 55.8032ZM76.5663 44.1101C78.5637 44.2566 80.6067 45.4816 81.9409 47.4812C83.275 49.4808 83.6217 51.8385 82.9906 53.7399C84.3267 52.0494 84.2896 49.2564 82.7463 46.9431C81.203 44.6298 78.6395 43.524 76.5663 44.1097V44.1101Z" fill="#150B3A"/>
<path d="M79.8727 56.1051C77.7515 56.1051 75.52 54.8532 74.0962 52.7189C72.2551 49.9591 72.2942 46.5174 74.1891 44.5348C74.2345 44.4875 74.2893 44.4507 74.3504 44.4271C76.908 43.4373 80.0996 44.7211 81.9407 47.4809C83.7818 50.2406 83.7424 53.6824 81.8475 55.6649C81.8022 55.7122 81.7473 55.749 81.6862 55.7727C81.1067 55.9971 80.4943 56.1048 79.8727 56.1048V56.1051ZM74.7657 45.2247C73.2254 46.9194 73.25 49.8435 74.838 52.2238C76.4259 54.6042 79.1155 55.7487 81.2709 54.9761C82.8112 53.2813 82.7869 50.3569 81.199 47.9766C79.6107 45.5959 76.9211 44.4514 74.7654 45.2247H74.7657Z" fill="#150B3A"/>
<g opacity="0.62">
<path d="M81.1291 51.2708C80.5062 51.6867 79.6196 50.8247 78.7915 49.584C77.9637 48.3432 77.5083 47.1931 78.1312 46.7772C78.7541 46.3613 79.9303 47.0301 80.7581 48.2709C81.5859 49.5117 81.752 50.8549 81.1291 51.2708Z" fill="#FEFEFE"/>
</g>
<path d="M77.92 61.155C77.062 61.155 76.1781 61.0209 75.2879 60.7496C72.8584 60.0095 70.6738 58.3334 69.1374 56.0299C65.9467 51.2472 66.5696 45.2066 70.526 42.5648C71.4369 41.9567 72.4604 41.5671 73.5686 41.4075C73.7288 41.3845 73.8881 41.3664 74.048 41.3536L76.0267 41.1312C79.2078 40.6102 82.7568 42.3775 84.8606 45.5315C86.9644 48.6855 87.2343 52.6417 85.5327 55.3811L84.5627 57.1347C84.4954 57.2654 84.4176 57.4067 84.3372 57.542C84.3372 57.542 84.3355 57.545 84.3345 57.5463C83.7622 58.5085 83.0099 59.3051 82.0991 59.9132C80.8664 60.7361 79.4347 61.155 77.92 61.155ZM77.1592 41.9327C76.8233 41.9327 76.4897 41.9593 76.1607 42.0139C76.1531 42.0152 76.1452 42.0162 76.1377 42.0172L74.134 42.2419C73.979 42.2547 73.8375 42.2704 73.7006 42.2901C73.6967 42.2908 73.6871 42.2918 73.6832 42.2925C72.7201 42.4317 71.8201 42.7737 71.0209 43.3072C67.4736 45.6757 66.961 51.1611 69.8788 55.5349C71.3013 57.6672 73.3144 59.2161 75.5473 59.8961C77.7486 60.5666 79.8994 60.3091 81.6039 59.1711C82.4035 58.6373 83.0644 57.9369 83.5681 57.09L83.5704 57.0864L83.5731 57.0825C83.642 56.9662 83.7113 56.8413 83.7763 56.7145L84.7581 54.9393C84.7617 54.9324 84.7657 54.9258 84.7699 54.9193C86.2958 52.4719 86.0344 48.8984 84.1188 46.0269C82.4248 43.4879 79.7276 41.9327 77.1589 41.9327H77.1592Z" fill="#150B3A"/>
<path d="M79.9617 58.4369C77.1519 58.4369 74.1641 56.8164 72.2521 53.9501C70.9048 51.9308 70.2832 49.5971 70.5019 47.379C70.7236 45.1278 71.7809 43.2635 73.4788 42.1298C76.9549 39.8089 82.0605 41.3348 84.8605 45.5315C86.2077 47.5508 86.8293 49.8845 86.6106 52.1026C86.389 54.3539 85.3316 56.2181 83.6337 57.3518C82.5317 58.0877 81.2659 58.4369 79.9617 58.4369ZM77.1594 41.933C76.0243 41.933 74.9276 42.2349 73.974 42.8716C72.5023 43.8541 71.5845 45.4862 71.3895 47.4661C71.1912 49.4795 71.7612 51.6062 72.9942 53.4547C75.5209 57.2424 80.0716 58.6573 83.1392 56.6097C84.6109 55.6272 85.5287 53.9955 85.7237 52.0152C85.922 50.0018 85.352 47.8751 84.119 46.0266C82.3777 43.4166 79.6753 41.933 77.1598 41.933H77.1594Z" fill="#150B3A"/>
<path d="M49.5928 88.1677C49.3771 88.1677 49.165 88.1641 48.9538 88.1572C48.8671 88.1565 46.5384 88.1211 44.4162 87.0889C44.1693 86.9687 44.0662 86.671 44.1864 86.4237C44.3065 86.1766 44.604 86.0735 44.8513 86.1937C46.7669 87.1254 48.9541 87.1618 48.9761 87.1622C58.9425 87.4913 73.5483 79.6035 83.7107 68.3969C92.0819 59.1658 96.0738 49.3704 94.9508 40.8155C94.7981 39.6519 94.1007 38.6063 93.0854 38.0189C85.6191 33.699 75.0459 33.6287 63.3133 37.8215C49.0701 42.911 36.1826 53.3749 32.6698 62.7022C32.6576 62.7331 31.8522 64.7679 31.9773 66.8949C31.9934 67.1692 31.7842 67.4048 31.51 67.4209C31.2368 67.4353 31.0004 67.2277 30.9843 66.9534C30.8458 64.5967 31.7067 62.4315 31.7435 62.3405C33.5147 57.637 37.6566 52.482 43.4022 47.8357C49.0546 43.2645 56.0073 39.3753 62.9791 36.8839C74.9914 32.5913 85.8608 32.6885 93.5838 37.1572C94.8651 37.8983 95.7451 39.2176 95.9378 40.6857C97.0996 49.5357 93.0191 59.6146 84.4482 69.0657C79.4736 74.5511 73.216 79.4823 66.8281 82.9507C60.607 86.3284 54.5189 88.1674 49.5938 88.1674L49.5928 88.1677Z" fill="#150B3A"/>
<path d="M38.3767 92.4156C38.0293 92.4156 37.6792 92.37 37.3355 92.276C31.181 90.5941 22.5757 77.6943 23.3841 71.3629C23.5844 69.7953 24.7064 68.4833 26.2431 68.0201L34.2541 65.6059C36.1724 65.0277 38.2017 65.3509 39.8221 66.4922C44.1555 69.545 46.9488 73.7341 48.1247 78.9429C48.5575 80.8601 48.0666 82.9195 46.8119 84.452L41.5178 90.9173C40.7304 91.8788 39.5683 92.4156 38.3767 92.4156ZM36.1209 66.3269C35.5902 66.3269 35.0573 66.4032 34.5411 66.5589L26.5301 68.9731C25.369 69.3229 24.5215 70.3107 24.3712 71.4891C23.6235 77.3451 31.9054 89.76 37.5978 91.3158C38.7438 91.6288 39.9801 91.2248 40.7484 90.2862L46.0426 83.8209C47.1045 82.524 47.5202 80.7822 47.1544 79.162C46.0344 74.2009 43.3747 70.2119 39.2495 67.3056C38.3363 66.6623 37.2343 66.3266 36.1212 66.3266L36.1209 66.3269Z" fill="#150B3A"/>
<path d="M37.9324 87.9023C34.9841 95.8393 27.6311 99.7518 19.6477 98.1829C15.7051 97.7466 11.2059 97.2837 5.79355 99.1786C5.07609 99.4299 4.4985 98.5643 5.00582 97.9976C8.83154 93.724 10.1305 89.3897 11.2404 85.5797C12.8569 77.5924 19.3029 72.2975 27.7753 72.6323C28.9873 72.6802 30.1562 73.0942 31.1242 73.8251C34.1448 76.1072 37.1644 80.7145 38.1143 84.3412C38.4227 85.518 38.3567 86.7617 37.9331 87.9019L37.9324 87.9023Z" fill="url(#paint23_linear_5410_6437)"/>
<path d="M40.0686 91.9298C39.9247 91.9298 39.7832 91.8601 39.6972 91.7313C39.5606 91.5264 39.6158 91.2494 39.8207 91.1128C41.473 90.0093 41.3121 87.5606 40.8862 85.7009C40.3162 83.2122 38.9433 80.254 37.0201 77.3717C33.4396 72.0048 28.3028 67.5822 25.4106 69.5128C25.206 69.6498 24.9289 69.5943 24.7923 69.3893C24.6557 69.1843 24.7108 68.9074 24.9157 68.7707C28.4515 66.4094 34.0533 71.3173 37.7618 76.8763C39.7435 79.8466 41.1617 82.91 41.7554 85.5019C42.4561 88.5612 41.9583 90.7583 40.3155 91.8552C40.2396 91.9061 40.1536 91.9304 40.0686 91.9304V91.9298Z" fill="#150B3A"/>
<path d="M46.9715 87.8606C46.8165 87.8606 46.6661 87.7798 46.5841 87.6359C46.4619 87.422 46.5358 87.1497 46.7495 87.0275C46.7958 87.0009 46.8471 86.9828 46.8999 86.9742C47.4687 86.8816 47.9855 86.6822 48.4363 86.3813C51.715 84.1921 50.9391 77.2491 46.7069 70.9047C42.4743 64.5603 36.3638 61.1796 33.0845 63.3691C32.7128 63.6174 32.3858 63.9354 32.1126 64.3145C32.0814 64.3579 32.0426 64.395 31.9983 64.4246C31.7934 64.5612 31.5163 64.5061 31.3797 64.3011C31.2703 64.1368 31.2838 63.9262 31.399 63.7787C31.733 63.3188 32.1333 62.9312 32.5894 62.6267C34.4206 61.4043 36.994 61.5728 39.8356 63.101C42.5886 64.5816 45.292 67.1771 47.4483 70.4093C49.6043 73.6415 50.9631 77.1348 51.2734 80.2464C51.5938 83.4586 50.7621 85.9007 48.9312 87.1231C48.3766 87.4933 47.7451 87.7387 47.0539 87.8527C47.0267 87.8579 46.9991 87.8602 46.9715 87.8602V87.8606Z" fill="#150B3A"/>
<path d="M12.3045 93.8887L12.2358 93.9209C23.7002 84.8088 19.9113 71.3203 32.2402 74.9585C34.6615 76.92 36.1917 79.6926 37.4828 82.6823C36.1109 95.4691 25.1135 86.7929 12.3045 93.889V93.8887Z" fill="#FFCF02"/>
<path d="M52.8369 71.7006C45.4337 76.6437 42.792 76.2646 41.5721 74.4358C40.352 72.607 41.0156 70.021 48.4188 65.0776C55.822 60.1346 62.8124 57.61 64.0323 59.4388C65.2525 61.2676 60.2401 66.7573 52.8369 71.7006Z" fill="url(#paint24_linear_5410_6437)"/>
<g style="mix-blend-mode:color-burn" opacity="0.2">
<path d="M52.8364 71.7006C45.4335 76.6437 42.7919 76.2646 41.572 74.4358C41.0154 73.6014 40.8503 72.6083 41.5412 71.3051C41.5901 71.7608 41.7615 72.1697 42.0127 72.5469C43.2329 74.3757 45.8745 74.7554 53.278 69.8121C58.6799 66.2051 62.8087 62.3073 64.1717 59.7525C64.726 61.8356 59.8561 67.0135 52.8364 71.7006Z" fill="#150B3A"/>
</g>
<g opacity="0.5">
<path d="M63.4882 62.0636C63.5956 61.602 63.5601 61.217 63.3651 60.9246C62.1449 59.0958 55.1544 61.6207 47.7515 66.5638C44.1271 68.9839 42.1179 70.839 41.1548 72.3169C41.5268 70.6405 43.4615 68.388 48.4184 65.0779C55.822 60.1346 62.8121 57.61 64.0319 59.4388C64.4096 60.0048 64.1902 60.921 63.4882 62.0636Z" fill="#FEFEFE"/>
</g>
<path d="M43.9963 76.1237C42.7554 76.1237 41.8396 75.6401 41.2013 74.6832C40.3942 73.4736 40.4543 72.1665 41.3845 70.6869C42.4412 69.0066 44.6612 67.0503 48.1714 64.7064C51.781 62.2962 55.411 60.3757 58.3929 59.2989C60.629 58.4911 63.4867 57.817 64.4032 59.1908C65.3196 60.5646 63.601 62.9463 61.9976 64.7021C59.8597 67.0437 56.6943 69.661 53.0846 72.0712C49.0153 74.7883 46.0577 76.1233 43.9966 76.1233L43.9963 76.1237ZM62.435 59.2874C61.6233 59.2874 60.4041 59.5209 58.6956 60.1382C55.7795 61.1914 52.2177 63.0774 48.6662 65.4485C45.3097 67.6896 43.1136 69.612 42.1391 71.1619C41.1865 72.6766 41.5339 73.5748 41.943 74.1878C42.785 75.4502 44.805 76.5271 52.5894 71.3294C56.1407 68.9583 59.2483 66.391 61.3389 64.101C63.5829 61.6431 64.0101 60.2092 63.6614 59.6865C63.5031 59.4493 63.1101 59.2877 62.435 59.2877V59.2874Z" fill="#150B3A"/>
<path d="M5.54045 99.7203C5.14018 99.7203 4.76191 99.5239 4.52647 99.1711C4.20993 98.6967 4.25361 98.0916 4.63516 97.6655C8.43231 93.4238 9.72277 89.01 10.7571 85.4605C11.5836 81.3995 13.6132 77.9883 16.6279 75.5955C19.6908 73.1639 23.5516 71.9674 27.795 72.135C29.1187 72.1872 30.3737 72.6343 31.4241 73.428C34.513 75.7614 37.5959 80.3989 38.5955 84.2151C38.9304 85.4934 38.8624 86.8284 38.3991 88.0754C36.9225 92.0504 34.336 95.1511 30.9194 97.0427C27.5567 98.9043 23.6337 99.4687 19.5729 98.675C15.8995 98.2683 11.3301 97.7677 5.95812 99.6481C5.81988 99.6963 5.67902 99.72 5.54078 99.72L5.54045 99.7203ZM27.0096 73.1149C19.2432 73.1149 13.2861 77.9788 11.7277 85.6786C11.7251 85.6924 11.7215 85.7059 11.7179 85.719C10.6547 89.3691 9.33136 93.9113 5.37627 98.3294C5.26922 98.449 5.31651 98.5617 5.35427 98.6182C5.39203 98.6747 5.4774 98.7614 5.62943 98.7085C11.2247 96.7496 15.9255 97.27 19.7026 97.6879C19.7164 97.6895 19.7302 97.6915 19.7437 97.6941C27.6814 99.2542 34.6377 95.3423 37.4662 87.7285C37.858 86.6743 37.9154 85.5466 37.6327 84.4674C36.6985 80.9008 33.7078 76.4006 30.8242 74.2223C29.9363 73.5515 28.8753 73.1737 27.7553 73.1294C27.5054 73.1195 27.2559 73.1146 27.0096 73.1146V73.1149Z" fill="#150B3A"/>
<path d="M33.235 76.2321C33.1151 76.2321 32.9956 76.1841 32.9076 76.0889C30.0315 72.9786 28.2751 72.0453 27.5895 72.2076C27.5071 72.2273 27.2874 72.2792 27.1541 72.7433C27.0858 72.9802 26.8385 73.1165 26.6024 73.0485C26.3657 72.9802 26.2291 72.7332 26.2974 72.4966C26.5266 71.699 27.0148 71.4273 27.3839 71.3396C28.6599 71.0364 30.7398 72.4303 33.5627 75.4831C33.7298 75.6641 33.719 75.9463 33.5384 76.1135C33.4527 76.193 33.344 76.2321 33.2356 76.2321H33.235Z" fill="#150B3A"/>
<path d="M37.77 89.3112C37.686 89.3112 37.5973 89.3063 37.5034 89.2955C37.2588 89.2676 37.0831 89.0465 37.111 88.8017C37.1389 88.557 37.3606 88.3816 37.6046 88.4092C38.084 88.464 38.2166 88.281 38.2662 88.2124C38.6796 87.6418 38.4911 85.6602 36.7239 81.8098C36.6211 81.5861 36.7193 81.321 36.9429 81.2182C37.1665 81.1157 37.4315 81.2136 37.5343 81.4373C39.269 85.2167 39.7583 87.672 38.9883 88.7354C38.7909 89.0077 38.4245 89.3109 37.77 89.3109V89.3112Z" fill="#150B3A"/>
<path d="M93.7212 54.025C93.712 54.025 93.7028 54.025 93.6937 54.024C93.4477 54.0089 93.2609 53.7977 93.276 53.5517C93.5101 49.7147 92.3392 45.6527 89.9786 42.114C87.6177 38.5747 84.317 35.9345 80.6853 34.6793C80.5931 34.6474 80.5139 34.5863 80.4598 34.5052C80.3232 34.3002 80.3783 34.0229 80.5832 33.8863C80.709 33.8022 80.8617 33.7907 80.9924 33.8416C84.8007 35.1622 88.255 37.9236 90.72 41.6187C93.188 45.3183 94.4118 49.5754 94.1658 53.6059C94.1514 53.8424 93.955 54.0247 93.7212 54.0247V54.025Z" fill="#150B3A"/>
<path d="M32.5964 62.0633C32.5652 62.0633 32.5337 62.0603 32.5018 62.0541C30.5284 61.6746 20.6369 59.7519 19.6889 59.1524C19.0049 58.7197 18.3564 57.6734 18.4493 56.3105C18.5728 54.5014 20.0081 51.7587 26.1438 48.9634C35.572 44.6682 46.8682 45.2467 46.9815 45.2529C47.2557 45.2684 47.4655 45.5032 47.4501 45.7775C47.4347 46.0519 47.1973 46.2628 46.9257 46.2467C46.815 46.2404 35.7562 45.678 26.5559 49.8694C20.5666 52.598 19.528 55.1186 19.442 56.3785C19.3727 57.3916 19.8698 58.0893 20.2205 58.3114C20.8155 58.6649 27.0892 60.0002 32.6897 61.0768C32.9596 61.1287 33.1362 61.3895 33.0843 61.6592C33.0387 61.8974 32.8302 62.0629 32.5964 62.0629V62.0633Z" fill="#150B3A"/>
<path d="M19.9537 59.177C19.797 59.177 19.6457 59.0946 19.5649 58.9474C19.5452 58.9119 19.0884 58.0654 19.4431 57.1521C19.7094 56.4665 20.3392 55.9518 21.3157 55.6216C23.916 54.7425 34.5571 56.9179 35.009 57.0109C35.2503 57.0605 35.4056 57.2963 35.3557 57.5378C35.3061 57.7792 35.0697 57.934 34.829 57.8847C31.8176 57.2645 23.5702 55.801 21.601 56.4668C20.8911 56.7067 20.4455 57.0434 20.2774 57.4675C20.0706 57.9882 20.3447 58.5141 20.3474 58.5194C20.4623 58.7355 20.3822 59.0059 20.1668 59.1225C20.0988 59.1593 20.0259 59.1767 19.9537 59.1767V59.177Z" fill="#150B3A"/>
<path d="M50.9217 103.087C50.3727 103.087 49.9032 102.998 49.5062 102.864C48.2124 102.428 47.4953 101.427 47.3587 100.629C47.1692 99.5232 49.1893 89.6466 49.5961 87.6782C49.6516 87.4092 49.914 87.2354 50.1839 87.2916C50.4528 87.3471 50.6259 87.6105 50.5704 87.8796C49.4155 93.4668 48.2413 99.7755 48.3395 100.462C48.4094 100.87 48.8629 101.597 49.8247 101.922C51.0206 102.326 53.746 102.333 58.5623 97.8465C65.9609 90.9544 69.6849 80.5214 69.7216 80.4169C69.8129 80.1577 70.0966 80.0214 70.3557 80.1124C70.6148 80.2034 70.7511 80.4875 70.6601 80.7467C70.6227 80.8535 66.8222 91.5122 59.2401 98.5748C55.4469 102.108 52.7474 103.087 50.9221 103.087L50.9217 103.087Z" fill="#150B3A"/>
<path d="M49.1578 101.625C49.1421 101.625 49.1267 101.625 49.1109 101.624C48.1321 101.601 47.5259 100.854 47.5006 100.822C47.3469 100.63 47.3788 100.349 47.5715 100.196C47.7633 100.043 48.0424 100.073 48.1961 100.264C48.2069 100.277 48.5855 100.723 49.1401 100.732C49.5975 100.742 50.0776 100.457 50.5714 99.8931C51.9417 98.3287 53.7549 90.1479 54.3377 87.128C54.3847 86.8862 54.6181 86.7285 54.8601 86.7745C55.1018 86.8212 55.2601 87.0554 55.2135 87.2972C55.1261 87.7502 53.0512 98.4158 51.2423 100.481C50.5777 101.24 49.8766 101.625 49.1582 101.625H49.1578Z" fill="#150B3A"/>
<g style="mix-blend-mode:color-burn" opacity="0.2">
<path d="M45.356 50.7104L45.3491 50.695C45.3539 50.6929 45.356 50.6981 45.356 50.7104Z" fill="#000072"/>
</g>
<path d="M56.9242 34.0827L54.473 38.6677L49.5213 40.5309C49.3259 40.3552 49.1338 40.1794 48.9437 40.0024C46.4961 37.7301 44.5256 35.3192 44.2232 32.4273C44.2097 32.3048 44.1996 32.181 44.1946 32.0574C44.193 32.0555 44.1946 32.0538 44.1946 32.0538C44.1858 31.9405 44.1825 31.8255 44.1822 31.7105C44.1822 31.6757 44.1818 31.6409 44.1835 31.6064C44.1956 31.1045 44.3378 30.6133 44.5785 30.1722C45.3705 28.7244 46.4531 27.6151 47.7107 26.71L55.061 29.4767L56.9238 34.0827H56.9242Z" fill="white"/>
<path d="M51.2619 36.5436C50.7871 37.6267 50.3107 38.7111 49.8359 39.7958C49.5476 39.9081 49.2471 39.9745 48.9434 40.0024C46.4958 37.7301 44.5253 35.3192 44.2229 32.4274L44.3165 32.3203C44.2593 32.2411 44.2199 32.1508 44.1943 32.0575C44.1927 32.0555 44.1943 32.0539 44.1943 32.0539C44.1539 31.9077 44.1506 31.7526 44.1832 31.6064C44.2091 31.4911 44.2561 31.3801 44.3247 31.2842C44.5414 30.9862 44.9545 30.8466 45.3061 30.9527C45.7005 31.0713 45.9602 31.4396 46.1901 31.7822C47.5081 33.7427 49.0317 35.768 51.2616 36.5436H51.2619Z" fill="#E5E5E5"/>
<path d="M49.5211 41.0119C49.4046 41.0119 49.29 40.9695 49.2003 40.889C46.362 38.3438 43.7312 35.4707 43.7013 31.7145C43.6964 31.1087 43.8543 30.4954 44.1574 29.9406C44.9247 28.5369 45.9952 27.3526 47.4298 26.3198C47.5602 26.2258 47.7293 26.2035 47.8797 26.26L55.23 29.0267C55.3558 29.074 55.4559 29.1719 55.5061 29.2964L57.3693 33.9024C57.4228 34.0348 57.4149 34.1836 57.3476 34.3094L54.8957 38.8944C54.8409 38.9972 54.7503 39.0763 54.6412 39.1174L49.6896 40.981C49.6347 41.0017 49.5773 41.0119 49.5205 41.0119H49.5211ZM47.7854 27.2518C46.5731 28.1624 45.6609 29.1949 45.0006 30.4021C44.7757 30.8134 44.6588 31.2645 44.6624 31.707C44.6883 34.9983 47.0354 37.6296 49.6255 39.9784L54.1343 38.2817L56.3947 34.0545L54.6948 29.8525L47.7854 27.2518Z" fill="#150B3A"/>
<path d="M77.722 28.4432C79.4593 30.4458 80.6716 32.8998 81.02 36.0948C81.1267 37.0747 80.8023 38.059 80.1279 38.7777C77.1628 41.9376 72.8947 43.8081 68.3059 44.1623L64.1646 39.6272C64.1646 39.6272 63.8947 34.0495 64.2497 33.8918C64.6046 33.7338 71.582 29.3532 71.582 29.3532L77.7226 28.4432H77.722Z" fill="white"/>
<path d="M80.1448 38.3645C77.5015 41.0835 74.0143 42.9695 70.2959 43.6991C70.0697 43.7428 69.8418 43.7829 69.6143 43.8196C69.8766 43.0506 70.0792 42.2615 70.2178 41.4606C70.2293 41.3969 70.2408 41.3348 70.2506 41.2708C72.5419 40.3828 74.7006 39.1568 76.6395 37.646C77.0756 37.3073 77.5054 36.9496 78.0078 36.72C78.5102 36.4903 79.1068 36.4026 79.6135 36.6204C80.1218 36.8382 80.4902 37.42 80.3444 37.9525L80.3868 37.8221C80.4439 38.0228 80.2889 38.216 80.1451 38.3641L80.1448 38.3645Z" fill="#E5E5E5"/>
<path d="M72.474 34.5702C73.5189 33.5196 74.9456 32.858 76.4222 32.7391C77.8989 32.6205 79.4129 33.0459 80.6118 33.9165C79.9908 32.5026 79.3702 31.0887 78.7493 29.6748C77.5866 29.7467 76.415 29.82 75.2874 30.1124C74.1595 30.4044 73.0647 30.933 72.2767 31.7917C72.1657 31.9126 72.058 32.0466 72.0252 32.2073C71.9959 32.3515 72.0304 32.5 72.0649 32.6429C72.2143 33.2641 72.3637 33.8853 72.5131 34.5068" fill="#E5E5E5"/>
<path d="M68.3052 44.6429C68.1709 44.6429 68.0418 44.5864 67.9506 44.4865L63.8093 39.9515C63.7338 39.8687 63.6894 39.7623 63.6842 39.6506C63.3985 33.7444 63.7315 33.5959 64.0539 33.4526C64.3721 33.2959 68.5781 30.6712 71.3258 28.9459C71.3819 28.9104 71.445 28.8874 71.5106 28.8775L77.6513 27.9676C77.8132 27.9429 77.977 28.004 78.0847 28.1279C80.047 30.3896 81.1631 32.9786 81.4974 36.0426C81.6202 37.1684 81.2485 38.2853 80.4778 39.1066C77.4783 42.3033 73.1685 44.2687 68.3426 44.6413C68.3301 44.6422 68.318 44.6426 68.3055 44.6426L68.3052 44.6429ZM64.6358 39.4311L68.5009 43.6636C72.9929 43.2658 76.99 41.4189 79.7768 38.4486C80.3553 37.8323 80.6341 36.9933 80.5418 36.1467C80.2394 33.3738 79.253 31.0191 77.5285 28.9574L71.751 29.8134C70.1539 30.816 65.612 33.6626 64.6187 34.2355C64.5044 34.8409 64.5343 37.2446 64.6358 39.4308V39.4311ZM64.4716 34.3176C64.4607 34.3232 64.4516 34.3278 64.4447 34.3307C64.4542 34.3265 64.463 34.3222 64.4716 34.3176Z" fill="#150B3A"/>
<path d="M71.9815 29.3486C71.9663 31.0506 72.1798 32.7496 72.6657 34.3846C72.7882 34.7969 73.0532 35.627 73.1921 36.0347C71.9112 34.5682 71.4292 32.5824 71.218 30.6902C71.1822 30.2573 71.1678 29.7717 71.1812 29.3378C71.2016 28.8115 71.9755 28.8194 71.9818 29.3489L71.9815 29.3486Z" fill="#150B3A"/>
<path d="M72.7494 34.7351L72.2881 34.2903C73.5602 32.9701 75.2785 32.2257 77.0033 32.2401C78.5095 32.2552 79.9037 32.8742 80.9295 33.9829L80.4593 34.4181C79.5416 33.426 78.344 32.8945 76.9968 32.8811C75.4472 32.8607 73.8993 33.5414 72.7491 34.7351H72.7494Z" fill="#150B3A"/>
<path d="M70.1579 41.6371C67.9253 50.467 64.8788 57.9625 58.2246 59.5334C53.7254 60.7322 50.2533 63.0971 47.8622 66.6988C46.9129 68.1291 45.2084 68.8765 43.5252 68.5394C41.5751 68.1469 39.5491 67.273 37.9408 65.8595C37.6148 65.5733 37.3511 65.2173 37.2148 64.806C37.0848 64.4124 37.068 64.0166 37.1439 63.6444C37.4095 62.3399 38.812 61.3093 40.4039 61.5114C42.0568 58.7424 44.1005 56.1774 46.489 53.7859L49.2715 49.9115L50.1236 44.3568L49.7024 40.3654C50.1841 38.7455 50.8424 37.288 51.8065 36.1126L54.2915 33.1238L68.0189 35.1054L70.0758 41.3828L70.1582 41.6371H70.1579Z" fill="white"/>
<path d="M70.1346 42.1577C69.7369 43.6777 68.8231 46.9129 67.3455 50.032C66.6447 51.5113 65.8981 52.7938 65.8245 52.9199C65.0075 54.3171 64.5803 55.048 63.9565 55.7921C62.1804 57.9116 59.8924 58.8498 58.2249 59.5334C56.3431 60.3051 56.3185 59.9911 54.6924 60.7653C53.8466 61.1681 52.1375 61.9992 50.4622 63.6427C48.9054 65.17 48.8125 65.2679 47.8622 66.6988C46.9129 68.1291 45.2084 68.8765 43.5252 68.5394C41.5751 68.1469 39.5491 67.2731 37.9408 65.8595C37.6148 65.5734 37.3511 65.2173 37.2148 64.806C37.0848 64.4124 37.068 64.0166 37.1439 63.6444C37.9139 64.9193 38.9844 66.0076 40.3313 66.6302C42.1944 67.4918 44.6111 67.2842 46.0539 65.8243C46.7589 65.1102 47.1871 64.1729 47.7716 63.3556C48.3022 62.6125 48.9662 61.9644 49.4479 61.1878C49.9299 60.4096 50.2139 59.4309 49.8892 58.5762C49.5333 57.6419 48.5531 57.0986 47.5959 56.8082C46.6388 56.5197 45.6172 56.3952 44.7362 55.9225C46.9537 55.3217 49.0923 54.4304 51.0808 53.2803C52.0347 53.7948 52.7009 54.7047 53.51 55.4265C54.6665 56.4596 56.2062 57.1275 57.7505 56.9987C59.2964 56.8719 60.796 55.8476 61.2521 54.3654C61.4212 53.8132 61.4439 53.1965 61.1979 52.6742C60.9411 52.1253 60.423 51.7419 59.8786 51.4771C58.9565 51.0304 57.8982 50.8678 56.8852 51.0133C57.1551 50.3195 57.4651 49.5925 57.8224 48.8412C58.3806 47.6668 58.9677 46.613 59.5456 45.6793C63.24 47.5298 64.9094 47.2407 65.7493 46.6153C66.9777 45.7007 67.0536 43.595 69.4565 41.779C69.754 41.554 70.0108 41.3894 70.174 41.2895C70.35 41.2396 70.5263 41.1893 70.7023 41.1394C70.5132 41.4787 70.324 41.8181 70.1349 42.1574L70.1346 42.1577Z" fill="#E5E5E5"/>
<path d="M70.1581 41.6371C69.6816 44.9688 68.7402 48.2384 67.3348 51.3037C65.6004 55.1791 62.7119 58.9585 58.3765 59.9736C54.9813 60.8843 51.7611 62.67 49.4868 65.3789C49.1489 65.7701 48.7891 66.2363 48.4972 66.6637C47.514 68.2862 45.7682 69.3091 43.8407 69.0966C42.6816 68.9363 41.5629 68.5628 40.4993 68.0815C39.4456 67.5947 38.4579 66.9721 37.5792 66.184C37.1559 65.8013 36.8108 65.2747 36.6975 64.7015C36.1981 62.5294 38.4237 60.7496 40.4592 61.0639C40.4655 61.0636 40.0163 61.2794 40.0166 61.2801C41.6459 58.5118 44.0367 55.5651 46.1228 53.5228L48.9053 49.6483L48.8258 49.8432C48.8258 49.8432 45.2756 47.4159 45.7517 45.5106C46.2279 43.6053 49.2652 40.4516 49.254 40.4147C49.2429 40.3778 49.4395 40.1244 49.4622 40.0738C49.7666 39.315 49.9242 38.7363 50.3412 38.0366C50.7576 37.3376 51.2436 36.6815 51.8064 36.1132C51.3598 36.7771 51.0167 37.4939 50.7481 38.2311C50.4795 38.9689 50.2844 39.7278 50.1344 40.4945C50.1344 40.4962 50.1504 40.3125 50.1508 40.3201L50.5721 44.3098C50.576 44.3485 50.5747 44.3886 50.5694 44.4257L49.717 49.9805C49.7058 50.0524 49.6773 50.1198 49.6375 50.1753L46.855 54.0497C44.5476 56.3762 42.4622 58.9303 40.7909 61.7433C40.696 61.9039 40.519 61.9775 40.3453 61.9595C39.5464 61.8731 38.7314 62.1592 38.1781 62.7357C38.1042 62.8264 37.9775 62.9673 37.9187 63.0741C37.545 63.6352 37.5119 64.351 37.8347 64.9242C37.9424 65.1098 38.0875 65.2833 38.2592 65.4351C39.0463 66.1213 39.9673 66.689 40.9377 67.119C41.8997 67.5362 42.9183 67.866 43.9569 68.0188C45.2756 68.1705 46.6308 67.4984 47.3587 66.3913L47.603 66.0402C49.8809 62.6848 53.4147 60.3005 57.288 59.1898C57.7195 59.0568 58.4589 58.8827 58.8851 58.7414C66.0106 56.2733 67.4862 47.8028 70.1581 41.6374V41.6371Z" fill="#150B3A"/>
<path d="M40.8564 61.2469C41.4898 62.2568 42.4762 63.0041 43.6219 63.3957C42.3436 63.309 41.081 62.7659 40.1284 61.8744C39.6041 61.3639 40.4289 60.6517 40.8564 61.2466V61.2469Z" fill="#150B3A"/>
<path d="M50.6049 63.9134C50.4148 63.9134 50.2463 63.7774 50.2112 63.5839C49.7216 60.8662 46.4804 57.9806 43.4115 57.5296C43.1928 57.4974 43.0415 57.294 43.0736 57.0749C43.1058 56.8561 43.3088 56.7053 43.5281 56.7369C46.9552 57.2405 50.4466 60.3734 50.9996 63.4417C51.0387 63.6595 50.8942 63.8678 50.6765 63.9072C50.6525 63.9114 50.6286 63.9137 50.6049 63.9137V63.9134Z" fill="#150B3A"/>
<ellipse cx="5.30381" cy="9.78036" rx="5.30381" ry="9.78036" transform="matrix(0.813964 0.580915 -0.580572 0.814209 53.2007 35.3269)" fill="white"/>
<path d="M51.4064 56.7927C50.575 57.2631 49.5469 57.361 48.3465 56.9136C41.9549 55.7034 36.7012 53.325 36.9556 48.3015C37.0844 45.7542 39.2207 43.7185 41.7658 43.8334C43.7609 43.9234 46.0125 45.0686 47.7127 47.8412C48.6164 46.8091 49.8829 46.3271 51.0403 46.407C52.0835 46.4786 52.9786 47.1743 53.3398 48.1526C53.3523 48.1829 53.3631 48.2144 53.374 48.2463C54.4658 51.5566 53.6521 55.5302 51.4064 56.7924V56.7927Z" fill="white"/>
<path d="M51.4064 56.7927C50.575 57.2631 49.5469 57.361 48.3465 56.9136C41.9549 55.7034 36.7012 53.325 36.9556 48.3015C36.9875 47.675 37.1412 47.0804 37.3914 46.5403C37.3638 51.3533 42.5286 53.6614 48.7874 54.8463C48.9822 54.9196 49.1726 54.9767 49.3585 55.0198C49.5256 56.4796 50.1567 57.4001 51.4064 56.7924V56.7927Z" fill="#E5E5E5"/>
<path d="M53.8172 52.1447C53.7998 52.3369 53.7775 52.5274 53.7479 52.7156C53.745 52.7416 53.7404 52.7659 53.7358 52.7899C53.7282 52.8434 53.7187 52.897 53.7095 52.9505C53.698 53.0162 53.6845 53.0816 53.6711 53.147C53.6579 53.2107 53.6445 53.2761 53.6294 53.3398C53.612 53.4157 53.5949 53.4896 53.5759 53.5635C53.5614 53.6167 53.547 53.6683 53.5322 53.7199C53.5174 53.7767 53.501 53.8316 53.4846 53.8864C53.4622 53.9567 53.4399 54.027 53.4179 54.0957C53.3979 54.1538 53.3779 54.2103 53.3562 54.2668C53.3365 54.3217 53.3164 54.3746 53.2951 54.4275C53.195 54.6837 53.0797 54.9275 52.951 55.1564C52.9319 55.1922 52.9132 55.2261 52.8925 55.2599C52.8643 55.3108 52.8324 55.3614 52.8022 55.4107C52.7704 55.4596 52.7389 55.5086 52.707 55.5559C52.6755 55.6032 52.6436 55.6485 52.6105 55.6942C52.5753 55.7412 52.5402 55.7865 52.5051 55.8322C52.4699 55.8759 52.4351 55.9195 52.3984 55.9613C52.3616 56.0066 52.3212 56.05 52.2811 56.0933C52.2535 56.1252 52.2243 56.1551 52.1935 56.185C52.1826 56.1968 52.1715 56.2083 52.1606 56.2182C52.1261 56.253 52.0897 56.2862 52.0536 56.3193C52.0135 56.3574 51.9738 56.3923 51.9324 56.4268C51.8493 56.4961 51.7646 56.5618 51.6766 56.6222C51.6444 56.6452 51.6119 56.6662 51.5798 56.6873C51.5223 56.7247 51.4652 56.7586 51.4064 56.7924C50.157 57.4005 49.5255 56.4796 49.3584 55.0198C50.3162 55.2527 51.1512 55.12 51.847 54.7251C52.7405 54.2228 53.4051 53.2912 53.8165 52.1443L53.8172 52.1447Z" fill="#898989"/>
<path d="M53.8167 52.1447C53.4053 53.2915 52.7407 54.2231 51.8472 54.7254C51.1514 55.12 50.3161 55.2527 49.3586 55.0201C48.9925 51.8053 50.8773 45.977 53.34 48.1527C53.3524 48.1829 53.3633 48.2144 53.3741 48.2463C53.7915 49.512 53.93 50.8733 53.8171 52.1447H53.8167Z" fill="#9B9B9B"/>
<path d="M49.8271 57.5985C49.3178 57.5985 48.7852 57.5 48.2398 57.3009C40.1487 55.7635 36.3269 52.8128 36.5561 48.2811C36.6973 45.4842 39.0415 43.3098 41.7843 43.433C43.1437 43.4944 45.6796 44.0756 47.7791 47.2019C48.691 46.3672 49.8878 45.9254 51.0676 46.0068C52.3046 46.0913 53.3593 46.9207 53.7549 48.1201C54.7709 51.1999 54.188 54.8226 52.3995 56.5463C51.6764 57.2431 50.7938 57.5982 49.8271 57.5982V57.5985ZM41.562 44.2293C39.3403 44.2293 37.4722 46.0272 37.356 48.3215C37.1501 52.3897 40.77 55.0713 48.4214 56.52C48.4434 56.5243 48.4654 56.5302 48.4864 56.5381C49.7926 57.0243 50.9534 56.8278 51.8436 55.9698C53.4256 54.4452 53.9201 51.1788 52.9941 48.3714C52.7009 47.4828 51.9233 46.8688 51.0128 46.8064C49.9144 46.7312 48.7928 47.2167 48.0142 48.1053C47.9302 48.2009 47.8057 48.2505 47.6793 48.2404C47.5526 48.2295 47.4383 48.1592 47.372 48.0508C45.4166 44.8623 43.009 44.2907 41.7481 44.2336C41.6857 44.2306 41.6234 44.2293 41.5616 44.2293H41.562Z" fill="#150B3A"/>
<path d="M48.6377 47.494C48.1346 47.9424 47.6621 48.4197 47.2497 48.9542C46.8333 49.5061 46.4961 50.0974 46.1924 50.7291C46.2384 50.3796 46.3227 50.0334 46.437 49.695C46.7792 48.6651 47.4211 47.7581 48.1717 46.9786C48.3054 46.8406 48.5257 46.837 48.6636 46.9707C48.815 47.1149 48.8012 47.3652 48.6377 47.4943V47.494Z" fill="#150B3A"/>
<path d="M41.3569 55.0802C41.1986 55.0802 41.0554 54.9712 41.0187 54.8099C40.4956 52.5208 41.1204 49.5347 42.5376 47.5476C43.4715 46.2385 44.6428 45.474 45.925 45.337C46.1148 45.3167 46.2869 45.4547 46.3072 45.6455C46.3276 45.8364 46.1897 46.0075 45.9989 46.0279C44.6355 46.1738 43.6718 47.1543 43.1034 47.9513C41.7929 49.789 41.214 52.5455 41.6961 54.6551C41.7387 54.8421 41.6219 55.0283 41.4347 55.0714C41.4087 55.0773 41.3828 55.0802 41.3569 55.0802Z" fill="#150B3A"/>
<path d="M50.6867 57.3338C50.0785 57.3338 49.7088 56.951 49.5167 56.6629C48.2798 54.8092 49.2258 49.4427 51.0738 47.8287C51.8622 47.1402 52.752 47.1642 53.5792 47.8961C53.723 48.0232 53.7365 48.243 53.6094 48.3869C53.4823 48.5308 53.2623 48.5442 53.1188 48.4171C52.5557 47.9191 52.0513 47.8984 51.5312 48.3527C49.983 49.7048 49.0701 54.7405 50.0949 56.2766C50.2772 56.5496 50.5757 56.8183 51.2738 56.4727C51.4458 56.3877 51.6543 56.458 51.7394 56.6301C51.8244 56.8022 51.7541 57.0108 51.5821 57.0959C51.2389 57.2658 50.9418 57.3331 50.687 57.3331L50.6867 57.3338Z" fill="#150B3A"/>
<path d="M53.6465 49.608C53.6412 49.608 53.636 49.608 53.6307 49.6076L50.4982 49.4664C50.3064 49.4578 50.1583 49.2952 50.1669 49.1037C50.1754 48.9119 50.3402 48.7624 50.5294 48.7723L53.6619 48.9135C53.8537 48.922 54.0018 49.0847 53.9932 49.2762C53.9847 49.4624 53.831 49.608 53.6465 49.608Z" fill="#150B3A"/>
<path d="M53.8338 51.2478C53.8302 51.2478 53.8263 51.2478 53.8226 51.2478L49.8232 51.1214C49.6315 51.1154 49.4811 50.9548 49.487 50.763C49.4929 50.5711 49.6522 50.4154 49.8452 50.4266L53.8446 50.553C54.0364 50.5589 54.1868 50.7196 54.1809 50.9114C54.175 51.0997 54.0206 51.2478 53.8341 51.2478H53.8338Z" fill="#150B3A"/>
<path d="M53.7557 52.9833C53.7528 52.9833 53.7495 52.9833 53.7466 52.9833L49.4335 52.8703C49.2418 52.8654 49.0904 52.7057 49.0953 52.5139C49.1003 52.322 49.2648 52.1726 49.4516 52.1755L53.7646 52.2885C53.9564 52.2935 54.1077 52.4531 54.1028 52.645C54.0979 52.8338 53.9432 52.9833 53.7557 52.9833Z" fill="#150B3A"/>
<path d="M49.3262 54.9744C49.1377 54.9744 48.983 54.8233 48.9791 54.6341C48.9751 54.4422 49.1275 54.2836 49.3193 54.2796L53.2159 54.2005C53.4077 54.2021 53.5663 54.349 53.5702 54.5408C53.5741 54.7327 53.4218 54.8913 53.23 54.8953L49.3334 54.9744C49.3311 54.9744 49.3285 54.9744 49.3262 54.9744Z" fill="#150B3A"/>
<path d="M57.2222 37.4235C67.1041 40.8122 77.8593 35.5464 81.2447 25.6619C84.6302 15.7775 79.3638 5.01743 69.482 1.62871C59.6002 -1.76001 48.8449 3.50582 45.4595 13.3903C42.0741 23.2747 47.3404 34.0348 57.2222 37.4235Z" fill="url(#paint25_linear_5410_6437)"/>
<path d="M74.1993 14.7938C77.9363 13.6531 79.9482 13.6478 80.1871 13.8531C80.4261 14.0584 81.2594 22.396 77.4099 26.6381C74.376 29.9824 73.1848 29.2039 72.2799 29.0729C71.9 29.0212 71.5584 28.8255 71.2468 28.6065C70.3517 27.9631 69.6787 27.0258 69.3448 25.9693C69.0267 24.9631 69.0112 23.8475 68.52 22.9277C67.6441 21.2928 66.7056 20.6794 67.9753 19.1972C68.9932 17.9987 70.748 15.8418 74.1993 14.7938Z" fill="url(#paint26_linear_5410_6437)"/>
<path fill-rule="evenodd" clip-rule="evenodd" d="M78.6363 13.9687C77.6307 14.0848 76.1743 14.3697 74.2727 14.9431L74.2724 14.9432C70.9128 15.951 69.1656 18.0021 68.1181 19.2318C68.0888 19.2663 68.06 19.3001 68.0317 19.3332L68.031 19.3341C67.7216 19.6934 67.5659 19.979 67.5021 20.2215C67.4401 20.457 67.4591 20.6734 67.5406 20.9095C67.6252 21.1544 67.7741 21.413 67.9715 21.731C68.0078 21.7894 68.0455 21.8496 68.0845 21.9117C68.253 22.1804 68.4437 22.4845 68.6308 22.8308L68.631 22.8311C68.9034 23.3368 69.0405 23.8883 69.1502 24.4225C69.1761 24.5488 69.2004 24.6735 69.2245 24.7968C69.3043 25.2056 69.3808 25.5978 69.5024 25.978C69.8293 27.0002 70.486 27.9085 71.357 28.5324C71.6673 28.7495 71.9748 28.9189 72.2993 28.9635L72.3004 28.9637L72.3014 28.9639C72.4324 28.983 72.5577 29.0103 72.6833 29.0377C73.0652 29.121 73.4501 29.2049 74.0068 29.0609C74.7419 28.8709 75.7795 28.2645 77.3163 26.5793L77.3163 26.5793C79.2232 24.4888 79.9814 21.3594 80.2228 18.688C80.343 17.3581 80.334 16.1552 80.2799 15.2738C80.2528 14.8328 80.2147 14.4752 80.1766 14.2243C80.1576 14.0993 80.1393 14.0053 80.1235 13.9423C80.1164 13.9406 80.1084 13.9388 80.0994 13.937C80.0309 13.923 79.9306 13.9114 79.7953 13.906C79.5256 13.8953 79.1398 13.9106 78.6363 13.9687ZM80.2081 13.408C80.3015 13.4271 80.4191 13.4601 80.5049 13.5335C80.5429 13.566 80.5651 13.602 80.5758 13.6209C80.5883 13.643 80.5978 13.6649 80.605 13.6834C80.6195 13.7204 80.6318 13.7624 80.6426 13.8052C80.6645 13.8919 80.6861 14.0055 80.7066 14.1402C80.7477 14.4111 80.7872 14.7854 80.815 15.2381C80.8706 16.1438 80.8797 17.3743 80.7567 18.7344C80.512 21.4429 79.7388 24.7196 77.7105 26.9433C76.1457 28.6592 75.0213 29.3553 74.1379 29.5836C73.4447 29.7628 72.9008 29.6422 72.5065 29.5547C72.4014 29.5314 72.307 29.5104 72.2231 29.4981C71.7698 29.4354 71.3769 29.2051 71.0484 28.9751L71.0473 28.9743L71.0461 28.9735C70.0803 28.2821 69.354 27.2775 68.992 26.1455C68.8598 25.7322 68.7751 25.2978 68.6944 24.8833C68.6713 24.7649 68.6486 24.6482 68.6251 24.5341C68.5172 24.0088 68.3924 23.5228 68.1595 23.0902C67.9815 22.7608 67.802 22.4745 67.634 22.2066C67.5941 22.1429 67.5549 22.0804 67.5165 22.0185C67.3204 21.7026 67.1407 21.3975 67.0341 21.0887C66.9244 20.771 66.8896 20.4437 66.9839 20.0855C67.0763 19.7344 67.2868 19.3764 67.6261 18.9822C67.6556 18.9476 67.6857 18.9123 67.7165 18.8761C68.7748 17.6334 70.6088 15.4799 74.1212 14.4262C76.0465 13.8456 77.5344 13.553 78.5776 13.4326C79.0986 13.3724 79.5134 13.3547 79.8188 13.3667C79.971 13.3728 80.102 13.3864 80.2081 13.408Z" fill="#150B3A"/>
<path d="M72.9218 27.0376C72.5877 26.5472 72.0829 24.666 71.0552 23.562C70.0276 22.458 69.0488 22.3842 69.3273 21.1474C69.6059 19.9106 70.8767 18.7409 72.9795 17.6173C75.0824 16.4937 77.4416 16.1527 77.4787 16.5982C77.5158 17.0436 77.5679 19.9539 76.3257 22.8643C75.1035 25.7816 73.2524 27.5381 72.9218 27.0376Z" fill="#5C13A1"/>
<path d="M73.3456 27.2234C73.3456 27.2234 72.7365 24.6789 71.7712 23.6195C70.8156 22.5633 69.8901 22.5003 70.1771 21.2807C70.4606 20.0714 71.6635 18.9114 73.6679 17.7952C75.6723 16.6789 77.8963 16.3201 77.9343 16.7493C77.9724 17.1786 77.9775 20.0247 76.7736 22.8723C75.5697 25.72 74.1773 27.1155 73.3456 27.2234Z" fill="#FF4DD3"/>
<path d="M73.614 17.8305C73.9446 17.6442 74.2813 17.4716 74.6169 17.3331C74.7291 17.3485 74.8019 17.385 74.8094 17.4568C74.8287 17.7745 74.8319 19.8847 73.9302 22.0188C73.4133 23.2475 72.8531 24.1042 72.351 24.635C72.1633 24.248 71.952 23.8989 71.7219 23.6356C70.7886 22.5894 69.8798 22.5313 70.1678 21.3162C70.4463 20.0979 71.6396 18.9513 73.614 17.8305Z" fill="url(#paint27_linear_5410_6437)"/>
<path d="M54.5794 11.6308C51.4117 9.28897 49.4888 8.58427 49.1887 8.70755C48.892 8.82071 45.1939 16.4426 47.4027 21.7808C49.1334 25.9937 50.5505 25.654 51.4517 25.8387C51.8303 25.912 52.2304 25.8569 52.6042 25.7476C53.6853 25.4397 54.6527 24.7761 55.337 23.8911C55.9875 23.0397 56.3881 22.0008 57.1814 21.2888C58.5849 20.0396 59.6957 19.7758 58.9903 17.9391C58.4356 16.4482 57.5139 13.8022 54.5794 11.6308Z" fill="url(#paint28_linear_5410_6437)"/>
<path fill-rule="evenodd" clip-rule="evenodd" d="M50.8099 8.79805C51.7335 9.25639 53.0094 10.0212 54.5905 11.1907L54.5905 11.1908C57.4858 13.3344 58.4506 15.94 59.009 17.4479C59.0248 17.4907 59.0403 17.5326 59.0556 17.5736C59.2382 18.0503 59.3137 18.451 59.282 18.8064C59.2497 19.1692 59.108 19.4607 58.8999 19.7184C58.6978 19.9687 58.4291 20.1914 58.1417 20.4183C58.0845 20.4634 58.0264 20.5089 57.9672 20.5551C57.7227 20.7463 57.4616 20.9506 57.1874 21.1948C56.8237 21.5216 56.5438 21.9288 56.268 22.3765C56.205 22.4787 56.1418 22.5838 56.0776 22.6904C55.8669 23.041 55.6462 23.4079 55.3904 23.743L55.3899 23.7436L55.3894 23.7443C54.6759 24.6675 53.6683 25.3598 52.5407 25.6817C52.1475 25.7968 51.7056 25.8615 51.2744 25.7781L51.273 25.7779L51.2716 25.7776C51.1903 25.7609 51.0956 25.7489 50.9898 25.7356C50.5987 25.6861 50.0558 25.6174 49.4769 25.2234C48.7366 24.7195 47.9309 23.702 47.065 21.5913C45.9362 18.8588 46.3246 15.57 47.0104 12.9828C47.3547 11.6836 47.7776 10.5482 48.1339 9.72873C48.3119 9.31922 48.4744 8.98608 48.6034 8.74928C48.6676 8.63147 48.7257 8.53357 48.7749 8.46075C48.7992 8.42481 48.8246 8.39007 48.8502 8.3607C48.863 8.34604 48.8791 8.32898 48.8979 8.31271C48.9135 8.29928 48.9446 8.27426 48.9886 8.2567C49.0942 8.21404 49.2157 8.22164 49.3083 8.23438C49.4146 8.24899 49.5409 8.27966 49.6839 8.32452C49.9708 8.41453 50.3486 8.56918 50.8099 8.79805ZM49.2101 8.75753C49.2172 8.75824 49.2253 8.75919 49.2343 8.76043C49.3017 8.7697 49.3979 8.79172 49.5248 8.83152C49.7776 8.91082 50.1291 9.05334 50.5751 9.2746C51.4656 9.71652 52.7153 10.4639 54.2771 11.6192C57.0459 13.6692 57.965 16.1505 58.5178 17.6427C58.5329 17.6837 58.5479 17.7239 58.5625 17.7634L58.563 17.7647L58.5635 17.766C58.7303 18.2008 58.7791 18.5165 58.7573 18.7618C58.7361 18.9999 58.6463 19.1935 58.492 19.3846C58.3319 19.583 58.1074 19.7727 57.8182 20.001C57.7643 20.0435 57.7084 20.0873 57.6507 20.1324C57.4052 20.3243 57.1276 20.5414 56.8393 20.7982L56.8385 20.7989C56.4149 21.1794 56.1021 21.6417 55.8208 22.0982C55.7509 22.2116 55.6834 22.3239 55.6166 22.4349C55.4093 22.7796 55.2099 23.1109 54.974 23.42C54.3288 24.2547 53.4165 24.8808 52.3988 25.1712L52.3979 25.1715L52.397 25.1717C52.0488 25.2737 51.6973 25.3185 51.3778 25.257C51.2497 25.2308 51.1241 25.2145 50.9981 25.1981C50.6201 25.1489 50.2381 25.0992 49.7734 24.7829C49.1578 24.3639 48.4022 23.4586 47.5519 21.3858L47.5516 21.3852C46.4903 18.8163 46.8429 15.669 47.5193 13.1172C47.856 11.8468 48.2695 10.737 48.6162 9.93954C48.7897 9.54059 48.9453 9.22235 49.0649 9.00287C49.125 8.89253 49.1739 8.81106 49.2098 8.75802C49.2099 8.75786 49.21 8.75769 49.2101 8.75753Z" fill="#150B3A"/>
<path d="M51.4102 23.2141C51.9144 22.8701 53.048 21.3033 54.4436 20.6469C55.8392 19.9904 56.8238 20.2606 56.9719 19.0077C57.12 17.7548 56.273 16.2281 54.5741 14.4541C52.8752 12.6801 50.6698 11.5304 50.4832 11.9385C50.2896 12.3329 49.2515 15.0225 49.4671 18.1534C49.6827 21.2843 50.9199 23.5517 51.4102 23.2141Z" fill="#5C13A1"/>
<path d="M51.0868 23.1863C51.0868 23.1863 52.5741 21.0123 53.857 20.3282C55.14 19.644 56.0311 19.8808 56.1965 18.6643C56.3654 17.4375 55.6299 15.9808 54.1347 14.2866C52.6395 12.5923 50.6636 11.5362 50.4838 11.9333C50.2943 12.3272 49.2791 14.9728 49.404 18.0209C49.5289 21.0691 50.3364 22.8257 51.0868 23.1863Z" fill="#FF4DD3"/>
<path d="M54.0473 14.3854C53.7901 14.1042 53.5259 13.8433 53.2583 13.5926C53.1327 13.5722 53.0629 13.5823 53.0321 13.6399C52.8981 13.9345 52.1406 15.8884 52.2496 18.1509C52.3112 19.4548 52.547 20.4439 52.8446 21.0909C53.1641 20.8031 53.4964 20.5425 53.8172 20.38C55.1073 19.7099 56.0081 19.9507 56.1669 18.7451C56.3193 17.5259 55.5709 16.0659 54.0473 14.3854Z" fill="url(#paint29_linear_5410_6437)"/>
<path fill-rule="evenodd" clip-rule="evenodd" d="M68.4451 15.8028L66.5288 19.0422L66.0899 18.7431L68.0062 15.5038L68.4451 15.8028Z" fill="#150B3A"/>
<path d="M68.3539 16.0711C69.0202 16.2995 69.7761 15.8545 70.0423 15.0771C70.3086 14.2997 69.9843 13.4843 69.3181 13.2558C68.6519 13.0273 67.896 13.4723 67.6297 14.2497C67.3635 15.0272 67.6877 15.8426 68.3539 16.0711Z" fill="url(#paint30_linear_5410_6437)"/>
<path fill-rule="evenodd" clip-rule="evenodd" d="M69.2527 13.4464C68.6914 13.2539 68.0806 13.5529 67.8883 14.1144C67.6961 14.6758 67.9952 15.287 68.5565 15.4795C69.1178 15.672 69.7287 15.373 69.921 14.8115C70.1132 14.2501 69.814 13.6389 69.2527 13.4464ZM67.2963 13.9113C67.6005 13.0228 68.5673 12.5496 69.4555 12.8542C70.3438 13.1589 70.8172 14.1261 70.513 15.0146C70.2087 15.9031 69.242 16.3763 68.3537 16.0717C67.4655 15.767 66.992 14.7998 67.2963 13.9113Z" fill="#150B3A"/>
<path fill-rule="evenodd" clip-rule="evenodd" d="M60.1342 14.1527L61.0438 17.7393L60.4461 17.855L59.5365 14.2684L60.1342 14.1527Z" fill="#150B3A"/>
<path d="M59.0962 14.2453C59.7624 14.4738 60.4875 14.1188 60.7157 13.4525C60.9439 12.7861 60.5888 12.0607 59.9226 11.8323C59.2564 11.6038 58.5313 11.9588 58.3031 12.6251C58.0749 13.2914 58.43 14.0168 59.0962 14.2453Z" fill="url(#paint31_linear_5410_6437)"/>
<path fill-rule="evenodd" clip-rule="evenodd" d="M59.8572 12.0228C59.2959 11.8303 58.6851 12.1294 58.4928 12.6908C58.3005 13.2522 58.5997 13.8634 59.161 14.0559C59.7223 14.2485 60.3332 13.9494 60.5255 13.388C60.7177 12.8265 60.4185 12.2154 59.8572 12.0228ZM57.9008 12.4877C58.205 11.5993 59.1717 11.126 60.06 11.4307C60.9483 11.7353 61.4217 12.7026 61.1175 13.591C60.8132 14.4795 59.8465 14.9528 58.9582 14.6481C58.07 14.3434 57.5965 13.3762 57.9008 12.4877Z" fill="#150B3A"/>
<path d="M60.1135 38.2024C65.1504 39.0889 70.5283 37.354 74.2149 34.6186C74.2804 34.0956 73.8493 34.0273 73.8808 33.504C73.9002 33.2153 75.2977 33.1491 75.1364 32.9234C74.6391 32.2188 73.9009 31.0566 73.8358 30.2843C73.2159 23.4017 69.3592 17.8748 63.8505 16.906C58.3317 15.9338 52.8171 19.8262 49.9035 26.1106C49.6545 26.6388 48.2419 27.711 47.6923 27.9885C47.2793 28.1991 48.9106 28.6449 48.7742 29.1094C48.6274 29.6045 48.2725 29.7782 48.1628 30.2974C50.6943 34.1199 55.0766 37.3159 60.1135 38.2024Z" fill="url(#paint32_linear_5410_6437)"/>
<path fill-rule="evenodd" clip-rule="evenodd" d="M63.6172 16.8281C69.2683 17.8229 73.1606 23.4672 73.7863 30.3829L73.7863 30.3837L73.7864 30.3844C73.814 30.7107 73.9909 31.1509 74.2422 31.6188C74.4889 32.0783 74.7899 32.5329 75.0344 32.879C75.0723 32.9325 75.1044 33.0095 75.0946 33.102C75.0851 33.1915 75.0403 33.2559 75.003 33.2951C74.9367 33.3647 74.8468 33.4041 74.7886 33.4268C74.6668 33.4743 74.4986 33.5152 74.3483 33.5517L74.3217 33.5581C74.1522 33.5994 73.9993 33.6376 73.8876 33.6803C73.8652 33.689 73.8471 33.6967 73.8329 33.7035C73.8416 33.8225 73.8916 33.8998 73.9695 34.02C74.0728 34.1795 74.209 34.3951 74.1643 34.753L74.1501 34.8664L74.0583 34.9344C70.34 37.6905 64.9118 39.4431 59.8102 38.5443C54.7151 37.6466 50.2884 34.4188 47.7291 30.5587L47.6672 30.4653L47.6903 30.3558C47.7568 30.0407 47.9004 29.8308 48.0242 29.6564C48.0297 29.6486 48.0351 29.641 48.0405 29.6334C48.1522 29.4764 48.2404 29.3523 48.2967 29.1769C48.2854 29.1593 48.2615 29.1305 48.2164 29.0914C48.1122 29.001 47.9574 28.9078 47.7847 28.8082C47.7682 28.7986 47.7512 28.7889 47.734 28.779C47.59 28.6963 47.4275 28.603 47.3238 28.5151C47.2922 28.4883 47.2574 28.4551 47.2276 28.4156C47.1988 28.3774 47.163 28.3182 47.1518 28.2408C47.1392 28.1539 47.1613 28.0686 47.2115 27.999C47.2562 27.9371 47.3144 27.899 47.3611 27.8753L47.3621 27.8748C47.6102 27.7497 48.0812 27.4281 48.5267 27.0658C48.7474 26.8864 48.9555 26.7019 49.1217 26.5329C49.2934 26.3584 49.4001 26.2203 49.4419 26.1322C52.37 19.8191 57.9559 15.8298 63.6172 16.8281ZM73.7898 33.7282C73.7898 33.7282 73.7903 33.7278 73.7912 33.7271C73.7903 33.7279 73.7898 33.7283 73.7898 33.7282ZM73.2532 30.4298C72.6394 23.6486 68.8463 18.2916 63.5249 17.3548L63.5248 17.3548C58.1934 16.4146 52.7982 20.1675 49.9271 26.3584L49.9268 26.3592L49.9264 26.36C49.844 26.5346 49.6821 26.7267 49.5036 26.908C49.3193 27.0954 49.0952 27.2934 48.8649 27.4807C48.5125 27.7673 48.1308 28.0409 47.8375 28.2202C47.8882 28.2507 47.9472 28.2846 48.0137 28.323C48.0262 28.3302 48.039 28.3376 48.052 28.3451C48.2172 28.4405 48.4174 28.558 48.5668 28.6875C48.6419 28.7526 48.7195 28.8334 48.7719 28.9306C48.8272 29.0331 48.8589 29.1636 48.8174 29.3049L48.8172 29.3056C48.7354 29.5815 48.5969 29.7755 48.4845 29.9329C48.4765 29.9442 48.4686 29.9553 48.4608 29.9662C48.3653 30.1006 48.2893 30.2153 48.2415 30.3629C50.7368 34.0677 55.0084 37.1553 59.9026 38.0176C64.7877 38.8783 70.0171 37.2216 73.6366 34.5802C73.6286 34.482 73.5863 34.4122 73.5203 34.3103C73.5172 34.3056 73.5141 34.3008 73.511 34.296C73.414 34.1467 73.2779 33.9372 73.2985 33.5942L73.2985 33.5933L73.2986 33.5924C73.3086 33.4426 73.4054 33.3474 73.4705 33.2986C73.5393 33.2469 73.6214 33.2093 73.6956 33.1809C73.8453 33.1236 74.034 33.0775 74.1946 33.0385C74.2915 33.0149 74.3773 32.994 74.4493 32.9742C74.2296 32.6527 73.9825 32.2659 73.7706 31.8713C73.5141 31.3937 73.2908 30.8718 73.2532 30.4298Z" fill="#150B3A"/>
<path d="M73.6757 34.6421C73.7152 34.4609 73.6534 34.2794 73.5303 34.1456C73.1639 33.768 72.638 33.1983 72.6705 33.0376C72.6779 32.9829 72.7424 32.9592 72.8507 32.9391C72.6328 31.5359 71.1313 29.9331 69.7258 30.287C67.3518 30.8701 65.0754 31.7271 64.1925 30.3249C62.6185 27.8153 63.9735 26.4248 62.121 26.1101C62.1109 26.1067 62.1008 26.1032 62.0872 26.11C62.0772 26.1065 62.0671 26.1031 62.057 26.0996C59.9182 25.7326 61.0658 27.5463 58.6485 29.3742C57.3256 30.3749 55.9136 28.9058 53.4612 27.4807C52.2217 26.7579 50.0952 27.7693 49.6074 28.9305C49.6912 28.9821 49.7411 29.0336 49.7372 29.0781C49.7047 29.2387 48.9944 29.6021 48.5187 29.8398C48.3692 29.9145 48.2661 30.0509 48.2402 30.2253C48.2367 30.2355 48.2332 30.2458 48.2297 30.256C48.6503 30.8698 50.0434 32.7562 52.375 34.8957C54.5098 36.8531 57.6835 37.5865 59.142 37.8347C59.5764 37.915 59.8696 37.9468 59.9573 37.954C60.0415 37.9714 60.3343 38.0375 60.7687 38.1177C62.2236 38.3762 65.4662 38.7438 68.1477 37.6249C71.1041 36.3942 73.0522 35.081 73.6757 34.6421Z" fill="white"/>
<path fill-rule="evenodd" clip-rule="evenodd" d="M57.1096 25.8711C56.4702 25.8487 55.9106 26.316 55.8886 26.9461C55.8815 27.1517 55.6904 27.3118 55.4619 27.3038C55.2334 27.2958 55.054 27.1226 55.0611 26.9171C55.0965 25.9016 56.011 25.0873 57.1355 25.1268C58.2601 25.1663 59.1156 26.0428 59.0803 27.0583C59.0731 27.2639 58.8821 27.424 58.6536 27.416C58.4251 27.4079 58.2456 27.2348 58.2528 27.0292C58.2748 26.3991 57.7491 25.8936 57.1096 25.8711Z" fill="#150B3A"/>
<path fill-rule="evenodd" clip-rule="evenodd" d="M66.3151 27.3049C65.7388 27.1811 65.1453 27.5634 65.0099 28.1948C64.9658 28.4007 64.763 28.5318 64.5571 28.4876C64.3512 28.4434 64.2201 28.2405 64.2642 28.0346C64.4824 27.0171 65.4616 26.3414 66.475 26.5591C67.4884 26.7768 68.1043 27.7952 67.8862 28.8127C67.842 29.0186 67.6393 29.1497 67.4333 29.1055C67.2274 29.0612 67.0963 28.8584 67.1405 28.6525C67.2759 28.0211 66.8913 27.4287 66.3151 27.3049Z" fill="#150B3A"/>
<path d="M62.445 23.4885C63.0002 23.6789 63.5736 23.4731 63.7257 23.0289C63.8778 22.5847 63.5511 22.0702 62.9959 21.8798C62.4408 21.6894 61.8674 21.8952 61.7153 22.3394C61.5631 22.7836 61.8898 23.2981 62.445 23.4885Z" fill="#D4E8FF"/>
<path d="M62.8706 20.9365C63.2037 21.0507 63.5354 20.9633 63.6115 20.7412C63.6875 20.5191 63.4792 20.2464 63.1461 20.1322C62.813 20.0179 62.4813 20.1054 62.4052 20.3275C62.3292 20.5496 62.5375 20.8222 62.8706 20.9365Z" fill="#D4E8FF"/>
<path d="M62.7099 29.915C62.62 30.4322 61.3704 30.7379 61.2762 30.7262C61.1852 30.7054 60.0959 29.9699 60.1858 29.4526C60.2757 28.9354 60.8468 28.9555 61.5452 29.0812C62.2436 29.207 62.7998 29.3977 62.7099 29.915Z" fill="#150B3A"/>
<path d="M61.5564 32.6413C62.1514 32.6835 62.5029 32.4869 63.2138 32.4053C63.3752 32.4075 63.5234 32.4354 63.6765 32.5796C64.1747 32.9998 63.6597 35.3185 61.6191 35.3038C59.2295 35.3036 58.8803 32.8956 59.4934 32.4323C59.6172 32.35 59.7149 32.2868 59.8251 32.2624C60.713 32.3234 60.5838 32.5723 61.5564 32.6413Z" fill="#150B3A"/>
<path d="M60.5196 34.9608L60.4749 35.077C60.8135 35.2322 61.5471 35.4493 62.3479 35.1993C63.2288 34.9438 63.5993 34.1063 63.5993 34.1063C63.5993 34.1063 63.5677 34.0698 63.5508 34.0512C63.2593 33.7303 62.7634 33.6395 62.0733 33.7569C60.868 33.9636 60.5196 34.9608 60.5196 34.9608Z" fill="url(#paint33_linear_5410_6437)"/>
<path fill-rule="evenodd" clip-rule="evenodd" d="M69.4113 1.83614C59.6437 -1.51343 49.0127 3.69156 45.6664 13.4618C42.3201 23.2321 47.5256 33.8678 57.2932 37.2174C67.0609 40.5669 77.6919 35.3619 81.0382 25.5917C84.3845 15.8214 79.179 5.1857 69.4113 1.83614ZM45.0576 13.253C48.5191 3.14646 59.516 -2.23771 69.6199 1.22716C79.7238 4.69204 85.1085 15.6939 81.647 25.8004C78.1855 35.907 67.1886 41.2912 57.0847 37.8263C46.9808 34.3615 41.5961 23.3596 45.0576 13.253Z" fill="#150B3A"/>
<ellipse cx="5.30381" cy="9.78036" rx="5.30381" ry="9.78036" transform="matrix(0.813964 0.580915 -0.580572 0.814209 62.6245 37.3965)" fill="white"/>
<path d="M63.1889 40.7936C62.2725 41.1558 61.7787 42.1338 61.9927 43.0671L61.223 43.3715C61.074 43.4313 61.0006 43.6004 61.0585 43.7501C61.1165 43.8998 61.2868 43.9739 61.4358 43.9141L62.2055 43.6097C62.6826 44.4382 63.7095 44.8158 64.6246 44.453C65.6315 44.0551 66.1292 42.9092 65.7331 41.9013C65.3393 40.8914 64.1975 40.395 63.1889 40.7936ZM64.4137 43.9097C63.7977 44.1535 63.1094 43.9217 62.7581 43.3908L63.0621 43.271C63.2111 43.2112 63.2845 43.0421 63.2266 42.8924C63.1686 42.7427 62.9983 42.6686 62.8494 42.7284L62.5453 42.8482C62.4419 42.2197 62.7857 41.58 63.4029 41.3367C64.1124 41.0571 64.9148 41.406 65.1945 42.1157C65.4729 42.8249 65.1219 43.6295 64.4137 43.9097ZM62.249 44.4523C62.3069 44.602 62.2335 44.7711 62.0845 44.8308L60.4594 45.4745C60.3105 45.5343 60.1401 45.4602 60.0822 45.3105C60.0242 45.1608 60.0977 44.9917 60.2466 44.9319L61.8717 44.2882C62.0201 44.2297 62.188 44.3027 62.249 44.4523ZM59.2817 43.2791C59.2237 43.1294 59.2972 42.9603 59.4461 42.9005L61.0707 42.2581C61.2197 42.1983 61.39 42.2724 61.4479 42.4221C61.5059 42.5718 61.4324 42.7409 61.2835 42.8007L59.6589 43.4431C59.5105 43.5016 59.3414 43.4281 59.2817 43.2791Z" fill="#150B3A"/>
<path d="M81.4353 87.5835C81.2765 87.8924 80.8409 88.3059 80.4689 88.5058C80.1422 88.6784 79.5796 88.8329 79.2756 88.8329H79.0623L78.6268 90.0232L78.1957 91.218L79.1622 91.2407L80.1286 91.2634L77.7102 97.9418C76.3808 101.613 75.2828 104.666 75.2647 104.72L75.2329 104.825H77.0614H78.8945L81.9526 96.3608C83.6313 91.7086 85.056 87.7743 85.115 87.6153L85.2194 87.3336H83.3909H81.5669L81.4353 87.5835Z" fill="#01E0FF"/>
<path d="M88.4382 87.423C87.6434 87.6317 86.9711 88.1626 86.6259 88.8523C86.3761 89.356 82.152 101.067 82.0612 101.517C81.9703 101.966 81.9658 102.724 82.0566 103.073C82.2701 103.881 82.8924 104.43 83.8962 104.697C84.2822 104.797 84.2959 104.797 87.984 104.797H91.6858L92.0037 104.693C92.7214 104.452 93.3527 103.921 93.6752 103.273C93.8569 102.914 98.0492 91.3616 98.2354 90.7082C98.3717 90.2272 98.4217 89.474 98.3399 89.0656C98.1855 88.2761 97.6677 87.7724 96.7002 87.4775L96.3641 87.3731L92.5261 87.364C89.2876 87.355 88.6472 87.364 88.4382 87.423ZM94.0159 90.8352C94.193 90.9623 94.3429 91.2391 94.3429 91.4342C94.3429 91.6066 91.0181 100.895 90.9 101.054C90.8501 101.117 90.7456 101.208 90.6593 101.258C90.5139 101.344 90.4095 101.349 88.5972 101.362C87.3436 101.371 86.635 101.362 86.526 101.331C86.2081 101.235 85.9901 100.977 85.9764 100.677C85.9719 100.532 89.2331 91.3117 89.3784 91.0667C89.4556 90.9396 89.6373 90.8126 89.8372 90.7536C89.9053 90.7309 90.841 90.7173 91.9129 90.7218L93.866 90.7309L94.0159 90.8352Z" fill="#01E0FF"/>
<path d="M103.691 95.7561C103.61 95.9152 103.387 96.128 103.196 96.231C103.029 96.3199 102.741 96.3994 102.585 96.3994H102.476L102.252 97.0122L102.032 97.6274L102.527 97.6391L103.022 97.6508L101.783 101.089C101.102 102.979 100.539 104.551 100.53 104.579L100.514 104.633H101.45H102.39L103.956 100.275C104.816 97.88 105.546 95.8544 105.577 95.7725L105.63 95.6275H104.693H103.759L103.691 95.7561Z" fill="white"/>
<path d="M107.304 95.6594C106.895 95.7669 106.549 96.0403 106.372 96.3954C106.243 96.6547 104.071 102.685 104.025 102.916C103.978 103.148 103.975 103.538 104.022 103.718C104.132 104.134 104.452 104.416 104.968 104.554C105.167 104.606 105.174 104.606 107.07 104.606H108.973L109.137 104.552C109.506 104.428 109.831 104.155 109.996 103.821C110.09 103.636 112.245 97.6874 112.341 97.351C112.411 97.1033 112.437 96.7155 112.395 96.5052C112.315 96.0987 112.049 95.8393 111.552 95.6874L111.379 95.6337L109.405 95.629C107.74 95.6244 107.411 95.629 107.304 95.6594ZM110.171 97.4164C110.263 97.4818 110.34 97.6244 110.34 97.7248C110.34 97.8136 108.63 102.596 108.569 102.678C108.544 102.711 108.49 102.758 108.446 102.783C108.371 102.828 108.317 102.83 107.385 102.837C106.741 102.842 106.376 102.837 106.32 102.821C106.157 102.772 106.045 102.638 106.038 102.484C106.035 102.409 107.712 97.6617 107.787 97.5356C107.827 97.4701 107.92 97.4047 108.023 97.3744C108.058 97.3627 108.539 97.3557 109.09 97.358L110.094 97.3627L110.171 97.4164Z" fill="white"/>
<path d="M101.994 87.9359L95.9717 104.742H97.0703L103.031 87.9359H101.994Z" fill="white"/>
</g>
<defs>
<linearGradient id="paint0_linear_5410_6437" x1="25.0271" y1="46.713" x2="7.51652" y2="94.0328" gradientUnits="userSpaceOnUse">
<stop stop-color="#22DBE0" stop-opacity="0"/>
<stop offset="1" stop-color="#00E0FF"/>
</linearGradient>
<linearGradient id="paint1_linear_5410_6437" x1="25.0271" y1="46.713" x2="7.51652" y2="94.0328" gradientUnits="userSpaceOnUse">
<stop stop-color="#22DBE0" stop-opacity="0"/>
<stop offset="1" stop-color="#00E0FF"/>
</linearGradient>
<linearGradient id="paint2_linear_5410_6437" x1="25.0271" y1="46.713" x2="7.51652" y2="94.0328" gradientUnits="userSpaceOnUse">
<stop stop-color="#22DBE0" stop-opacity="0"/>
<stop offset="1" stop-color="#00E0FF"/>
</linearGradient>
<linearGradient id="paint3_linear_5410_6437" x1="25.0271" y1="46.713" x2="7.51652" y2="94.0328" gradientUnits="userSpaceOnUse">
<stop stop-color="#22DBE0" stop-opacity="0"/>
<stop offset="1" stop-color="#00E0FF"/>
</linearGradient>
<linearGradient id="paint4_linear_5410_6437" x1="57.7908" y1="39.3225" x2="22.7234" y2="38.4448" gradientUnits="userSpaceOnUse">
<stop stop-color="#22DBE0" stop-opacity="0"/>
<stop offset="1" stop-color="#00E0FF"/>
</linearGradient>
<linearGradient id="paint5_linear_5410_6437" x1="57.7908" y1="39.3225" x2="22.7234" y2="38.4448" gradientUnits="userSpaceOnUse">
<stop stop-color="#22DBE0" stop-opacity="0"/>
<stop offset="1" stop-color="#00E0FF"/>
</linearGradient>
<linearGradient id="paint6_linear_5410_6437" x1="57.7908" y1="39.3225" x2="22.7234" y2="38.4448" gradientUnits="userSpaceOnUse">
<stop stop-color="#22DBE0" stop-opacity="0"/>
<stop offset="1" stop-color="#00E0FF"/>
</linearGradient>
<linearGradient id="paint7_linear_5410_6437" x1="57.7908" y1="39.3225" x2="22.7234" y2="38.4448" gradientUnits="userSpaceOnUse">
<stop stop-color="#22DBE0" stop-opacity="0"/>
<stop offset="1" stop-color="#00E0FF"/>
</linearGradient>
<linearGradient id="paint8_linear_5410_6437" x1="57.7908" y1="39.3225" x2="22.7234" y2="38.4448" gradientUnits="userSpaceOnUse">
<stop stop-color="#22DBE0" stop-opacity="0"/>
<stop offset="1" stop-color="#00E0FF"/>
</linearGradient>
<linearGradient id="paint9_linear_5410_6437" x1="57.7908" y1="39.3225" x2="22.7234" y2="38.4448" gradientUnits="userSpaceOnUse">
<stop stop-color="#22DBE0" stop-opacity="0"/>
<stop offset="1" stop-color="#00E0FF"/>
</linearGradient>
<linearGradient id="paint10_linear_5410_6437" x1="4.31543" y1="99.3227" x2="72.6457" y2="101.033" gradientUnits="userSpaceOnUse">
<stop stop-color="#22DBE0" stop-opacity="0"/>
<stop offset="1" stop-color="#00E0FF"/>
</linearGradient>
<linearGradient id="paint11_linear_5410_6437" x1="4.31543" y1="99.3227" x2="72.6457" y2="101.033" gradientUnits="userSpaceOnUse">
<stop stop-color="#22DBE0" stop-opacity="0"/>
<stop offset="1" stop-color="#00E0FF"/>
</linearGradient>
<linearGradient id="paint12_linear_5410_6437" x1="4.31543" y1="99.3227" x2="72.6457" y2="101.033" gradientUnits="userSpaceOnUse">
<stop stop-color="#22DBE0" stop-opacity="0"/>
<stop offset="1" stop-color="#00E0FF"/>
</linearGradient>
<linearGradient id="paint13_linear_5410_6437" x1="4.31543" y1="99.3227" x2="72.6457" y2="101.033" gradientUnits="userSpaceOnUse">
<stop stop-color="#22DBE0" stop-opacity="0"/>
<stop offset="1" stop-color="#00E0FF"/>
</linearGradient>
<linearGradient id="paint14_linear_5410_6437" x1="4.31543" y1="99.3227" x2="72.6457" y2="101.033" gradientUnits="userSpaceOnUse">
<stop stop-color="#22DBE0" stop-opacity="0"/>
<stop offset="1" stop-color="#00E0FF"/>
</linearGradient>
<linearGradient id="paint15_linear_5410_6437" x1="4.31543" y1="99.3227" x2="72.6457" y2="101.033" gradientUnits="userSpaceOnUse">
<stop stop-color="#22DBE0" stop-opacity="0"/>
<stop offset="1" stop-color="#00E0FF"/>
</linearGradient>
<linearGradient id="paint16_linear_5410_6437" x1="4.31543" y1="99.3227" x2="72.6457" y2="101.033" gradientUnits="userSpaceOnUse">
<stop stop-color="#22DBE0" stop-opacity="0"/>
<stop offset="1" stop-color="#00E0FF"/>
</linearGradient>
<linearGradient id="paint17_linear_5410_6437" x1="4.31543" y1="99.3227" x2="72.6457" y2="101.033" gradientUnits="userSpaceOnUse">
<stop stop-color="#22DBE0" stop-opacity="0"/>
<stop offset="1" stop-color="#00E0FF"/>
</linearGradient>
<linearGradient id="paint18_linear_5410_6437" x1="46.4347" y1="46.7834" x2="13.9496" y2="48.4749" gradientUnits="userSpaceOnUse">
<stop stop-color="#FF0000"/>
<stop offset="1" stop-color="#FA00A5"/>
</linearGradient>
<linearGradient id="paint19_linear_5410_6437" x1="69.7754" y1="82.0607" x2="43.8116" y2="82.8375" gradientUnits="userSpaceOnUse">
<stop stop-color="#FF0000"/>
<stop offset="1" stop-color="#FA00A5"/>
</linearGradient>
<linearGradient id="paint20_linear_5410_6437" x1="50.5336" y1="63.9589" x2="27.9578" y2="64.4726" gradientUnits="userSpaceOnUse">
<stop stop-color="#FF0000"/>
<stop offset="1" stop-color="#FA00A5"/>
</linearGradient>
<linearGradient id="paint21_linear_5410_6437" x1="95.3603" y1="35.5569" x2="78.1568" y2="35.9451" gradientUnits="userSpaceOnUse">
<stop stop-color="#FF0000"/>
<stop offset="1" stop-color="#FA00A5"/>
</linearGradient>
<linearGradient id="paint22_linear_5410_6437" x1="73.1875" y1="50.2498" x2="82.8495" y2="50.2498" gradientUnits="userSpaceOnUse">
<stop stop-color="#00A3FF"/>
<stop offset="1" stop-color="#6028FF"/>
</linearGradient>
<linearGradient id="paint23_linear_5410_6437" x1="-2.65754" y1="103.354" x2="26.2991" y2="84.6741" gradientUnits="userSpaceOnUse">
<stop stop-color="#EB201A"/>
<stop offset="1" stop-color="#EF7D30"/>
</linearGradient>
<linearGradient id="paint24_linear_5410_6437" x1="63.7863" y1="59.9758" x2="36.9389" y2="61.0616" gradientUnits="userSpaceOnUse">
<stop stop-color="#FF0000"/>
<stop offset="1" stop-color="#FA00A5"/>
</linearGradient>
<linearGradient id="paint25_linear_5410_6437" x1="43.6381" y1="18.727" x2="79.4331" y2="30.9868" gradientUnits="userSpaceOnUse">
<stop stop-color="white"/>
<stop offset="1" stop-color="#58E1FF"/>
</linearGradient>
<linearGradient id="paint26_linear_5410_6437" x1="67.3333" y1="20.6772" x2="80.0251" y2="21.8979" gradientUnits="userSpaceOnUse">
<stop offset="9.53674e-07" stop-color="#9527FF"/>
<stop offset="1" stop-color="#22DBE0"/>
</linearGradient>
<linearGradient id="paint27_linear_5410_6437" x1="74.2806" y1="21.1497" x2="70.4164" y2="20.2413" gradientUnits="userSpaceOnUse">
<stop offset="9.53674e-07" stop-color="#F232ED"/>
<stop offset="1" stop-color="#2281E0"/>
</linearGradient>
<linearGradient id="paint28_linear_5410_6437" x1="59.0684" y1="19.5515" x2="46.5499" y2="16.2886" gradientUnits="userSpaceOnUse">
<stop offset="9.53674e-07" stop-color="#9527FF"/>
<stop offset="1" stop-color="#22DBE0"/>
</linearGradient>
<linearGradient id="paint29_linear_5410_6437" x1="52.2132" y1="17.2275" x2="56.2883" y2="17.7563" gradientUnits="userSpaceOnUse">
<stop offset="9.53674e-07" stop-color="#F232ED"/>
<stop offset="1" stop-color="#2281E0"/>
</linearGradient>
<linearGradient id="paint30_linear_5410_6437" x1="67.556" y1="15.0488" x2="70.1633" y2="14.642" gradientUnits="userSpaceOnUse">
<stop offset="9.53674e-07" stop-color="#9527FF"/>
<stop offset="1" stop-color="#22DBE0"/>
</linearGradient>
<linearGradient id="paint31_linear_5410_6437" x1="60.5675" y1="13.7329" x2="58.4249" y2="12.3659" gradientUnits="userSpaceOnUse">
<stop offset="9.53674e-07" stop-color="#9527FF"/>
<stop offset="1" stop-color="#22DBE0"/>
</linearGradient>
<linearGradient id="paint32_linear_5410_6437" x1="48.127" y1="25.1221" x2="75.675" y2="29.9478" gradientUnits="userSpaceOnUse">
<stop offset="9.53674e-07" stop-color="#9527FF"/>
<stop offset="1" stop-color="#22DBE0"/>
</linearGradient>
<linearGradient id="paint33_linear_5410_6437" x1="61.5744" y1="33.8696" x2="62.4445" y2="35.2261" gradientUnits="userSpaceOnUse">
<stop stop-color="#F58981"/>
<stop offset="1" stop-color="#FA00A5"/>
</linearGradient>
<clipPath id="clip0_5410_6437">
<rect width="112.139" height="104.813" fill="white" transform="translate(0.266113)"/>
</clipPath>
</defs>
</svg>
