<svg width="93" height="105" viewBox="0 0 93 105" fill="none" xmlns="http://www.w3.org/2000/svg">
<g clip-path="url(#clip0_5410_6270)">
<path d="M53.1378 71.2576C47.9456 70.771 42.7535 70.2845 37.5613 69.798L35.8794 53.8079C36.8298 52.9743 37.7787 52.1409 38.7294 51.3073C39.0376 51.4453 39.4186 51.6227 39.8582 51.8455C41.3254 52.591 43.4306 53.8399 45.5461 55.7751C47.2884 57.3708 49.0383 59.435 50.4407 62.0676C52.3551 65.6578 52.9461 69.0344 53.1381 71.2576H53.1378Z" fill="white"/>
<path d="M53.1373 71.7393C53.1225 71.7393 53.1075 71.7388 53.0927 71.7373L37.5162 70.2771C37.2887 70.2557 37.108 70.0766 37.084 69.8487L35.4021 53.8586C35.3856 53.7032 35.4459 53.5492 35.563 53.4463L38.4128 50.9457C38.5536 50.822 38.7529 50.7917 38.9239 50.8683C41.9106 52.2041 47.4329 55.4057 50.8626 61.8409C52.4017 64.728 53.3275 67.8827 53.615 71.2169C53.6272 71.359 53.576 71.4993 53.4751 71.5996C53.3849 71.6895 53.2633 71.7393 53.137 71.7393H53.1373ZM37.9966 69.356L52.6031 70.7251C52.2745 67.7332 51.4054 64.8995 50.017 62.2942C46.8256 56.307 41.7405 53.2294 38.8121 51.8736L36.3824 54.0058L37.9969 69.356H37.9966Z" fill="#150B3A"/>
<path d="M41.1463 70.6948C41.0736 70.6948 40.9996 70.6782 40.9301 70.6429C40.6938 70.523 40.5991 70.2335 40.7189 69.9965C42.7425 65.9885 46.5594 63.7814 51.4665 63.7814C51.7315 63.7814 51.9462 63.9967 51.9462 64.2626C51.9462 64.5284 51.7315 64.7437 51.4665 64.7437C46.9395 64.7437 43.4263 66.7637 41.5743 70.4311C41.4897 70.5984 41.3211 70.6948 41.146 70.6948H41.1463Z" fill="#150B3A"/>
<g opacity="0.3">
<path d="M48.6599 69.0509C46.0033 68.8964 43.3423 68.8252 40.6798 68.8388C40.5423 68.8388 40.3974 68.8388 40.2793 68.7676C40.1311 68.6783 40.0634 68.5039 40.0072 68.3419C38.3631 63.6544 37.668 58.6956 36.9835 53.7749C36.9608 53.6174 36.9398 53.4477 37.0063 53.302C37.0773 53.146 37.2344 53.0505 37.3826 52.9641C37.9342 52.6414 38.4933 52.3275 39.087 52.0943C39.3393 51.9943 39.5963 51.911 39.8575 51.8457C41.3247 52.5912 43.4299 53.8402 45.5454 55.7753C45.5135 55.8278 45.452 55.9106 45.3541 55.9385C44.9163 56.0639 44.5196 54.8746 44.0176 54.869C43.3636 54.8616 42.4617 56.8629 42.5821 58.8852C42.6407 59.8683 42.9276 60.6385 43.4888 62.1434C43.6139 62.479 44.0055 63.5292 44.4711 64.4168C44.9751 65.3774 46.1308 67.2247 48.6599 69.0512V69.0509Z" fill="#150B3A"/>
</g>
<path d="M48.1284 104.105C47.9495 104.212 47.7489 104.285 47.5436 104.324C38.8616 105.993 35.0636 104.193 32.9421 100.266C32.3792 99.2224 31.9914 98.0939 31.7468 96.9358C30.9508 93.1791 30.0927 89.9345 29.1624 87.1735C28.8861 86.347 28.6024 85.5659 28.3111 84.8254C28.1605 85.3837 28.0168 85.9435 27.878 86.5039C25.9405 94.3863 25.1555 102.206 20.5049 104.502C19.9553 104.774 19.3578 104.942 18.7511 105.039C10.5066 106.36 6.60269 104.221 7.53652 101.514C7.81339 100.708 8.52272 99.849 9.67633 99.0169C10.37 96.4688 10.625 91.9729 11.2429 85.6567C11.4431 83.6118 11.6795 81.3741 11.9827 78.9497C11.9948 78.8465 12.0069 78.7435 12.0205 78.6403C13.2123 68.7573 14.5325 59.6035 16.0526 51.6072L34.0818 49.2592C35.2008 50.3411 36.2562 51.5251 37.2129 52.855C39.6982 56.3108 41.0952 60.4015 41.433 64.623C42.2811 75.2124 45.1583 86.3099 46.393 97.5941C48.2056 97.6255 49.5994 99.5019 49.6367 101.329C49.6613 102.397 49.2202 103.448 48.1278 104.105H48.1284Z" fill="white"/>
<path d="M14.1398 105.894C10.4071 105.894 7.84787 104.957 7.13115 103.214C6.55553 101.814 7.3385 100.191 9.28013 98.7442C9.7682 96.8479 10.0326 93.9142 10.395 89.8951C10.6662 86.8866 11.0035 83.1424 11.5341 78.8933C12.8415 68.0171 14.1747 59.0632 15.6093 51.5215C15.646 51.3286 15.8019 51.1812 15.9962 51.1557L34.0249 48.8082C34.1616 48.7901 34.2988 48.8361 34.3979 48.9319C35.6201 50.1135 36.6613 51.31 37.5816 52.5895C40.0438 56.0135 41.5326 60.1621 41.8869 64.5868C42.3395 70.2441 43.355 75.9406 44.4302 81.9715C45.3138 86.9281 46.2269 92.0503 46.8037 97.1731C48.2398 97.3887 49.4973 98.6098 49.9412 100.274C50.4051 102.013 49.7999 103.631 48.3617 104.496C48.1437 104.627 47.8976 104.719 47.6299 104.771C39.5214 106.33 35.0099 105.047 32.545 100.482C31.9886 99.452 31.5712 98.2909 31.3041 97.031C30.4049 92.7905 29.4477 89.2709 28.3908 86.3259C28.008 87.8602 27.6708 89.397 27.3425 90.8942C25.9247 97.3561 24.7001 102.937 20.7057 104.911C20.1572 105.182 19.5236 105.376 18.8235 105.488C17.1197 105.761 15.5466 105.894 14.1401 105.894L14.1398 105.894ZM16.4385 52.0148C15.0311 59.4685 13.7207 68.3016 12.4336 79.004C11.9048 83.2394 11.5681 86.9753 11.2978 89.9766C10.9215 94.1519 10.6497 97.1683 10.1146 99.1358C10.0874 99.2364 10.0264 99.3245 9.94213 99.3853C8.27382 100.589 7.55473 101.858 7.96944 102.867C8.62996 104.473 12.1976 105.629 18.6803 104.59C19.2909 104.492 19.8378 104.326 20.3049 104.095C23.9083 102.315 25.0894 96.9316 26.4569 90.6987C26.8864 88.7407 27.3307 86.7163 27.8743 84.7064C27.9255 84.5175 28.0918 84.3825 28.2867 84.3715C28.4819 84.3596 28.6621 84.4765 28.7336 84.6587C30.0103 87.9065 31.1414 91.8916 32.1909 96.8417C32.44 98.0165 32.8272 99.0955 33.3422 100.049C35.6157 104.259 39.7057 105.368 47.4592 103.878C47.6219 103.846 47.7683 103.792 47.8952 103.716C48.9882 103.058 49.4257 101.86 49.0654 100.509C48.7439 99.304 47.7204 98.072 46.3863 98.0488C46.1583 98.045 45.9684 97.8714 45.9435 97.6439C45.3729 92.4277 44.4397 87.1936 43.5375 82.132C42.4584 76.0789 41.4391 70.3613 40.983 64.6598C40.6422 60.4006 39.2114 56.4108 36.8459 53.1214C35.9973 51.941 35.0401 50.8326 33.9246 49.7385L16.4388 52.0154L16.4385 52.0148Z" fill="#150B3A"/>
<path d="M9.50951 98.5938C11.8854 97.7266 14.6715 98.0687 16.6912 99.584C16.777 99.6478 16.795 99.7692 16.7314 99.8552C16.6708 99.9374 16.5569 99.957 16.4723 99.9033C14.5127 98.6415 11.9433 98.4962 9.84436 99.4387C9.26844 99.6707 8.92945 98.8234 9.50951 98.5938Z" fill="#150B3A"/>
<path d="M46.3098 98.0405C45.389 97.8254 44.4247 97.783 43.4879 97.9646C42.5514 98.1429 41.6501 98.5442 40.8659 99.1248C40.6648 99.2714 40.4305 98.9845 40.6169 98.8157C41.3901 98.134 42.3233 97.6136 43.3367 97.3294C44.3495 97.0413 45.431 96.9945 46.4775 97.1473C46.7257 97.1832 46.8982 97.4142 46.8621 97.6631C46.8254 97.9254 46.5669 98.1019 46.3101 98.0408L46.3098 98.0405Z" fill="#150B3A"/>
<path d="M25.1613 83.5251C27.8992 84.4949 31.9679 84.2095 34.6378 83.0974C35.6109 82.6802 36.5347 82.1059 37.1506 81.2248C37.2047 81.1361 37.3239 81.1097 37.4091 81.1702C37.4825 81.2219 37.5058 81.3183 37.4683 81.3966C37.2139 81.9288 36.827 82.388 36.3927 82.7773C33.8867 84.9123 29.4447 85.4193 26.3536 84.4979C25.8718 84.338 25.4012 84.141 24.9708 83.8666C24.8794 83.8096 24.8516 83.6895 24.9084 83.5981C24.9631 83.5097 25.0719 83.4848 25.1616 83.5254L25.1613 83.5251Z" fill="#150B3A"/>
<path d="M19.5663 94.8116C15.5073 94.8116 12.1662 94.0098 10.3545 92.4908C10.1625 92.3298 10.1368 92.0432 10.2974 91.8504C10.4577 91.6575 10.7438 91.632 10.936 91.7931C13.4864 93.9314 19.4636 94.5079 26.1643 93.2619C26.4096 93.2156 26.6471 93.3791 26.6926 93.6262C26.7382 93.873 26.5758 94.1103 26.3294 94.156C23.958 94.5969 21.6658 94.8116 19.566 94.8116H19.5663Z" fill="#150B3A"/>
<path d="M35.2374 94.3485C33.7495 94.3485 32.2803 94.2441 30.9361 94.0682C30.688 94.0359 30.5129 93.8077 30.5454 93.5585C30.5776 93.3096 30.8039 93.1343 31.0536 93.1667C36.3537 93.86 42.7634 93.3105 45.1348 90.5192C45.2972 90.3282 45.5835 90.305 45.774 90.4682C45.9645 90.6311 45.9873 90.9179 45.8249 91.1093C43.78 93.5161 39.4374 94.3485 35.2377 94.3485H35.2374Z" fill="#150B3A"/>
<g opacity="0.3">
<path d="M48.1284 103.652C47.9495 103.759 47.7489 103.832 47.5436 103.871C38.8616 105.539 35.0636 103.74 32.9421 99.8125C32.3792 98.7691 31.9914 97.6406 31.7468 96.4825C30.9508 92.7258 30.0927 89.4812 29.1624 86.7202C29.1396 86.4437 29.1186 86.1687 29.0994 85.8922C29.0426 85.1034 28.5699 84.0176 27.8274 84.3128C27.8467 84.891 27.8641 85.4706 27.878 86.0503C25.9405 93.9326 25.1555 101.752 20.5049 104.049C19.9553 104.32 19.3578 104.488 18.7511 104.585C10.5066 105.906 6.60269 103.768 7.53652 101.061C8.78095 102.54 10.8974 103.386 12.9103 103.461C14.2464 103.507 15.6444 103.276 16.7267 102.5C18.4077 101.296 18.9612 99.1115 19.3995 97.1096C19.6814 95.8218 19.963 94.5322 20.2449 93.2441C20.8703 90.3795 21.3352 86.9465 19.1928 84.9183C17.9365 83.7289 16.0194 83.3804 14.3201 83.7524C13.2005 83.9989 12.167 84.5249 11.2429 85.2034C11.4686 82.992 11.7147 80.7561 11.9827 78.4964C12.1214 77.3255 12.2646 76.1623 12.4116 75.0068C15.2066 73.2704 18.0016 71.5343 20.7966 69.798C27.5461 69.9665 34.2957 70.1347 41.0452 70.3032C41.4809 73.6347 42.0172 77.065 42.6698 80.5843C42.8753 81.6935 43.0886 82.7894 43.309 83.8725C42.7458 83.739 39.883 83.1166 38.3002 84.707C37.7021 85.3084 37.4693 86.0429 37.2841 87.2106C36.337 93.1735 38.601 97.8032 39.3929 99.4197C39.7283 100.103 40.2013 100.974 41.1712 101.626C42.374 102.435 43.663 102.429 44.3777 102.453C46.2655 102.517 48.5304 102.224 49.6364 100.876C49.661 101.944 49.2199 102.995 48.1275 103.652H48.1284Z" fill="#150B3A"/>
</g>
<path d="M19.7561 55.0811C19.5688 56.4769 18.9944 57.9985 18.2268 59.4035C16.2502 62.6256 14.5624 66.3371 13.2899 70.7592L3.97104 71.9517C3.8894 71.8046 3.81249 71.6533 3.7412 71.5002C0.221785 64.0015 8.23823 49.5466 15.2602 50.533L17.279 51.0756L18.9834 51.5348C19.2857 51.8908 19.4987 52.3032 19.6333 52.758C19.8418 53.4522 19.869 54.2431 19.7558 55.0811H19.7561Z" fill="white"/>
<path d="M18.8667 51.9739L15.1432 50.972L15.1976 50.9833C14.1437 50.8382 13.0744 51.0836 12.1121 51.5401C6.2065 54.4148 1.09391 65.6456 4.36752 71.7307L3.91406 71.5008C3.91465 71.5008 13.2317 70.3085 13.232 70.3085L12.854 70.6333C12.9673 70.2067 13.1433 69.555 13.2767 69.1239C14.0289 66.6183 15.0408 64.1895 16.2802 61.8868C16.7834 60.9696 17.3424 60.0808 18.0148 59.2721C18.1949 59.0516 18.5561 59.2703 18.4396 59.5343C17.6235 61.4226 16.6278 63.2159 15.8427 65.1163C15.0521 66.974 14.3457 68.9587 13.7251 70.8858C13.6754 71.0647 13.521 71.1931 13.3462 71.2109C13.3453 71.2109 4.02883 72.4029 4.02794 72.4032C3.83922 72.4273 3.66263 72.3303 3.57537 72.173C2.98377 71.1012 2.65632 69.913 2.51759 68.7258C2.13897 65.1771 3.15119 61.6332 4.70059 58.4761C6.4952 54.9776 9.40734 51.0373 13.463 50.1384C14.0854 50.0224 14.7382 49.9939 15.3733 50.0927C15.378 50.0936 19.0968 51.0949 19.1019 51.0957C19.6745 51.2696 19.4503 52.1124 18.867 51.9742L18.8667 51.9739Z" fill="#150B3A"/>
<g opacity="0.3">
<path d="M20.3474 55.4739C19.1671 54.7768 17.6787 54.6085 16.331 54.9224C14.6719 55.3104 13.218 56.3577 12.0907 57.6398C10.9634 58.9205 10.1308 60.4329 9.36908 61.9622C8.29474 64.1187 7.326 66.4255 7.37303 68.835C7.37747 69.0246 7.38664 69.2201 7.30795 69.3927C7.21892 69.5853 7.03759 69.7125 6.86366 69.8339C5.97656 70.4476 5.07911 71.116 4.33251 71.8936C0.813094 64.3948 8.82954 49.94 15.8515 50.9264L17.8703 51.469C18.3827 51.7342 18.8527 52.0828 19.3165 52.4269C19.6262 52.6574 19.9392 52.8906 20.2246 53.1513C20.4331 53.8455 20.4604 54.6364 20.3471 55.4745L20.3474 55.4739Z" fill="#150B3A"/>
<path d="M26.9809 56.8276C33.5002 56.8276 38.7851 53.3267 38.7851 49.0082C38.7851 44.6896 33.5002 41.1887 26.9809 41.1887C20.4617 41.1887 15.1768 44.6896 15.1768 49.0082C15.1768 53.3267 20.4617 56.8276 26.9809 56.8276Z" fill="#371A45"/>
</g>
<g opacity="0.3">
<path d="M16.9704 60.9663C16.0581 62.3728 14.4863 63.2141 13.4368 64.5209C13.0496 65.0033 12.7381 65.5432 12.3479 66.0232C11.8294 66.661 11.1656 67.2022 10.8281 67.9524C12.1595 67.7139 13.5474 67.7978 14.8403 68.1954C15.5701 65.7954 16.3442 63.4087 17.1624 61.0375" fill="#150B3A"/>
</g>
<path d="M39.636 65.8063L39.3005 66.0944L38.477 66.8008C37.8665 67.3235 37.516 68.0889 37.516 68.8937V71.4293C37.516 73.122 36.097 74.468 34.4122 74.374L13.7583 73.2327V66.4112C13.7583 64.2456 15.6186 62.5514 17.7687 62.7587L18.3521 62.8148L20.0292 62.9771L20.4085 62.6027C20.7788 62.2345 21.303 62.0678 21.8182 62.1541L38.454 64.9184C38.7622 64.97 39.0432 65.1261 39.2488 65.3625L39.6357 65.8066L39.636 65.8063Z" fill="#9BF00B"/>
<g opacity="0.6">
<path d="M39.2487 65.3622C39.0431 65.1258 38.7621 64.9697 38.4538 64.9181L21.8181 62.1538C21.3028 62.0675 20.7784 62.2342 20.4083 62.6024L20.0291 62.9768L18.3519 62.8145L17.7686 62.7584C16.2645 62.6131 14.9032 63.3992 14.2202 64.6259C14.9656 63.8418 16.0497 63.39 17.2208 63.503L17.8041 63.5591L19.4813 63.7214L19.8605 63.347C20.2309 62.9788 20.755 62.8121 21.2703 62.8984L37.906 65.6627C38.2142 65.7144 38.4953 65.8704 38.7008 66.1068L38.9508 66.3937L39.3001 66.0941L39.6356 65.806L39.2487 65.3619V65.3622Z" fill="white"/>
</g>
<path d="M34.5802 74.8332C34.516 74.8332 34.4518 74.8314 34.3874 74.8279L13.7335 73.686C13.4933 73.6727 13.3052 73.4733 13.3052 73.2321V66.4118C13.3052 65.2516 13.7965 64.1385 14.6528 63.3586C15.5092 62.5787 16.6616 62.1939 17.8126 62.3063L19.8622 62.5045L20.0899 62.279C20.5632 61.8106 21.2373 61.5955 21.8931 61.7053L38.5291 64.4705C38.9394 64.5384 39.3163 64.7491 39.5902 65.0632L39.9777 65.507C40.0575 65.5984 40.0975 65.718 40.0886 65.8393C40.0797 65.9606 40.0229 66.0731 39.9309 66.152L38.7717 67.1464C38.2614 67.584 37.9692 68.2209 37.9692 68.894V71.4296C37.9692 72.3745 37.5923 73.2526 36.9082 73.902C36.2707 74.5069 35.4505 74.8341 34.5808 74.8341L34.5802 74.8332ZM14.2118 72.8017L34.4374 73.9198C35.1272 73.9572 35.7826 73.7166 36.2843 73.2407C36.7857 72.7646 37.062 72.1211 37.062 71.4287V68.8931C37.062 67.9539 37.4702 67.0651 38.1822 66.4546L38.993 65.7592L38.9075 65.6613C38.7714 65.5052 38.5842 65.4008 38.3804 65.367L21.744 62.6018C21.3737 62.5404 20.9933 62.6614 20.7262 62.9258L20.3476 63.3005C20.252 63.3951 20.1183 63.4426 19.9855 63.4295L17.725 63.2109C16.8261 63.1242 15.9292 63.423 15.2619 64.0314C14.5943 64.6396 14.2115 65.507 14.2115 66.4115V72.8017H14.2118Z" fill="#150B3A"/>
<path d="M21.4394 62.5712C20.09 63.0904 19.4576 64.5079 19.1381 65.8568C19.0943 66.0458 18.8101 66.0001 18.8296 65.8055C18.9473 64.6624 19.2608 63.4295 20.0672 62.5345C20.345 62.223 20.6819 61.9533 21.0549 61.7474C21.6269 61.4605 22.0266 62.314 21.4391 62.5712H21.4394Z" fill="#150B3A"/>
<path d="M51.5741 70.0498V73.6991L36.9329 73.3641L36.7969 73.3612C37.0175 73.1173 37.193 72.8337 37.3151 72.505C37.4328 72.1896 37.5009 71.8322 37.516 71.429C37.5991 70.4456 37.5296 69.4891 37.5884 68.7027C37.6263 68.198 37.7153 67.7631 37.933 67.4341L38.1188 67.4706L39.021 67.6433L51.5738 70.0498H51.5741Z" fill="#3A5B00"/>
<path d="M51.5736 74.1539C51.5701 74.1539 51.5668 74.1539 51.5633 74.1539L36.7863 73.8151C36.6091 73.8109 36.4506 73.7038 36.3802 73.5404C36.3101 73.3769 36.3415 73.1879 36.4601 73.0559C36.8408 72.6332 37.0378 72.0953 37.062 71.4124C37.062 71.405 37.0626 71.3973 37.0635 71.3899C37.1073 70.8743 37.1076 70.364 37.1076 69.8704C37.1076 68.7905 37.1079 67.8584 37.5557 67.182C37.6569 67.0295 37.84 66.9533 38.0183 66.9868L51.6585 69.6025C51.8724 69.6434 52.0268 69.8309 52.0268 70.049V73.6988C52.0268 73.8213 51.9774 73.9385 51.8904 74.0239C51.8055 74.107 51.6919 74.1536 51.5736 74.1536V74.1539ZM37.6273 72.9248L51.1202 73.2339V70.4251L38.1837 67.9444C38.0148 68.4114 38.0145 69.0973 38.0142 69.8707C38.0142 70.3797 38.0142 70.906 37.9678 71.4563C37.947 72.0022 37.8326 72.4935 37.6273 72.9248Z" fill="#150B3A"/>
<path d="M39.6359 65.8058L51.9136 68.2547C51.5365 68.8463 51.5738 69.4808 51.5738 70.0492L37.9336 67.4336C38.4586 66.8121 39.0275 66.2715 39.6359 65.8058Z" fill="#3A5B00"/>
<g opacity="0.6">
<path d="M51.9131 68.2547L39.6354 65.8058C39.3378 66.0336 39.05 66.2798 38.772 66.5442L51.4473 68.9792C51.4981 69.1195 51.5514 69.3073 51.5753 69.5328C51.5969 69.7348 51.5892 69.911 51.5733 70.0492C51.5733 69.4808 51.5363 68.8463 51.9131 68.2547Z" fill="white"/>
</g>
<path d="M51.5737 70.504C51.5453 70.504 51.5169 70.5013 51.4885 70.496L37.8483 67.8803C37.6898 67.8498 37.5596 67.7376 37.5058 67.5852C37.4522 67.4327 37.4833 67.2633 37.5874 67.1399C38.1234 66.5053 38.7203 65.9348 39.3607 65.4444C39.4643 65.3652 39.5968 65.3341 39.7243 65.3599L52.002 67.8088C52.149 67.8382 52.2721 67.9385 52.3306 68.0764C52.3895 68.2147 52.3762 68.3731 52.2954 68.4995C52.0212 68.9296 52.0239 69.404 52.0262 69.9062L52.0268 70.0489C52.0268 70.1845 51.9665 70.313 51.8624 70.3993C51.7804 70.4672 51.6781 70.5037 51.5734 70.5037L51.5737 70.504ZM38.8144 67.1396L51.1232 69.5001C51.1326 69.2118 51.1643 68.902 51.2628 68.5888L39.7512 66.2926C39.4249 66.5528 39.112 66.8364 38.8144 67.1399V67.1396Z" fill="#150B3A"/>
<path d="M56.61 69.6194L56.4846 73.6991L55.9226 73.6747L51.5737 73.4837V70.0495C51.5737 69.6526 51.5814 69.2767 51.6539 68.8946C51.6598 68.8644 51.666 68.8341 51.6719 68.8038L56.6103 69.6191L56.61 69.6194Z" fill="#3A5B00"/>
<g opacity="0.3">
<path d="M55.9673 72.1973L55.9221 73.675L51.5732 73.484V70.0498C51.5732 69.6529 51.5809 69.277 51.6534 68.8949L52.1808 68.9812C52.1808 70.6861 53.5211 72.0897 55.2196 72.1638L55.9676 72.197L55.9673 72.1973Z" fill="#150B3A"/>
</g>
<path d="M56.4847 74.1539C56.4782 74.1539 56.4717 74.1539 56.4649 74.1536L51.5538 73.9388C51.3115 73.9281 51.1201 73.7279 51.1201 73.4846V70.0495C51.1201 69.6274 51.1284 69.1762 51.2287 68.7083C51.2793 68.471 51.5061 68.3158 51.7457 68.3553L56.6841 69.1717C56.9083 69.2088 57.0707 69.4067 57.0636 69.6345L56.9376 73.7136C56.9338 73.8353 56.8817 73.9501 56.793 74.0328C56.7089 74.1109 56.5986 74.1542 56.4847 74.1542V74.1539ZM52.027 73.0491L56.0458 73.225L56.1452 70.0039L52.0516 69.3272C52.0297 69.5663 52.027 69.8063 52.027 70.0495V73.0494V73.0491Z" fill="#150B3A"/>
<path d="M57.3205 71.6753C57.3553 70.5395 56.9693 69.6061 56.4584 69.5904C55.9474 69.5746 55.505 70.4825 55.4702 71.6182C55.4354 72.7539 55.8214 73.6874 56.3323 73.7031C56.8433 73.7189 57.2857 72.811 57.3205 71.6753Z" fill="#3A5B00"/>
<g opacity="0.3">
<path d="M57.3205 71.6753C57.3553 70.5395 56.9693 69.6061 56.4584 69.5904C55.9474 69.5746 55.505 70.4825 55.4702 71.6182C55.4354 72.7539 55.8214 73.6874 56.3323 73.7031C56.8433 73.7189 57.2857 72.811 57.3205 71.6753Z" fill="#150B3A"/>
</g>
<path d="M56.3434 74.0773C56.3346 74.0773 56.3254 74.0773 56.3162 74.077C56.082 74.0699 55.6442 73.9492 55.3431 73.2212C55.16 72.7788 55.0694 72.2036 55.0878 71.602C55.1061 71.0001 55.2318 70.4316 55.4413 70.0015C55.7862 69.2931 56.229 69.1975 56.4647 69.207C56.6987 69.2141 57.1365 69.3349 57.4379 70.0629C57.621 70.5052 57.7115 71.0802 57.6932 71.6821C57.6565 72.8791 57.1814 74.0776 56.3431 74.0776L56.3434 74.0773ZM56.4408 69.9641C56.3857 69.9641 56.2523 70.0635 56.1204 70.334C55.9592 70.6648 55.858 71.1356 55.843 71.6251C55.8282 72.1146 55.9 72.5905 56.0408 72.9307C56.1568 73.2108 56.2852 73.3179 56.339 73.3197H56.3411C56.5014 73.3197 56.9046 72.7441 56.938 71.6586C56.9528 71.1691 56.8809 70.6933 56.7401 70.353C56.6242 70.073 56.4955 69.9659 56.4416 69.9641H56.4405H56.4408Z" fill="#150B3A"/>
<path d="M52.9473 69.0142C52.9993 68.5045 53.0517 67.9951 53.1037 67.4855C54.0583 67.8593 55.0131 68.2331 55.9677 68.6069C55.931 68.9029 55.8946 69.199 55.8579 69.4954L52.9473 69.0142Z" fill="#3A5B00"/>
<path d="M55.858 69.8745C55.8376 69.8745 55.8168 69.8727 55.7964 69.8694L52.8858 69.3883C52.6885 69.3556 52.5509 69.1749 52.5713 68.9756L52.7278 67.4469C52.7399 67.3291 52.8062 67.2238 52.9068 67.1624C53.0076 67.1007 53.1313 67.0897 53.241 67.1327L56.105 68.2541C56.2659 68.317 56.3638 68.4816 56.3425 68.6537L56.2327 69.5422C56.22 69.6446 56.1665 69.7374 56.0843 69.7991C56.0183 69.8484 55.939 69.8745 55.858 69.8745ZM53.3594 68.6985L55.5314 69.0575L55.5565 68.8528L53.4286 68.0194L53.3591 68.6982L53.3594 68.6985Z" fill="#150B3A"/>
<path d="M24.4676 64.6337L32.2578 65.801C33.7273 66.0212 34.7786 67.3372 34.6813 68.824C34.6801 68.843 34.6786 68.862 34.6774 68.881C34.5656 70.4966 33.1402 71.6972 31.5343 71.5275L23.705 70.7004C22.1628 70.5376 20.9905 69.2287 21.002 67.6733C21.002 67.6522 21.0023 67.6312 21.0026 67.6101C21.0251 65.7672 22.6496 64.361 24.4673 64.6334L24.4676 64.6337Z" fill="#AD5833"/>
<path d="M24.4676 64.6337L32.2578 65.801C33.7273 66.0212 34.7786 67.3372 34.6813 68.824C34.6801 68.843 34.6786 68.862 34.6774 68.881C34.5656 70.4966 33.1402 71.6972 31.5343 71.5275L23.705 70.7004C22.1628 70.5376 20.9905 69.2287 21.002 67.6733C21.002 67.6522 21.0023 67.6312 21.0026 67.6101C21.0251 65.7672 22.6496 64.361 24.4673 64.6334L24.4676 64.6337Z" fill="#3A5B00"/>
<g opacity="0.3">
<path d="M32.0883 70.5503L24.2591 69.7232C22.7168 69.5603 21.5445 68.2515 21.5561 66.6961C21.5561 66.675 21.5564 66.6539 21.5567 66.6329C21.5608 66.295 21.6191 65.9722 21.7223 65.6714C21.2828 66.1914 21.0118 66.8649 21.0026 67.6098C21.0026 67.6308 21.0023 67.6519 21.002 67.673C20.9902 69.2281 22.1628 70.5369 23.7051 70.7001L31.5343 71.5272C32.8979 71.6714 34.1281 70.8256 34.5378 69.5787C33.9489 70.2578 33.0523 70.6521 32.0883 70.5503Z" fill="#150B3A"/>
</g>
<path d="M31.8405 71.9226C31.7258 71.9226 31.6104 71.9164 31.4944 71.9042L23.6652 71.0771C21.9182 70.8926 20.6108 69.428 20.6241 67.6706L20.6247 67.605C20.6368 66.6115 21.0749 65.6731 21.8268 65.0315C22.572 64.3954 23.5552 64.1133 24.5228 64.2589L32.3129 65.4263C33.9614 65.6734 35.1668 67.1769 35.0573 68.8489L35.0532 68.9071C34.992 69.7923 34.5849 70.5939 33.9076 71.1644C33.3195 71.6592 32.5954 71.9229 31.8396 71.9229L31.8405 71.9226ZM24.0223 64.9792C23.4014 64.9792 22.7959 65.1997 22.3167 65.6088C21.731 66.1086 21.3899 66.8399 21.3802 67.6151L21.3796 67.6762C21.3689 69.0423 22.3856 70.1803 23.7442 70.3239L31.5734 71.151C32.2475 71.2228 32.9036 71.0208 33.4225 70.5841C33.9416 70.1471 34.2534 69.5333 34.3001 68.8551L34.3039 68.7985C34.3877 67.5178 33.4642 66.3652 32.2014 66.176L24.4112 65.0086C24.2817 64.9893 24.1515 64.9795 24.022 64.9795L24.0223 64.9792Z" fill="#150B3A"/>
<path d="M23.7292 76.7236C23.6745 76.7236 23.6192 76.7227 23.5639 76.7209C21.7077 76.6639 20.1711 75.6645 19.5534 74.1132C19.4298 73.8023 19.5807 73.4496 19.8907 73.3253C20.2007 73.2013 20.5524 73.3526 20.6763 73.6635C21.1978 74.9739 22.5292 75.4761 23.6012 75.509C24.8737 75.55 25.9891 74.9655 26.432 74.0245C26.5745 73.7219 26.9342 73.592 27.2365 73.7353C27.5385 73.878 27.6675 74.2396 27.5249 74.5422C26.8869 75.8977 25.4419 76.7236 23.7289 76.7236H23.7292Z" fill="#150B3A"/>
<g opacity="0.3">
<path d="M19.8154 61.5754C19.8032 61.5661 19.7925 61.5556 19.7803 61.5464C19.788 61.5434 19.7969 61.5404 19.8047 61.5371L19.8154 61.5754Z" fill="black"/>
</g>
<g opacity="0.3">
<path d="M39.3394 66.0564C39.3258 66.0686 39.3122 66.0807 39.3001 66.0944L38.4765 66.8007C37.866 67.3235 37.5155 68.0889 37.5155 68.8937V71.4293C37.5155 73.122 36.0965 74.468 34.4117 74.3739L13.7578 73.2327V66.4112C13.7578 64.2456 15.6181 62.5513 17.7683 62.7587L18.3516 62.8148C18.0055 63.4072 17.8135 64.1165 17.7759 64.8015C17.702 66.1594 18.0871 67.4932 18.2791 68.8388C18.335 69.239 18.3803 69.6588 18.6009 69.9967C18.9242 70.4954 19.5392 70.6983 20.1089 70.8591C24.3007 72.0443 28.6226 72.7731 32.97 73.0262C33.6636 73.0671 34.3694 73.0944 35.0417 72.9262C35.7156 72.7565 36.364 72.3626 36.6858 71.7473C37.1951 70.7728 36.7825 69.5558 37.0863 68.4994C37.4007 67.4113 38.4026 66.6898 39.3394 66.0564Z" fill="#150B3A"/>
</g>
<g opacity="0.3">
<path d="M51.753 72.5169V73.6991L37.1118 73.3642C37.1269 73.3446 37.139 73.3232 37.1526 73.3036C37.3127 73.0521 37.4215 72.7839 37.4943 72.505C37.7753 71.4139 37.5079 70.1483 37.7058 68.9982C37.7223 68.8982 37.7436 68.7997 37.7676 68.7027C37.8765 68.2663 38.0578 67.851 38.298 67.4707C38.6834 66.8598 39.2226 66.346 39.8604 66.0051L40.1973 65.8975C39.7364 66.3932 39.3995 66.9963 39.1999 67.6433C38.9431 68.4692 38.9126 69.3663 39.141 70.2014C39.1726 70.318 39.2164 70.4438 39.3164 70.5135C39.3904 70.5651 39.4856 70.5773 39.5779 70.5877C41.8189 70.8452 44.0613 71.103 46.3038 71.3605C48.1126 71.5696 49.9486 71.7758 51.7438 71.4771C51.7468 71.8242 51.7497 72.1698 51.753 72.5166V72.5169Z" fill="#150B3A"/>
</g>
<path d="M52.9468 73.5445C51.1561 77.647 41.4595 78.2697 39.4315 74.0871C39.1715 73.5507 39.078 72.9384 39.1957 72.3534C39.2034 72.3187 39.2108 72.2837 39.22 72.249C39.782 69.9089 43.105 69.7439 45.556 70.9623C45.5726 70.9701 45.5891 70.9775 45.606 70.9881C45.8101 71.0896 46.0095 71.2032 46.1985 71.326C47.0945 71.9019 47.8017 72.6839 48.0978 73.6204L51.448 73.6993L51.5734 73.4843L52.9471 73.5448L52.9468 73.5445Z" fill="white"/>
<path d="M45.6847 77.3925C43.1491 77.3925 40.1376 76.5817 39.0239 74.2855C38.7148 73.6477 38.6177 72.9295 38.7514 72.2635C39.049 70.779 40.2807 69.8694 42.1312 69.7683C44.4944 69.638 47.4822 70.8997 48.4179 73.1725L51.1924 73.2383C51.2791 73.1028 51.432 73.0238 51.5933 73.0301L52.9669 73.09C53.1163 73.0965 53.253 73.1766 53.332 73.3039C53.4109 73.4312 53.4225 73.5893 53.3624 73.7266C52.294 76.1756 48.8562 77.3314 45.9231 77.3907C45.8441 77.3922 45.7645 77.3931 45.685 77.3931L45.6847 77.3925ZM39.64 72.4424C39.5454 72.9147 39.6161 73.4279 39.8391 73.8877C40.8004 75.8706 43.6005 76.5251 45.9045 76.4811C48.6649 76.4254 51.1114 75.42 52.1801 73.9658L51.8252 73.9503C51.7394 74.0803 51.5927 74.1538 51.4368 74.1538L48.0872 74.0743C47.8937 74.0696 47.7242 73.9423 47.6656 73.7572C47.0459 71.7989 44.2823 70.5615 42.18 70.6764C41.3545 70.7214 39.9269 71.011 39.64 72.4427V72.4424Z" fill="#150B3A"/>
<g opacity="0.4">
<path d="M46.3194 71.6806C46.3496 71.7714 46.3812 71.861 46.4117 71.9517L45.5562 70.9621L45.4761 70.8695C45.5199 70.909 45.5636 70.9469 45.6059 70.9876C45.8538 71.2089 46.097 71.4361 46.3191 71.6803L46.3194 71.6806Z" fill="black"/>
</g>
<g opacity="0.3">
<path d="M52.9468 73.5445C51.1561 77.647 41.4595 78.2697 39.4315 74.0871C39.1715 73.5507 39.078 72.9384 39.1957 72.3534C39.2034 72.3187 39.2108 72.2837 39.22 72.249C39.412 73.1855 40.0163 74.0402 40.8022 74.6009C41.8133 75.3224 43.0811 75.6072 44.3216 75.6315C44.8399 75.6422 45.3643 75.6087 45.8524 75.4345C46.339 75.2619 46.7877 74.9344 47.0235 74.4736C47.3453 73.8432 47.2199 73.0597 46.8785 72.443C46.7259 72.1656 46.5324 71.9155 46.3195 71.6806C46.2786 71.5625 46.2378 71.4441 46.1985 71.326C47.0945 71.9019 47.8017 72.6839 48.0978 73.6204L51.448 73.6993L51.5734 73.4843L52.9471 73.5448L52.9468 73.5445Z" fill="#150B3A"/>
</g>
<path d="M24.8203 73.4232C24.6073 74.0551 23.9424 74.6538 22.8997 74.6538C23.4587 75.5268 23.6824 76.3513 23.6327 77.0983C23.2685 82.4996 8.59867 83.8696 3.3793 70.5922C3.37486 70.583 3.37161 70.5755 3.36865 70.5663C3.40326 70.5497 3.43964 70.5316 3.47455 70.5147C4.59592 69.9721 5.72617 69.4417 6.84281 68.9991C9.83778 67.8095 12.7331 67.2366 15.0799 68.6597C16.1484 67.8338 17.4599 69.0006 16.3267 71.3119L24.2707 72.5151C24.6952 72.5804 24.9581 73.0138 24.8206 73.4229L24.8203 73.4232Z" fill="white"/>
<path d="M17.172 81.4411C16.8167 81.4411 16.4547 81.426 16.087 81.3951C10.2828 80.9071 5.37079 76.9212 2.94701 70.7328C2.86035 70.5115 2.95825 70.2608 3.17123 70.1572C7.52657 68.0417 11.7145 66.3 15.0668 68.1284C15.5969 67.8454 16.1814 67.8804 16.62 68.2399C17.1433 68.6689 17.4704 69.5891 16.9744 70.9505L24.338 72.0666C24.6732 72.1173 24.9666 72.3131 25.1429 72.6032C25.3195 72.894 25.3585 73.2461 25.2497 73.5689C25.0574 74.1402 24.5288 74.789 23.626 75.021C24.2534 76.3133 24.246 77.5961 23.5908 78.6884C22.5582 80.4099 20.1034 81.4414 17.1723 81.4414L17.172 81.4411ZM3.94829 70.7909C7.40086 79.1194 14.1513 80.3197 16.1627 80.4888C19.1757 80.7433 21.8477 79.8299 22.8138 78.2196C23.3932 77.2534 23.2912 76.1056 22.5186 74.9003C22.4289 74.7603 22.4224 74.5826 22.502 74.4366C22.5816 74.2906 22.7342 74.1999 22.8998 74.1999C23.771 74.1999 24.2472 73.7033 24.3904 73.2778C24.4214 73.1853 24.3901 73.112 24.3682 73.0764C24.3469 73.0411 24.2969 72.98 24.2022 72.9655L16.2589 71.7616C16.116 71.7399 15.992 71.6512 15.9249 71.5228C15.8578 71.3943 15.856 71.2415 15.9196 71.1113C16.4653 69.9982 16.3677 69.2073 16.0459 68.9436C15.8663 68.7962 15.6084 68.8249 15.3564 69.0195C15.2082 69.1344 15.005 69.1456 14.8449 69.0486C11.9319 67.2817 8.0386 68.822 3.948 70.7906L3.94829 70.7909Z" fill="#150B3A"/>
<path d="M15.3956 68.986C14.3002 69.9291 13.3081 71.0179 12.3932 72.1731C12.2542 72.3463 11.9844 72.1594 12.0989 71.9675C12.8745 70.6936 13.7418 69.4619 14.7632 68.3345C14.9318 68.1482 15.219 68.134 15.4047 68.3031C15.6068 68.4844 15.602 68.8107 15.3956 68.986Z" fill="#150B3A"/>
<path d="M16.7103 71.5539L15.2325 73.4012C15.1012 73.5682 14.834 73.3986 14.9269 73.209L15.9424 71.0709C16.2601 70.4758 17.1067 71.0072 16.7103 71.5542V71.5539Z" fill="#150B3A"/>
<path d="M22.8464 75.1059L20.7726 74.6111C20.6599 74.5841 20.5904 74.4708 20.617 74.3577C20.6401 74.2607 20.7265 74.1957 20.8217 74.196L22.9535 74.2029C23.6253 74.2367 23.5084 75.2308 22.8464 75.1059Z" fill="#150B3A"/>
<g opacity="0.3">
<path d="M12.561 71.575C12.6272 71.1428 12.6932 70.7108 12.7594 70.2786C12.8248 69.8514 12.8902 69.4183 12.8414 68.9887C12.7923 68.5594 12.6142 68.1269 12.2734 67.8626C13.1966 67.7297 14.1725 68.0299 14.8626 68.6591C14.4715 69.4473 13.9352 70.1632 13.2895 70.7598C13.0348 70.9947 12.7603 71.2152 12.563 71.5003" fill="#150B3A"/>
</g>
<g opacity="0.3">
<path d="M15.2598 73.1363C15.9241 72.6961 16.5397 72.1814 17.0914 71.6052C16.868 71.5563 16.6539 71.4643 16.4646 71.3359C16.1717 71.9446 15.7881 72.5092 15.3305 73.0055" fill="#150B3A"/>
</g>
<g opacity="0.3">
<path d="M6.41576 69.6876C6.41013 69.666 6.41161 69.6458 6.41812 69.625C6.42463 69.6048 6.43587 69.5879 6.45096 69.5731C6.44001 69.5761 6.42936 69.5787 6.41842 69.5817C6.43409 69.5856 6.448 69.585 6.4619 69.5764C6.46722 69.5731 6.47196 69.5695 6.47728 69.5666C6.47906 69.5657 6.4829 69.5627 6.48468 69.5627C6.47906 69.5651 6.47787 69.5657 6.48113 69.5642C6.48261 69.5636 6.48408 69.563 6.48586 69.5624C6.49237 69.5603 6.49887 69.5586 6.50538 69.5574C6.52461 69.5538 6.53881 69.5336 6.54117 69.5155C6.54384 69.4954 6.53437 69.4764 6.51721 69.4654C6.50302 69.4565 6.48941 69.4476 6.47373 69.4414C6.46042 69.436 6.44711 69.4307 6.4335 69.4257C6.42078 69.4206 6.40866 69.4153 6.39505 69.4132C6.38085 69.4111 6.36665 69.409 6.35216 69.407C6.33944 69.4052 6.32702 69.4082 6.32021 69.42C6.3137 69.431 6.31578 69.4455 6.32465 69.4544C6.33441 69.4642 6.34417 69.4743 6.35393 69.4841C6.36577 69.4963 6.37967 69.5046 6.39387 69.5138C6.4054 69.5212 6.41694 69.5286 6.42877 69.5357C6.44415 69.5449 6.4619 69.5509 6.47876 69.5574V69.4604C6.45953 69.4675 6.44326 69.4761 6.427 69.4883C6.42019 69.4936 6.41339 69.4989 6.40747 69.5052C6.39298 69.5203 6.38972 69.5375 6.39475 69.5577C6.39771 69.5467 6.40037 69.536 6.40333 69.525C6.36517 69.5737 6.34683 69.6399 6.37109 69.6992C6.37582 69.7108 6.38647 69.7188 6.39949 69.7152C6.41161 69.7119 6.41871 69.6989 6.41546 69.6867L6.41576 69.6876Z" fill="black"/>
</g>
<g opacity="0.3">
<path d="M23.7859 76.9117C23.4291 82.313 9.05567 83.683 3.94189 70.4056C3.97147 70.3783 4.00253 70.3525 4.03507 70.3281C5.13367 69.7856 6.24114 69.2551 7.3353 68.8125L7.26283 69.1397C8.00321 72.9679 10.7186 76.1626 13.9476 78.2357C14.5546 78.6267 15.1897 78.9874 15.8768 79.2025C16.5459 79.4117 17.2508 79.4784 17.9509 79.5057C19.1501 79.5511 20.3791 79.4784 21.4925 79.0192C22.4684 78.6175 23.3493 77.8794 23.7859 76.9111V76.9117Z" fill="#150B3A"/>
</g>
<path d="M24.1973 53.8393C38.7177 55.7091 51.9866 45.4352 53.8343 30.892C55.6821 16.3487 45.4089 3.04323 30.8886 1.17342C16.3682 -0.696381 3.09929 9.57751 1.25156 24.1208C-0.596171 38.6641 9.677 51.9695 24.1973 53.8393Z" fill="url(#paint0_linear_5410_6270)"/>
<path d="M24.0837 54.2853C18.4794 53.5636 13.2576 51.0997 9.0653 47.1398C3.82497 42.1893 0.819745 35.4921 0.603966 28.2832C0.388187 21.0743 2.98646 14.2158 7.92307 8.97287C12.8582 3.72979 19.5384 0.727799 26.7346 0.519499C41.5895 0.0915258 54.0371 11.8518 54.4837 26.7318C54.9302 41.6133 43.2066 54.0673 28.3531 54.4955C26.9117 54.5378 25.4863 54.4659 24.0837 54.2853ZM30.8487 1.61978C29.5129 1.44777 28.149 1.37779 26.7621 1.41803C19.805 1.61789 13.347 4.5202 8.57554 9.58966C3.80412 14.6591 1.2907 21.2887 1.49923 28.2581C1.70775 35.2276 4.61336 41.7007 9.68017 46.487C14.747 51.2734 21.3684 53.7983 28.3254 53.5984C42.6858 53.1852 54.0177 41.1456 53.5868 26.7581C53.1975 13.7631 43.3369 3.2279 30.8487 1.61978Z" fill="#150B3A"/>
<path d="M41.1346 18.0825C46.0315 15.4644 48.8504 14.883 49.2488 15.1049C49.6473 15.3268 53.2411 26.6237 49.0874 33.5772C45.8122 39.0607 43.9188 38.3125 42.6196 38.382C42.0747 38.4113 41.5367 38.2439 41.0358 38.0208C39.5973 37.3826 38.3741 36.271 37.5998 34.9004C36.8651 33.5983 36.5185 32.0655 35.5507 30.925C33.8458 28.9167 32.3588 28.328 33.7035 25.916C34.7862 23.9773 36.6049 20.5035 41.1346 18.0825Z" fill="url(#paint1_linear_5410_6270)"/>
<path d="M42.119 38.7345C41.7408 38.6857 41.3386 38.5645 40.8864 38.3628C39.3737 37.6908 38.0909 36.5263 37.2762 35.0826C36.9844 34.5665 36.7526 34.0175 36.5291 33.4861C36.1686 32.6321 35.8292 31.8262 35.2679 31.1652C34.9336 30.7705 34.5992 30.424 34.3048 30.1189C33.0647 28.8316 32.1681 27.9025 33.3797 25.7315L33.4931 25.5272C34.6124 23.5133 36.4876 20.1404 40.9575 17.751C45.3691 15.3932 48.7288 14.3865 49.4302 14.7758C49.5189 14.825 49.7906 14.9762 50.3651 17.1134C51.0209 19.5479 52.8874 27.9445 49.4077 33.7684C46.3951 38.8103 44.4007 38.7751 43.0817 38.7514C42.9237 38.7492 42.7733 38.7464 42.6382 38.7531C42.471 38.7648 42.297 38.7574 42.119 38.7345ZM41.1354 18.0833L41.312 18.4139C37.0345 20.7014 35.2276 23.9518 34.1473 25.8953L34.0338 26.101C33.0933 27.7864 33.6422 28.3552 34.8436 29.6028C35.146 29.9165 35.4884 30.2715 35.8384 30.6849C36.473 31.4338 36.8521 32.3309 37.2182 33.1991C37.4336 33.7113 37.6575 34.2398 37.9269 34.7182C38.6629 36.022 39.8213 37.0739 41.1885 37.6803C41.7436 37.9269 42.1919 38.03 42.6001 38.0087C42.7611 37.9992 42.9233 38.0036 43.0963 38.0062C44.3117 38.0271 45.9781 38.0578 48.7689 33.3857C50.8457 29.909 50.8777 25.3567 50.5383 22.151C50.1666 18.6424 49.2924 15.9684 49.0255 15.4345C48.4542 15.3986 45.8369 15.9954 41.312 18.4139L41.1354 18.0833Z" fill="#150B3A"/>
<path d="M43.1198 35.0001C42.5093 34.4173 41.2742 31.997 39.5306 30.7791C37.7869 29.5627 36.4074 29.729 36.442 27.9599C36.4765 26.1909 37.8893 24.2538 40.4833 22.1446C43.0787 20.0355 46.2429 18.9219 46.4283 19.5163C46.6136 20.1108 47.5185 24.0643 46.649 28.3731C45.7795 32.682 43.732 35.5817 43.1198 35.0001Z" fill="#5C13A1"/>
<path d="M43.4976 35.0062C43.4976 35.0062 41.855 31.7455 40.1722 30.5716C38.4893 29.3977 37.1603 29.5584 37.1928 27.8525C37.2256 26.1451 38.5889 24.2771 41.0921 22.2421C43.5953 20.2072 46.6474 19.1335 46.8263 19.7075C47.0055 20.28 47.8784 24.0935 47.0387 28.2508C46.1989 32.4081 44.6418 34.651 43.4976 35.0062Z" fill="#FF4DD3"/>
<path d="M41.096 22.2444C41.5163 21.9031 41.9511 21.5893 42.3852 21.3056C42.5596 21.2979 42.6712 21.3334 42.6966 21.4182C42.8293 21.8459 43.4823 24.6969 42.8559 27.8027C42.4942 29.5946 41.9536 30.9076 41.3971 31.7522C41.0085 31.2855 40.5943 30.8653 40.1759 30.5743C38.4928 29.4004 37.1635 29.5611 37.1961 27.8551C37.2289 26.1476 38.5926 24.278 41.096 22.2444Z" fill="url(#paint2_linear_5410_6270)"/>
<path d="M13.2208 18.9062C8.1749 16.5729 5.3266 16.1529 4.94134 16.3975C4.55627 16.6406 1.65058 28.1234 6.21572 34.8271C9.81521 40.1129 11.6616 39.2583 12.9615 39.2538C13.5074 39.2518 14.0344 39.0541 14.5198 38.8043C15.9165 38.0849 17.0715 36.9058 17.7617 35.4932C18.4173 34.1515 18.6699 32.601 19.5673 31.4083C21.147 29.3059 22.5964 28.6341 21.1089 26.3039C19.9118 24.4291 17.8878 21.0653 13.2208 18.9062Z" fill="url(#paint3_linear_5410_6270)"/>
<path d="M11.3409 39.6489C10.0773 39.486 8.35326 38.6284 5.90727 35.0382C2.08279 29.4231 3.4402 20.9356 3.94788 18.4672C4.39301 16.3016 4.65517 16.1362 4.74058 16.0808C5.41752 15.652 8.83095 16.4648 13.3772 18.5661C17.9845 20.6964 20.0579 23.9564 21.2971 25.903L21.4228 26.1003C22.762 28.1971 21.9232 29.177 20.7639 30.5322C20.4879 30.8543 20.1764 31.2186 19.8663 31.6313C19.3458 32.3233 19.056 33.1462 18.7478 34.0195C18.5568 34.5623 18.3574 35.1236 18.0984 35.6562C17.3732 37.1427 16.1626 38.3796 14.6919 39.1362C14.0437 39.4692 13.4949 39.6248 12.964 39.6273C12.8283 39.6279 12.6792 39.6389 12.5224 39.6503C12.1784 39.6769 11.7888 39.7067 11.3409 39.6489ZM5.18638 16.7133C4.95107 17.261 4.23966 19.9808 4.08031 23.5052C3.93548 26.7252 4.241 31.2663 6.5243 34.6182C9.5915 39.1216 11.2517 38.9976 12.4646 38.9064C12.6365 38.8939 12.7979 38.8815 12.9592 38.8812C13.3679 38.8795 13.8095 38.7493 14.3482 38.4717C15.6768 37.7888 16.7683 36.6709 17.4241 35.3278C17.6645 34.8351 17.8568 34.294 18.0408 33.7699C18.354 32.8821 18.6783 31.9656 19.2662 31.1812C19.5906 30.7507 19.9111 30.3755 20.1941 30.0452C21.3181 28.7308 21.8313 28.1314 20.7913 26.5033L20.6658 26.3045C19.4706 24.427 17.4713 21.2837 13.0633 19.2455C8.40338 17.0903 5.75301 16.643 5.18638 16.7133Z" fill="#150B3A"/>
<path d="M12.2593 35.906C12.8334 35.2903 13.9208 32.8029 15.5877 31.4875C17.2545 30.172 18.642 30.2618 18.4996 28.4973C18.3587 26.7329 16.8316 24.8804 14.1149 22.9229C11.3982 20.9653 8.17132 20.0346 8.02378 20.6389C7.87625 21.2432 7.2093 25.2397 8.33693 29.4917C9.46457 33.7437 11.6852 36.5217 12.2593 35.906Z" fill="#5C13A1"/>
<path d="M11.8813 35.9342C11.8813 35.9342 13.3238 32.5855 14.9332 31.3184C16.5427 30.0514 17.8796 30.1362 17.7428 28.4343C17.6075 26.7325 16.134 24.9443 13.5125 23.0563C10.8909 21.1683 7.7804 20.2708 7.63569 20.8528C7.49247 21.435 6.85083 25.2914 7.93724 29.3932C9.02365 33.4951 10.7182 35.6438 11.8813 35.9342Z" fill="#FF4DD3"/>
<path d="M13.5116 23.0559C13.0723 22.7396 12.6188 22.4517 12.1677 22.1928C11.9939 22.1961 11.8846 22.2379 11.8633 22.3226C11.7554 22.757 11.2765 25.64 12.0891 28.7046C12.5583 30.4721 13.1769 31.7518 13.7839 32.5636C14.1428 32.0756 14.5323 31.6322 14.9309 31.3183C16.5393 30.0495 17.8776 30.136 17.7408 28.434C17.6055 26.7321 16.1334 24.9439 13.5116 23.0559Z" fill="url(#paint4_linear_5410_6270)"/>
<path d="M32.8515 20.4856L30.873 25.7363L31.7128 26.0548L33.6913 20.8041L32.8515 20.4856Z" fill="#150B3A"/>
<path d="M33.5412 21.2322C34.6263 21.3721 35.6178 20.6048 35.7557 19.5183C35.8935 18.4318 35.1256 17.4376 34.0405 17.2977C32.9554 17.1578 31.9639 17.9252 31.826 19.0117C31.6882 20.0982 32.4561 21.0923 33.5412 21.2322Z" fill="url(#paint5_linear_5410_6270)"/>
<path d="M33.4897 21.6806C32.6786 21.5761 31.9386 21.0657 31.5788 20.2663C31.0273 19.0423 31.5705 17.6003 32.792 17.0486C33.3834 16.7823 34.0431 16.7617 34.6499 16.9923C35.2566 17.223 35.7387 17.6759 36.0056 18.2687C36.5573 19.4912 36.0139 20.9347 34.7924 21.4864C34.3702 21.678 33.9198 21.7361 33.4897 21.6806ZM33.9831 17.7454C33.7117 17.7104 33.4282 17.7478 33.1611 17.8688C32.7887 18.0365 32.5029 18.3407 32.3593 18.7236C32.2158 19.1065 32.2276 19.5245 32.3972 19.898C32.7453 20.6702 33.6557 21.0139 34.4246 20.6679C34.797 20.5001 35.0828 20.1959 35.2263 19.813C35.3699 19.4302 35.3581 19.0121 35.1885 18.6387C34.9601 18.1339 34.4932 17.8111 33.9831 17.7454Z" fill="#150B3A"/>
<path d="M21.5616 20.8135L20.7446 21.1794L23.0303 26.3056L23.8473 25.9397L21.5616 20.8135Z" fill="#150B3A"/>
<path d="M20.3083 21.6216C21.3935 21.7615 22.3849 20.9941 22.5228 19.9076C22.6607 18.8212 21.8927 17.827 20.8076 17.6871C19.7225 17.5472 18.731 18.3145 18.5931 19.401C18.4553 20.4875 19.2232 21.4817 20.3083 21.6216Z" fill="url(#paint6_linear_5410_6270)"/>
<path d="M20.2521 22.0703C20.0653 22.0462 19.8768 21.9993 19.6928 21.9288C18.441 21.449 17.8107 20.0383 18.2891 18.7857C18.7661 17.5328 20.1737 16.904 21.4254 17.3852C22.6772 17.865 23.3075 19.2757 22.8291 20.5284C22.4209 21.5954 21.3376 22.2103 20.2521 22.0703ZM20.7516 18.1344C20.0665 18.046 19.3828 18.4332 19.1269 19.1079C18.8262 19.8976 19.2227 20.7877 20.0132 21.0904C20.8023 21.3928 21.6905 20.9973 21.9913 20.2061C22.292 19.4164 21.8955 18.5263 21.105 18.2237C20.9886 18.1785 20.8702 18.1497 20.7516 18.1344Z" fill="#150B3A"/>
<path d="M28.3374 54.1333C35.4502 53.9309 42.2773 50.066 46.5379 45.3001C46.4793 44.5623 45.8721 44.5972 45.7672 43.8806C45.709 43.4838 47.5961 43.0059 47.3082 42.7334C46.4361 41.9104 45.1058 40.5304 44.7941 39.4959C42.0207 30.2746 35.2025 23.8208 27.4303 24.0424C19.6475 24.2641 13.2239 31.1124 11.0193 40.4931C10.8324 41.2898 9.2004 43.1418 8.53808 43.6705C8.03005 44.0757 10.3763 44.2303 10.3195 44.8914C10.2567 45.612 9.82837 45.9475 9.81427 46.688C14.3559 51.2023 21.2245 54.3373 28.3374 54.1333Z" fill="url(#paint7_linear_5410_6270)"/>
<path d="M24.6007 54.3158C19.0303 53.5976 13.5989 50.9768 9.55124 46.9517L9.43745 46.8389L9.43963 46.6793C9.44872 46.2158 9.59344 45.8829 9.7225 45.5902C9.82418 45.3589 9.9132 45.1561 9.94191 44.8943C9.82538 44.7676 9.32221 44.6002 9.07508 44.517C8.5445 44.34 8.15972 44.2134 8.0974 43.8614C8.08256 43.7765 8.07243 43.5595 8.3023 43.3749C8.94124 42.8643 10.4943 41.076 10.6519 40.4038C12.9537 30.6131 19.6906 23.8851 27.4145 23.6649C35.1278 23.4447 42.2541 29.7618 45.1483 39.385C45.3634 40.1007 46.2195 41.1917 47.5599 42.4569C47.6729 42.5635 47.7249 42.712 47.7016 42.8599C47.6518 43.1809 47.3089 43.3418 46.7925 43.5876C46.6097 43.6741 46.2908 43.8246 46.1558 43.9264C46.2022 44.0833 46.2915 44.1748 46.4173 44.2996C46.6072 44.49 46.8664 44.7513 46.9065 45.2664L46.9193 45.4265L46.8123 45.5454C42.0407 50.8823 34.964 54.3151 28.3442 54.5042C27.1007 54.5415 25.8477 54.4765 24.6007 54.3158ZM28.3258 53.758L28.3371 54.1321L28.3258 53.758C34.6932 53.5756 41.5035 50.294 46.1397 45.1811C46.099 45.0386 46.0134 44.9536 45.8918 44.8308C45.7127 44.6508 45.4669 44.4034 45.397 43.9327C45.3262 43.4574 45.8584 43.2061 46.4756 42.9145C46.5717 42.8696 46.6904 42.8125 46.7951 42.7596C45.8321 41.8222 44.7317 40.5896 44.4349 39.6038C41.6405 30.3103 34.8109 24.208 27.4394 24.4179C20.0573 24.6294 13.6047 31.124 11.3814 40.5808C11.1907 41.3951 9.82507 42.9888 9.04814 43.7199C9.13762 43.7511 9.23303 43.783 9.31102 43.8097C9.95016 44.0218 10.7468 44.2875 10.6913 44.9261C10.6566 45.3304 10.5251 45.6303 10.4085 45.8959C10.3132 46.113 10.2284 46.3057 10.1996 46.5449C15.0032 51.2514 21.7664 53.9459 28.3258 53.758Z" fill="#150B3A"/>
<path d="M24.21 40.0129C23.5316 42.4587 21.4402 40.9553 19.1427 40.2588C16.8452 39.5624 15.2241 39.9419 15.9024 37.496C16.5807 35.0502 18.9908 33.6443 21.2741 34.3393C23.5873 35.022 24.8883 37.567 24.21 40.0129Z" fill="#150B3A"/>
<path d="M22.156 37.2926C21.5429 36.7248 20.8356 36.4966 21.3 36.1781C21.763 35.874 22.5151 36.121 22.9844 36.7331C23.4538 37.3452 23.4611 38.087 22.9967 38.4055C22.549 38.7111 22.7691 37.8604 22.156 37.2926Z" fill="white"/>
<path d="M39.7597 36.9002C40.3996 39.1717 38.8358 39.2636 36.6517 39.977C34.4676 40.6905 32.4718 41.7426 31.8319 39.4712C31.1919 37.1997 32.4542 34.768 34.6484 34.0716C36.8357 33.3442 39.1198 34.6288 39.7597 36.9002Z" fill="#150B3A"/>
<path d="M38.0125 35.896C38.4518 36.5324 38.4554 37.3421 38.0225 37.6941C37.5897 38.0461 37.6733 37.1758 37.234 36.5394C36.7948 35.903 36.0091 35.752 36.4455 35.3847C36.8819 35.0173 37.5733 35.2596 38.0125 35.896Z" fill="white"/>
<path d="M46.2822 45.4698C46.2813 45.2162 46.1532 44.9795 45.9421 44.8392C45.3284 44.4283 44.4471 43.8004 44.4405 43.5793C44.4386 43.5112 44.5198 43.4538 44.6529 43.4015C43.9607 41.558 41.4365 39.8105 39.6106 40.6646C36.5239 42.1106 32.6529 42.4991 31.0479 40.8443C28.1684 37.8744 29.7623 37.1673 27.8724 37.0283C25.7123 36.8694 27.2696 38.3042 24.4851 41.438C22.9542 43.1597 20.2776 42.5775 16.5148 41.3297C14.5996 40.6939 11.9815 42.6483 11.6445 44.3518C11.7805 44.3965 11.8656 44.4497 11.8675 44.5178C11.8737 44.7419 11.0033 45.4384 10.415 45.8831C10.2301 46.0222 10.1266 46.2442 10.1394 46.4752C10.1407 46.4889 10.1405 46.5024 10.1417 46.5162C10.9007 47.2294 13.3476 49.4074 17.1634 51.6607C20.6484 53.7189 25.215 53.8453 27.2903 53.779C27.9071 53.7619 28.32 53.7261 28.4451 53.7135C28.5696 53.7175 28.9838 53.7301 29.6008 53.7114C31.6773 53.659 36.2281 53.2703 39.5834 51.0141C43.2566 48.5454 45.5694 46.2303 46.2846 45.4746C46.2818 45.4728 46.282 45.4713 46.2822 45.4698Z" fill="white"/>
<path d="M27.523 33.5227C28.219 33.6123 28.855 33.1199 28.9436 32.4228C29.0322 31.7257 28.5397 31.0879 27.8437 30.9983C27.1477 30.9087 26.5117 31.4011 26.4231 32.0982C26.3346 32.7953 26.827 33.4331 27.523 33.5227Z" fill="#D4E8FF"/>
<path d="M27.4914 29.7912C27.909 29.845 28.2906 29.5495 28.3438 29.1313C28.3969 28.713 28.1015 28.3303 27.6839 28.2766C27.2663 28.2228 26.8847 28.5183 26.8315 28.9365C26.7784 29.3548 27.0738 29.7375 27.4914 29.7912Z" fill="#D4E8FF"/>
<path d="M29.7324 42.0479C29.7361 42.758 28.1477 43.4612 28.0197 43.468C27.8938 43.4618 26.2702 42.7405 26.2664 42.0304C26.2627 41.3203 27.0267 41.2116 27.9852 41.2136C28.9437 41.2156 29.7286 41.3378 29.7324 42.0479Z" fill="#150B3A"/>
<path d="M28.8449 45.9579C29.646 45.8733 30.0664 45.5283 30.9921 45.2515C31.2072 45.2162 31.4109 45.2183 31.6489 45.3741C32.4116 45.816 32.2808 49.0262 29.5641 49.4892C26.3871 50.0543 25.3476 46.9297 26.0522 46.1676C26.1971 46.0287 26.3119 45.9213 26.4525 45.8628C27.6476 45.734 27.5353 46.0961 28.8449 45.9579Z" fill="#150B3A"/>
<path d="M28.0182 49.29L27.9865 49.4555C28.4736 49.5823 29.5008 49.698 30.5056 49.175C31.6156 48.6257 31.9082 47.4212 31.9082 47.4212C31.9082 47.4212 31.8574 47.3801 31.8305 47.3592C31.3664 47.0004 30.6855 46.9968 29.7962 47.3168C28.2433 47.8779 28.0182 49.29 28.0182 49.29Z" fill="url(#paint8_linear_5410_6270)"/>
<path d="M24.0837 54.2853C18.4794 53.5636 13.2576 51.0997 9.0653 47.1398C3.82497 42.1893 0.819745 35.4921 0.603966 28.2832C0.388187 21.0743 2.98646 14.2158 7.92307 8.97287C12.8582 3.72979 19.5384 0.727799 26.7346 0.519499C41.5895 0.0915258 54.0371 11.8518 54.4837 26.7318C54.9302 41.6133 43.2066 54.0673 28.3531 54.4955C26.9117 54.5378 25.4863 54.4659 24.0837 54.2853ZM30.8487 1.61978C29.5129 1.44777 28.149 1.37779 26.7621 1.41803C19.805 1.61789 13.347 4.5202 8.57554 9.58966C3.80412 14.6591 1.2907 21.2887 1.49923 28.2581C1.70775 35.2276 4.61336 41.7007 9.68017 46.487C14.747 51.2734 21.3684 53.7983 28.3254 53.5984C42.6858 53.1852 54.0177 41.1456 53.5868 26.7581C53.1975 13.7631 43.3369 3.2279 30.8487 1.61978Z" fill="#150B3A"/>
<path d="M48.063 50.0071C47.8882 50.1696 47.7777 50.398 47.7674 50.649C47.7502 51.0704 48.0182 51.4504 48.4199 51.5745L53.7467 53.216C54.9949 53.6003 55.8422 54.7298 55.8549 56.0256C55.8958 60.2057 57.4589 64.2128 60.2572 67.3088C66.4879 74.2035 77.2053 74.7948 84.1481 68.627C84.2484 68.538 84.346 68.449 84.4442 68.3577C87.8054 65.2308 89.7361 60.9773 89.8813 56.3799C90.026 51.7839 88.365 47.4163 85.2042 44.0805C78.8201 37.3442 68.094 37.0095 61.2959 43.3338L61.2346 43.3908C60.1796 44.3819 59.2555 45.5014 58.4868 46.7185C58.3569 46.9239 58.2006 47.1121 58.0221 47.2782C57.6468 47.6272 57.1813 47.8703 56.6766 47.9816L48.4949 49.7804C48.3294 49.8167 48.1816 49.8966 48.0639 50.0062L48.063 50.0071Z" fill="white"/>
<path d="M83.8149 67.6773C90.3752 61.5743 90.7246 51.2534 84.5331 44.7197C78.4929 38.3459 68.3471 38.0389 61.9246 44.0137C61.905 44.032 61.8858 44.0498 61.8667 44.0676C60.8485 45.0244 59.9821 46.0841 59.2682 47.2146C59.0941 47.4907 58.8859 47.7403 58.6513 47.9585C58.1574 48.418 57.5441 48.7409 56.8743 48.8881L48.6922 50.6865L54.019 52.328C55.6395 52.8272 56.7637 54.3162 56.7802 56.0156C56.8173 59.8296 58.1924 63.642 60.9426 66.6842C66.8309 73.1993 76.9703 73.7624 83.5344 67.9305C83.6295 67.8463 83.7224 67.7616 83.815 67.6755M85.0734 69.0362C84.9701 69.1323 84.8674 69.2261 84.7611 69.3198C77.4412 75.8244 66.141 75.2018 59.5708 67.9325C56.6202 64.6679 54.9719 60.4428 54.9291 56.0351C54.9211 55.1448 54.3365 54.3689 53.4748 54.1036L48.1479 52.462C47.3442 52.2143 46.8077 51.4538 46.8429 50.6111C46.8636 50.1081 47.0846 49.6515 47.4342 49.3263C47.6701 49.1067 47.9652 48.9473 48.2967 48.8743L56.4788 47.0759C56.8226 47.0002 57.1386 46.8352 57.3928 46.5987C57.5129 46.487 57.6177 46.3607 57.7045 46.2233C58.5149 44.9394 59.4895 43.759 60.6016 42.7139L60.6661 42.6539C67.8348 35.9849 79.1433 36.3383 85.8744 43.4413C89.207 46.9581 90.9583 51.5634 90.8055 56.4092C90.6527 61.2559 88.6173 65.7411 85.0734 69.038L85.0734 69.0362Z" fill="#150B3A"/>
<path d="M86.0421 50.8674C86.0714 50.9556 86.1043 51.018 86.141 51.0548C86.1776 51.0842 86.2032 51.1062 86.2179 51.1209C86.2545 51.1577 86.2362 51.2238 86.1629 51.3193C86.097 51.4516 86.0054 51.6059 85.8882 51.7822C85.6757 52.0982 85.5402 52.3296 85.4816 52.4766C85.1812 53.0791 84.9468 53.6338 84.7783 54.1408C84.6098 54.6405 84.4669 55.0924 84.3497 55.4965C84.2325 55.9006 84.1189 56.257 84.009 56.5656C83.8771 56.9256 83.7233 57.1938 83.5475 57.3701C83.4595 57.5171 83.302 57.6163 83.0749 57.6677C82.8478 57.7192 82.617 57.7302 82.3826 57.7008C82.1481 57.664 81.9467 57.5869 81.7781 57.4693C81.617 57.3518 81.5584 57.1975 81.6023 57.0064C81.6829 56.3157 81.8038 55.7353 81.965 55.265C82.1335 54.7948 82.2763 54.4053 82.3936 54.0967C82.5181 53.7881 82.6243 53.5126 82.7123 53.2701C82.8002 53.0203 82.8808 52.8072 82.954 52.6309C83.0346 52.4472 83.1262 52.2561 83.2288 52.0577C83.3313 51.852 83.4412 51.6463 83.5584 51.4405C83.683 51.2275 83.8075 51.0327 83.9321 50.8564C84.2178 50.4523 84.4596 50.2135 84.6574 50.14C84.8552 50.0592 85.053 50.0114 85.2508 49.9967C85.456 49.982 85.6318 50.0041 85.7783 50.0628C85.9322 50.1216 86.0384 50.2171 86.097 50.3494C86.1556 50.4817 86.1373 50.6543 86.0421 50.8674ZM83.4156 59.1777C83.335 59.4789 83.1665 59.703 82.9101 59.85C82.661 60.0043 82.3936 60.0851 82.1078 60.0925C81.8221 60.1072 81.5547 60.052 81.3056 59.9271C81.0638 59.8096 80.9136 59.6222 80.855 59.365C80.7891 59.1152 80.8257 58.9021 80.9649 58.7258C81.1115 58.5421 81.2836 58.4245 81.4814 58.3731C81.6792 58.3143 81.91 58.2739 82.1738 58.2519C82.4448 58.2298 82.6903 58.2445 82.9101 58.2959C83.1299 58.3474 83.2984 58.4429 83.4156 58.5825C83.5328 58.7221 83.5328 58.9205 83.4156 59.1777Z" fill="#150B3A"/>
<path d="M79.3999 57.1828C79.2607 57.2489 79.1252 57.3003 78.9933 57.3371C78.8614 57.3738 78.7076 57.4106 78.5318 57.4473C78.0702 57.5428 77.7369 57.5979 77.5317 57.6126C77.5537 57.6861 77.6636 57.7743 77.8614 57.8771C77.9933 57.8992 78.1361 57.8808 78.29 57.822C78.4512 57.7559 78.616 57.6971 78.7845 57.6457C78.9604 57.5869 79.1289 57.5538 79.29 57.5465C79.4585 57.5391 79.6161 57.6016 79.7626 57.7339C79.8212 57.8661 79.8688 57.9433 79.9054 57.9653C79.9421 57.9874 79.975 57.9984 80.0044 57.9984C80.0337 57.9984 80.0666 58.0094 80.1033 58.0314C80.1399 58.0535 80.1912 58.138 80.2571 58.2849C80.3304 58.4319 80.3121 58.5715 80.2022 58.7038C80.0996 58.836 79.9384 58.9499 79.7186 59.0454C79.4988 59.1409 79.2424 59.2181 78.9494 59.2769C78.6563 59.3357 78.3633 59.3761 78.0702 59.3981C77.4108 59.4495 76.909 59.3981 76.5646 59.2438C76.0665 59.0748 75.7441 58.7405 75.5976 58.2408C75.4071 57.5796 75.5133 56.808 75.9163 55.9263C76.0994 55.5149 76.3888 55.074 76.7844 54.6037C77.1288 54.1923 77.5134 53.8947 77.9383 53.711C78.4292 53.4979 78.942 53.3987 79.4769 53.4134C80.0483 53.4281 80.4439 53.6779 80.6637 54.1629C80.7736 54.42 80.7956 54.7801 80.7297 55.243C80.6124 55.8455 80.4586 56.2717 80.2681 56.5215C80.0776 56.764 79.7882 56.9844 79.3999 57.1828ZM78.7625 55.4414C78.3742 55.3606 78.0702 55.581 77.8504 56.1027C77.7845 56.2423 77.7332 56.3892 77.6966 56.5435C77.9457 56.5729 78.2094 56.4333 78.4878 56.1247C78.5904 55.9998 78.6673 55.8749 78.7186 55.75C78.7699 55.6177 78.7845 55.5149 78.7625 55.4414Z" fill="#150B3A"/>
<path d="M75.1767 53.4024C75.4624 53.4391 75.6529 53.542 75.7481 53.711C75.8507 53.8726 75.891 54.049 75.869 54.24C75.847 54.4237 75.7774 54.5927 75.6602 54.747C75.5503 54.894 75.4257 54.9711 75.2865 54.9785C75.2353 55.1328 75.1547 55.2393 75.0448 55.2981C74.9349 55.3569 74.814 55.3973 74.6821 55.4193C74.5503 55.4414 74.4111 55.4671 74.2645 55.4965C74.1253 55.5185 73.9935 55.581 73.8689 55.6839C73.7444 55.7867 73.6381 55.8896 73.5502 55.9925C73.4696 56.088 73.4037 56.1835 73.3524 56.279C73.2645 56.4407 73.1876 56.6391 73.1216 56.8742C73.107 57.0358 73.1839 57.1865 73.3524 57.3261C73.5502 57.4804 73.7663 57.5502 74.0008 57.5355C74.2352 57.5134 74.422 57.5245 74.5612 57.5685C74.7078 57.6053 74.8177 57.6604 74.8909 57.7339C75.0521 57.9029 75.0375 58.0976 74.847 58.318C74.4807 58.9058 73.8652 59.2548 73.0007 59.3651C72.7443 59.4018 72.4879 59.4091 72.2315 59.3871C71.975 59.3724 71.726 59.2769 71.4842 59.1005C71.2424 58.9242 71.0519 58.6854 70.9127 58.3841C70.605 57.6935 70.6307 56.8889 70.9897 55.9704C71.334 55.1107 71.8505 54.4494 72.5392 53.9865C73.2938 53.4722 74.1729 53.2775 75.1767 53.4024Z" fill="#150B3A"/>
<path d="M68.5903 54.0416C68.6855 53.7991 68.9127 53.6338 69.2717 53.5456C69.6087 53.4575 69.9237 53.4685 70.2168 53.5787C70.5171 53.6963 70.6527 53.8873 70.6234 54.1518C70.5428 54.409 70.4402 54.7249 70.3157 55.0997C70.1984 55.4671 70.0849 55.8455 69.975 56.2349C69.6819 57.2342 69.5134 57.9396 69.4695 58.351C69.3596 59.0123 69.1764 59.3687 68.92 59.4201C68.8467 59.4348 68.7771 59.4458 68.7112 59.4532C68.55 59.4605 68.4474 59.5046 68.4035 59.5855C68.3595 59.6663 68.2863 59.7251 68.1837 59.7618C68.0811 59.8059 67.9676 59.8243 67.843 59.8169C67.7258 59.8169 67.6049 59.7875 67.4804 59.7287C67.3558 59.6773 67.2496 59.6001 67.1617 59.4973C66.9565 59.2475 66.9162 58.9131 67.0408 58.4943C67.158 57.6934 67.4547 56.6758 67.9309 55.4413C68.1581 54.8315 68.3778 54.3649 68.5903 54.0416ZM70.6673 52.3884C70.3083 52.4619 70.0153 52.4398 69.7882 52.3222C69.5684 52.2047 69.4402 52.0651 69.4035 51.9034C69.3669 51.7344 69.4182 51.5618 69.5574 51.3854C69.7186 51.165 69.9603 51.0217 70.2827 50.9556C70.4292 50.9409 70.5354 50.9335 70.6014 50.9335C70.6673 50.9335 70.7479 50.9482 70.8432 50.9776C71.0849 50.9997 71.2424 51.1062 71.3157 51.2972C71.4183 51.4589 71.4256 51.6426 71.3377 51.8483C71.2571 52.0541 71.0336 52.2341 70.6673 52.3884Z" fill="#150B3A"/>
<path d="M60.9653 54.5376C61.1118 54.0453 61.229 53.6669 61.317 53.4024C61.4122 53.1305 61.5038 52.8881 61.5917 52.675C61.6796 52.4619 61.7785 52.2561 61.8884 52.0578C62.0056 51.8594 62.1302 51.6794 62.2621 51.5177C62.4013 51.3487 62.5478 51.2164 62.7016 51.1209C62.8555 51.0254 63.0167 50.9776 63.1852 50.9776C63.3537 50.9776 63.5295 51.0438 63.7127 51.176C64.0057 51.9108 64.1852 52.4031 64.2512 52.6529C64.3391 53.0203 64.4197 53.5383 64.4929 54.207C64.5589 54.038 64.6321 53.8616 64.7127 53.6779C64.8006 53.4869 64.8849 53.2958 64.9655 53.1048C65.1926 52.6199 65.3355 52.2525 65.3941 52.0027C65.5552 51.4883 65.8886 51.1026 66.3941 50.8454C66.8337 50.625 67.244 50.5552 67.6249 50.636C67.7788 50.6654 67.885 50.7278 67.9436 50.8233C68.0096 50.9189 68.0096 51.0181 67.9436 51.1209C67.885 51.2238 67.863 51.323 67.8777 51.4185C67.8997 51.5067 67.918 51.6132 67.9326 51.7381C67.9546 52.0761 67.896 52.3774 67.7568 52.6419C67.6176 52.8991 67.4747 53.2224 67.3282 53.6118C67.1817 53.9939 67.0315 54.4017 66.8776 54.8352C66.7311 55.2687 66.5809 55.7096 66.4271 56.1578C66.2732 56.606 66.123 57.0138 65.9765 57.3812C65.6541 58.2262 65.3904 58.6927 65.1853 58.7809C64.9069 58.9499 64.7017 59.0491 64.5699 59.0785C64.4013 59.1079 64.1632 59.1079 63.8555 59.0785C63.6651 59.0638 63.5002 58.8176 63.361 58.34C63.2804 58.0829 63.2072 57.7265 63.1412 57.271C63.024 56.4774 62.9434 56.0402 62.8994 55.9594C62.6064 56.9146 62.3976 57.5171 62.273 57.7669C62.1558 58.0167 62.0642 58.1821 61.9983 58.2629C61.9397 58.3437 61.8664 58.4503 61.7785 58.5825C61.6833 58.847 61.4562 59.0418 61.0972 59.1667C60.7895 59.2842 60.5111 59.3026 60.262 59.2218C59.9909 59.1336 59.9103 58.9646 60.0202 58.7148C60.1008 57.8331 60.4158 56.4407 60.9653 54.5376Z" fill="#150B3A"/>
<path d="M69.6588 79.8607L71.265 82.1964H77.5061V82.1976C77.632 82.1976 77.7559 82.2578 77.833 82.3697L78.9208 83.9514C78.9766 84.0202 79.0101 84.1079 79.0101 84.2036C79.0101 84.4245 78.8317 84.6033 78.6116 84.6033H64.7711C64.5509 84.6033 64.3726 84.4245 64.3726 84.2036V80.0869C64.3726 79.8661 64.5509 79.6872 64.7711 79.6872H69.3318V79.6884C69.4577 79.6884 69.5816 79.7485 69.6588 79.8605V79.8607Z" fill="white"/>
<path d="M70.712 82.7958L69.1243 80.4868H65.1699V83.8042H77.8541L77.2983 82.996H71.0573C70.9096 82.996 70.7807 82.9155 70.712 82.7958Z" fill="white"/>
<path d="M86.7591 79.8443V78.0485C86.7591 77.7803 86.5389 77.5595 86.2715 77.5595H83.6653C83.3979 77.5595 83.1777 77.7803 83.1777 78.0485V79.8443H86.7589H86.7591Z" fill="white"/>
<path d="M80.2862 87.6483L77.2845 92.7443C77.1253 93.0147 76.9171 93.3563 76.673 93.5477C76.5775 93.6226 76.4751 93.6664 76.3649 93.6664H70.9817V93.6648C70.68 93.665 70.4845 93.3351 70.6376 93.0685L73.7578 87.6481H66.7296L61.7451 96.3067C61.4544 96.8119 61.629 97.47 62.1345 97.7628L62.1341 97.7634L62.423 97.9306H67.8373L69.6297 94.8171C69.6943 94.6838 69.8305 94.5919 69.9884 94.5919H76.3645C77.1954 94.5919 77.6992 93.8557 78.0772 93.214L81.3558 87.6479H80.2858L80.2862 87.6483Z" fill="white"/>
<path d="M89.7451 84.8887H91.614C92.2397 84.8887 92.753 84.3739 92.753 83.7464C92.753 83.1189 92.2397 82.6041 91.614 82.6041H89.7451V84.8889V84.8887Z" fill="white"/>
<path d="M54.1035 82.1805L54.1035 85.6305C54.1035 86.3012 54.6521 86.8514 55.3208 86.8514L61.6002 86.8514L61.6002 80.9596L55.3208 80.9596C54.6521 80.9596 54.1035 81.5098 54.1035 82.1805Z" fill="white"/>
<path d="M72.3801 80.4434L70.7924 78.1344H62.2773V86.8489H87.8876C88.4702 86.8489 88.9484 86.3693 88.9484 85.785V81.7076C88.9484 81.1232 88.4702 80.6436 87.8876 80.6436H72.7256C72.5779 80.6436 72.449 80.5631 72.3803 80.4434H72.3801Z" fill="white"/>
<path fill-rule="evenodd" clip-rule="evenodd" d="M72.8593 98.1038H71.7534V96.1188H72.8593V98.1038ZM75.071 98.1038H73.9651V96.1188H75.071V98.1038ZM77.2827 98.1038H76.1768V96.1188H77.2827V98.1038ZM79.4944 98.1038H78.3885V96.1188H79.4944V98.1038ZM81.7061 98.1038H80.6003V96.1188H81.7061V98.1038ZM83.9178 98.1038H82.812V96.1188H83.9178V98.1038ZM86.1295 98.1038H85.0237V96.1188H86.1295V98.1038ZM88.3412 98.1038H87.2354V96.1188H88.3412V98.1038ZM90.5529 98.1038H89.4471V96.1188H90.5529V98.1038ZM92.7647 98.1038H91.6588V96.1188H92.7647V98.1038Z" fill="white"/>
<path d="M67.7383 100.927H76.8867V103H67.7383V100.927Z" fill="#9BF00B"/>
<path d="M67.7383 100.927H71.6528V103H67.7383V100.927Z" fill="white"/>
<path fill-rule="evenodd" clip-rule="evenodd" d="M91.7308 101.236H55.1371C54.7363 101.236 54.4114 101.562 54.4114 101.964C54.4114 102.366 54.7363 102.691 55.1371 102.691H91.7308C92.1316 102.691 92.4566 102.366 92.4566 101.964C92.4566 101.562 92.1316 101.236 91.7308 101.236ZM55.1371 100.927C54.5663 100.927 54.1035 101.391 54.1035 101.964C54.1035 102.536 54.5663 103 55.1371 103H91.7308C92.3017 103 92.7644 102.536 92.7644 101.964C92.7644 101.391 92.3017 100.927 91.7308 100.927H55.1371Z" fill="white"/>
<path d="M89.1537 90.3888C89.2828 90.3888 89.3751 90.3961 89.4308 90.4108C89.5569 90.4491 89.6478 90.5343 89.7035 90.6667C89.8765 90.6343 90.0085 90.7049 90.0994 90.8784C90.1873 91.049 90.2035 91.2357 90.1478 91.4386C90.0745 91.7356 89.9029 91.9988 89.6332 92.2282C89.5511 92.2959 89.4646 92.3606 89.3737 92.4223C89.4822 92.4988 89.5687 92.6193 89.6332 92.784C89.6859 92.9281 89.705 93.0825 89.6903 93.2472C89.6786 93.4119 89.6317 93.5618 89.5496 93.6971C89.4704 93.8295 89.3751 93.9397 89.2637 94.028C89.1552 94.1191 89.0423 94.1897 88.925 94.2397C88.8078 94.2897 88.6934 94.3206 88.582 94.3323C88.4705 94.3441 88.3415 94.3529 88.1949 94.3588C88.0483 94.3676 87.9105 94.3529 87.7815 94.3147C87.6525 94.2794 87.5396 94.2118 87.4428 94.1118C87.349 94.0147 87.2859 93.8662 87.2537 93.6662C87.2214 93.381 87.2698 93.131 87.3988 92.9164C87.4956 92.7517 87.6539 92.5988 87.8738 92.4576L88.1553 92.2944C88.0117 92.1238 87.9193 91.9827 87.8782 91.8709C87.8372 91.7562 87.8152 91.6533 87.8123 91.5621C87.8093 91.471 87.8269 91.368 87.8651 91.2534C87.9061 91.1387 87.9706 91.0269 88.0586 90.9181C88.1465 90.8064 88.2492 90.7108 88.3665 90.6314C88.6186 90.4579 88.8811 90.377 89.1537 90.3888ZM88.5556 93.4501C88.6113 93.456 88.6597 93.4486 88.7007 93.428C88.7447 93.4075 88.774 93.3604 88.7887 93.2869C88.8034 93.2134 88.7931 93.1443 88.7579 93.0796C88.7256 93.0119 88.6802 92.9369 88.6216 92.8546L88.516 92.8943C88.4486 92.9266 88.4148 92.9472 88.4148 92.9561C88.4148 92.9737 88.387 93.0016 88.3313 93.0399C88.2756 93.0781 88.2448 93.1207 88.2389 93.1678C88.233 93.2148 88.2448 93.259 88.2741 93.3001C88.3034 93.3384 88.3445 93.3722 88.3972 93.4016C88.45 93.428 88.5028 93.4442 88.5556 93.4501ZM89.1801 91.271C89.1655 91.2298 89.1406 91.2092 89.1054 91.2092C89.0702 91.2092 89.0321 91.224 88.991 91.2534C88.9529 91.2798 88.9148 91.3181 88.8767 91.368C88.8385 91.418 88.8092 91.4754 88.7887 91.5401C88.7359 91.6842 88.7476 91.8165 88.8239 91.9371L88.8371 91.9591C88.8664 91.9297 88.8972 91.9033 88.9294 91.8797C88.9617 91.8562 88.9969 91.8283 89.035 91.7959C89.12 91.7136 89.2007 91.6136 89.2769 91.496C89.2945 91.4754 89.2886 91.4401 89.2593 91.3901C89.23 91.3401 89.2139 91.3078 89.2109 91.2931L89.1801 91.271Z" fill="#9BF00B"/>
<path d="M85.6378 91.571C85.6231 91.5122 85.6305 91.4563 85.6598 91.4033C85.6891 91.3504 85.7404 91.2975 85.8137 91.2445C85.89 91.1887 85.9589 91.1563 86.0205 91.1475L86.0249 91.1431C86.0395 91.1372 86.0527 91.1299 86.0644 91.121C86.0791 91.1122 86.0938 91.1034 86.1084 91.0946C86.2316 90.9887 86.343 90.8711 86.4427 90.7417C86.4456 90.7387 86.4471 90.7358 86.4471 90.7329C86.4471 90.7299 86.45 90.7255 86.4559 90.7196C86.4969 90.6255 86.5702 90.5564 86.6758 90.5123C86.7814 90.4652 86.8825 90.4447 86.9793 90.4505C87.076 90.4535 87.1625 90.4814 87.2388 90.5344C87.3179 90.5873 87.3663 90.6652 87.3839 90.7681C87.3722 90.8505 87.3326 90.9505 87.2652 91.0681C87.2828 91.1063 87.3062 91.1519 87.3355 91.2048C87.3649 91.2548 87.3707 91.3063 87.3531 91.3592C87.2769 91.5151 87.1992 91.671 87.12 91.8268C87.0438 91.9827 86.9807 92.1194 86.9309 92.237C86.8811 92.3547 86.8356 92.462 86.7946 92.5591C86.7564 92.6532 86.7168 92.7487 86.6758 92.8458C86.5351 93.1987 86.4324 93.4869 86.3679 93.7104C86.3063 93.9309 86.2418 94.1103 86.1744 94.2485V94.2618H86.17C86.1436 94.3294 86.0923 94.3779 86.0161 94.4073C85.9428 94.4397 85.8665 94.4514 85.7873 94.4426C85.7082 94.4367 85.6393 94.4117 85.5806 94.3676C85.522 94.3235 85.4956 94.2603 85.5015 94.1779C85.5103 94.0985 85.522 94.0221 85.5366 93.9486C85.5542 93.8721 85.5806 93.7339 85.6158 93.5339C85.6862 93.131 85.8211 92.5635 86.0205 91.8312C85.9354 91.8195 85.8533 91.7871 85.7741 91.7342C85.6979 91.6812 85.6525 91.6268 85.6378 91.571Z" fill="#9BF00B"/>
<path d="M85.3172 92.709C85.3055 92.7414 85.2263 92.7605 85.0797 92.7664H85.0841C85.131 92.7664 85.1178 92.7752 85.0445 92.7928C84.98 92.8075 84.9258 92.8149 84.8818 92.8149C84.7821 93.1825 84.719 93.4119 84.6926 93.503C84.6663 93.5942 84.6443 93.6721 84.6267 93.7368C84.612 93.7986 84.59 93.8589 84.5607 93.9177L84.5167 94.0103C84.5167 94.025 84.5182 94.0368 84.5211 94.0456C84.4889 94.1662 84.4361 94.2588 84.3628 94.3235C84.2924 94.3911 84.2147 94.4308 84.1297 94.4426C84.0446 94.4544 83.9596 94.4382 83.8746 94.3941C83.7925 94.35 83.7236 94.2779 83.6678 94.1779L83.6986 93.9662C83.6781 93.9485 83.6532 93.9368 83.6239 93.9309C83.5975 93.925 83.5726 93.9191 83.5491 93.9133C83.4875 93.8986 83.4567 93.8662 83.4567 93.8162C83.489 93.6956 83.5168 93.5795 83.5403 93.4677C83.5638 93.353 83.6077 93.2472 83.6722 93.1501L83.725 93.0046L83.4391 93.0266C83.2867 93.0384 83.1796 93.0281 83.1181 92.9957C83.0565 92.9605 82.9993 92.9134 82.9465 92.8546C82.8967 92.7928 82.8586 92.734 82.8322 92.6781C82.8029 92.6223 82.7926 92.5635 82.8014 92.5017C82.8131 92.3899 82.8908 92.24 83.0345 92.0518C83.1811 91.8636 83.3072 91.7048 83.4127 91.5754C83.5183 91.446 83.6268 91.3239 83.7382 91.2092C83.964 90.9769 84.2308 90.7417 84.5387 90.5035C84.6384 90.4211 84.7689 90.3799 84.9302 90.3799C85.0562 90.3858 85.1457 90.402 85.1985 90.4285C85.3011 90.4755 85.3656 90.5505 85.392 90.6534V90.6887C85.4829 90.7593 85.5078 90.849 85.4667 90.9578C85.4433 91.0343 85.4008 91.1195 85.3392 91.2136C85.2776 91.3078 85.241 91.3754 85.2292 91.4166L85.1369 91.7694C85.1222 91.8253 85.109 91.8768 85.0973 91.9238C85.0885 91.9679 85.0782 92.0135 85.0665 92.0606C85.0577 92.1047 85.0474 92.1503 85.0357 92.1973C85.024 92.2414 85.0123 92.2914 85.0005 92.3473L85.0797 92.3429C85.1061 92.3429 85.1325 92.3429 85.1589 92.3429C85.1794 92.3341 85.2014 92.3252 85.2248 92.3164C85.2483 92.3047 85.2718 92.2958 85.2952 92.29C85.3509 92.2811 85.392 92.2944 85.4184 92.3297C85.4448 92.365 85.4594 92.4061 85.4623 92.4532C85.4653 92.4973 85.4609 92.5385 85.4492 92.5767C85.4374 92.6149 85.4184 92.6473 85.392 92.6737C85.3685 92.6973 85.3436 92.709 85.3172 92.709ZM84.1341 91.7871C83.7705 92.1341 83.5623 92.34 83.5095 92.4047C83.4597 92.4693 83.4362 92.5105 83.4391 92.5282C83.445 92.5429 83.467 92.5473 83.5051 92.5414C83.5462 92.5355 83.5989 92.5223 83.6634 92.5017C83.728 92.4811 83.7998 92.4605 83.879 92.4399C83.8907 92.4017 83.9215 92.3223 83.9713 92.2017C84.071 91.9635 84.1253 91.8253 84.1341 91.7871ZM84.4859 94.1073C84.4889 94.0926 84.4918 94.0794 84.4947 94.0676C84.4742 94.1206 84.4713 94.1338 84.4859 94.1073Z" fill="#9BF00B"/>
<path d="M69.4097 98.5891H70.0254V105.779H69.4097V98.5891Z" fill="white"/>
</g>
<defs>
<linearGradient id="paint0_linear_5410_6270" x1="0.262774" y1="31.9711" x2="52.8643" y2="38.6541" gradientUnits="userSpaceOnUse">
<stop stop-color="white"/>
<stop offset="1" stop-color="#58E1FF"/>
</linearGradient>
<linearGradient id="paint1_linear_5410_6270" x1="33.2398" y1="28.155" x2="51.3566" y2="26.1361" gradientUnits="userSpaceOnUse">
<stop offset="9.53674e-07" stop-color="#9527FF"/>
<stop offset="1" stop-color="#22DBE0"/>
</linearGradient>
<linearGradient id="paint2_linear_5410_6270" x1="43.0958" y1="26.5542" x2="37.2226" y2="26.4399" gradientUnits="userSpaceOnUse">
<stop offset="9.53674e-07" stop-color="#F232ED"/>
<stop offset="1" stop-color="#2281E0"/>
</linearGradient>
<linearGradient id="paint3_linear_5410_6270" x1="21.6854" y1="28.528" x2="3.47752" y2="27.6034" gradientUnits="userSpaceOnUse">
<stop offset="9.53674e-07" stop-color="#9527FF"/>
<stop offset="1" stop-color="#22DBE0"/>
</linearGradient>
<linearGradient id="paint4_linear_5410_6270" x1="11.7728" y1="27.4586" x2="17.6263" y2="26.9907" gradientUnits="userSpaceOnUse">
<stop offset="9.53674e-07" stop-color="#F232ED"/>
<stop offset="1" stop-color="#2281E0"/>
</linearGradient>
<linearGradient id="paint5_linear_5410_6270" x1="31.9826" y1="20.0839" x2="35.5928" y2="18.4551" gradientUnits="userSpaceOnUse">
<stop offset="9.53674e-07" stop-color="#9527FF"/>
<stop offset="1" stop-color="#22DBE0"/>
</linearGradient>
<linearGradient id="paint6_linear_5410_6270" x1="22.3923" y1="20.3789" x2="18.6873" y2="18.9671" gradientUnits="userSpaceOnUse">
<stop offset="9.53674e-07" stop-color="#9527FF"/>
<stop offset="1" stop-color="#22DBE0"/>
</linearGradient>
<linearGradient id="paint7_linear_5410_6270" x1="8.3374" y1="39.647" x2="47.2048" y2="38.4762" gradientUnits="userSpaceOnUse">
<stop offset="9.53674e-07" stop-color="#9527FF"/>
<stop offset="1" stop-color="#22DBE0"/>
</linearGradient>
<linearGradient id="paint8_linear_5410_6270" x1="29.1598" y1="47.5853" x2="30.6443" y2="49.1841" gradientUnits="userSpaceOnUse">
<stop stop-color="#F58981"/>
<stop offset="1" stop-color="#FA00A5"/>
</linearGradient>
<clipPath id="clip0_5410_6270">
<rect width="92.5088" height="104.813" fill="white" transform="translate(0.495117)"/>
</clipPath>
</defs>
</svg>
