<svg width="94" height="70" viewBox="0 0 94 70" fill="none" xmlns="http://www.w3.org/2000/svg">
<path fill-rule="evenodd" clip-rule="evenodd" d="M7.42421 55.1515C3.32393 55.1515 0 58.4754 0 62.5757C0 66.676 3.32393 69.9999 7.42421 69.9999H86.3334C90.4336 69.9999 93.7576 66.676 93.7576 62.5757C93.7576 58.4754 90.4336 55.1515 86.3334 55.1515H7.42421ZM4.41374 59.039C4.41374 58.4867 4.86145 58.039 5.41374 58.039H10.0319C10.5842 58.039 11.0319 58.4867 11.0319 59.039V66.113C11.0319 66.6653 10.5842 67.113 10.0319 67.113H4.41374V59.039ZM13.789 59.039C13.789 58.4867 14.2367 58.039 14.789 58.039H19.4072C19.9595 58.039 20.4072 58.4867 20.4072 59.039V66.113C20.4072 66.6653 19.9595 67.113 19.4072 67.113H13.789V59.039ZM23.1656 59.039C23.1656 58.4867 23.6134 58.039 24.1656 58.039H28.7838C29.3361 58.039 29.7838 58.4867 29.7838 59.039V66.113C29.7838 66.6653 29.3361 67.113 28.7838 67.113H23.1656V59.039ZM33.5407 58.039C32.9885 58.039 32.5407 58.4867 32.5407 59.039V67.113H38.1589C38.7112 67.113 39.1589 66.6653 39.1589 66.113V59.039C39.1589 58.4867 38.7112 58.039 38.1589 58.039H33.5407Z" fill="#9BF00B"/>
<ellipse cx="46.8772" cy="20.9221" rx="20.9221" ry="20.9221" fill="url(#paint0_linear_5410_6138)"/>
<mask id="path-3-outside-1_5410_6138" maskUnits="userSpaceOnUse" x="39.5317" y="13.0101" width="15" height="16" fill="black">
<rect fill="white" x="39.5317" y="13.0101" width="15" height="16"/>
<path fill-rule="evenodd" clip-rule="evenodd" d="M51.9863 16.4528C52.2999 16.1228 52.2999 15.5877 51.9863 15.2577C51.6728 14.9276 51.1644 14.9276 50.8509 15.2577L46.8769 19.4403L42.9036 15.2584C42.5901 14.9283 42.0817 14.9283 41.7681 15.2584C41.4546 15.5884 41.4546 16.1235 41.7681 16.4535L45.7414 20.6355L41.7669 24.8188C41.4533 25.1488 41.4533 25.6839 41.7669 26.0139C42.0805 26.3439 42.5888 26.3439 42.9024 26.0139L46.8769 21.8306L50.8521 26.0146C51.1656 26.3446 51.674 26.3446 51.9876 26.0146C52.3011 25.6846 52.3011 25.1495 51.9876 24.8195L48.0124 20.6355L51.9863 16.4528Z"/>
</mask>
<path fill-rule="evenodd" clip-rule="evenodd" d="M51.9863 16.4528C52.2999 16.1228 52.2999 15.5877 51.9863 15.2577C51.6728 14.9276 51.1644 14.9276 50.8509 15.2577L46.8769 19.4403L42.9036 15.2584C42.5901 14.9283 42.0817 14.9283 41.7681 15.2584C41.4546 15.5884 41.4546 16.1235 41.7681 16.4535L45.7414 20.6355L41.7669 24.8188C41.4533 25.1488 41.4533 25.6839 41.7669 26.0139C42.0805 26.3439 42.5888 26.3439 42.9024 26.0139L46.8769 21.8306L50.8521 26.0146C51.1656 26.3446 51.674 26.3446 51.9876 26.0146C52.3011 25.6846 52.3011 25.1495 51.9876 24.8195L48.0124 20.6355L51.9863 16.4528Z" fill="white"/>
<path d="M51.9863 15.2577L50.5364 16.6352L50.5364 16.6352L51.9863 15.2577ZM51.9863 16.4528L50.5364 15.0752L50.5364 15.0752L51.9863 16.4528ZM50.8509 15.2577L52.3008 16.6352V16.6352L50.8509 15.2577ZM46.8769 19.4403L45.427 20.8179L46.8769 22.344L48.3268 20.8179L46.8769 19.4403ZM42.9036 15.2584L44.3536 13.8808L44.3536 13.8808L42.9036 15.2584ZM41.7681 15.2584L40.3182 13.8808L41.7681 15.2584ZM41.7681 16.4535L43.2181 15.0759L43.2181 15.0759L41.7681 16.4535ZM45.7414 20.6355L47.1913 22.013L48.5002 20.6355L47.1913 19.2579L45.7414 20.6355ZM41.7669 24.8188L40.317 23.4412H40.317L41.7669 24.8188ZM41.7669 26.0139L40.317 27.3915H40.317L41.7669 26.0139ZM42.9024 26.0139L41.4525 24.6363H41.4525L42.9024 26.0139ZM46.8769 21.8306L48.3268 20.453L46.8769 18.927L45.427 20.453L46.8769 21.8306ZM50.8521 26.0146L52.302 24.637L52.302 24.637L50.8521 26.0146ZM51.9876 26.0146L53.4375 27.3922L53.4375 27.3922L51.9876 26.0146ZM51.9876 24.8195L50.5376 26.197L50.5376 26.197L51.9876 24.8195ZM48.0124 20.6355L46.5625 19.2579L45.2537 20.6355L46.5625 22.013L48.0124 20.6355ZM50.5364 16.6352C50.1165 16.1933 50.1165 15.5171 50.5364 15.0752L53.4363 17.8304C54.4833 16.7284 54.4833 14.9821 53.4363 13.8801L50.5364 16.6352ZM52.3008 16.6352C51.8259 17.1351 51.0113 17.1351 50.5364 16.6352L53.4363 13.8801C52.3342 12.7201 50.503 12.7201 49.4009 13.8801L52.3008 16.6352ZM48.3268 20.8179L52.3008 16.6352L49.4009 13.8801L45.427 18.0628L48.3268 20.8179ZM41.4537 16.6359L45.427 20.8179L48.3268 18.0628L44.3536 13.8808L41.4537 16.6359ZM43.2181 16.6359C42.7431 17.1358 41.9286 17.1358 41.4537 16.6359L44.3536 13.8808C43.2515 12.7208 41.4203 12.7208 40.3182 13.8808L43.2181 16.6359ZM43.2181 15.0759C43.6379 15.5178 43.6379 16.194 43.2181 16.6359L40.3182 13.8808C39.2712 14.9828 39.2712 16.7291 40.3182 17.8311L43.2181 15.0759ZM47.1913 19.2579L43.2181 15.0759L40.3182 17.8311L44.2915 22.013L47.1913 19.2579ZM43.2168 26.1963L47.1913 22.013L44.2915 19.2579L40.317 23.4412L43.2168 26.1963ZM43.2168 24.6363C43.6367 25.0782 43.6367 25.7544 43.2168 26.1963L40.317 23.4412C39.27 24.5432 39.27 26.2895 40.317 27.3915L43.2168 24.6363ZM41.4525 24.6363C41.9274 24.1364 42.7419 24.1364 43.2168 24.6363L40.317 27.3915C41.419 28.5514 43.2503 28.5514 44.3523 27.3915L41.4525 24.6363ZM45.427 20.453L41.4525 24.6363L44.3523 27.3915L48.3268 23.2082L45.427 20.453ZM52.302 24.637L48.3268 20.453L45.427 23.2082L49.4022 27.3922L52.302 24.637ZM50.5376 24.637C51.0126 24.1372 51.8271 24.1371 52.302 24.637L49.4022 27.3922C50.5042 28.5521 52.3355 28.5521 53.4375 27.3922L50.5376 24.637ZM50.5376 26.197C50.1178 25.7551 50.1178 25.0789 50.5376 24.637L53.4375 27.3922C54.4845 26.2902 54.4845 24.5439 53.4375 23.4419L50.5376 26.197ZM46.5625 22.013L50.5376 26.197L53.4375 23.4419L49.4623 19.2579L46.5625 22.013ZM50.5364 15.0752L46.5625 19.2579L49.4623 22.013L53.4363 17.8304L50.5364 15.0752Z" fill="white" mask="url(#path-3-outside-1_5410_6138)"/>
<defs>
<linearGradient id="paint0_linear_5410_6138" x1="25.9551" y1="21.4849" x2="67.7994" y2="21.4849" gradientUnits="userSpaceOnUse">
<stop stop-color="#2095D9"/>
<stop offset="1" stop-color="#5C35EE"/>
</linearGradient>
</defs>
</svg>
