<svg width="94" height="70" viewBox="0 0 94 70" fill="none" xmlns="http://www.w3.org/2000/svg">
<path fill-rule="evenodd" clip-rule="evenodd" d="M21.9987 70C9.84926 70 0 60.602 0 49.0092C0 37.4164 9.84926 28.0184 21.9987 28.0184C27.8423 28.0184 32.9287 30.8059 37.3008 34.3018C40.6503 36.9801 43.863 40.3092 46.9306 43.6594C49.9982 40.3092 53.2109 36.9801 56.5604 34.3018C60.9326 30.8059 66.0189 28.0184 71.8625 28.0184C84.012 28.0184 93.8613 37.4164 93.8613 49.0092C93.8613 60.602 84.012 70 71.8625 70C66.0189 70 60.9326 67.2126 56.5604 63.7167C53.2109 61.0384 49.9983 57.7093 46.9306 54.3591C43.863 57.7093 40.6503 61.0384 37.3008 63.7167C32.9287 67.2126 27.8423 70 21.9987 70ZM7.33291 49.0092C7.33291 41.2807 13.8991 35.0154 21.9987 35.0154C25.3213 35.0154 28.7594 36.601 32.591 39.6647C35.7525 42.1926 38.8545 45.4544 42.0882 49.0092C38.8545 52.5641 35.7525 55.8258 32.591 58.3538C28.7594 61.4174 25.3213 63.0031 21.9987 63.0031C13.8991 63.0031 7.33291 56.7377 7.33291 49.0092ZM51.7731 49.0092C55.0068 52.5641 58.1088 55.8258 61.2703 58.3538C65.1018 61.4174 68.54 63.0031 71.8625 63.0031C79.9622 63.0031 86.5284 56.7377 86.5284 49.0092C86.5284 41.2807 79.9622 35.0154 71.8625 35.0154C68.54 35.0154 65.1018 36.601 61.2703 39.6647C58.1088 42.1926 55.0068 45.4544 51.7731 49.0092Z" fill="#9BF00B"/>
<path d="M79.3196 32.4119C78.8269 25.0393 74.4197 14.8609 72.9689 11.5179C72.7499 11.0104 72.5857 10.6672 72.5446 10.5477L72.4077 10.115C71.0527 5.99585 68.2196 2.69755 64.6473 1.0857C61.2393 -0.436522 57.5575 -0.346979 54.2453 1.33948C51.0426 2.98111 47.8535 3.3095 47.8535 3.3095L45.2668 3.32434C45.2394 3.32434 41.9956 3.01099 38.7518 1.33948C35.4533 -0.346979 31.7579 -0.45146 28.3635 1.0857C24.7912 2.69755 21.9581 5.99585 20.5894 10.115L20.4662 10.5179C20.4114 10.6672 20.2609 11.0104 20.0419 11.5179C18.5911 14.8609 14.1702 25.0393 13.6912 32.4119C13.2669 38.8144 16.3875 44.4557 21.6296 46.7839C26.5295 48.9629 31.7442 47.5153 35.2617 42.9633L35.4396 42.7246C35.4944 42.6649 40.5995 36.3369 45.2531 35.531H47.7441C52.3976 36.3369 57.5164 42.6649 57.5438 42.6947L57.7902 43.0231C60.1991 46.1273 63.4292 47.7839 66.8099 47.7839C68.3154 47.7839 69.862 47.4555 71.3676 46.7839C76.6096 44.4557 79.7302 38.8144 79.3196 32.4119Z" fill="url(#paint0_linear_5410_6158)"/>
<mask id="path-3-outside-1_5410_6158" maskUnits="userSpaceOnUse" x="22.8217" y="9.65155" width="19.799" height="19.799" fill="black">
<rect fill="white" x="22.8217" y="9.65155" width="19.799" height="19.799"/>
<path fill-rule="evenodd" clip-rule="evenodd" d="M38.3218 19.7858C38.7104 19.7843 39.0266 19.4681 39.0281 19.0795C39.0296 18.6909 38.7158 18.3771 38.3272 18.3786L33.401 18.3978L33.4202 13.473C33.4217 13.0844 33.1079 12.7706 32.7193 12.7721C32.3307 12.7737 32.0145 13.0899 32.013 13.4785L31.9938 18.4032L27.0695 18.4224C26.6809 18.4239 26.3647 18.7401 26.3632 19.1287C26.3617 19.5173 26.6755 19.8311 27.064 19.8296L31.9884 19.8105L31.9692 24.7362C31.9677 25.1248 32.2815 25.4386 32.6701 25.4371C33.0587 25.4356 33.3749 25.1193 33.3764 24.7307L33.3956 19.805L38.3218 19.7858Z"/>
</mask>
<path fill-rule="evenodd" clip-rule="evenodd" d="M38.3218 19.7858C38.7104 19.7843 39.0266 19.4681 39.0281 19.0795C39.0296 18.6909 38.7158 18.3771 38.3272 18.3786L33.401 18.3978L33.4202 13.473C33.4217 13.0844 33.1079 12.7706 32.7193 12.7721C32.3307 12.7737 32.0145 13.0899 32.013 13.4785L31.9938 18.4032L27.0695 18.4224C26.6809 18.4239 26.3647 18.7401 26.3632 19.1287C26.3617 19.5173 26.6755 19.8311 27.064 19.8296L31.9884 19.8105L31.9692 24.7362C31.9677 25.1248 32.2815 25.4386 32.6701 25.4371C33.0587 25.4356 33.3749 25.1193 33.3764 24.7307L33.3956 19.805L38.3218 19.7858Z" fill="white"/>
<path d="M39.0281 19.0795L37.0281 19.0717L39.0281 19.0795ZM38.3218 19.7858L38.3295 21.7858L38.3295 21.7858L38.3218 19.7858ZM38.3272 18.3786L38.335 20.3786L38.335 20.3786L38.3272 18.3786ZM33.401 18.3978L31.4011 18.39L31.3932 20.4056L33.4088 20.3978L33.401 18.3978ZM33.4202 13.473L31.4202 13.4652L31.4202 13.4652L33.4202 13.473ZM32.013 13.4785L30.013 13.4707L30.013 13.4707L32.013 13.4785ZM31.9938 18.4032L32.0016 20.4032L33.9861 20.3955L33.9938 18.411L31.9938 18.4032ZM27.0695 18.4224L27.0773 20.4224L27.0773 20.4224L27.0695 18.4224ZM26.3632 19.1287L28.3632 19.1365V19.1365L26.3632 19.1287ZM27.064 19.8296L27.0563 17.8296L27.0563 17.8296L27.064 19.8296ZM31.9884 19.8105L33.9883 19.8182L33.9962 17.8026L31.9806 17.8105L31.9884 19.8105ZM31.9692 24.7362L29.9692 24.7284L29.9692 24.7284L31.9692 24.7362ZM32.6701 25.4371L32.6623 23.4371L32.6623 23.4371L32.6701 25.4371ZM33.3764 24.7307L31.3764 24.723L31.3764 24.723L33.3764 24.7307ZM33.3956 19.805L33.3878 17.805L31.4033 17.8127L31.3956 19.7972L33.3956 19.805ZM37.0281 19.0717C37.0309 18.3618 37.6041 17.7886 38.314 17.7858L38.3295 21.7858C39.8166 21.78 41.0223 20.5743 41.0281 19.0873L37.0281 19.0717ZM38.335 20.3786C37.613 20.3814 37.0253 19.7937 37.0281 19.0717L41.0281 19.0873C41.0339 17.588 39.8187 16.3728 38.3195 16.3786L38.335 20.3786ZM33.4088 20.3978L38.335 20.3786L38.3195 16.3786L33.3933 16.3978L33.4088 20.3978ZM31.4202 13.4652L31.4011 18.39L35.401 18.4055L35.4202 13.4808L31.4202 13.4652ZM32.7271 14.7721C32.0051 14.7749 31.4174 14.1873 31.4202 13.4652L35.4202 13.4808C35.426 11.9816 34.2108 10.7663 32.7116 10.7722L32.7271 14.7721ZM34.013 13.4863C34.0102 14.1962 33.437 14.7694 32.7271 14.7721L32.7116 10.7722C31.2245 10.7779 30.0188 11.9836 30.013 13.4707L34.013 13.4863ZM33.9938 18.411L34.013 13.4863L30.013 13.4707L29.9938 18.3955L33.9938 18.411ZM27.0773 20.4224L32.0016 20.4032L31.9861 16.4033L27.0617 16.4224L27.0773 20.4224ZM28.3632 19.1365C28.3604 19.8464 27.7872 20.4196 27.0773 20.4224L27.0617 16.4224C25.5747 16.4282 24.369 17.6339 24.3632 19.121L28.3632 19.1365ZM27.0563 17.8296C27.7783 17.8268 28.366 18.4145 28.3632 19.1365L24.3632 19.121C24.3574 20.6202 25.5726 21.8354 27.0718 21.8296L27.0563 17.8296ZM31.9806 17.8105L27.0563 17.8296L27.0718 21.8296L31.9961 21.8104L31.9806 17.8105ZM33.9692 24.744L33.9883 19.8182L29.9884 19.8027L29.9692 24.7284L33.9692 24.744ZM32.6623 23.4371C33.3843 23.4343 33.972 24.0219 33.9692 24.744L29.9692 24.7284C29.9634 26.2277 31.1786 27.4429 32.6779 27.4371L32.6623 23.4371ZM31.3764 24.723C31.3792 24.0131 31.9524 23.4399 32.6623 23.4371L32.6778 27.4371C34.1649 27.4313 35.3706 26.2256 35.3764 24.7385L31.3764 24.723ZM31.3956 19.7972L31.3764 24.723L35.3764 24.7385L35.3956 19.8128L31.3956 19.7972ZM38.314 17.7858L33.3878 17.805L33.4034 21.805L38.3295 21.7858L38.314 17.7858Z" fill="white" mask="url(#path-3-outside-1_5410_6158)"/>
<path d="M61.1848 14.1686C61.0804 12.8942 59.9909 11.8918 58.6623 11.8918C57.3337 11.8918 56.2442 12.8942 56.1398 14.1686C56.1344 14.2348 56.1316 14.3018 56.1316 14.3693C56.1316 14.4028 56.1323 14.4361 56.1337 14.4692C56.1859 15.7581 57.2438 16.7938 58.5604 16.8448C58.5942 16.8461 58.6282 16.8468 58.6623 16.8468C58.6965 16.8468 58.7305 16.8461 58.7643 16.8448C60.0808 16.7938 61.1388 15.7581 61.191 14.4692C61.1923 14.4361 61.193 14.4028 61.193 14.3693C61.193 14.3018 61.1902 14.2348 61.1848 14.1686Z" fill="white"/>
<path d="M56.1296 19.2245C56.0775 17.9355 55.0195 16.8999 53.703 16.8488C53.6691 16.8475 53.6351 16.8468 53.601 16.8468C53.532 16.8468 53.4636 16.8495 53.396 16.8548C52.0942 16.957 51.0703 18.0235 51.0703 19.3243C51.0703 20.6251 52.0942 21.6916 53.396 21.7938C53.4636 21.7991 53.532 21.8018 53.601 21.8018C53.6351 21.8018 53.6691 21.8011 53.703 21.7998C55.0195 21.7487 56.0775 20.7131 56.1296 19.4241C56.131 19.391 56.1316 19.3577 56.1316 19.3243C56.1316 19.2909 56.131 19.2576 56.1296 19.2245Z" fill="white"/>
<path d="M56.1398 24.48C56.2442 25.7544 57.3337 26.7568 58.6623 26.7568C59.9909 26.7568 61.0804 25.7544 61.1848 24.48C61.1902 24.4138 61.193 24.3468 61.193 24.2793C61.193 24.2458 61.1923 24.2126 61.191 24.1794C61.1388 22.8905 60.0808 21.8548 58.7643 21.8038C58.7305 21.8025 58.6965 21.8018 58.6623 21.8018C58.6282 21.8018 58.5942 21.8025 58.5604 21.8038C57.2438 21.8548 56.1859 22.8905 56.1337 24.1794C56.1323 24.2126 56.1316 24.2458 56.1316 24.2793C56.1316 24.3468 56.1344 24.4138 56.1398 24.48Z" fill="white"/>
<path d="M61.195 19.4241C61.2472 20.7131 62.3052 21.7487 63.6217 21.7998C63.6555 21.8011 63.6895 21.8018 63.7237 21.8018C63.7927 21.8018 63.8611 21.7991 63.9287 21.7938C65.2304 21.6916 66.2543 20.6251 66.2543 19.3243C66.2543 18.0235 65.2304 16.957 63.9287 16.8548C63.8611 16.8495 63.7927 16.8468 63.7237 16.8468C63.6895 16.8468 63.6555 16.8475 63.6217 16.8488C62.3052 16.8999 61.2472 17.9355 61.195 19.2245C61.1937 19.2576 61.193 19.2909 61.193 19.3243C61.193 19.3577 61.1937 19.391 61.195 19.4241Z" fill="white"/>
<defs>
<linearGradient id="paint0_linear_5410_6158" x1="13.6528" y1="24.5346" x2="79.3557" y2="24.5346" gradientUnits="userSpaceOnUse">
<stop stop-color="#00A3FF"/>
<stop offset="1" stop-color="#6028FF"/>
</linearGradient>
</defs>
</svg>
