<svg width="93" height="70" viewBox="0 0 93 70" fill="none" xmlns="http://www.w3.org/2000/svg">
<rect width="63.9471" height="14.2516" rx="5" fill="url(#paint0_linear_5410_6109)"/>
<path d="M2.31152 5.39844C2.31152 3.74158 3.65467 2.39844 5.31152 2.39844H8.04576C9.70262 2.39844 11.0458 3.74158 11.0458 5.39844V8.46765C11.0458 10.1245 9.70262 11.4676 8.04576 11.4676H5.31152C3.65467 11.4676 2.31152 10.1245 2.31152 8.46765V5.39844Z" fill="url(#paint1_linear_5410_6109)"/>
<ellipse cx="55.8042" cy="7.33027" rx="1.62944" ry="1.69147" fill="white"/>
<ellipse cx="49.8287" cy="7.33027" rx="1.62944" ry="1.69147" fill="white"/>
<ellipse cx="43.8531" cy="7.33027" rx="1.62944" ry="1.69147" fill="white"/>
<rect y="15.5469" width="63.9471" height="14.2516" rx="5" fill="url(#paint2_linear_5410_6109)"/>
<rect x="2.31152" y="17.947" width="8.73424" height="9.06921" rx="3" fill="url(#paint3_linear_5410_6109)"/>
<ellipse cx="55.8012" cy="22.5523" rx="1.62933" ry="1.69136" fill="white"/>
<ellipse cx="49.8286" cy="22.5523" rx="1.62933" ry="1.69136" fill="white"/>
<ellipse cx="43.853" cy="22.5523" rx="1.62933" ry="1.69136" fill="white"/>
<rect y="31.094" width="63.9471" height="14.2516" rx="5" fill="url(#paint4_linear_5410_6109)"/>
<rect x="2.31152" y="33.4926" width="8.73424" height="9.06921" rx="3" fill="url(#paint5_linear_5410_6109)"/>
<rect y="46.6426" width="63.9471" height="14.2516" rx="5" fill="url(#paint6_linear_5410_6109)"/>
<rect x="2.31152" y="49.0411" width="8.73424" height="9.06921" rx="3" fill="url(#paint7_linear_5410_6109)"/>
<rect x="33.6729" y="29.6964" width="52.6854" height="34.9572" rx="5" fill="#9BF00B"/>
<path fill-rule="evenodd" clip-rule="evenodd" d="M67.9452 44.0665C68.3603 44.9726 69.6214 47.7315 69.7624 49.7298C69.8799 51.4652 68.987 52.9943 67.4869 53.6254C67.0561 53.8074 66.6135 53.8964 66.1827 53.8964C65.2153 53.8964 64.291 53.4474 63.6017 52.606L63.5312 52.517C63.531 52.5168 63.5298 52.5154 63.5277 52.513C63.4477 52.4213 62.0242 50.7881 60.727 50.5753H60.0142C58.7291 50.7861 57.3236 52.3909 57.2129 52.5173C57.2089 52.5219 57.2066 52.5245 57.206 52.5251L57.1551 52.5898C56.1486 53.8236 54.6564 54.216 53.2543 53.6254C51.7542 52.9943 50.8613 51.4652 50.9827 49.7298C51.1196 47.7342 52.3814 44.9801 52.7982 44.0702L52.7999 44.0665C52.8112 44.0418 52.8218 44.0186 52.8317 43.9969C52.8772 43.8973 52.9085 43.8287 52.9214 43.7955L52.9566 43.6863C53.3482 42.5698 54.159 41.6758 55.1812 41.2389C56.1525 40.8222 57.2099 40.8505 58.1538 41.3076C59.0821 41.7607 60.0103 41.8456 60.0181 41.8456L60.7583 41.8416C60.7583 41.8416 61.6709 41.7526 62.5874 41.3076C63.5351 40.8505 64.5887 40.8263 65.5639 41.2389C66.5861 41.6758 67.3968 42.5698 67.7846 43.6863L67.8238 43.8036C67.8302 43.8213 67.8472 43.8573 67.8716 43.9088C67.8917 43.9513 67.9168 44.0043 67.9452 44.0665ZM58.1396 45.6797C58.159 45.6797 58.1783 45.6805 58.1974 45.6819C58.5723 45.7101 58.8674 46.0101 58.8674 46.3761C58.8674 46.742 58.5723 47.042 58.1974 47.0702C58.1783 47.0717 58.159 47.0724 58.1396 47.0724C58.1299 47.0724 58.1204 47.0726 58.1108 47.0729C57.7317 47.087 57.4271 47.3785 57.4123 47.7412C57.412 47.7504 57.4118 47.7595 57.4118 47.7687C57.4118 47.7874 57.411 47.8058 57.4095 47.8241C57.38 48.1828 57.0665 48.4651 56.684 48.4651C56.3015 48.4651 55.988 48.1828 55.9585 47.8241C55.957 47.8058 55.9562 47.7874 55.9562 47.7687C55.9562 47.7595 55.956 47.7504 55.9557 47.7412C55.9409 47.3785 55.6363 47.087 55.2572 47.0729C55.2476 47.0726 55.2381 47.0724 55.2284 47.0724C55.209 47.0724 55.1897 47.0717 55.1706 47.0702C54.7957 47.042 54.5006 46.742 54.5006 46.3761C54.5006 46.0101 54.7957 45.7101 55.1706 45.6819C55.1897 45.6805 55.209 45.6797 55.2284 45.6797C55.2381 45.6797 55.2476 45.6795 55.2572 45.6792C55.6363 45.6651 55.9409 45.3736 55.9557 45.0109C55.956 45.0018 55.9562 44.9926 55.9562 44.9834C55.9562 44.9648 55.957 44.9463 55.9585 44.9281C55.988 44.5693 56.3015 44.287 56.684 44.287C57.0665 44.287 57.38 44.5693 57.4095 44.9281C57.411 44.9463 57.4118 44.9648 57.4118 44.9834C57.4118 44.9926 57.412 45.0018 57.4123 45.0109C57.4271 45.3736 57.7317 45.6651 58.1108 45.6792C58.1204 45.6795 58.1299 45.6797 58.1396 45.6797ZM64.9519 44.927C64.9219 44.5688 64.6086 44.287 64.2265 44.287C63.8444 44.287 63.5311 44.5688 63.5011 44.927C63.4995 44.9456 63.4987 44.9644 63.4987 44.9834C63.4987 44.9928 63.4989 45.0021 63.4993 45.0114C63.5143 45.3737 63.8186 45.6648 64.1972 45.6792C64.2069 45.6795 64.2167 45.6797 64.2265 45.6797C64.2363 45.6797 64.2461 45.6795 64.2558 45.6792C64.6344 45.6648 64.9387 45.3737 64.9537 45.0114C64.9541 45.0021 64.9543 44.9928 64.9543 44.9834C64.9543 44.9644 64.9535 44.9456 64.9519 44.927ZM63.4981 46.348C63.4831 45.9857 63.1789 45.6946 62.8003 45.6803C62.7905 45.6799 62.7807 45.6797 62.7709 45.6797C62.7511 45.6797 62.7314 45.6805 62.712 45.682C62.3376 45.7107 62.0431 46.0105 62.0431 46.3761C62.0431 46.7417 62.3376 47.0414 62.712 47.0701C62.7314 47.0716 62.7511 47.0724 62.7709 47.0724C62.7807 47.0724 62.7905 47.0722 62.8003 47.0718C63.1789 47.0575 63.4831 46.7664 63.4981 46.4041C63.4985 46.3948 63.4987 46.3855 63.4987 46.3761C63.4987 46.3667 63.4985 46.3573 63.4981 46.348ZM64.2265 48.4651C63.8444 48.4651 63.5311 48.1834 63.5011 47.8251C63.4995 47.8065 63.4987 47.7877 63.4987 47.7687C63.4987 47.7593 63.4989 47.75 63.4993 47.7407C63.5143 47.3784 63.8186 47.0873 64.1972 47.073C64.2069 47.0726 64.2167 47.0724 64.2265 47.0724C64.2363 47.0724 64.2461 47.0726 64.2558 47.073C64.6344 47.0873 64.9387 47.3784 64.9537 47.7407C64.9541 47.75 64.9543 47.7593 64.9543 47.7687C64.9543 47.7877 64.9535 47.8065 64.9519 47.8251C64.9219 48.1834 64.6086 48.4651 64.2265 48.4651ZM64.9549 46.4041C64.9699 46.7664 65.2741 47.0575 65.6527 47.0718C65.6625 47.0722 65.6722 47.0724 65.6821 47.0724C65.7019 47.0724 65.7216 47.0716 65.741 47.0701C66.1154 47.0414 66.4098 46.7417 66.4098 46.3761C66.4098 46.0105 66.1154 45.7107 65.741 45.682C65.7216 45.6805 65.7019 45.6797 65.6821 45.6797C65.6722 45.6797 65.6625 45.6799 65.6527 45.6803C65.2741 45.6946 64.9699 45.9857 64.9549 46.348C64.9545 46.3573 64.9543 46.3667 64.9543 46.3761C64.9543 46.3855 64.9545 46.3948 64.9549 46.4041Z" fill="#060912"/>
<rect x="27.1562" y="66.6171" width="65.1777" height="3.38296" rx="1.69148" fill="#9BF00B"/>
<defs>
<linearGradient id="paint0_linear_5410_6109" x1="0" y1="7.31748" x2="63.9471" y2="7.31748" gradientUnits="userSpaceOnUse">
<stop stop-color="#00A3FF"/>
<stop offset="1" stop-color="#6028FF"/>
</linearGradient>
<linearGradient id="paint1_linear_5410_6109" x1="1.77798" y1="8.50251" x2="10.3739" y2="8.50251" gradientUnits="userSpaceOnUse">
<stop stop-color="#0B0029"/>
<stop offset="1" stop-color="#180153"/>
</linearGradient>
<linearGradient id="paint2_linear_5410_6109" x1="0" y1="22.8644" x2="63.9471" y2="22.8644" gradientUnits="userSpaceOnUse">
<stop stop-color="#00A3FF"/>
<stop offset="1" stop-color="#6028FF"/>
</linearGradient>
<linearGradient id="paint3_linear_5410_6109" x1="1.77798" y1="24.0511" x2="10.3739" y2="24.0511" gradientUnits="userSpaceOnUse">
<stop stop-color="#0B0029"/>
<stop offset="1" stop-color="#180153"/>
</linearGradient>
<linearGradient id="paint4_linear_5410_6109" x1="0" y1="38.4115" x2="63.9471" y2="38.4115" gradientUnits="userSpaceOnUse">
<stop stop-color="#00A3FF"/>
<stop offset="1" stop-color="#6028FF"/>
</linearGradient>
<linearGradient id="paint5_linear_5410_6109" x1="1.77798" y1="39.5966" x2="10.3739" y2="39.5966" gradientUnits="userSpaceOnUse">
<stop stop-color="#0B0029"/>
<stop offset="1" stop-color="#180153"/>
</linearGradient>
<linearGradient id="paint6_linear_5410_6109" x1="0" y1="53.9601" x2="63.9471" y2="53.9601" gradientUnits="userSpaceOnUse">
<stop stop-color="#00A3FF"/>
<stop offset="1" stop-color="#6028FF"/>
</linearGradient>
<linearGradient id="paint7_linear_5410_6109" x1="1.77798" y1="55.1452" x2="10.3739" y2="55.1452" gradientUnits="userSpaceOnUse">
<stop stop-color="#0B0029"/>
<stop offset="1" stop-color="#180153"/>
</linearGradient>
</defs>
</svg>
